<?xml version="1.0" encoding="utf-8"?>
<!-- Generator: Adobe Illustrator 27.5.0, SVG Export Plug-In . SVG Version: 6.00 Build 0)  -->
<svg version="1.1" id="Layer_1" xmlns="http://www.w3.org/2000/svg" xmlns:xlink="http://www.w3.org/1999/xlink" x="0px" y="0px"
	 viewBox="0 0 1350 900" style="enable-background:new 0 0 1350 900;" xml:space="preserve">
<rect style="fill:#FFFFFF;" width="1350" height="900"/>
<g>
	<g>
		<path style="fill:#B6D6D4;" d="M1187.668,601.865c0,50.92-7.657,100.09-21.897,146.464c-0.445,1.447-0.9,2.894-1.355,4.335
			c-9.445,29.771-21.61,58.371-36.214,85.519H210.188c-14.604-27.148-26.763-55.748-36.208-85.519
			c-0.461-1.442-0.911-2.888-1.355-4.335c-14.241-46.374-21.897-95.543-21.897-146.464c0-9.039,0.238-18.017,0.715-26.936
			c0.081-1.447,0.162-2.894,0.255-4.335c3.805-61.384,18.743-119.82,42.868-173.401c0.656-1.447,1.312-2.894,1.978-4.335
			c30.817-66.737,75.939-125.791,131.535-173.4c1.702-1.458,3.409-2.904,5.132-4.335c90.494-75.483,207.804-121.039,335.985-121.039
			c7.913,0,15.781,0.174,23.604,0.515c1.447,0.065,2.889,0.136,4.335,0.211c117.258,6.096,224.175,50.351,308.052,120.313
			c1.724,1.431,3.43,2.877,5.132,4.335c55.597,47.609,100.719,106.663,131.535,173.4c0.667,1.442,1.323,2.888,1.978,4.335
			c24.12,53.581,39.065,112.017,42.868,173.401c0.092,1.442,0.174,2.888,0.255,4.335
			C1187.43,583.848,1187.668,592.826,1187.668,601.865z"/>
		<g>
			<g>
				<g>
					<path style="fill:#9EC6C2;" d="M1009.426,219.457H327.187c1.702-1.458,3.409-2.904,5.132-4.335h671.975
						C1006.018,216.553,1007.725,218,1009.426,219.457z"/>
				</g>
				<g>
					<rect x="893.486" y="217.29" style="fill:#9EC6C2;" width="4.334" height="179.903"/>
				</g>
				<g>
					<rect x="530.428" y="215.122" style="fill:#9EC6C2;" width="4.335" height="179.903"/>
				</g>
				<g>
					<path style="fill:#9EC6C2;" d="M696.243,94.809V217.29h-4.335V94.598C693.355,94.663,694.797,94.734,696.243,94.809z"/>
				</g>
				<g>
					<rect x="223.726" y="392.858" style="fill:#9EC6C2;" width="4.335" height="179.903"/>
				</g>
				<g>
					<rect x="674.568" y="393.941" style="fill:#9EC6C2;" width="4.335" height="179.903"/>
				</g>
				<g>
					<rect x="1079.891" y="393.941" style="fill:#9EC6C2;" width="4.335" height="179.903"/>
				</g>
				<g>
					<rect x="920.58" y="571.677" style="fill:#9EC6C2;" width="4.335" height="179.903"/>
				</g>
				<g>
					<rect x="535.847" y="571.677" style="fill:#9EC6C2;" width="4.335" height="179.903"/>
				</g>
				<g>
					<path style="fill:#9EC6C2;" d="M1142.938,397.193H193.674c0.656-1.447,1.312-2.894,1.978-4.335h945.309
						C1141.628,394.299,1142.283,395.746,1142.938,397.193z"/>
				</g>
				<g>
					<path style="fill:#9EC6C2;" d="M1186.062,574.929H150.552c0.081-1.447,0.162-2.894,0.255-4.335h1035.001
						C1185.899,572.035,1185.98,573.482,1186.062,574.929z"/>
				</g>
				<g>
					<path style="fill:#9EC6C2;" d="M1164.88,748.329c-0.444,1.447-0.9,2.894-1.354,4.335H173.088
						c-0.46-1.442-0.91-2.888-1.355-4.335H1164.88z"/>
				</g>
			</g>
		</g>
	</g>
	<path style="fill:#7F7C74;" d="M1297.492,842.25c0,10.772-278.699,19.504-622.491,19.504c-343.793,0-622.492-8.732-622.492-19.504
		c0-10.772,278.699-19.504,622.492-19.504C1018.792,822.746,1297.492,831.478,1297.492,842.25z"/>
	<g>
		<g>
			<g>
				<g>
					<rect x="782.02" y="283.871" style="fill:#B9C6C6;" width="271.091" height="16.049"/>
					<rect x="979.985" y="283.871" style="fill:#B9C6C6;" width="73.127" height="16.049"/>
				</g>
				<g>
					<rect x="782.02" y="390.879" style="fill:#B9C6C6;" width="271.091" height="16.05"/>
					<rect x="979.985" y="390.879" style="fill:#B9C6C6;" width="73.127" height="16.05"/>
				</g>
				<g>
					<path style="fill:#14A7D2;" d="M972.47,251.843v29.537c0,0.638-0.248,1.215-0.648,1.621c-0.379,0.383-0.888,0.618-1.45,0.618
						h-25.539c-1.16,0-2.099-1.001-2.099-2.24v-29.537c0-1.237,0.94-2.239,2.099-2.239h25.539
						C971.531,249.604,972.47,250.606,972.47,251.843z"/>
					<rect x="942.734" y="263.142" style="fill:#C3E1E1;" width="29.736" height="10.582"/>
					<path style="opacity:0.7;fill:#14A7D2;" d="M972.47,251.843v29.537c0,0.638-0.248,1.215-0.648,1.621
						c-0.379,0.382-0.888,0.618-1.45,0.618h-7.912c1.161,0,2.098-1.002,2.098-2.24v-29.537c0-1.237-0.938-2.239-2.098-2.239h7.912
						C971.531,249.604,972.47,250.606,972.47,251.843z"/>
					<g>
						<g>
							<g>
								<path style="fill:#AAC1C0;" d="M972.055,241.474h-3.087c0.693,0.592,1.094,1.52,1.094,2.52v7.437
									c0,1.237-0.629,2.249-1.621,2.919h3.614c1.714,0,3.105-1.404,3.105-3.12v-6.646
									C975.161,242.866,973.77,241.474,972.055,241.474z"/>
								<path style="fill:#C3E1E1;" d="M970.062,251.431v-7.437c0-1.001-0.401-1.928-1.094-2.52h-26.093
									c-1.717,0-3.13,1.393-3.13,3.11v6.646c0,1.716,1.414,3.12,3.13,3.12h25.566C969.433,253.68,970.062,252.668,970.062,251.431
									z"/>
							</g>
							<path style="fill:#E2F7F6;" d="M946.318,249.823c0,1.119-0.904,2.024-2.023,2.024h-0.067c-1.119,0-2.024-0.904-2.024-2.024
								v-3.732c0-1.119,0.904-2.025,2.024-2.025h0.067c1.118,0,2.023,0.906,2.023,2.025V249.823z"/>
						</g>
					</g>
				</g>
				<g>
					<g>
						<g>
							<g>
								<path style="fill:#F4952F;" d="M993.367,356.73c0-1.327-1.071-2.396-2.398-2.396h-0.967v11.684h0.01l-0.009,17.954h-0.001
									v3.889c0,0.925-0.445,1.747-1.134,2.258h2.102c1.327,0,2.398-1.076,2.398-2.404v-3.744h-0.014l0.011-0.005v-17.941
									l-0.015-0.009h0.018V356.73z"/>
								<path style="fill:#FCC97A;" d="M972.977,354.334c-1.327,0-2.428,1.07-2.428,2.396v9.288v17.954v3.744
									c0,1.329,1.1,2.404,2.428,2.404h15.89c0.689-0.511,1.134-1.333,1.134-2.258v-33.528H972.977z"/>
								<rect x="970.549" y="368.808" style="opacity:0.5;fill:#FFFFFF;" width="17.145" height="10.257"/>
								<g>
									<g>
										<path style="fill:#224799;" d="M993.247,349.746h-2.388c0.534,0.459,0.846,1.176,0.846,1.948v5.749
											c0,0.954-0.489,1.738-1.254,2.257h2.795c1.326,0,2.399-1.087,2.399-2.414v-5.138
											C995.646,350.823,994.573,349.746,993.247,349.746z"/>
										<path style="fill:#4866D3;" d="M991.706,357.444v-5.749c0-0.773-0.312-1.489-0.846-1.948h-20.171
											c-1.327,0-2.419,1.077-2.419,2.403v5.138c0,1.327,1.092,2.414,2.419,2.414h19.764
											C991.217,359.182,991.706,358.398,991.706,357.444z"/>
									</g>
									<path style="opacity:0.5;fill:#4866D3;" d="M973.349,356.201c0,0.864-0.699,1.564-1.562,1.564h-0.053
										c-0.863,0-1.564-0.7-1.564-1.564v-2.886c0-0.865,0.701-1.564,1.564-1.564h0.053c0.863,0,1.562,0.699,1.562,1.564V356.201z"
										/>
								</g>
								<path style="opacity:0.5;fill:#FCC97A;" d="M974.647,385.512c0,0.455-0.368,0.823-0.822,0.823l0,0
									c-0.453,0-0.821-0.368-0.821-0.823v-22.057c0-0.454,0.368-0.821,0.821-0.821l0,0c0.454,0,0.822,0.367,0.822,0.821V385.512z"
									/>
							</g>
							<g>
								<path style="fill:#7AA56D;" d="M956.854,355.426c0-1.381-1.113-2.492-2.491-2.492h-1.005v12.14h0.011l-0.011,18.657l0,0
									v4.04c0,0.962-0.464,1.817-1.179,2.348h2.184c1.378,0,2.491-1.118,2.491-2.498v-3.891h-0.014l0.011-0.005v-18.64
									l-0.016-0.012h0.018V355.426z"/>
								<path style="fill:#8BCC79;" d="M935.668,352.935c-1.379,0-2.523,1.111-2.523,2.492v9.648v18.657v3.891
									c0,1.379,1.144,2.498,2.523,2.498h16.511c0.715-0.531,1.179-1.387,1.179-2.348v-34.837H935.668z"/>
								<rect x="933.145" y="367.975" style="opacity:0.5;fill:#FFFFFF;" width="17.815" height="10.656"/>
								<g>
									<g>
										<path style="fill:#F4952F;" d="M956.729,348.168h-2.48c0.556,0.476,0.88,1.223,0.88,2.028v5.973
											c0,0.991-0.507,1.805-1.302,2.343h2.902c1.378,0,2.495-1.128,2.495-2.508v-5.337
											C959.223,349.289,958.107,348.168,956.729,348.168z"/>
										<path style="fill:#FCC97A;" d="M955.129,356.169v-5.973c0-0.805-0.324-1.551-0.88-2.028H933.29
											c-1.378,0-2.513,1.121-2.513,2.499v5.337c0,1.38,1.135,2.508,2.513,2.508h20.537
											C954.622,357.973,955.129,357.16,955.129,356.169z"/>
									</g>
									<path style="opacity:0.5;fill:#4866D3;" d="M936.055,354.876c0,0.898-0.727,1.625-1.625,1.625h-0.052
										c-0.898,0-1.626-0.728-1.626-1.625v-2.998c0-0.898,0.728-1.627,1.626-1.627h0.052c0.898,0,1.625,0.728,1.625,1.627V354.876
										z"/>
								</g>
								<path style="opacity:0.5;fill:#FCC97A;" d="M937.403,385.334c0,0.471-0.383,0.853-0.855,0.853l0,0
									c-0.47,0-0.853-0.382-0.853-0.853v-22.922c0-0.469,0.383-0.852,0.853-0.852l0,0c0.472,0,0.855,0.383,0.855,0.852V385.334z"
									/>
							</g>
						</g>
						<g>
							<path style="fill:#7AA56D;" d="M975.066,313.387c0-1.38-1.113-2.492-2.492-2.492h-1.004v12.141h0.01l-0.009,18.657h-0.002
								v4.04c0,0.962-0.465,1.817-1.18,2.348h2.184c1.379,0,2.492-1.118,2.492-2.498v-3.89h-0.014l0.012-0.005v-18.64l-0.017-0.012
								h0.019V313.387z"/>
							<path style="fill:#8BCC79;" d="M953.881,310.896c-1.38,0-2.524,1.112-2.524,2.492v9.649v18.657v3.89
								c0,1.38,1.143,2.498,2.524,2.498h16.509c0.715-0.531,1.18-1.387,1.18-2.348v-34.837H953.881z"/>
							<rect x="951.357" y="325.937" style="opacity:0.5;fill:#FFFFFF;" width="17.814" height="10.656"/>
							<g>
								<g>
									<path style="fill:#F4952F;" d="M974.941,306.129h-2.48c0.555,0.476,0.88,1.223,0.88,2.028v5.973
										c0,0.991-0.508,1.805-1.303,2.344h2.904c1.379,0,2.494-1.129,2.494-2.508v-5.337
										C977.435,307.25,976.32,306.129,974.941,306.129z"/>
									<path style="fill:#FCC97A;" d="M973.34,314.13v-5.973c0-0.805-0.325-1.551-0.88-2.028h-20.959
										c-1.378,0-2.512,1.121-2.512,2.499v5.337c0,1.379,1.134,2.508,2.512,2.508h20.536
										C972.832,315.935,973.34,315.121,973.34,314.13z"/>
								</g>
								<path style="opacity:0.5;fill:#4866D3;" d="M954.267,312.837c0,0.897-0.728,1.625-1.625,1.625h-0.053
									c-0.898,0-1.626-0.728-1.626-1.625v-2.998c0-0.898,0.729-1.627,1.626-1.627h0.053c0.898,0,1.625,0.729,1.625,1.627V312.837z
									"/>
							</g>
							<path style="opacity:0.5;fill:#FCC97A;" d="M955.615,343.295c0,0.471-0.383,0.852-0.855,0.852l0,0
								c-0.47,0-0.854-0.381-0.854-0.852v-22.922c0-0.469,0.384-0.852,0.854-0.852l0,0c0.472,0,0.855,0.383,0.855,0.852V343.295z"/>
						</g>
					</g>
					<g>
						<g>
							<g>
								<rect x="819.996" y="338.532" style="fill:#EDF9F8;" width="96.336" height="51.588"/>
								<rect x="819.996" y="340.072" style="fill:#ACBCBB;" width="96.336" height="21.848"/>
								<rect x="816.592" y="336.811" style="fill:#EDF9F8;" width="103.138" height="21.842"/>
							</g>
							<g>
								<rect x="830.763" y="365.87" style="fill:#ACBCBB;" width="3.021" height="21.585"/>
								<rect x="902.544" y="365.87" style="fill:#ACBCBB;" width="3.023" height="21.585"/>
								<rect x="836.807" y="365.87" style="fill:#ACBCBB;" width="3.024" height="21.585"/>
								<rect x="896.5" y="365.87" style="fill:#ACBCBB;" width="3.023" height="21.585"/>
							</g>
							<g>
								<path style="fill:#FFFFFF;" d="M860.657,348.038c0,4.149-3.363,7.512-7.512,7.512c-4.15,0-7.515-3.363-7.515-7.512
									c0-4.15,3.365-7.512,7.515-7.512C857.294,340.526,860.657,343.889,860.657,348.038z"/>
								<g>
									<rect x="851.268" y="342.587" style="fill:#8BCC79;" width="3.754" height="10.901"/>
									<rect x="847.694" y="346.161" style="fill:#8BCC79;" width="10.899" height="3.754"/>
								</g>
							</g>
						</g>
						<path style="fill:#ACBCBB;" d="M919.73,336.811v21.842h-3.398v31.467h-37.469v-53.053c0-0.087,0-0.169,0.007-0.256H919.73z"/>
					</g>
				</g>
				<g>
					<g>
						<g>
							<rect x="883.169" y="208.204" style="fill:#FFFFFF;" width="46.377" height="75.416"/>
							<g>
								<rect x="883.169" y="210.908" style="fill:#4866D3;" width="46.377" height="5.183"/>
								<rect x="883.169" y="275.732" style="fill:#4866D3;" width="46.377" height="5.183"/>
							</g>
						</g>
						<g>
							<polygon style="fill:#E56167;" points="883.172,222.597 883.172,269.227 908.427,269.227 921.889,245.913 908.427,222.597 
															"/>
							<g>
								<rect x="888.041" y="230.455" style="fill:#FFFFFF;" width="13.849" height="30.917"/>
								<rect x="883.172" y="238.988" style="fill:#FFFFFF;" width="27.252" height="13.848"/>
							</g>
						</g>
					</g>
					<rect x="915.774" y="208.204" style="fill:#616A84;" width="13.773" height="75.416"/>
				</g>
			</g>
			<g>
				<g>
					<path style="fill:#5CA07C;" d="M1044.688,498.535c0.611-8.819,7.959-15.815,16.93-15.815h43.921
						c8.972,0,16.322,6.996,16.935,15.815h4.008c-0.611-11.021-9.77-19.799-20.943-19.799h-43.921
						c-11.169,0-20.327,8.778-20.941,19.799H1044.688z"/>
					<g>
						<rect x="1011.35" y="495.387" style="fill:#5CA07C;" width="145.018" height="55.211"/>
						<rect x="1011.35" y="498.805" style="fill:#9DC6B0;" width="145.018" height="19.889"/>
						<rect x="1008.431" y="495.393" style="fill:#9DC6B0;" width="150.296" height="19.883"/>
					</g>
					<path style="opacity:0.7;fill:#359967;" d="M1158.727,495.393v19.883h-2.359v35.322h-48.012v-52.792
						c0-0.826,0.065-1.635,0.195-2.414v-0.006h47.817v0.006H1158.727z"/>
				</g>
				<g>
					<path style="fill:#2C7CDA;" d="M880.444,491.294l-28.774-0.002c-4.425,0-8.025-3.599-8.025-8.023l0.001-20.764
						c0.002-4.425,3.602-8.024,8.027-8.023l28.775,0.002c4.424,0.001,8.021,3.599,8.021,8.024l-0.001,20.764
						C888.468,487.696,884.868,491.294,880.444,491.294z M851.673,458.494c-2.213-0.001-4.013,1.801-4.013,4.012l-0.001,20.764
						c0,2.211,1.799,4.01,4.011,4.011l28.774,0.002c2.213,0,4.012-1.798,4.012-4.009l0.001-20.764c0-2.211-1.8-4.013-4.012-4.013
						L851.673,458.494z"/>
					<path style="fill:#E8E8E8;" d="M941.949,509.238l-3.879,15.188l-4.832,18.918c0,4.005-3.251,7.254-7.257,7.254l-87.694-0.008
						c-4.006,0,2.565-11.109,2.565-15.115l6.88-19.057l2.332-6.464l1.472-1.155l6.768-5.314l13.068-25.62l1.399-2.74
						c0-4.004,3.254-7.255,7.261-7.255l45.958,0.003c4.006,0,7.254,3.254,7.254,7.257l0.019,0.075L941.949,509.238z"/>
					<path style="fill:#FFFFFF;" d="M851.625,509.23l-1.562,7.309l-5.717,26.797c0,4.006-2.713,7.254-6.06,7.254l-38.401-0.003
						c-3.344,0-6.061-3.251-6.061-7.257l-5.264-27.758l-0.793-4.173l0.364-2.176l2.667-15.968l3.032-18.138
						c0-4.006,2.717-7.257,6.063-7.257l38.398,0.003c3.35,0.003,6.063,3.254,6.061,7.257l1.243,5.827l5.062,23.749l0.878,4.102
						L851.625,509.23z"/>
					<path style="opacity:0.2;fill:#0F1384;" d="M941.949,509.238l-3.879,15.188c-34.543-4.148-63.636-6.589-88.006-7.888
						c-0.781-0.041-1.558-0.082-2.332-0.12c-24.254-1.237-43.73-1.328-59.171-0.845l-0.793-4.173l0.364-2.176l2.667-15.968
						c18.031-5.092,36.23-9.526,54.796-12.308c1.657-0.25,3.315-0.483,4.977-0.705c6.953-0.924,13.881-1.717,20.8-2.379
						c18.793-1.802,37.53-2.653,56.571-2.656c1.772,0,3.548-0.003,5.32-0.005L941.949,509.238z"/>
					<g>
						<path style="fill:#2C7CDA;" d="M941.619,509.924l0.186-0.724l-8.705-34.107c0-4.004-3.251-7.256-7.256-7.256l-92.246,0.028
							c-4.006-0.001,2.189,6.82,2.189,10.826l9.711,31.264l20.159-0.036L941.619,509.924z"/>
						<path style="fill:#66BAFF;" d="M851.229,509.954l0.154-0.725l-0.966-4.533l-6.306-29.574c0-4.005-2.713-7.257-6.061-7.257
							l-38.396-0.003c-3.349-0.001-6.063,3.251-6.064,7.255l-5.702,34.106l-0.121,0.726L851.229,509.954z"/>
					</g>
					<path style="fill:#2C7CDA;" d="M833.138,508.545c0,11.176-6.318,20.237-14.111,20.237c-7.792,0-14.11-9.06-14.11-20.237
						c0-11.177,6.318-20.238,14.11-20.238C826.82,488.307,833.138,497.368,833.138,508.545z"/>
				</g>
				<g>
					<g>
						<rect x="652.184" y="561.884" style="fill:#A9B5B5;" width="567.61" height="268.054"/>
						<rect x="1040.277" y="561.884" style="fill:#B9C6C6;" width="179.517" height="268.054"/>
						<g>
							<path style="fill:#B9C6C6;" d="M635.036,558.903c0,5.164,3.07,9.351,6.86,9.351h584.758c3.789,0,6.859-4.187,6.859-9.351
								c0-2.582-0.767-4.92-2.006-6.613c-1.243-1.689-2.958-2.738-4.853-2.738H641.896
								C638.106,549.552,635.036,553.739,635.036,558.903z"/>
							<path style="fill:#DFEDED;" d="M645.396,558.902c0,1.722,1.152,3.117,2.572,3.117h535.082c1.421,0,2.573-1.395,2.573-3.117
								l0,0c0-1.721-1.152-3.117-2.573-3.117H647.968C646.547,555.784,645.396,557.18,645.396,558.902L645.396,558.902z"/>
							<path style="fill:#B9C6C6;" d="M1022.198,558.903c0,1.091,0.137,2.14,0.391,3.117c0.943,3.632,3.48,6.234,6.468,6.234
								h197.597c3.789,0,6.859-4.187,6.859-9.351c0-2.582-0.767-4.92-2.006-6.613c-1.243-1.689-2.958-2.738-4.853-2.738h-197.597
								c-2.987,0-5.525,2.603-6.468,6.234C1022.335,556.763,1022.198,557.812,1022.198,558.903z"/>
						</g>
					</g>
					<g>
						<path style="fill:#B9C6C6;" d="M826.293,793.348c0,6.566-4.57,11.888-10.208,11.888H684.905
							c-5.637,0-10.207-5.323-10.207-11.888V608.458c0-6.566,4.571-11.889,10.207-11.889h131.181
							c5.638,0,10.208,5.322,10.208,11.889V793.348z"/>
						<path style="fill:#B9C6C6;" d="M1024.259,793.348c0,6.566-5.591,11.888-12.489,11.888H851.266
							c-6.897,0-12.489-5.323-12.489-11.888V608.458c0-6.566,5.592-11.889,12.489-11.889h160.504
							c6.897,0,12.489,5.322,12.489,11.889V793.348z"/>
						<path style="fill:#B9C6C6;" d="M710.367,695.998c0,5.417-4.391,9.809-9.809,9.809l0,0c-5.418,0-9.809-4.392-9.809-9.809l0,0
							c0-5.417,4.392-9.809,9.809-9.809l0,0C705.976,686.189,710.367,690.581,710.367,695.998L710.367,695.998z"/>
						<path style="fill:#B9C6C6;" d="M878.905,695.998c0,5.417-4.392,9.809-9.809,9.809l0,0c-5.418,0-9.809-4.392-9.809-9.809l0,0
							c0-5.417,4.391-9.809,9.809-9.809l0,0C874.513,686.189,878.905,690.581,878.905,695.998L878.905,695.998z"/>
					</g>
				</g>
				<g>
					<path style="fill:#FFFFFF;" d="M985.552,543.281h59.983c-0.204-1.315-0.517-2.571-0.975-3.365
						c-1.517-2.636-5.152-1.89-6.73-5.355c-1.605-3.528,5.224-8.155-2.876-9.151c-2.753-0.339-6.668,4.934-9.808,5.456
						c-4.202,0.699-7.461-2.021-12.479-0.737c-3.785,0.969-6.254,3.67-9.586,5.348c-5.982,3.014-14.125,2.263-19.481,5.997
						C984.158,542.118,984.822,542.725,985.552,543.281z"/>
					<path style="fill:#5E6666;" d="M967.419,539.792c-0.145,0.768-0.228,1.591-0.228,2.452c0,4.063,1.755,7.356,3.919,7.356h91.434
						c2.164,0,3.918-3.293,3.918-7.356c0-0.861-0.083-1.684-0.227-2.452H967.419z"/>
				</g>
			</g>
		</g>
		<g>
			<g>
				<path style="fill:#E8A273;" d="M655.908,323.138c-6.622-2.516-14.643-0.733-21.105,1.342
					c-10.16,3.264-19.985,7.537-30.276,10.414c-8.225,2.301-35.093,7.541-38.002,5.594l-3.856,15.864
					c4.059-0.31,46.299,19.926,92.852-1.823c6.662-3.113,12.238-10.072,11.134-18.034
					C665.843,330.635,661.436,325.24,655.908,323.138z"/>
				<path style="fill:#34969B;" d="M654.371,307.383l-51.84,7.036c0.922-22.336-25.316-106.54-0.368-113.389
					c0.891-0.248,5.079-0.407,6.081-0.469c2.249-0.134,4.419,0.076,6.514,0.607c3.838,0.965,7.412,2.982,10.717,5.841
					c1.525,1.323,2.998,2.817,4.411,4.482C647.768,232.479,656.372,278.778,654.371,307.383z"/>
				<g>
					<path style="fill:#FFFFFF;" d="M583.842,364.418c-11.661,0.202-19.317-3.668-27.2-4.404l0.007-0.345l0.13-11.701l0.124-10.841
						c0.794,0.117,1.583,0.222,2.365,0.319c7.909,0.984,15.381,1.173,22.966,1.29c0.234,3.577,0.395,7.558,0.585,11.577
						C583.048,355.192,583.329,360.125,583.842,364.418z"/>
					<path style="fill:#FFFFFF;" d="M570.421,351.224c-2.664,3.675-8.052,6.789-13.772,8.444c-4.177,1.205-8.528,1.636-12.138,0.945
						c-1.303-0.254-2.411-0.521-3.401-0.769c-3.219-0.808-5.303-1.355-9.362-0.084c-4.163,1.296-6.9,3.342-11.962,2.977
						c-6.795-0.495-7.023-1.987-7.375-7.623c-0.228-3.733-2.521-9.981-1.173-13.545c2.372-6.281,18.359-11.956,25.188-11.753
						c7.891,0.234,16.269,4.007,22.842,7.629c1.316,0.723,2.568,1.447,3.72,2.131l8.796,4.606
						C572.651,346.605,572.026,349.016,570.421,351.224z"/>
					<path style="fill:#EDEBEB;" d="M556.642,360.013l0.007-0.345c-4.177,1.205-8.528,1.636-12.138,0.945
						c-1.303-0.254-2.411-0.521-3.401-0.769c-1.057-0.475-2.124-0.886-3.205-1.205c-7.454-2.202-16.21-0.872-23.774-0.085
						l5.863-19.22c4.456,1.492,10.998-2.665,16.289-1.635c4.585,0.892,7.687,4.13,11.727,6.287c2.762,1.473,5.713,2.841,8.769,3.98
						c4.385,1.642,9.005,2.841,13.642,3.258c2.855,0.268,5.714,0.235,8.536-0.156c1.283-0.176,2.593-0.411,3.863-0.756
						c0.228,4.88,0.51,9.812,1.023,14.105C572.181,364.62,564.526,360.75,556.642,360.013z"/>
				</g>
			</g>
			<g>
				<g>
					<g>
						<path style="fill:#CDD9E0;" d="M528.603,413.673l-5.22-2.305c0.903-1.302,2.02-7.308-0.655-32.899l-0.071-0.677
							c-0.854-8.207,0.387-19.668,11.134-27.662l4.271,3.273c-9.303,6.92-10.349,17.101-9.589,24.424l0.071,0.675
							C530.76,399.692,530.776,410.538,528.603,413.673z"/>
						<g>
							<g>
								<g>
									<g>
										<g>
											<path style="fill:#E8A273;" d="M484.657,359.527c1.458,4.459,2.792,9.171,4.158,13.956l0.113,0.396
												c2.451,8.599,5.021,17.397,8.6,25.334c2.415,5.36,5.529,8.728,8.72,10.345c0.328,0.165,0.649,0.309,0.973,0.439
												c1.504,0.6,3.018,0.821,4.472,0.684c2.281-0.209,4.402-1.299,6.122-3.156c2.078-2.235,3.569-5.584,4.04-9.863
												c0.646-5.833,0.622-12.192,0.124-18.809c-2.949-39.167-22.719-87.406-21.879-89.402l-26.696,30.917
												c0.45,1.821,0.912,3.633,1.383,5.443C477.701,337.079,480.941,348.147,484.657,359.527z"/>
										</g>
									</g>
									<path style="fill:#C87E53;" d="M488.11,373.484c0.243,0.042-4.474,17.276-4.215,17.327
										c6.325,1.247,25.873-12.287,31.653-7.425c-2.089-3.194-6.644-7.417-10.161-9.77c-1.279-0.858,2.498-18.541,1.173-19.15
										c0.367-8.913-3.044-32.592-5.081-41.426c-1.198-5.219-11.468,19.515-13.345,14.459c-1.215-3.26-6.718-11.683-6.295-13.477
										l-7.051,11.789c2.913,11.268,6.153,22.337,9.869,33.716c1.458,4.459,2.792,9.171,4.158,13.956
										C488.584,373.484,488.346,373.481,488.11,373.484z"/>
								</g>
								<g>
									<g>
										<path style="fill:#E8A273;" d="M360.958,482.651c0.433,14.194,2.093,33.008,4.668,59.661
											c2.122,21.962,10.962,60.644,10.163,88.723c-0.183,6.462-0.88,12.36-2.284,17.369c-2.127,7.589-3.039,17.298-3.074,28.181
											c-0.043,12.095,0.992,25.643,2.625,39.344c3.535,29.626,9.86,59.983,14.136,77.989v0.013
											c0.098,0.424,0.199,0.836,0.296,1.248c0,0,0,0,0,0.002c0.052,0.225,0.109,0.45,0.162,0.671
											c0.144,0.591,0.28,1.162,0.413,1.719l18.938,0.699c-0.019-0.314-0.032-0.629-0.051-0.945c0.003-0.004,0-0.004,0-0.004
											l-0.038-0.702c0.003-0.004,0-0.004,0-0.007c-0.015-0.331-0.031-0.664-0.046-0.994
											c-1.321-26.581-1.589-53.305-1.059-80.024c0.031-1.674,0.072-3.405,0.122-5.177c0.006-0.296,0.015-0.596,0.025-0.896
											c0.006-0.3,0.015-0.602,0.026-0.908c0.009-0.301,0.018-0.605,0.028-0.911c0.034-1.227,0.073-2.481,0.118-3.749
											c0.144-4.213,0.321-8.68,0.531-13.358c0.437-9.806,1.005-20.545,1.67-31.864c0-0.047,0.002-0.094,0.006-0.138
											c0.04-0.721,0.084-1.438,0.131-2.158c0-0.053,0-0.107,0.009-0.16c0.038-0.671,0.079-1.339,0.118-2.012
											c0.16-2.636,0.322-5.297,0.493-7.973c0.288-4.615,0.591-9.302,0.903-14.036c3.158-47.838,7.43-100.591,10.557-135.547
											c0.009-0.094,0.019-0.19,0.025-0.28c0.374-4.117,0.723-7.989,1.058-11.571c0.044-0.445,0.084-0.888,0.121-1.332
											c0.012-0.11,0.021-0.224,0.03-0.331c0.016-0.161,0.044-0.346,0.077-0.542H360.958z"/>
										<path style="fill:#E8A273;" d="M499.233,798.963c-5.133-22.293-6.372-52.562-9.765-96.371
											c-0.651-8.442-1.297-17.091-1.933-25.836c-1.01-13.858-1.988-27.953-2.928-41.84
											c-4.273-63.109-7.699-121.856-8.884-133.98c-0.551-5.629-1.084-11.812-1.656-18.285h-52.473
											c0.051,0.291,0.101,0.582,0.152,0.874c10.014,57.479,22.461,126.023,27.109,139.259c1.207,3.442,1.621,7.04,1.6,10.915
											c-0.063,14.059-5.82,31.733,0.022,58.682c0.113,0.516,0.228,1.043,0.347,1.582c1.358,6.133,3.195,13.756,5.299,22.081
											c6.163,24.46,14.554,55.014,19.444,71.75c0.316,1.083,0.618,2.107,0.902,3.068c0.84,2.829,1.537,5.111,2.058,6.708
											l2.282,0.304h0.004l18.753,2.499c-0.113-0.465-0.221-0.933-0.33-1.404C499.237,798.966,499.233,798.966,499.233,798.963z"
											/>
										<path style="fill:#E8A273;" d="M475.32,787.74l21.639,4.718c2.339,8.894,9.727,21.331,12.699,26.207
											c2.435,3.994,4.323,8.347,8.207,11.69c3.708,3.189,14.028,5.232,14.334,9.696c-10.056,0.409-19.49,1.045-29.235-0.593
											c-9.964-1.674-9.637-6.523-14.689-13.276c-3.915-5.236-11.48-10.873-13.822-16.777
											C471.75,802.589,478.211,794.741,475.32,787.74z"/>
										<path style="fill:#3A3935;" d="M387.192,793.722l16.743-0.712c7.18,7.526,15.093,37.454,15.526,42.632
											c0.643,7.676-1.803,11.529-13.863,12.25c-8.97,0.535-16.921-0.426-20.512-4.735
											C382.075,839.541,387.192,804.788,387.192,793.722z"/>
										<path style="fill:#E8A273;" d="M387.434,788.245l15.753,0.558c5.592,7.527,14.508,42.259-0.217,42.786
											C387.202,832.152,387.434,799.311,387.434,788.245z"/>
										<path style="fill:#3A3935;" d="M495.146,844.906c-7.638-8.649-11.776-23.666-13.816-23.666
											c-3.161,0-0.256,18.446-3.683,23.666h-2.853c-6.195-14.756-13.351-45.281,1.278-54.697c0,0,19.452,32.189,27.65,39.861
											c5.961,5.577,10.278,3.421,18.728,4.19c6.231,0.565,18.433,3.227,17.843,10.646H495.146z"/>
									</g>
									<path style="fill:#C87E53;" d="M409.986,632.255c-0.312,4.734-0.615,9.421-0.903,14.036
										c-0.171,2.676-0.333,5.337-0.493,7.973c-0.04,0.673-0.08,1.342-0.118,2.012c-0.009,0.053-0.009,0.107-0.009,0.16
										c-0.047,0.72-0.091,1.438-0.131,2.158c-0.003,0.044-0.006,0.091-0.006,0.138c-0.665,11.319-1.233,22.058-1.67,31.864
										c-11.898-3.161-24.724-7.913-36.227-14.012c0.035-10.883,0.947-20.592,3.074-28.181c1.404-5.009,2.101-10.907,2.284-17.369
										L409.986,632.255z"/>
									<path style="fill:#C87E53;" d="M487.536,676.755c-9.69,8.591-22.3,14.763-36.711,17.207
										c-0.118-0.54-0.234-1.067-0.347-1.582c-5.842-26.948-0.084-44.623-0.022-58.682l34.152,1.217
										C485.548,648.802,486.526,662.898,487.536,676.755z"/>
								</g>
								<g>
									<g>
										<path style="fill:#F9355F;" d="M511.815,295.904c-4.273,2.042-7.536,8.872-9.078,15.098
											c-0.044,0.166-0.082,0.328-0.121,0.488c-0.404,1.709-1.092,5.288-1.825,9.258c-1.419,7.658-2.994,16.762-2.994,16.762
											l-10.877-42.222l-0.874-3.379l-0.116-0.462l-1.647-24.13C493.707,269.886,505.636,285.972,511.815,295.904z"/>
										<g>
											<g>
												<path style="fill:#5B2C27;" d="M469.043,178.995l-82.46-35.956c-12.196,21.602-19.694,49.444-17.368,74.367
													c3.229,34.592,16.86,78.988,49.399,93.467c13.084,5.82,33.061,6.18,44.112-4.776
													c11.184-11.087,10.447-23.179,11.203-38.065C475.377,239.606,473.216,198.104,469.043,178.995z"/>
												<g>
													<path style="fill:#F9355F;" d="M505.728,633.911c0,0-24.615,5.276-62.425,7.035
														c-13.454,0.627-26.849,0.534-39.341,0.047c-36.504-1.425-65.293-6.202-65.293-6.202
														c-6.331-34.347,13.894-143.394,31.655-189.927c11.046-28.941-13.271-122.372-17.585-139.799
														c-0.716-2.884-1.301-5.581-1.741-8.107c-4.087-23.238,3.769-31.598,31.485-32.529l93.366,1.254
														c3.353,0.07,7.656,0.07,13.125,4.367c4.034,3.172-5.03,89.333-9.619,157.233
														C477.59,453.311,508.365,561.813,505.728,633.911z"/>
													<path style="fill:#F9355F;" d="M503.805,345.226c-0.435,5.164-2.438,9.589-5.182,13.541
														c-1.331,1.911-2.842,3.705-4.427,5.41c-0.14,0.158-0.294,0.317-0.44,0.475c-1.494,1.594-3.048,3.113-4.602,4.578
														c-0.258,0.247-0.516,0.492-0.773,0.739c-1.548,1.46-3.06,2.879-4.473,4.274c-0.92,0.908-1.794,1.806-2.603,2.702
														l0.529-3.523l0.755-5.029l0.24-1.59l0.721-4.853l0.124-0.815l0.732-4.912l-7.269-55.069
														c0.57-0.152,4.433-16.296,5.828-15.365C487.016,299.172,505.06,330.259,503.805,345.226z"/>
													<path style="fill:#CC2551;" d="M369.838,354.56c0,0,0.19,0.128,0.547,0.368c0.347,0.242,0.864,0.618,1.52,1.042
														c0.639,0.44,1.437,0.943,2.339,1.518c0.459,0.273,0.945,0.565,1.458,0.871c0.518,0.29,1.061,0.593,1.628,0.911
														c1.151,0.6,2.382,1.244,3.721,1.827c1.324,0.614,2.759,1.159,4.235,1.69c1.485,0.525,3.041,0.962,4.623,1.369
														c1.591,0.376,3.217,0.686,4.852,0.895c1.634,0.231,3.278,0.306,4.896,0.346c1.619,0.015,3.21-0.084,4.749-0.24
														c1.538-0.183,3.021-0.439,4.419-0.766c1.395-0.333,2.715-0.716,3.919-1.145c1.208-0.419,2.305-0.872,3.278-1.305
														c0.485-0.224,0.94-0.434,1.361-0.627c0.416-0.212,0.8-0.407,1.146-0.583c0.707-0.343,1.235-0.663,1.617-0.86
														c0.382-0.199,0.585-0.305,0.585-0.305s-0.131,0.186-0.376,0.539c-0.265,0.333-0.598,0.89-1.139,1.483
														c-0.268,0.304-0.564,0.64-0.888,1.005c-0.336,0.355-0.727,0.708-1.137,1.106c-0.836,0.769-1.838,1.582-3.015,2.371
														c-0.576,0.417-1.229,0.753-1.885,1.157c-0.676,0.362-1.387,0.717-2.134,1.055c-1.5,0.658-3.147,1.225-4.896,1.644
														c-0.876,0.195-1.775,0.39-2.693,0.501c-0.458,0.057-0.92,0.131-1.389,0.175c-0.466,0.03-0.935,0.061-1.408,0.091
														c-1.886,0.089-3.809,0.009-5.709-0.228c-1.893-0.273-3.769-0.652-5.561-1.21c-0.891-0.286-1.777-0.567-2.62-0.927
														c-0.424-0.175-0.849-0.334-1.261-0.519c-0.407-0.192-0.812-0.384-1.213-0.574c-1.587-0.79-3.069-1.65-4.388-2.582
														c-1.332-0.91-2.498-1.898-3.534-2.831c-0.502-0.491-0.985-0.952-1.424-1.41c-0.424-0.477-0.833-0.914-1.197-1.345
														c-0.711-0.878-1.305-1.658-1.746-2.342c-0.468-0.66-0.74-1.222-0.964-1.589
														C369.948,354.761,369.838,354.56,369.838,354.56z"/>
													<path style="fill:#CC2551;" d="M488.382,369.97c-1.548,1.46-3.06,2.879-4.473,4.274
														c-0.404-0.141-0.797-0.293-1.184-0.457c-0.299-0.124-0.598-0.241-0.89-0.364c-0.122-0.047-0.247-0.1-0.37-0.152
														c-0.404-0.194-0.815-0.382-1.208-0.575c-0.094-0.04-0.176-0.087-0.264-0.129c-1.495-0.757-2.884-1.571-4.132-2.456
														c-1.33-0.908-2.499-1.893-3.535-2.831c-0.498-0.493-0.985-0.956-1.419-1.413c-0.423-0.469-0.833-0.908-1.201-1.342
														c-0.711-0.874-1.302-1.653-1.742-2.345c-0.475-0.657-0.746-1.219-0.963-1.583c-0.187-0.328-0.292-0.528-0.315-0.574
														c0.041,0.03,0.234,0.153,0.539,0.364c0.351,0.24,0.867,0.622,1.523,1.043c0.638,0.44,1.431,0.944,2.34,1.518
														c0.457,0.27,0.944,0.563,1.46,0.868c0.516,0.293,1.06,0.592,1.628,0.914c1.144,0.599,2.374,1.243,3.723,1.824
														c0.891,0.415,1.841,0.796,2.819,1.166c0.465,0.176,0.934,0.352,1.414,0.521c0.153,0.053,0.305,0.105,0.457,0.153
														c1.343,0.463,2.743,0.855,4.162,1.225C487.291,369.741,487.836,369.858,488.382,369.97z"/>
												</g>
												<g>
													<path style="fill:#E8A273;" d="M469.043,265.753c-7.342,14.111-11.953,28.542-32.437,36.736
														c-30.725-9.218-45.643-31.562-57.512-38.348c11.052-2.301,18.456-8.557,23.345-16.904
														c7.108-12.115,8.945-28.604,9.053-43.763l39.204,7.589c-4.942,14.685-5.953,28.563-0.364,38.797
														C454.597,257.666,458.1,261.844,469.043,265.753z"/>
													<path style="fill:#C87E53;" d="M450.332,249.859c-6.567,5.084-14.222,7.993-22.399,7.993
														c-9.492,0-18.286-3.929-25.494-10.615c7.108-12.115,8.945-28.604,9.053-43.763l39.204,7.589
														C445.754,225.747,444.742,239.624,450.332,249.859z"/>
												</g>
												<g>
													<path style="fill:#E8A273;" d="M459.731,155.018c-5.753-19.18-16.534-34.608-41.023-21.13l-8.952,7.469
														c-12.51,9.975-14.826,26.903-16.594,43.494c-1.036,9.737-2.304,19.742,1.411,27.456
														c5.795,12.032,22.999,28.186,33.294,29.892c12.866,2.135,26.705-15.473,31.613-25.896
														C468.77,196.573,465.704,174.931,459.731,155.018z"/>
													<path style="fill:#C87E53;" d="M424.631,203.196c1.476,5.302,12.184,7.949,14.072,1.568
														C435.102,207.805,424.631,203.196,424.631,203.196z"/>
													<g>
														<g>
															<path style="fill:#C87E53;" d="M420.474,190.131c-1.025-19.257-17.675-14.117-17.8-2.083
																C407.313,191.28,414.357,191.951,420.474,190.131z"/>
														</g>
														<g>
															<path style="fill:#FFFFFF;" d="M420.474,190.127c-1.191,0.359-2.418,0.62-3.66,0.785
																c-3.661,0.485-7.425,0.14-10.644-1.056c-1.261-0.467-2.442-1.072-3.496-1.805c0.941-2.38,2.222-4.165,3.692-5.373
																c3.774-3.107,8.728-2.323,11.879,2.367C419.167,186.41,419.934,188.103,420.474,190.127z"/>
														</g>
														<path style="fill:#332421;" d="M418.164,185.77c-0.241,1.889-0.716,3.635-1.351,5.143
															c-3.661,0.485-7.425,0.14-10.644-1.056c-0.281-1.7-0.316-3.617-0.059-5.628c0.068-0.527,0.153-1.046,0.255-1.55
															c3.774-3.107,8.728-2.323,11.879,2.367C418.219,185.286,418.195,185.525,418.164,185.77z"/>
														<path style="fill:#FFFFFF;" d="M415.108,186.934c-0.143,1.129-0.718,1.986-1.281,1.914
															c-0.566-0.072-0.906-1.046-0.76-2.175c0.144-1.128,0.718-1.984,1.283-1.912
															C414.914,184.833,415.253,185.806,415.108,186.934z"/>
													</g>
													<g>
														<g>
															<path style="fill:#C87E53;" d="M460.101,195.328c-1.025-19.257-17.675-14.118-17.799-2.083
																C446.942,196.475,453.986,197.146,460.101,195.328z"/>
														</g>
														<g>
															<path style="fill:#FFFFFF;" d="M460.101,195.325c-1.194,0.358-2.416,0.619-3.658,0.783
																c-3.663,0.485-7.428,0.141-10.645-1.056c-1.262-0.467-2.442-1.073-3.495-1.805c0.94-2.379,2.221-4.165,3.689-5.373
																c3.776-3.107,8.728-2.322,11.88,2.367C458.793,191.606,459.562,193.299,460.101,195.325z"/>
														</g>
														<path style="fill:#332421;" d="M457.792,190.967c-0.243,1.888-0.714,3.634-1.349,5.142
															c-3.663,0.485-7.428,0.141-10.645-1.056c-0.283-1.7-0.316-3.618-0.059-5.628c0.068-0.528,0.153-1.047,0.254-1.551
															c3.776-3.107,8.728-2.322,11.88,2.367C457.847,190.482,457.822,190.721,457.792,190.967z"/>
														<path style="fill:#FFFFFF;" d="M454.737,192.131c-0.145,1.129-0.719,1.984-1.284,1.912
															c-0.563-0.072-0.904-1.044-0.759-2.174c0.144-1.129,0.719-1.985,1.283-1.913
															C454.54,190.029,454.88,191.002,454.737,192.131z"/>
													</g>
													<path style="fill:#332421;" d="M422.102,172.901l-0.389-0.262c-5.286-4.387-12.13-5.265-17.718-0.447
														c4.202-2.59,6.363-0.321,10.189,1.398c1.613,0.725,3.897,1.911,5.628,2.353
														C422.309,176.581,423.76,174.999,422.102,172.901z"/>
													<path style="fill:#332421;" d="M445.697,175.707l0.444-0.155c6.22-2.915,13.064-2.043,17.26,4.027
														c-3.414-3.565-6.077-1.911-10.211-1.211c-1.744,0.295-4.252,0.869-6.04,0.86
														C444.571,179.216,443.566,177.32,445.697,175.707z"/>
													<g>
														<path style="fill:#FF3333;" d="M417.992,219.208c2.177,4.297,5.657,7.33,10.661,7.93
															c2.353,0.299,6.329,0.136,8.388-0.837c1.832-0.831,3.901-3.579,5.337-4.942
															C434.416,222.183,425.954,221.996,417.992,219.208z"/>
														<path style="fill:#EF2222;" d="M438.252,219c-1.724-1.584-4.153,0.556-6.869,0.404
															c-2.932-0.163-3.837-2.059-6.841-1.842c-2.322,0.101-5.998,1.635-8.351,0.745c3.294,4.704,23.849,5.802,28.394,2.788
															C442.428,221.07,439.645,220.316,438.252,219z"/>
													</g>
													<path style="fill:#5B2C27;" d="M444.005,133.85c-0.181,1.477-0.462,2.872-0.832,4.197
														c-0.851,3.031-2.169,5.68-3.852,8.02c-5.522,7.703-14.931,12.046-24.246,15.681
														c-14.803,5.78-19.678,23.747-24.333,37.447c-4.21-12.029-10.142-32.47-7.844-45.337
														c1.039-5.792,3.63-11.279,7.275-15.898c6.489-8.242,16.333-13.741,26.679-13.371
														c10.446,0.369,16.994,2.292,21.038,4.297c0.211,0.106,0.417,0.211,0.616,0.316c1.05,0.551,1.917,1.109,2.62,1.636
														C443.367,132.507,444.005,133.85,444.005,133.85z"/>
													<g>
														<path style="fill:#E8A273;" d="M389.112,183.176c-18.404-10.352-9.825,27.822,0.856,23.131
															C395.784,203.752,396.51,187.337,389.112,183.176z"/>
														<path style="fill:#C87E53;" d="M389.658,186.415c-4.268-4.706-11.178-0.459-7.615,3.75
															c0.254-5.2,6.689-4.495,7.424-0.157c-5.393,1.458-3.87,11.711,2.487,8.304c0,0-0.478-0.467-0.486-0.064
															C386.299,194.071,394.043,191.25,389.658,186.415z"/>
													</g>
													<path style="fill:#5B2C27;" d="M475.409,159.027c-0.991,11.243-6.227,23.588-8.981,33.46
														c-2.667-8.992-3.64-20.869-10.241-29.076c-4.01-4.977-6.953-10.991-14.11-15.142c-1.202-0.691-2.094-1.424-2.756-2.204
														c-2.274-2.627-2.052-5.781-2.814-9.79l-0.316-0.211l-3.575-2.404c0.134-0.175,0.275-0.351,0.427-0.521
														c0.329-0.387,0.699-0.75,1.085-1.091c1.132-1.014,2.474-1.864,3.817-2.567c0.187-0.094,0.375-0.194,0.563-0.282
														c0.216-0.105,0.428-0.204,0.64-0.304c0.35-0.158,0.698-0.311,1.042-0.451c16.144-6.63,30.125,5.68,34.2,18.6
														C475.561,150.761,475.785,154.818,475.409,159.027z"/>
													<path style="fill:#332421;" d="M475.409,159.027c-0.991,11.243-6.227,23.588-8.981,33.46
														c-2.667-8.992-3.64-20.869-10.241-29.076c-4.01-4.977-6.953-10.991-14.11-15.142c-1.202-0.691-2.094-1.424-2.756-2.204
														c-5.522,7.703-14.931,12.046-24.246,15.681c-14.803,5.78-19.678,23.747-24.333,37.447
														c-4.21-12.029-10.142-32.47-7.844-45.337c1.039-5.792,3.63-11.279,7.275-15.898
														c-1.483,8.676-0.985,18.091-0.152,25.735c6.226-8.242,12.81-8.987,22.733-11.097c8.629-1.829,16.01-3.16,21.186-11.12
														c-3.986-4.127-10.406-4.051-15.693-2.902c5.207-3.406,12.217-2.732,17.944-2.51c0.188,0.007,0.37,0.012,0.552,0.018
														c-0.978-1.314-2.282-2.209-3.7-2.942c-1.958-1.015-4.133-1.735-6.003-2.831c2.432,0.299,4.754,1.008,7.087,1.741
														c1.249,0.393,2.492,0.792,3.757,1.144c0.189-1.267,0.165-2.498,0.059-3.711c-0.018-0.2-0.035-0.399-0.053-0.598
														c0.211,0.106,0.417,0.211,0.616,0.316c0.216-0.105,0.428-0.204,0.64-0.304c0.35-0.158,0.698-0.311,1.042-0.451
														c0.318,0.785,0.633,1.583,0.939,2.392c0.879,2.333,1.641,4.754,2.046,7.21c0.017,0.1,0.03,0.194,0.047,0.294
														c3.752-4.866,13.53-4.76,19.327-4.356c-5.271,2.621-10.686,3.746-15.264,8.682c6.39,4.431,8.776,11.771,17.1,15.223
														C467.805,159.309,471.646,159.625,475.409,159.027z"/>
												</g>
											</g>
										</g>
										<g>
											<path style="fill:#CC2551;" d="M492.896,290.092C500.379,288.777,492.684,289.918,492.896,290.092L492.896,290.092z"/>
											<path style="fill:#CC2551;" d="M491.723,295.954c0.398,1.305,7.034,28.465,7.895,30.655
												c0.733-3.97,1.421-7.549,1.825-9.257c0.037-0.16,0.077-0.322,0.122-0.488
												C497.719,307.946,497.29,305.804,491.723,295.954z"/>
										</g>
									</g>
									<path style="fill:#CC2551;" d="M403.962,640.993c-36.504-1.425-65.293-6.202-65.293-6.202
										c-6.331-34.347,13.894-143.394,31.655-189.927c11.046-28.941-13.271-122.372-17.585-139.799
										c-0.716-2.884-1.301-5.581-1.741-8.107l30.113,3.382c9.965,46.311-5.832,76.753-2.344,93.794
										c3.545,17.31,5.029,36.709,0.035,53.403c-5.236,17.487-9.802,33.714-11.702,52.701
										c-3.172,31.731-1.472,65.714,10.75,94.937c5.992,14.316,12.921,30.143,22.962,42.295
										C401.763,638.619,402.824,639.797,403.962,640.993z"/>
								</g>
								<path style="fill:#1C1817;" d="M412.921,369.515c-1.233,3.546,4.326,9.1,9.306,11.167c4.254,1.765,6.78-11.048,8.788-14.578
									l12.822-49.218C425.226,321.85,418.263,354.156,412.921,369.515z"/>
								<g>
									<g>
										<path style="fill:#1C1817;" d="M549.056,366.37c0.877,6.817-2.27,12.399-8.96,8.078c-3.516-2.27-1.405-9.566-4.975-12.206
											c-4-2.952-8.329-4.26-12.967-5.433c-6.716-1.696-19.488-2.538-27.822-7.085c-3.831-2.088-6.726-4.955-7.66-9.056
											l8.668-26.183c3.723,3.824,3.953,10.115,7.341,14.152c3.059,3.651,7.617,6.61,11.774,9.092
											c8.703,5.196,17.867,10.013,26.569,15.413C545.822,356.12,548.443,361.552,549.056,366.37z"/>
										<g>
											<path style="fill:#353231;" d="M547.479,363.134c0.066,0.31,0.13,0.691,0.22,1.09
												C547.637,363.822,547.56,363.448,547.479,363.134z"/>
											<path style="fill:#353231;" d="M543.872,363.617c0.026-0.409,0.042-0.753,0.048-0.995
												C543.879,362.95,543.867,363.282,543.872,363.617z"/>
											<path style="fill:#0C0A0A;" d="M549.056,366.37c0.877,6.817-2.27,12.399-8.96,8.078
												c-3.516-2.27-1.405-9.566-4.975-12.206c-4-2.952-8.329-4.26-12.967-5.433c-6.716-1.696-19.488-2.538-27.822-7.085
												l1.692-6.088c1.812,2.643,8.642,5.805,11.729,7c4.473,1.735,9.208,2.766,13.747,3.776
												c4.086,0.916,9.309,1.354,12.888,3.419c1.904,1.1,3.297,2.609,4.073,4.593c0.806,2.073,0.239,5.748,1.571,7.277
												c2.856,3.27,3.66-3.135,3.841-6.087c0.04,2.035,0.891,4.162,1.851,5.758c2.24-0.26,2.3-3.104,1.976-5.147
												c0.189,0.822,0.496,1.714,1.231,2.242C548.975,366.439,549.019,366.41,549.056,366.37z"/>
										</g>
									</g>
									<g>
										<path style="fill:#F9F0EF;" d="M540.284,351.835c-4.374,2.86-5.074,5.819-7.01,10.236
											c-2.971-1.662-22.333-7.135-22.333-7.135c2.189-5.068,5.508-10.428,9.305-14.454c0.006,0.006,0.006,0.006,0.01,0.011
											c1.143,0.969,4.506,2.793,8.191,4.734c0.447,0.229,0.893,0.465,1.346,0.701c1.333,0.707,2.681,1.414,3.952,2.09
											C536.7,349.589,539.243,350.997,540.284,351.835z"/>
										<path style="fill:#CDD9E0;" d="M540.284,351.835c-4.374,2.86-5.074,5.819-7.01,10.236
											c-2.971-1.662-22.333-7.135-22.333-7.135c2.189-5.068,5.508-10.428,9.305-14.454c0.006,0.006,0.006,0.006,0.01,0.011
											c-1.041,1.403-2.008,2.892-2.97,4.362c-1.086,1.657-3.375,5.758-3.208,7.792c0.074,0.943,0.826,1.633,1.979,1.707
											c1.278,0.081,1.21-1.018,2.053-2.215c2.036-2.897,4.753-5.504,7.544-7.649c-2.867,2.5-5.266,6.966-6.328,10.571
											c0.584,0.124,1.123,0.484,1.664,0.626c0.732-1.688,1.836-3.139,2.976-4.591c1.415-1.805,2.612-3.796,4.153-5.509
											c0.109-0.124,0.215-0.241,0.328-0.36c0.447,0.229,0.893,0.465,1.346,0.701c-2.414,3.449-4.386,7.196-5.343,10.844
											c0.843,0.286,1.738,0.739,2.595,0.776c1.364-3.368,3.975-6.731,6.699-9.529
											C536.7,349.589,539.243,350.997,540.284,351.835z"/>
									</g>
								</g>
								<g>
									<path style="fill:#0C0A0A;" d="M430.627,429.274c9.224-16.905,5.189-31.312,3.744-48.942l-2.643-5.893
										c0.939,22.029-12.936,47.679-29.253,65.963c-11.958,13.399-22.096,38.204-6.169,51.834
										c0.282-2.337,2.084-6.255,2.819-7.246c1.183,8.165,7.063,19.437,13.021,26.234c1.862-7.783,6.578-14.439,7.245-22.21
										c0.721-8.405-2.636-14.77-4.25-22.178c2.376,1.56,3.785,3.983,4.446,6.415c4.874-6.992,1.117-15.931,1.567-23.52
										C421.578,442.54,427,435.922,430.627,429.274z"/>
									<g>
										<path style="fill:#1C1817;" d="M493.132,382.171c-26.076-6.407-36.044,15.308-36.044,15.308
											c-8.132,5.845-5.702,35.596-5.813,43.877c-13.943-2.844-12.896,2.202-7.052,10.974
											c4.936,7.411,17.839,33.006,20.708,36.155c4.721,5.178,10.199,1.846,11.021-3.112
											c1.661-9.997-11.544-22.403-12.377-31.857c-0.557-6.312,20.548-19.045,24.786-21.93
											c8.839-6.018,12.826-11.783,16.612-21.793C509.226,398.542,505.623,385.241,493.132,382.171z"/>
										<path style="fill:#1C1817;" d="M497.148,307.902c-6.23-5.882-13.023-13.136-12.521-16.818l-26.891-0.485
											c-1.212,24.916-12.998,21.642-18.236,30.808c-5.724,10.021-22.339,34.827-17.535,89.126
											c1.46,16.494,6.078,31.932,25.03,36.995c18.612,4.971,54.049-21.367,49.465-35.771
											C482.435,367.675,514.273,324.071,497.148,307.902z"/>
										<path style="fill:#332C2B;" d="M479.439,291.945l-7.856,6.547c-0.244,2.365-5.164,8.253-6.712,11.785
											c-2.329,5.321-4.563,10.785-5.872,16.334c-2.651,11.235-2.525,23.91-3.781,35.389
											c-1.151,10.511-3.991,20.758-7.043,30.917c-3.098,10.312-7.588,21.399-4.091,31.969
											c3.624,10.953,12.606,14.836,22.916,9.621c11.147-5.64,14.621-17.331,15.059-28.642
											c0.861-22.331-3.441-43.997,4.746-65.325C492.072,326.815,501.545,297.759,479.439,291.945z"/>
										<path style="fill:#1C1817;" d="M443.43,377.061c-26.843,0.652-30.772,21.603-30.772,21.603
											c-2.618,12.439,3.829,38.464,5.891,46.485c-14.198,0.91-11.866,5.506-3.928,12.439
											c6.707,5.858,25.868,27.177,29.462,29.463c5.915,3.759,10.326-0.893,9.823-5.893
											c-1.018-10.083-17.014-18.592-20.298-27.498c-2.19-5.945,14.837-23.765,18.171-27.66
											c6.952-8.126,11.536-16.699,12.565-27.351C465.5,386.676,456.288,376.749,443.43,377.061z"/>
										<g>
											<g>
												<g>
													<path style="fill:#1C1817;" d="M489.017,264.566c0,0,14.953-15.456,19.87-13.416c4.921,2.04-1.423,21.116-4.227,27.125
														C504.66,278.275,494.422,274.121,489.017,264.566z"/>
													<path style="fill:#0C0A0A;" d="M501.655,276.759c2.292-5.18,7.744-19.464,4.462-20.825
														c-3.033-1.257-12.862,8.762-15.334,11.355C494.249,272.004,498.733,275.092,501.655,276.759z"/>
												</g>
												<g>
													<path style="fill:#1C1817;" d="M459.609,266.99c0,0-17.286-12.795-21.803-9.98c-4.516,2.818,4.865,20.598,8.617,26.067
														C446.423,283.077,455.841,277.301,459.609,266.99z"/>
													<path style="fill:#0C0A0A;" d="M449.135,281.09c-3.107-4.735-10.826-17.936-7.81-19.813
														c2.786-1.738,14.123,6.537,16.986,8.688C455.667,275.186,451.745,278.967,449.135,281.09z"/>
												</g>
											</g>
											<path style="fill:#1C1817;" d="M474.572,259.108l-0.463,0.039c-37.254,3.349-28.191,40.703-28.191,40.703
												c5.472,6.447,15.575,10.6,32.091,9.375l0.917-0.077c16.494-1.496,25.78-7.248,30.123-14.503
												C509.048,294.645,511.872,256.313,474.572,259.108z"/>
											<path style="fill:#1C1817;" d="M482.188,294.838c-0.529-3.379-3.935-3.514-6.715-3.728
												c-3.552-0.275-7.538,0.518-11.048-0.147l-13.697-2.074c-1.922,3.348-8.694,4.587-12.199,4.557
												c1.085,0.958,2.499,1.469,3.496,2.355c-3.511,1.142-5.165,3.01-7.622,5.837c1.542-0.86,3.737-0.961,5.498-0.829
												c-1.483,1.329-1.79,4.507-1.338,6.33c0.951-1.028,1.777-2.04,2.981-2.853c-0.322,1.778-0.13,4.164,0.825,5.733
												c0.583-0.66,1.352-1.107,2.106-1.553c0.456,1.825,2.973,3.494,4.742,3.475c0.462-1.126,1.178-2.093,1.911-3.08
												c1.201,1.948,2.6,2.423,4.506,3.277c-0.011-0.562,0.167-0.997,0.12-1.576c2.138,1.736,4.499,0.926,6.736,2.03
												c-0.219-0.542-0.446-1.103-0.66-1.64c1.943,1.222,5.661-0.281,7.58-0.826c-0.355-0.099-1.518-0.389-2.031-0.87
												c5.218,1.021,9.326-3.936,12.214-7.574C481.366,299.448,482.652,297.801,482.188,294.838z"/>
											<path style="fill:#1C1817;" d="M475.455,294.148c-0.045-3.419,3.107-4.095,5.662-4.749
												c3.266-0.835,7.106-0.689,10.27-1.905l12.431-4.228c2.324,2.997,8.832,3.142,12.092,2.554
												c-0.858,1.119-2.095,1.848-2.883,2.88c3.453,0.567,5.292,2.149,8.032,4.548c-1.574-0.605-3.635-0.354-5.253,0.057
												c1.592,1.075,2.385,4.162,2.254,6.033c-1.05-0.862-1.981-1.73-3.232-2.341c0.581,1.704,0.782,4.088,0.143,5.79
												c-0.648-0.558-1.435-0.877-2.209-1.198c-0.133,1.874-2.212,3.921-3.863,4.185c-0.61-1.039-1.432-1.878-2.272-2.736
												c-0.809,2.114-2.035,2.805-3.677,3.952c-0.079-0.557-0.312-0.958-0.361-1.536c-1.716,2.054-4.045,1.631-5.953,3.075
												c0.12-0.568,0.24-1.158,0.354-1.723c-1.616,1.516-5.317,0.627-7.195,0.392c0.317-0.152,1.353-0.624,1.757-1.182
												c-4.701,1.84-9.317-2.4-12.587-5.528C476.956,298.567,475.495,297.146,475.455,294.148z"/>
											<path style="fill:#332C2B;" d="M487.404,291.204c-1.755-0.945-1.796-7.88-1.727-10.181
												c0.094-3.224,1.389-6.948-1.202-9.65c-3.786-3.949-13.357-1.37-11.297,4.811c0.83,2.488,3.736,4.643,5.071,7.054
												c1.157,2.09,2.773,6.2,1.17,8.269L487.404,291.204z"/>
											<g>
												<g>
													<path style="fill:#0C0A0A;" d="M481.698,300.474c0,0,2.478,2.036,5.188-0.429l-2.963-4.264L481.698,300.474z"/>
													<g>
														<path style="fill:#0C0A0A;" d="M497.691,293.353c-0.019,0.255-1.557,6.213-6.674,6.634
															c-4.677,0.385-6.327-4.513-6.624-5.557c0.001-0.008,0.001-0.017,0.001-0.017l-0.006-0.001
															c-0.025-0.089-0.039-0.15-0.044-0.171l-0.536,0.129l-0.55-0.039c-0.002,0.021-0.006,0.084-0.018,0.175l-0.005,0.003
															c0,0,0.002,0.009,0.002,0.016c-0.122,1.078-0.946,6.18-5.621,6.567c-5.118,0.421-7.587-5.197-7.647-5.448
															l-0.087,0.021c0.016,0.07,1.726,7.067,7.828,6.564c3.993-0.329,5.622-3.552,6.272-5.754
															c1.001,2.067,3.134,4.978,7.13,4.648c6.101-0.503,6.642-7.684,6.645-7.756L497.691,293.353z"/>
														<path style="fill:#0C0A0A;" d="M488.106,290.922c-0.446-1.212-4.646-0.867-4.654-0.866l0,0l0,0l0,0l0,0
															c-0.01,0-4.213,0.348-4.452,1.617c-0.242,1.268,1.212,1.218,2.434,1.743c1.225,0.523,1.078,2.063,2.455,1.949l0,0l0,0
															l0,0l0,0c1.377-0.115,0.981-1.608,2.101-2.325C487.11,292.323,488.553,292.135,488.106,290.922z"/>
														<g>
															<g>
																<path style="fill:#353231;" d="M490.121,294.645c0.029,0.342-0.288,0.648-0.7,0.682
																	c-0.413,0.034-0.771-0.215-0.798-0.558c-0.03-0.343,0.283-0.65,0.696-0.683
																	C489.732,294.052,490.093,294.302,490.121,294.645z"/>
																<path style="fill:#353231;" d="M492.591,297.074c0.029,0.343-0.285,0.65-0.699,0.683
																	c-0.414,0.035-0.774-0.216-0.802-0.558c-0.028-0.343,0.285-0.65,0.701-0.683
																	C492.204,296.481,492.564,296.731,492.591,297.074z"/>
																<path style="fill:#353231;" d="M494.26,294.302c0.027,0.344-0.286,0.65-0.699,0.682
																	c-0.415,0.036-0.776-0.214-0.801-0.557c-0.029-0.342,0.286-0.649,0.698-0.683
																	C493.872,293.711,494.231,293.961,494.26,294.302z"/>
															</g>
															<g>
																<g>
																	<path style="fill:#CCC1C5;" d="M489.708,294.866c11.131-7.132,25.668-9.661,38.634-8.733
																		c0.265,0.019,0.326-0.392,0.059-0.411c-13.075-0.934-27.719,1.621-38.942,8.811
																		C489.233,294.678,489.483,295.009,489.708,294.866L489.708,294.866z"/>
																</g>
																<g>
																	<path style="fill:#CCC1C5;" d="M493.703,294.669c10.327-4.715,24.301-3.053,35.014-1.526
																		c0.264,0.037,0.325-0.372,0.059-0.411c-10.777-1.536-24.857-3.184-35.23,1.553
																		C493.304,294.396,493.461,294.781,493.703,294.669L493.703,294.669z"/>
																</g>
																<g>
																	<path style="fill:#CCC1C5;" d="M491.846,297.385c11.437-1.783,23.963,1.777,34.176,6.58
																		c0.241,0.114,0.408-0.266,0.166-0.381c-10.301-4.844-22.878-8.407-34.394-6.612
																		C491.529,297.014,491.582,297.426,491.846,297.385L491.846,297.385z"/>
																</g>
															</g>
														</g>
														<g>
															<g>
																<path style="fill:#353231;" d="M477.154,295.713c0.03,0.343,0.388,0.594,0.8,0.56
																	c0.413-0.033,0.728-0.34,0.699-0.682c-0.028-0.343-0.388-0.593-0.801-0.559
																	C477.44,295.065,477.126,295.372,477.154,295.713z"/>
																<path style="fill:#353231;" d="M475.117,298.515c0.027,0.343,0.386,0.593,0.799,0.559
																	c0.414-0.033,0.729-0.34,0.7-0.683c-0.028-0.343-0.388-0.593-0.804-0.558
																	C475.398,297.866,475.086,298.172,475.117,298.515z"/>
																<path style="fill:#353231;" d="M473.016,296.056c0.029,0.342,0.386,0.591,0.801,0.558
																	c0.413-0.034,0.727-0.339,0.699-0.682c-0.029-0.343-0.388-0.594-0.802-0.56
																	C473.301,295.406,472.986,295.712,473.016,296.056z"/>
															</g>
															<g>
																<g>
																	<path style="fill:#CCC1C5;" d="M477.598,295.867c-12.148-5.213-26.903-5.325-39.542-2.288
																		c-0.258,0.063-0.385-0.332-0.126-0.395c12.746-3.064,27.61-2.942,39.86,2.314
																		C478.035,295.603,477.843,295.972,477.598,295.867L477.598,295.867z"/>
																</g>
																<g>
																	<path style="fill:#CCC1C5;" d="M473.624,296.327c-10.959-2.958-24.473,0.969-34.791,4.23
																		c-0.255,0.081-0.382-0.315-0.126-0.395c10.382-3.283,24.001-7.213,35.008-4.24
																		C473.973,295.993,473.882,296.399,473.624,296.327L473.624,296.327z"/>
																</g>
																<g>
																	<path style="fill:#CCC1C5;" d="M475.9,298.703c-11.572,0.114-23.348,5.677-32.634,12.09
																		c-0.222,0.151-0.447-0.198-0.228-0.349c9.37-6.467,21.19-12.039,32.846-12.155
																		C476.151,298.285,476.168,298.7,475.9,298.703L475.9,298.703z"/>
																</g>
															</g>
														</g>
													</g>
												</g>
												<g>
													<path style="fill:#0C0A0A;" d="M475.201,285.085c-1.351,1.555-3.524,2.1-5.803,2.072
														c-1.216-0.014-2.463-0.199-3.635-0.488c-3.029-0.733-5.538-2.163-5.631-3.147c0,0,1.354-2.678,3.444-4.353
														c1.122-0.898,2.454-1.507,3.904-1.259c1.348,0.226,2.547,0.848,3.589,1.688
														C472.954,281.095,474.344,283.294,475.201,285.085z"/>
													<path style="fill:#FFF89C;" d="M471.093,279.812c0.268,3.218-0.451,6.059-1.694,7.345
														c-1.216-0.014-2.463-0.199-3.635-0.488c-1.088-1.322-1.913-3.597-2.13-6.242c-0.036-0.43-0.052-0.848-0.056-1.258
														c1.122-0.898,2.454-1.507,3.904-1.259c1.348,0.226,2.547,0.848,3.589,1.688
														C471.082,279.668,471.088,279.74,471.093,279.812z"/>
												</g>
												<g>
													<path style="fill:#0C0A0A;" d="M487.527,283.358c1.587,1.313,3.821,1.494,6.065,1.093
														c1.197-0.214,2.396-0.599,3.504-1.077c2.869-1.22,5.111-3.041,5.042-4.027c0,0-1.775-2.419-4.112-3.729
														c-1.254-0.704-2.667-1.086-4.06-0.605c-1.29,0.445-2.37,1.254-3.263,2.253
														C489.089,279.052,488.079,281.451,487.527,283.358z"/>
													<path style="fill:#FFF89C;" d="M490.716,277.484c0.264,3.215,1.434,5.902,2.875,6.967
														c1.197-0.214,2.396-0.599,3.504-1.077c0.859-1.484,1.298-3.863,1.08-6.508c-0.035-0.429-0.088-0.845-0.151-1.248
														c-1.254-0.704-2.667-1.086-4.06-0.605c-1.29,0.445-2.37,1.254-3.263,2.253
														C490.703,277.339,490.71,277.411,490.716,277.484z"/>
												</g>
												<path style="fill:#0C0A0A;" d="M468.506,282.172c0.117,1.417-0.264,2.603-0.849,2.652
													c-0.585,0.049-1.156-1.061-1.271-2.476c-0.117-1.416,0.263-2.603,0.85-2.652
													C467.819,279.648,468.391,280.757,468.506,282.172z"/>
												<path style="fill:#0C0A0A;" d="M496.211,279.267c0.117,1.416-0.263,2.601-0.851,2.65
													c-0.585,0.048-1.155-1.061-1.272-2.476c-0.117-1.416,0.264-2.602,0.85-2.65
													C495.523,276.742,496.092,277.849,496.211,279.267z"/>
											</g>
										</g>
									</g>
								</g>
								<path style="fill:#0C0A0A;" d="M432.257,352.662c-3.584,3.531-10.133,10.753-16.131,15.716l7.031,2.999
									c7.229,2.613,7.997-8.038,10.313-11.779c3.073-4.958,10.851-6.397,14.088-1.559
									C445.698,347.492,438.255,346.75,432.257,352.662z"/>
								<g>
									<g>
										<g>
											<path style="fill:#E8A273;" d="M341.503,290.415c-0.034-0.045-0.069-0.08-0.108-0.098L341.503,290.415z"/>
											<path style="fill:#E8A273;" d="M374.827,363.176c-0.182,4.865-0.176,9.948-0.182,15.112v0.428
												c-0.006,9.279-0.071,18.794-1.342,27.734c-0.855,6.037-2.931,10.282-5.558,12.802c-0.269,0.258-0.539,0.493-0.814,0.715
												c-1.285,1.026-2.68,1.677-4.115,1.952c-2.253,0.439-4.591-0.047-6.754-1.413c-2.608-1.641-4.959-4.561-6.583-8.7
												c-2.216-5.639-3.933-11.994-5.263-18.742c-7.88-39.939-2.059-93.711-3.413-95.465l34.135,23.285
												c0.064,1.947,0.117,3.887,0.158,5.827C375.378,338.788,375.29,350.759,374.827,363.176z"/>
										</g>
									</g>
									<g>
										<path style="fill:#E8A273;" d="M466.762,369.4c-9.832,6.66-19.527,12.622-29.68,19.088
											c-0.381,0.24-0.763,0.486-1.138,0.721c0,0,0,0-0.005,0c-2.34,1.483-4.614,2.896-6.842,4.244
											c-26.713,16.215-45.793,23.566-59.5,26.075c-0.915,0.17-1.8,0.317-2.667,0.44c-2.005,0.293-3.883,0.475-5.647,0.562
											c-1.869,0.094-3.606,0.077-5.223-0.023c-2.608-1.641-4.959-4.561-6.583-8.7c-2.216-5.639-3.933-11.994-5.263-18.742
											c1.387-2.479,2.643-4.502,3.481-5.381c1.014-1.067,6.724-3.159,14.942-5.757c3.587-1.131,7.65-2.356,12.006-3.641
											c0.222-0.064,0.451-0.134,0.68-0.199c26.187-7.679,62.572-17.165,70.539-19.309c3.299-0.891,10.816-3.747,15.364-5.88
											C464.652,351.293,465.01,364.587,466.762,369.4z"/>
										<path style="fill:#E8A273;" d="M500.746,360.502c0.796,0.721,1.712,3.629,0.943,5.522
											c-3.987,3.242-8.535,5.364-13.219,6.625c-11.197,3.019-23.156,1.155-30.008-1.941l-6.918-12.387
											c2.252-2.098,7.685-5.211,10.734-8.623c4.367-4.894,4.444-7.327,10.505-9.613c2.814-1.056,14.743-5.288,17.076-3.219
											c0.785,0.698,1.185,1.355,1.289,1.97c0.598,3.641-9.415,5.745-11.876,6.062c5.37,1.748,11.454,3.552,16.994,5.833
											C503.672,353.766,508.337,355.056,500.746,360.502z"/>
										<g>
											<path style="fill:#1C1817;" d="M448.106,368.68v0.007c-1.293,5.134-4.466,9.699-9.722,11.091
												c-9.453,2.506-9.201-10.172-6.525-19.246c1.379-4.68,2.205-6.693,5.076-8.607l2.153-1.436
												C446.956,349.268,450.331,359.814,448.106,368.68z"/>
											<path style="fill:#0C0A0A;" d="M448.106,368.687c-1.293,5.134-4.466,9.699-9.722,11.091
												c-9.453,2.506-9.201-10.172-6.525-19.246c1.033-0.058,1.975,0.151,2.563,1.084c0.961,1.544-1.206,5.671-1.414,7.538
												c-0.264,2.355-0.395,6.691,3.117,4.214c1.93-1.357,2.138-5.377,2.605-7.337c0.051,1.673-1.342,8.134,1.414,8.449
												c2.699,0.316,3.928-6.978,4.049-8.528c0.596,1.753-0.531,4.006,0.337,6.009
												C446.202,371.925,447.302,370.468,448.106,368.687z"/>
										</g>
									</g>
									<path style="fill:#C87E53;" d="M375.325,378.088c-0.223,0.112-0.445,0.235-0.68,0.358
										c-5.745,3.042-13.876,8.183-18.109,14.678c1.138-3.781,3.366-7.85,6.103-11.197c0.996-1.219,2.063-2.345,3.171-3.329
										c-2.789-8.794-2.52-19.856-2.976-29.253c-0.276-5.551-0.534-11.578-0.113-17.158c0.275-3.599,3.266-13.572,2.368-15.242
										l10.007,9.766c0.282,12.075,0.194,24.046-0.269,36.462c-0.182,4.865-0.176,9.948-0.182,15.112
										C374.867,378.224,375.096,378.153,375.325,378.088z"/>
									<path style="fill:#F9355F;" d="M326.594,326.133c7.068,1.102,14.182,4.906,20.517,7.621
										c12.311,5.276,26.449,19.961,30.483,21.69c0,0,11.138-24.035,0.586-68.587c-1.232-5.202-14.01-19.602-14.01-19.602
										C339.548,273.41,331.283,304.443,326.594,326.133z"/>
									<path style="fill:#C87E53;" d="M369.598,419.528c-0.915,0.17-1.8,0.317-2.667,0.44c-1.285,1.026-2.68,1.677-4.115,1.952
										c-0.528-0.428-1.045-0.897-1.532-1.39c-1.917-1.946-3.381-4.273-3.341-6.067c1.98,2.451,5.791,4.051,9.801,4.79
										C368.362,419.363,368.983,419.458,369.598,419.528z"/>
								</g>
								<g>
									<g>
										<path style="fill:#C87E53;" d="M455.382,385.999c-2.61,1.139-7.046,0.194-9.522,1.212
											c-0.681-0.178-1.388-0.417-2.204-0.659c-2.863-0.86-5.673-1.431-8.392-2.67c-4.04-1.836-7.473-3.541-12.14-2.954
											l-4.287-1.354c2.269,0.285,7.139-1.729,9.064-1.98c3.188-0.413,6.373,0.521,9.323,1.65
											c2.764,1.063,5.624,2.496,8.441,3.513C447.063,383.268,454.168,385.964,455.382,385.999z"/>
									</g>
									<path style="fill:#E8A273;" d="M446.397,401.485c8.639,3.91,20.266,5.999,29.553,7.793
										c35.386,6.838,38.328,3.641,44.681-5.571c0.719-2.304,1.142-22.304-13.236-24.286c-2.534-0.349-48.571,6.059-54.07,6.08
										c-2.281,0.005-7.853-0.79-11.412-1.669C439.233,383.169,445.167,396.301,446.397,401.485z"/>
									<path style="fill:#E8A273;" d="M454.374,400.554c-4.245,4.972-12.264,10.725-21.738,13.654
										c-6.421,1.985-13.506,2.666-20.534,0.929c-1.544-1.424-1.969-4.535-1.549-5.55c-9.449-1.747-5.668-4.993-0.113-11.06
										c4.159-4.547,9.034-8.891,13.262-12.871c-2.839,0.92-16.336,4.07-13.372-2.833c0.285-0.663,1.156-1.237,2.368-1.737
										c0.008,0.001,0.009-0.005,0.009-0.005c4.211-1.738,12.539-2.556,14.93-2.746c6.639-0.53,7.775,1.703,13.985,4.345
										c4.329,1.837,10.752,2.353,13.761,3.32L454.374,400.554z"/>
									<g>
										<path style="fill:#C87E53;" d="M432.636,414.208c-6.421,1.985-13.506,2.666-20.534,0.929
											c-1.544-1.424-1.969-4.535-1.549-5.55c-9.449-1.747-5.668-4.993-0.113-11.06c4.159-4.547,9.034-8.891,13.262-12.871
											c-2.839,0.92-16.336,4.07-13.372-2.833c0.285-0.663,1.156-1.237,2.368-1.737c-1.733,1.384-2.638,2.377,1.68,3.055
											c4.373,0.68,8.765-1.042,13.194-0.007c-3.086,3.01-6.148,5.519-8.847,8.839c-3.372,4.144-5.565,6.207,1.118,7.453
											c-2.17,3.445,1.517,7.679,5.192,5.657c-2.043,3.57,2.009,6.749,5.353,4.906c-0.131,0.334-0.298,0.668-0.431,1.001
											C430.635,413.03,431.567,413.749,432.636,414.208z"/>
									</g>
								</g>
							</g>
							<path style="fill:#F2EAE9;" d="M537.84,435.143l-5.503-2.026c0.701-1.905,0.919-10.089-5.5-43.495l-0.169-0.884
								c-2.054-10.714-2.517-26.156,6.934-38.881l4.707,3.496c-8.181,11.014-7.714,24.722-5.881,34.281l0.168,0.882
								C537.91,416.176,539.527,430.557,537.84,435.143z"/>
						</g>
					</g>
					<path style="fill:#FFFFFF;" d="M571.75,344.868c-3.054-5.822-23.68-6.667-27.252-5.122c-2.934,1.268-6.018,2.452-9.035,3.593
						c-2.095,0.792-8.928,2.019-9.914,4.068c-3.623,7.546,14.414,4.199,17.004,4.198c7.966-0.004,14.544,4.99,22.704,0.667
						C570.375,349.56,574.815,350.716,571.75,344.868z"/>
				</g>
				<g>
					<g>
						<g>
							<g>
								<g>
									<path style="fill:#E8A273;" d="M649.62,829.946c1.009,0.266,2.021,0.52,3.042,0.734c0.477,0.102,0.956,0.199,1.435,0.292
										c0.048,0.008,0.086,0.015,0.139,0.024c1.918,0.317,3.84,0.601,5.766,0.871c3.365-28.546,10.876-57.321,8.786-61.671
										l-21.924,3.671c-0.024,6.837-4.309,37.963-1.671,54.587C646.637,829.04,648.111,829.549,649.62,829.946z"/>
									<g>
										<path style="fill:#FFFFFF;" d="M664.471,839.958c-26.999,6.727-40.852,4.921-48.682,2.523
											c-6.329-1.933-8.559-1.241-7.36-7.973c0.573-3.23,1.891-5.277,3.651-6.71c4.047-3.319,10.419-3.385,15.298-7.258
											c0.361-0.288,0.657-0.67,1.059-0.927c6.625-4.245,8.884-20.164,18.068-9.666c4.217,4.818,2.409,19.273,16.171,18.158
											C663.29,831.798,665.579,836.387,664.471,839.958z"/>
										<path style="fill:#EFEDE6;" d="M647.047,832.14c-9.438-3.86-23.044-5.829-34.968-4.342
											c4.047-3.319,10.419-3.385,15.298-7.258C635.568,822.16,644.74,826.769,647.047,832.14z"/>
									</g>
								</g>
								<path style="fill:#37B5B1;" d="M696.078,574.176c-1.049,22.014,3.259,41.829,5.15,63.151
									c2.078,23.375-3.782,45.544-10.275,68.015c-5.408,18.737-14.383,69.275-20.326,94.366h-32.825
									c-0.018-14.689,0.12-37.45,0.313-64.919c0.872-122.722,2.969-339.387-1.608-350.054l78.616,10.305
									c-1.843,5.843-7.16,51.977-11.726,96.703C699.819,526.747,696.706,560.891,696.078,574.176z"/>
								<g>
									<path style="fill:#34969B;" d="M687.625,430.042c-0.377-1.079-0.827-1.943-1.368-2.544L687.625,430.042z"/>
									<path style="fill:#34969B;" d="M701.228,637.327c2.078,23.375-3.782,45.544-10.275,68.015
										c-5.408,18.737-14.383,69.275-20.326,94.366h-32.825c-0.018-14.689,0.12-37.45,0.313-64.919
										c12.858-0.903,25.712-7.083,32.217-17.056c10.767-16.521,13.852-39.149,15.894-57.753
										c4.186-38.107,0.031-75.852,0.031-115.639c0-20.164,1.204-39.016,1.204-59.023c0-11.245,3.981-44.371,0.167-55.272
										c0,0,13.762,50.658,15.769,61.699c-3.577,35.004-6.69,69.148-7.318,82.434C695.03,596.19,699.337,616.005,701.228,637.327z
										"/>
								</g>
								<g>
									<g>
										<path style="fill:#E8A273;" d="M742.459,832.008c1.026,0.194,2.053,0.377,3.088,0.516c0.484,0.068,0.967,0.132,1.452,0.19
											c0.047,0.006,0.086,0.009,0.139,0.015c1.935,0.18,3.874,0.327,5.815,0.461c1.343-28.711,6.803-57.946,4.414-62.137
											l-21.613,5.208c0.46,6.822-1.62,38.174,2.185,54.568C739.42,831.313,740.927,831.717,742.459,832.008z"/>
										<g>
											<path style="fill:#FFFFFF;" d="M757.98,840.946c-26.458,8.617-40.404,7.791-48.384,5.951
												c-6.45-1.482-8.625-0.633-7.903-7.435c0.342-3.26,1.514-5.396,3.167-6.949c3.805-3.597,10.155-4.112,14.747-8.32
												c0.342-0.314,0.612-0.714,0.993-0.999c6.31-4.704,7.44-20.742,17.342-10.918c4.545,4.51,3.763,19.056,17.411,16.972
												C756.225,832.889,758.833,837.305,757.98,840.946z"/>
											<path style="fill:#EFEDE6;" d="M740.049,834.378c-9.687-3.186-23.398-4.191-35.189-1.864
												c3.805-3.597,10.155-4.112,14.747-8.32C727.892,825.233,737.367,829.182,740.049,834.378z"/>
										</g>
									</g>
									<path style="fill:#37B5B1;" d="M760.323,795.677l-32.629,3.53c-2.09-19.081-5.399-51.873-9.33-90.916
										c-12.521-124.363-31.305-312.092-36.616-321.51l79.269,1.79c-0.661,3.306-1.107,23-1.348,49.558
										c-0.548,59.565-0.089,153.643,1.178,174.56c1.329,21.992,5.581,36.618,9.754,57.611
										C775.177,693.314,763.537,770.089,760.323,795.677z"/>
									<path style="fill:#34969B;" d="M760.323,795.677l-32.629,3.53c-2.09-19.081-5.399-51.873-9.33-90.916
										c7.961,3.775,16.052,6.055,25.234,0.031c14.043-9.219,13.637-31.787,13.186-46.413
										c-1.143-37.249-3.24-75.512-3.905-113.936c-0.363-21.09-1.744-41.806-2.051-63.019
										c-0.245-17.043,2.649-45.257-4.755-59.615l13.596,12.789c-0.548,59.565-0.089,153.643,1.178,174.56
										c1.329,21.992,5.581,36.618,9.754,57.611C775.177,693.314,763.537,770.089,760.323,795.677z"/>
								</g>
							</g>
							<path style="fill:#40C1C1;" d="M770.392,479.046c-1.407,10.587-140.643,18.652-138.161,4.209
								c3.909-22.809-3.472-81.185-11.824-132.792c-7.036-43.554-14.541-82.358-16.998-90.756
								c-12.508-42.749-19.457-55.779,7.845-67.315l55.905-23.871c9.355,0.052,22.966-0.065,36.035-0.352
								c3.172-0.071,6.306-0.15,9.343-0.234c3.876,0.684,7.537,2.287,10.966,4.626c1.583,1.082,3.12,2.313,4.605,3.694
								c5.942,14.353,12.257,45.254,18.139,82.091C760.287,346.149,771.909,467.67,770.392,479.046z"/>
							<g>
								<g>
									<path style="fill:#E8A273;" d="M670.54,168.938c-20.848,12.378-41.545,63.252-44.641,70.487
										c-4.593-9.848-7.129-43.94-7.864-47.752c-2.185-11.291-6.198-24.219-7.609-30.229c-0.256-1.078-0.422-1.928-0.485-2.514
										l15.73-53.472c0.745-0.555,9.644-16.041,7.762-12.084c0.193,1.177,1.221,5.538,2.835,11.642c0.005,0,0.005,0,0.005,0
										c0.135,0.523,0.277,1.065,0.427,1.62c1.198,4.485,2.681,9.765,4.342,15.341c2.201,7.352,3.659,4.553,6.324,11.804
										C652.811,148.656,665.714,169.12,670.54,168.938z"/>
									<path style="fill:#C87E53;" d="M618.035,191.673c-2.185-11.291-6.198-24.219-7.609-30.229l24.995-53.989
										c0.618-0.384,0.458-2.759,0.846-2.438c0.005,0,0.005,0,0.005,0c0.081,0.07,0.182,0.24,0.314,0.562
										c0.017,0.182,0.039,0.384,0.06,0.579c0.015,0.157,0.037,0.315,0.052,0.48c0.432,3.603,1.476,9.148,2.52,15.719
										c0,0,0.811-0.17,1.822-0.378c2.201,7.352,6.266,6.507,8.93,13.759C655.185,172.872,635.852,200.35,618.035,191.673z"/>
								</g>
								<g>
									<g>
										<path style="fill:#E8A273;" d="M576.799,125.89c-2.975-2.914-7.527-2.209-8.892,2.712
											c-1.563,5.625,3.654,13.411,6.901,16.85c3.299,3.493,9.425,8.333,12.322,3.181
											C590.209,143.159,578.605,127.653,576.799,125.89z"/>
										<path style="fill:#C87E53;" d="M569.552,132.096c-0.677,3.697,3.443,8.398,5.422,11.03
											c-1.534-2.901-4.044-6.286-2.716-9.709c1.371-3.524,4.388-1.124,6.401,0.738c-2.235-1.094-1.625,3.669-0.904,4.81
											c1.171,1.851,3.061,1.911,3.807-0.046C582.939,135.324,572.08,118.198,569.552,132.096z"/>
									</g>
									<path style="fill:#2A1F19;" d="M577.159,80.998l-20.299,3.179c2.073,10.072,5.907,19.427,9.924,28.881
										c4.248,9.999,10.436,21.093,19.266,27.611C577.929,121.47,573.037,102.053,577.159,80.998z"/>
									<path style="fill:#E8A273;" d="M632.865,179.848c-6.434,7.026-10.743,7.851-21.593,8.183
										c-5.385,0.164-13.082-6.073-17.311-13.298c-8.15-13.932-14.804-27.766-14.995-32c-0.735-16.288-2.152-14.754-4.465-23.014
										c-5.797-20.701-12.81-31.329,5.407-44.403c38.717-27.785,57.933-14.356,68.806,45.387
										C654.829,154.301,640.083,171.964,632.865,179.848z"/>
									<g>
										<g>
											<path style="fill:#C87E53;" d="M629.308,124.506c0.163-1.347,0.506-2.635,0.981-3.855
												c-2.345-3.328-5.432-6.488-11.696-5.88c-10.057,2.611-3.562,8.478-3.525,12.437c5.251-1.8,8.775-3.062,14.229-2.593
												C629.303,124.579,629.304,124.542,629.308,124.506z"/>
										</g>
										<path style="fill:#FFFFFF;" d="M629.308,124.506c0.144-1.183,0.432-2.318,0.815-3.404
											c-1.127-1.259-2.381-2.37-4.097-3.237c-1.643-0.794-3.74-1.287-6.372-0.934c-3.626,0.553-4.812,2.632-5.011,4.729
											c-0.175,1.748,0.191,3.661,0.425,5.548c1.132-0.498,2.198-0.863,3.22-1.163c2.581-0.719,4.905-1.112,7.512-1.257
											c1.09-0.049,2.242-0.054,3.474,0.051C629.287,124.728,629.293,124.616,629.308,124.506z"/>
										<g>
											<path style="fill:#1E1612;" d="M615.366,122.797c0.919,1.283,1.965,2.373,2.922,3.248
												c2.581-0.719,4.905-1.112,7.512-1.257c0.551-1.238,0.95-2.765,0.822-4.467c-0.066-0.853-0.258-1.681-0.596-2.456
												c-1.643-0.794-3.74-1.287-6.372-0.934c-3.626,0.553-4.812,2.632-5.011,4.729
												C614.852,122.039,615.098,122.418,615.366,122.797z"/>
										</g>
										<path style="fill:#FFFFFF;" d="M617.9,122.862c0.274,0.994,0.874,1.743,1.405,1.698c0.535-0.046,0.898-0.876,0.748-1.897
											c-0.149-1.016-0.854-1.821-1.508-1.749C617.886,120.982,617.631,121.873,617.9,122.862z"/>
									</g>
									<g>
										<g>
											<path style="fill:#C87E53;" d="M594.594,129.453c0.018-1.357,0.22-2.675,0.562-3.937
												c-2.689-3.057-6.099-5.867-12.259-4.591c-9.719,3.676-2.632,8.812-2.176,12.744c5.035-2.354,8.402-3.985,13.875-4.108
												C594.595,129.525,594.597,129.488,594.594,129.453z"/>
										</g>
										<path style="fill:#FFFFFF;" d="M594.594,129.453c0.016-1.191,0.181-2.351,0.447-3.474
											c-1.259-1.129-2.628-2.099-4.424-2.775c-1.716-0.612-3.856-0.879-6.433-0.244c-3.547,0.94-4.502,3.132-4.479,5.24
											c0.017,1.757,0.587,3.618,1.018,5.471c1.074-0.62,2.097-1.096,3.082-1.501c2.484-0.995,4.754-1.635,7.33-2.059
											c1.081-0.167,2.226-0.295,3.461-0.32C594.597,129.676,594.593,129.564,594.594,129.453z"/>
										<g>
											<path style="fill:#1E1612;" d="M580.552,129.253c1.05,1.177,2.205,2.145,3.254,2.916c2.484-0.995,4.754-1.635,7.33-2.059
												c0.416-1.29,0.649-2.851,0.338-4.53c-0.155-0.841-0.439-1.644-0.858-2.376c-1.716-0.612-3.856-0.879-6.433-0.244
												c-3.547,0.94-4.502,3.132-4.479,5.24C579.959,128.554,580.239,128.906,580.552,129.253z"/>
										</g>
										<path style="fill:#FFFFFF;" d="M583.338,129.307c0.379,0.956,1.056,1.637,1.581,1.536
											c0.527-0.101,0.798-0.969,0.539-1.966c-0.256-0.997-1.045-1.718-1.686-1.58
											C583.123,127.438,582.964,128.35,583.338,129.307z"/>
									</g>
									<path style="fill:#2A1F19;" d="M590.766,111.185c-3.721-1.076-3.589-0.695-7.428-1.119
										c-6.042-0.664-8.369,3.037-10.431,8.098c3.702-3.168,10.698-2.879,17.881,0.957L590.766,111.185z"/>
									<path style="fill:#2A1F19;" d="M609.242,108.801c4.067-3.331,8.509-4.94,12.619-5.408c4.646-0.531,7.75,0.903,10.824,5.454
										c-4.554-2.307-14.375,1.668-21.6,7.082L609.242,108.801z"/>
									<path style="fill:#C87E53;" d="M605.214,144.07c-3.284-0.419-5.142-13.953-5.254-19.271c0,0-1.229,7.603-1.291,10.981
										c-0.063,3.689,0.634,9.546,1.8,13.026c1.182,3.542,11.53-4.397,13.145-5.969
										C611.155,142.714,607.604,144.375,605.214,144.07z"/>
									<g>
										<path style="fill:#C87E53;" d="M628.013,151.138c-2.973,6.768-5.502,11.397-12.949,13.462
											c-3.815,1.056-7.73,1.374-10.975,0.367c-2.779-0.866-5.069-2.691-6.375-5.865c0.166,0.04,2.474,0.641,6.239,0.589
											C609.527,159.606,618.296,158.074,628.013,151.138z"/>
										<path style="fill:#FFFFFF;" d="M628.013,151.138c-2.973,6.768-5.502,11.397-12.949,13.462
											c-3.815,1.056-7.73,1.374-10.975,0.367c0.09-0.517,0.165-1.077,0.179-1.667c0.023-0.897-0.055-2.263-0.315-3.609
											C609.527,159.606,618.296,158.074,628.013,151.138z"/>
									</g>
									<path style="fill:#513A31;" d="M650.042,70.896c-2.758,0.001-4.968,2.118-6.992,3.847
										c13.379,11.008,5.915,37.59,3.463,51.355c-5.262-5.243-3.826-23.152-13.378-25.441c-4.544-1.091-6.946-1.051-10.189-5.103
										c-2.868-3.584-5.854-7.015-6.495-11.553c-19.79,13.886-38.954,15.35-47.823,14.72c-7.319,0.337-15.01-6.27-19.353-15.564
										c-2.038-4.346-3.337-9.292-3.516-14.381c11.671,2.148,32.492-7.296,43.642-10.265c14.67-3.91,28.206-2.244,41.742,4.04
										c-0.406-2.726-1.498-5.583-1.497-8.295c4.025-0.268,6.19,4.984,8.433,7.419c3.704-2.498,7.48-2.257,11.8-2.41
										c-2.72,2.377-7.311,5.145-9.1,8.399c1.356-0.026,2.985,0.183,4.543,0.639C647.139,68.825,648.878,69.686,650.042,70.896z"
										/>
									<g>
										<g>
											<path style="fill:#2A1F19;" d="M634.928,67.245c-0.003,0.009-0.005,0.018-0.009,0.028c0.007-0.007,0.012-0.013,0.02-0.02
												C635.041,67.117,635.036,67.114,634.928,67.245z"/>
											<path style="fill:#2A1F19;" d="M643.05,74.743c13.379,11.008,5.915,37.59,3.463,51.355
												c-5.262-5.243-3.826-23.152-13.378-25.441c-4.544-1.091-6.946-1.051-10.189-5.103c-2.868-3.584-5.854-7.015-6.495-11.553
												c-19.79,13.886-38.954,15.35-47.823,14.72c-7.319,0.337-15.01-6.27-19.353-15.564c9.585,8.057,26.134,8.1,37.132,3.503
												c6.763-2.823,12.646-7.33,19.81-9.177c3.203-0.826,6.944-1.654,10.324-1.715c2.102-0.03,6.664,2.046,8.361,1.589
												c0.23-0.063,0.683,0.223,0.86,0.307c-0.226-3.975-4.836-5.819-6.455-8.89c4.35-0.639,7.086,2.7,10.659,4.302
												c1.194-2.248,3.153-3.984,4.954-5.801c-1.372,3.921-0.233,7.473,0.424,11.206c1.93-4.166,5.559-8.168,9.979-10.178
												c1.817,0.521,3.556,1.382,4.719,2.593C647.284,70.898,645.074,73.014,643.05,74.743z"/>
										</g>
									</g>
									<g>
										<path style="fill:#E8A273;" d="M645.363,109.94c1.664-4.418,7.324-6.993,11.881-3.952
											c5.21,3.473,3.93,13.386,2.279,18.419c-1.68,5.109-5.791,13.264-12.256,11.097
											C640.406,133.202,644.357,112.616,645.363,109.94z"/>
										<path style="fill:#C87E53;" d="M657.472,109.951c3.016,2.532,1.125,9.188,0.448,12.688
											c0.004-3.413,0.844-7.891-2.766-9.743c-3.711-1.907-5.732,2.123-6.919,5.025c1.914-2.431,4.098,1.846,3.957,3.271
											c-0.224,2.306-2.362,3.664-4.408,2.595C644.023,121.827,646.129,100.448,657.472,109.951z"/>
									</g>
								</g>
							</g>
							<g>
								<rect x="655.732" y="240.562" style="fill:#C1D1D0;" width="5.406" height="13.816"/>
								<g>
									<rect x="640.416" y="251.375" style="fill:#FFFFFF;" width="36.043" height="19.223"/>
									<rect x="646.121" y="258.583" style="fill:#C1D1D0;" width="24.631" height="3.004"/>
								</g>
							</g>
							<path style="fill:#34969B;" d="M770.392,479.046c-1.407,10.587-140.643,18.652-138.161,4.209
								c3.909-22.809-3.472-81.185-11.824-132.792c23.963,2.945,46.414,5.316,70.325-5.616
								c23.011-10.516,4.651-113.077,4.534-124.967c-0.137-14.262,30.562-30.642,28.238-47.321c1.583,1.082,3.12,2.313,4.605,3.694
								c5.942,14.353,12.257,45.254,18.139,82.091C760.287,346.149,771.909,467.67,770.392,479.046z"/>
						</g>
						<g>
							<path style="fill:#E8A273;" d="M744.503,323.709c-11.708-11.579-31.445-5.569-45.036,1.877
								c-22.936,12.562-46.668,23.749-71.647,30.362l1.955,24.106C687.954,377.587,785.977,364.728,744.503,323.709z"/>
							<path style="fill:#FFFFFF;" d="M639.339,382.38c0,0-21.76-2.124-31.272,1.303c-6.763,2.437-12.847,3.883-18.249,4.619
								c-20.536,2.782-31.194-4.763-31.709-7.597c-4.268-1.779-8.958-7.382-11.727-11.076c1.439-5.264,16.235,1.003,20.385,0.632
								c6.307-0.561,8.555-4.378,13.31-8.255c-3.694,0.176-16.066,0.931-17.831-3.844c-1.133-3.082,2.671-3.57,6.704-3.551
								c2.861,0.013,5.831,0.28,7.226,0.065c4.508-0.697,8.502-0.397,12.874,0.3c4.652,0.743,13.584,3.623,17.174,4.164l30.511-6.3
								C636.688,356.221,639.339,382.38,639.339,382.38z"/>
							<path style="fill:#E8A273;" d="M755.85,340.077c-0.795,5.368-3.896,12.487-8.151,16.305
								c-4.013,3.616-8.203,2.272-16.504,0.435c-13.187-2.919-17.597-24.043-18.925-36.976c0-0.02,0-0.039-0.006-0.058
								c-0.157-1.538-0.281-2.939-0.386-4.138c-1.198-13.799-1.361-27.598-2.163-41.371c-0.202-3.473-0.443-6.946-0.75-10.419
								c-1.244-13.981-0.215-34.478-5.883-46.909l45.926,3.909C756.318,252.65,760.879,306.303,755.85,340.077z"/>
							<g>
								<path style="fill:#C87E53;" d="M738.428,333.237c-7.184-6.998-16.43-11.35-26.054-13.428
									c-0.039-0.007-0.072-0.013-0.11-0.026c-0.157-1.538-0.281-2.939-0.386-4.138c-1.198-13.799-1.361-27.598-2.163-41.371
									l11.489-52.105c0,24.152,6.514,70.798,2.089,94.994c-0.054,0.288-0.17,0.56-0.254,0.834
									C729.841,322.147,733.496,327.841,738.428,333.237z"/>
							</g>
							<path style="fill:#40C1C1;" d="M763.671,276.558l-58.634,5.864c-0.072-22.354-23.857-105.556,0.764-113.506
								c0.879-0.287,1.811-0.483,2.808-0.589c2.241-0.234,4.416-0.121,6.534,0.318c3.876,0.793,7.538,2.65,10.965,5.36
								c1.583,1.254,3.12,2.68,4.607,4.28C749.51,198.459,759.112,246.896,763.671,276.558z"/>
						</g>
					</g>
					<path style="fill:#EDEBEB;" d="M589.817,388.302c-20.536,2.782-31.194-4.763-31.709-7.597
						c-4.268-1.779-8.958-7.382-11.727-11.076c1.439-5.264,16.235,1.003,20.385,0.632c6.307-0.561,8.555-4.378,13.31-8.255
						c-3.694,0.176-16.066,0.931-17.831-3.844c-1.133-3.082,2.671-3.57,6.704-3.551c-1.452,0.169-2.834,0.436-4.053,0.879
						c0.692,5.642,12.463,3.486,15.95,6.209c-1.095,4.313-4.351,5.401-7.655,7.831c-4.007,2.938-4.763,7.389,1.582,7.772
						c-2.254,3.472,2.086,5.662,5.206,5.636c-0.256,3.596,4.483,4.43,7.023,3.159C587.745,386.993,588.723,387.723,589.817,388.302z
						"/>
				</g>
			</g>
		</g>
	</g>
</g>
</svg>
