<?xml version="1.0" encoding="utf-8"?>
<!-- Generator: Adobe Illustrator 27.5.0, SVG Export Plug-In . SVG Version: 6.00 Build 0)  -->
<svg version="1.1" xmlns="http://www.w3.org/2000/svg" xmlns:xlink="http://www.w3.org/1999/xlink" x="0px" y="0px"
	 viewBox="0 0 500 500" style="enable-background:new 0 0 500 500;" xml:space="preserve">
<g id="BACKGROUND">
	<rect y="0" style="fill:none;" width="500" height="500"/>
</g>
<g id="OBJECTS">
	<g>
		<g transform="matrix( 1, 0, 0, 1, -192.1,31.9) ">
			<g>
				<g id="Layer0_0_FILL">
					<linearGradient id="SVGID_1_" gradientUnits="userSpaceOnUse" x1="266.4631" y1="321.4774" x2="266.4631" y2="256.8285">
						<stop  offset="0" style="stop-color:#B3DB77"/>
						<stop  offset="1" style="stop-color:#90DBAC"/>
					</linearGradient>
					<path style="fill:url(#SVGID_1_);" d="M252.908,274.505c-2.152,0-3.229,1.598-3.229,4.792c0,2.557,0.455,5.063,1.363,7.518
						c0.157,0.416,0.309,0.819,0.454,1.211c-0.251-0.033-0.538-0.051-0.857-0.051c-1.177,0-2.388,0.487-3.633,1.463
						c-1.446,1.11-2.169,2.406-2.169,3.886c0,0.071,0,0.138,0,0.202c-0.165-0.359-0.367-0.745-0.606-1.161
						c-0.942-1.614-1.917-2.422-2.926-2.422c-1.615,0-3.128,0.589-4.541,1.766c-1.513,1.313-2.271,2.91-2.271,4.793
						c0,0.202,0.085,0.706,0.252,1.514c0.135,0.875,0.27,1.514,0.403,1.918h-0.151c-0.773-1.346-1.345-2.27-1.715-2.774
						c-0.773-1.077-1.429-1.615-1.967-1.615c-0.471,0-1.076,0.27-1.816,0.808c-1.11,0.773-1.665,1.832-1.665,3.178
						c0,0.808,0.151,1.799,0.454,2.978c-0.976-1.145-1.883-2.153-2.725-3.028c-1.615-1.682-2.876-2.522-3.784-2.522
						c-0.033,0-0.37,0.051-1.009,0.152c-0.639,0.336-0.958,0.992-0.958,1.967c0,0.37,0.1,0.976,0.302,1.816
						c0.269,1.144,0.622,2.136,1.06,2.977c0.303,0.605,0.891,1.38,1.766,2.321c0.271,0.294,0.523,0.563,0.756,0.808h85.974
						c2.249-5.724,3.392-10.298,3.431-13.724c0.064-3.397-0.071-6.07-0.404-8.021c-0.292-1.946-1.233-3.242-2.825-3.887
						c-1.564-0.61-3.415-0.34-5.55,0.809c-2.096,1.142-3.374,2.068-3.835,2.775c0.011-0.087,0.297-0.406,0.858-0.959
						c0.558-0.513,0.877-3.371,0.959-8.577c0.116-5.212-0.943-8.105-3.179-8.679c-2.198-0.542-4.602,0.518-7.215,3.179
						c-2.621,2.658-3.932,5.551-3.935,8.678c0,1.749,0.135,2.809,0.404,3.179h-0.151c-0.538-1.479-1.144-2.741-1.816-3.783
						c-1.345-2.018-3.027-3.028-5.046-3.028c-1.413,0-2.843,0.605-4.288,1.816c-1.354,1.101-2.144,2.328-2.372,3.684
						c-0.269-0.241-0.555-0.493-0.857-0.757c-2.759-2.287-4.81-3.919-6.156-4.895c-2.018-1.412-3.431-2.118-4.238-2.118
						c-2.456,0-3.684,1.311-3.684,3.936c0,1.081,0.202,2.325,0.606,3.732c-0.059-0.036-0.127-0.069-0.202-0.1
						c-0.362-0.594-0.816-1.232-1.362-1.918C256.726,275.782,254.759,274.505,252.908,274.505z"/>
				</g>
			</g>
		</g>
		<g>
			<g transform="matrix( 1.185821533203125, 0, 0, 1.185821533203125, -62.8,-41.7) ">
				<g>
					<g id="Layer0_1_MEMBER_0_FILL">
						
							<linearGradient id="SVGID_00000170256025907837869560000004608759653184278716_" gradientUnits="userSpaceOnUse" x1="260.8056" y1="296.3142" x2="260.8056" y2="250.4988">
							<stop  offset="0.2312" style="stop-color:#D2D2D2"/>
							<stop  offset="1" style="stop-color:#BDD2D2"/>
						</linearGradient>
						<path style="fill:url(#SVGID_00000170256025907837869560000004608759653184278716_);" d="M207.956,277.54h-2.271v30.171h2.271
							V277.54 M216.936,233.947h-2.321v70.751h2.321V233.947 M315.927,277.54h-2.322v30.171h2.322V277.54 M307.35,233.947h-2.322
							v70.751h2.322V233.947z"/>
					</g>
				</g>
			</g>
			<g transform="matrix( 1.185821533203125, 0, 0, 1.185821533203125, -62.8,-41.7) ">
				<g>
					<g id="Layer0_1_MEMBER_1_FILL">
						
							<linearGradient id="SVGID_00000049915644598163128700000005782529478383869065_" gradientUnits="userSpaceOnUse" x1="261.3104" y1="281.9577" x2="261.3104" y2="229.0947">
							<stop  offset="0.2312" style="stop-color:#EEEEEE"/>
							<stop  offset="0.9946" style="stop-color:#E8EEEE"/>
						</linearGradient>
						<path style="fill:url(#SVGID_00000049915644598163128700000005782529478383869065_);" d="M311.789,268.457v-8.477H210.882
							v8.477H311.789 M319.661,277.337l-7.871-3.431H210.932l-7.972,3.431H319.661 M311.789,256.097v-8.477H210.882v8.477H311.789
							 M311.789,243.785v-8.476H210.882v8.476H311.789z"/>
						<path style="fill:#E0E0E0;" d="M319.661,281.273v-3.936H202.96v3.936H319.661z"/>
					</g>
				</g>
			</g>
		</g>
		<g transform="matrix( 1, 0, 0, 0.926116943359375, 0,39.3) ">
			<g>
				<g id="Layer0_2_FILL">
					
						<linearGradient id="SVGID_00000132078084615858245170000012397384067685970339_" gradientUnits="userSpaceOnUse" x1="250.2886" y1="437.1953" x2="250.2886" y2="296.587">
						<stop  offset="0.3548" style="stop-color:#D1D4C9"/>
						<stop  offset="1" style="stop-color:#B8D4CC"/>
					</linearGradient>
					<path style="fill:url(#SVGID_00000132078084615858245170000012397384067685970339_);" d="M472.21,342.729
						c-0.625-8.034-5.267-11.884-13.925-11.554H45.47c-15.049,1.99-20.212,8.92-15.489,20.788
						c4.758,11.865,14.798,20.376,30.121,25.53c15.356,5.196,26.305,7.752,32.846,7.669c6.539-0.089,14.058,0.954,22.553,3.128
						c8.5,2.214,15.043,5.308,19.626,9.283c4.613,4.004,10.163,10.142,16.65,18.416c6.514,8.307,14.671,14.749,24.47,19.323
						c9.801,4.572,19.152,7.549,28.053,8.931c8.938,1.382,19.382,1.903,31.331,1.564c21.297-1.047,40.941-5.656,58.93-13.824
						c17.993-8.143,33.752-16.182,47.275-24.117c13.522-7.926,30.609-13.645,51.262-17.155c20.656-3.48,35.742-7.667,45.257-12.563
						c9.509-4.902,17.682-10.031,24.521-15.388C469.726,357.446,472.836,350.769,472.21,342.729z"/>
				</g>
			</g>
		</g>
		<g transform="matrix( 1, 0, 0, 1, 2.2,0) ">
			<g>
				<g id="Layer0_3_FILL">
					<path style="fill:#B7BBAD;" d="M89.688,387.585c0,1.212,5.5,2.237,16.498,3.078c10.999,0.841,24.286,1.261,39.859,1.261
						c15.574,0,28.86-0.42,39.859-1.261c10.999-0.841,16.498-1.866,16.498-3.078c0-1.211-5.499-2.236-16.498-3.077
						c-10.999-0.842-24.285-1.262-39.859-1.262c-15.573,0-28.86,0.42-39.859,1.262C95.188,385.348,89.688,386.374,89.688,387.585z"
						/>
				</g>
			</g>
		</g>
		<g transform="matrix( 1, 0, 0, 1, 206.85,0) ">
			<g>
				<g id="Layer0_4_FILL">
					<path style="fill:#B7BBAD;" d="M93.766,387.585c0,1.212,5.499,2.237,16.498,3.078c11,0.841,24.285,1.261,39.858,1.261
						c15.574,0,28.86-0.42,39.859-1.261c11-0.841,16.498-1.866,16.498-3.078c0-1.211-5.498-2.236-16.498-3.077
						c-10.999-0.842-24.285-1.262-39.859-1.262c-15.573,0-28.858,0.42-39.858,1.262C99.265,385.348,93.766,386.374,93.766,387.585z"
						/>
				</g>
			</g>
		</g>
		<g>
			<g transform="matrix( 0.9986572265625, 0.0518035888671875, -0.0518035888671875, 0.9986572265625, -8.5,-8.1) ">
				<g>
					<g id="Layer0_5_MEMBER_0_FILL">
						
							<linearGradient id="SVGID_00000085942305971054835680000000045945325544092606_" gradientUnits="userSpaceOnUse" x1="209.6597" y1="369.7264" x2="246.3266" y2="387.4159">
							<stop  offset="0" style="stop-color:#668183"/>
							<stop  offset="1" style="stop-color:#7E8183"/>
						</linearGradient>
						<path style="fill:url(#SVGID_00000085942305971054835680000000045945325544092606_);" d="M214.046,378.585
							c0.181,0.84,0.567,1.985,1.16,3.432c0.324,0.77,0.66,1.594,1.01,2.471c0.927,0.485,1.634,0.873,2.119,1.161
							c5.074-2.796,10.406-5.637,15.994-8.526c3.833-1.992,6.641-3.422,8.426-4.289c0.067-0.245,0.101-0.38,0.101-0.402
							c-0.058-0.46-0.394-0.948-1.009-1.463c-1.589,0.038-3.758,0.408-6.509,1.108l-15.64,3.381l-0.606-0.101
							c-0.06,0.051-0.127,0.084-0.202,0.102C217.472,376.287,215.858,377.33,214.046,378.585z"/>
					</g>
				</g>
			</g>
			<g transform="matrix( 0.992095947265625, 0.12542724609375, -0.12542724609375, 0.992095947265625, 13.2,-21.05) ">
				<g>
					<g id="Layer0_5_MEMBER_3_FILL">
						
							<linearGradient id="SVGID_00000049200151726856492880000018262971168533419425_" gradientUnits="userSpaceOnUse" x1="134.1701" y1="249.7914" x2="113.3401" y2="280.489">
							<stop  offset="0.1505" style="stop-color:#FFB9B2"/>
							<stop  offset="1" style="stop-color:#FFDEC6"/>
						</linearGradient>
						<path style="fill:url(#SVGID_00000049200151726856492880000018262971168533419425_);" d="M109.497,297.206
							c-0.517-0.49-0.904-0.859-1.16-1.108c2.206-2.726,4.863-6.527,7.971-11.402c4.171-6.593,7.619-11.807,10.343-15.642
							c0.707-1.009,2.944-4.423,6.711-10.242c2.332-3.579,4.215-6.304,5.65-8.173c-0.167-0.092-0.335-0.193-0.504-0.303
							c-2.643-1.693-4.897-3.292-6.761-4.793c-2.356,2.89-5.602,7.549-9.737,13.975c-5.92,9.115-11.907,20.568-17.962,34.359
							c-0.908,1.211-1.951,2.758-3.128,4.642c-0.16,0.267-0.311,0.52-0.454,0.756c-0.096,0.159-0.197,0.309-0.303,0.455
							c-0.15,0.897-0.436,2.596-0.857,5.096c-0.152,0.946-0.286,1.77-0.404,2.471l0.151,0.808c0.001,0.27,0.152,0.808,0.454,1.615
							c0.153,0.425,0.421,1.165,0.807,2.22c0.55,0.061,0.953,0.027,1.211-0.101c0.067-0.034,0.369-0.286,0.908-0.758
							c0.234,1.007,0.587,1.864,1.06,2.573c0.707,0.068,1.429-0.118,2.169-0.554c0.101-0.214,0.152-0.449,0.152-0.707
							c0-0.605-0.118-1.48-0.353-2.623c-0.431-1.227-0.717-2.186-0.858-2.877c0.152-0.496,0.337-0.95,0.555-1.362
							c0.043-0.079,0.076-0.163,0.101-0.253c0.105,0.294,0.223,0.597,0.354,0.908c0.235,0.606,0.572,1.414,1.01,2.422
							c0.369,0.975,0.773,1.984,1.21,3.027c0.135,0.505,0.354,0.976,0.656,1.413c0.135,0.201,0.387,0.404,0.757,0.606
							c0.235-0.303,0.672-0.622,1.311-0.959c0.404-0.235,0.606-0.572,0.606-1.009c0-0.101-0.219-0.606-0.656-1.515
							c-0.538-1.008-0.875-1.749-1.01-2.22c-0.269-0.806-0.605-1.681-1.009-2.623c-0.14-0.314-0.257-0.584-0.353-0.808l1.917,0.151
							c0.908-0.001,1.715-0.102,2.422-0.303c0.942-0.269,1.413-0.689,1.413-1.26c0-0.975-0.707-1.496-2.119-1.564
							c-1.447-0.034-2.17-0.354-2.169-0.958c0.437-1.615,0.655-2.456,0.655-2.524C110.254,297.965,110.001,297.678,109.497,297.206z
							"/>
					</g>
				</g>
			</g>
			<g transform="matrix( 0.9986572265625, 0.0518035888671875, -0.0518035888671875, 0.9986572265625, -8.35,-8.3) ">
				<g>
					<g id="Layer0_5_MEMBER_4_FILL">
						
							<linearGradient id="SVGID_00000115487450736465499070000010371891189166325649_" gradientUnits="userSpaceOnUse" x1="120.9041" y1="346.8882" x2="129.2671" y2="373.2629">
							<stop  offset="0" style="stop-color:#668183"/>
							<stop  offset="1" style="stop-color:#7E8183"/>
						</linearGradient>
						<path style="fill:url(#SVGID_00000115487450736465499070000010371891189166325649_);" d="M127.317,346.091
							c0.034-0.066,0.034-0.117,0-0.151c-0.269-1.647-0.706-3.515-1.312-5.602c-0.807-0.202-2.001-0.251-3.582-0.15
							c-0.807,0.066-1.698,0.117-2.674,0.15c-0.739,0.741-1.345,1.295-1.816,1.665c0.942,5.685,1.816,11.638,2.624,17.861
							c0.572,4.273,0.958,7.383,1.16,9.334c0.236,0.169,0.37,0.253,0.404,0.252c0.437,0.102,1.009-0.05,1.716-0.453
							c0.471-1.48,0.857-3.632,1.16-6.459l2.119-15.893L127.317,346.091z"/>
					</g>
				</g>
			</g>
			<g transform="matrix( 0.9986572265625, 0.0518035888671875, -0.0518035888671875, 0.9986572265625, -9.1,-7.95) ">
				<g>
					<g id="Layer0_5_MEMBER_5_FILL">
						
							<linearGradient id="SVGID_00000103267474690350333430000010713827419946984861_" gradientUnits="userSpaceOnUse" x1="131.9108" y1="364.4793" x2="157.7752" y2="330.636">
							<stop  offset="0.2258" style="stop-color:#70ADD2"/>
							<stop  offset="1" style="stop-color:#5181D2"/>
						</linearGradient>
						<path style="fill:url(#SVGID_00000103267474690350333430000010713827419946984861_);" d="M124.182,339.132
							c-0.034,1.951,0.437,4.389,1.413,7.316c0.37,1.111,1.026,2.338,1.967,3.682c2.494,0.009,9.104-1.403,19.829-4.237
							c10.725-2.8,19.555-5.341,26.489-7.62c0.874-0.671,1.765-1.444,2.674-2.32c0.303-1.008,0.723-2.539,1.261-4.592
							c0.874-3.362,1.53-5.902,1.967-7.617c0.001-0.168,0.034-0.32,0.101-0.455c0.202-1.445,0.32-2.69,0.353-3.732
							c0.034-1.077,0.051-3.145,0.05-6.206c0.001-3.096,0.001-6.576,0.001-10.445c-0.034-3.734-0.589-9.384-1.665-16.951
							c-1.076,0.168-2.438,0.386-4.087,0.655c-4.641,0.74-8.795,1.43-12.462,2.069c0.606,3.834,1.228,7.467,1.867,10.897
							c0.404,2.692,0.606,6.794,0.605,12.31c0,1.951-0.101,4.172-0.302,6.661c-0.169,2.118-0.337,3.598-0.505,4.439
							c-0.673,0.505-1.093,0.873-1.262,1.11c-0.202,0.235-0.303,0.556-0.303,0.959c0,0.067,0.152,0.335,0.454,0.807
							c0.034,0.033,0.068,0.083,0.101,0.151c-1.951,1.345-6.021,3.144-12.209,5.399
							C143.994,333.835,135.215,336.408,124.182,339.132z"/>
					</g>
				</g>
			</g>
			<g transform="matrix( 0.9986572265625, 0.0518035888671875, -0.0518035888671875, 0.9986572265625, -9.3,-9.2) ">
				<g>
					<g id="Layer0_5_MEMBER_6_FILL">
						
							<linearGradient id="SVGID_00000155833240540306344830000003698930845014155691_" gradientUnits="userSpaceOnUse" x1="208.7272" y1="383.1453" x2="171.3061" y2="304.1762">
							<stop  offset="0.2258" style="stop-color:#70ADD2"/>
							<stop  offset="1" style="stop-color:#518DD2"/>
						</linearGradient>
						<path style="fill:url(#SVGID_00000155833240540306344830000003698930845014155691_);" d="M143.604,291.492
							c0,0.241,0,0.475,0.001,0.707c0,0.342,0.101,2.598,0.302,6.761c0.775,1.651,1.767,3.435,2.977,5.348
							c0.96,1.477,1.817,2.654,2.573,3.533c1.511,0.876,3.933,2.171,7.265,3.884c1.344,0.688,2.521,1.311,3.531,1.867
							c1.301,1.38,2.831,3.045,4.591,4.994c4.372,4.844,7.383,8.023,9.032,9.536c1.682,1.548,4.574,5.012,8.678,10.393
							c0.615,0.795,1.371,1.62,2.27,2.472c1.85,2.254,5.517,7.332,11,15.238c4.742,6.895,8.089,11.89,10.04,14.985
							c2.406,3.766,4.913,7.23,7.518,10.392l9.94-6.307c-3.25-6.732-5.891-12.03-7.921-15.893
							c-4.07-7.804-9.132-16.851-15.186-27.144c-2.608-3.172-7.082-9.158-13.421-17.961c-5.972-8.259-11.606-16.181-16.902-23.764
							C163.691,290.797,154.928,291.117,143.604,291.492z"/>
					</g>
				</g>
			</g>
			<g transform="matrix( 1, 0, 0, 1, -16.15,0) ">
				<g>
					<g id="Layer0_5_MEMBER_7_FILL">
						
							<linearGradient id="SVGID_00000152230871005423653230000018348832954598836366_" gradientUnits="userSpaceOnUse" x1="176.6124" y1="245.8354" x2="196.8941" y2="271.8734">
							<stop  offset="0.1505" style="stop-color:#FFB9B2"/>
							<stop  offset="1" style="stop-color:#FFDEC6"/>
						</linearGradient>
						<path style="fill:url(#SVGID_00000152230871005423653230000018348832954598836366_);" d="M170.753,249.644
							c6.087,7.333,12.663,14.598,19.727,21.796c6.189,6.257,10.965,10.798,14.329,13.623c-0.236,0.739-0.354,1.548-0.354,2.422
							c0,1.716,0.185,3.498,0.555,5.348c1.582,1.654,3.062,2.749,4.439,3.279c0.009,0.609,0.194,0.997,0.556,1.161
							c0.134,0.067,0.403,0.1,0.807,0.1l0.606-0.1c0.081-0.042,0.148-0.092,0.202-0.151c0.8-0.724,1.405-1.313,1.816-1.767
							c-0.009,0.479-0.061,0.883-0.151,1.212c-0.169,0.605-0.253,1.043-0.253,1.311c0,0.506,0.033,0.842,0.101,1.011
							c0.067,0.201,0.235,0.369,0.505,0.504c0.706-0.639,1.328-1.429,1.866-2.371c0.034-0.101,0.084-0.202,0.151-0.303
							c0.975-0.706,1.632-1.193,1.968-1.463c0.336-0.27,0.622-0.741,0.858-1.413c0.168-0.672,0.219-1.245,0.151-1.717
							c-0.067-0.47-0.151-0.99-0.252-1.563c0.162-0.048,0.111-0.467-0.151-1.262c-0.896-2.564-2.208-4.565-3.935-6.005
							c-0.94-0.165-1.496-0.266-1.665-0.302c-1.211-0.27-2.17-0.488-2.876-0.655c-0.74-0.202-1.16-0.353-1.262-0.454
							c-0.101-0.102-2.489-3.296-7.165-9.587c-4.675-6.323-12.227-15.657-22.654-28.001L170.753,249.644 M209.148,288.645
							c0.875,0.873,1.698,1.614,2.472,2.219c0.132,0.08,0.486,0.399,1.06,0.959c-0.306,0.628-0.71,1.453-1.211,2.472
							c-0.134,0.202-0.285,0.388-0.454,0.556c-0.019-0.414-0.07-0.684-0.151-0.808c-0.27-0.369-1.043-0.772-2.321-1.211
							C208.845,290.276,209.047,288.881,209.148,288.645z"/>
					</g>
				</g>
			</g>
			<g transform="matrix( 0.9986572265625, 0.0518035888671875, -0.0518035888671875, 0.9986572265625, -9.1,-7.95) ">
				<g>
					<g id="Layer0_5_MEMBER_8_FILL">
						
							<linearGradient id="SVGID_00000052797494787480670920000016908674816000321973_" gradientUnits="userSpaceOnUse" x1="160.7156" y1="271.7385" x2="160.2525" y2="232.0682">
							<stop  offset="0.1828" style="stop-color:#87D799"/>
							<stop  offset="1" style="stop-color:#94D759"/>
						</linearGradient>
						<path style="fill:url(#SVGID_00000052797494787480670920000016908674816000321973_);" d="M152.991,233.835
							c-0.976-1.75-1.413-3.263-1.312-4.542c0.001-0.47,0.151-0.891,0.454-1.261c-4.54,0.604-7.13,1.194-7.77,1.765
							c-0.841,0.673-2.842,2.64-6.004,5.903c-3.229,3.263-6.627,6.627-10.192,10.091c1.01,1.043,2.574,2.54,4.693,4.49
							c2.119,1.952,4.154,3.465,6.105,4.541c0.942-1.076,1.665-1.951,2.169-2.624c0.034-0.101,0.084-0.185,0.151-0.251
							c0.539-0.673,1.076-1.362,1.615-2.069c0.303-0.336,0.605-0.707,0.908-1.11c0.808-1.111,1.867-2.523,3.179-4.238
							c0.538-0.639,0.908-1.043,1.11-1.212c0.168-0.168,0.521-0.286,1.059-0.353c0.505-0.101,0.874,0.303,1.11,1.21
							c-1.178,1.313-2.388,2.876-3.632,4.693c-0.908,1.311-2.036,2.842-3.381,4.591c-0.47,4.575-0.773,8.948-0.908,13.118
							c-0.202,5.953-0.32,15.86-0.353,29.718c10.295,0.198,18.133,0.065,23.512-0.404c5.374-0.43,10.639-1.287,15.792-2.574
							c-2.859-10.325-5.196-22.938-7.013-37.84c-0.337-3.33-0.606-6.173-0.808-8.526c-0.37-3.7-0.639-6.257-0.807-7.669
							c0.538,0,1.009,0.017,1.413,0.051l-0.05,0.252c0,0.706,0.269,1.765,0.807,3.178c0.236,0.674,0.421,1.262,0.556,1.766
							c0.606,0.505,1.462,1.245,2.573,2.22c1.883,1.581,3.078,2.674,3.582,3.279c0.303,0.303,0.74,0.774,1.312,1.413
							c0.976-0.741,2.086-1.565,3.33-2.473c1.279-0.941,2.539-1.95,3.784-3.027c-3.095-3.161-6.374-6.475-9.839-9.94
							c-3.532-3.532-5.768-5.667-6.711-6.407c-0.673-0.572-2.657-1.11-5.954-1.614c0.27,0.571,0.371,1.312,0.303,2.219
							c-0.235,2.455-0.823,4.457-1.766,6.004c-0.942,1.614-2.371,2.455-4.289,2.522c-1.917,0.068-3.65-0.302-5.197-1.11
							C155.009,236.879,153.832,235.618,152.991,233.835z"/>
						<path style="fill:#80C45E;" d="M174.03,239.587l0.05-0.252c-0.404-0.034-0.875-0.05-1.413-0.051
							c0.168,1.413,0.437,3.969,0.807,7.669c0.572,0.941,1.261,2.001,2.069,3.179c1.144,1.681,2.186,3.094,3.128,4.237
							c0.942-0.639,2.338-1.614,4.188-2.926c-0.571-0.639-1.009-1.11-1.312-1.413c-0.504-0.605-1.699-1.698-3.582-3.279
							c-1.111-0.976-1.967-1.715-2.573-2.22c-0.135-0.504-0.32-1.092-0.556-1.766C174.299,241.352,174.03,240.293,174.03,239.587
							 M150.267,244.177c-0.236-0.908-0.605-1.311-1.11-1.21c-0.538,0.067-0.892,0.185-1.059,0.353
							c-0.202,0.169-0.572,0.572-1.11,1.212c-1.312,1.715-2.371,3.128-3.179,4.238c-0.202,1.58-0.386,3.145-0.556,4.691
							c1.346-1.749,2.473-3.28,3.381-4.591C147.878,247.053,149.089,245.49,150.267,244.177z"/>
						
							<linearGradient id="SVGID_00000049188103768639747540000003229994648288935299_" gradientUnits="userSpaceOnUse" x1="158.8245" y1="220.3911" x2="159.6562" y2="241.0657">
							<stop  offset="0.1505" style="stop-color:#FFB9B2"/>
							<stop  offset="1" style="stop-color:#FFDEC6"/>
						</linearGradient>
						<path style="fill:url(#SVGID_00000049188103768639747540000003229994648288935299_);" d="M153.294,229.697
							c-0.067,0.976,0.269,2.12,1.009,3.431c0.706,1.346,1.665,2.304,2.876,2.876c1.211,0.605,2.59,0.891,4.137,0.857
							c1.514-0.067,2.657-0.707,3.431-1.917c0.74-1.178,1.194-2.691,1.363-4.542c0.168-1.681-0.623-2.673-2.372-2.976
							c-0.168-0.034-0.353-0.051-0.555-0.05c-0.236-2.489-0.253-5.046-0.051-7.669l-7.316,0.101
							c-0.168,1.413-0.253,2.64-0.253,3.683c-0.033,1.278,0.034,2.641,0.202,4.086C154.151,228.016,153.327,228.722,153.294,229.697
							z"/>
						<path style="fill:#F1FFE7;" d="M155.766,227.578c-1.346-0.033-2.556,0.117-3.633,0.455c-0.303,0.37-0.453,0.79-0.454,1.261
							c-0.101,1.278,0.336,2.792,1.312,4.542c0.84,1.783,2.018,3.044,3.531,3.784c1.547,0.808,3.28,1.177,5.197,1.11
							c1.917-0.067,3.347-0.908,4.289-2.522c0.942-1.547,1.53-3.549,1.766-6.004c0.068-0.908-0.033-1.648-0.303-2.219
							c-1.176-0.471-2.421-0.656-3.733-0.555c1.749,0.303,2.54,1.295,2.372,2.976c-0.169,1.85-0.622,3.363-1.363,4.542
							c-0.773,1.21-1.917,1.85-3.431,1.917c-1.548,0.034-2.926-0.252-4.137-0.857c-1.211-0.572-2.17-1.53-2.876-2.876
							c-0.74-1.312-1.076-2.455-1.009-3.431C153.327,228.722,154.151,228.016,155.766,227.578z"/>
					</g>
				</g>
			</g>
			<g transform="matrix( 1, 0, 0, 1, -23.55,0.8) " style="opacity:0.4;">
				<g>
					<g id="Layer0_5_MEMBER_9_FILL">
						<path style="fill:#DB9BE7;" d="M146.719,228.208c-0.588,0.43-1.732,1.406-3.431,2.926c0.939,0.271,2.605,0.876,4.995,1.816
							c2.394,0.934,5.942,1.674,10.646,2.22c4.734,0.55,10.755-0.931,18.063-4.44c-0.548-0.547-0.969-0.951-1.262-1.211
							c-0.639-0.605-2.589-1.244-5.852-1.917c-1.144-0.538-2.388-0.79-3.734-0.757c-0.168-0.033-0.353-0.05-0.555-0.05
							c-0.067-2.522,0.05-5.079,0.353-7.67l-7.266-0.302c-0.235,1.413-0.386,2.641-0.454,3.684c-0.101,1.278-0.101,2.64,0,4.086
							c-1.345-0.101-2.557-0.017-3.633,0.252C150.016,227.216,147.392,227.67,146.719,228.208z"/>
					</g>
				</g>
			</g>
			<g transform="matrix( 0.9986572265625, 0.0518035888671875, -0.0518035888671875, 0.9986572265625, -13,-8.1) ">
				<g>
					<g id="Layer0_5_MEMBER_10_FILL">
						
							<linearGradient id="SVGID_00000157271345902490024010000018187549525181935551_" gradientUnits="userSpaceOnUse" x1="160.8941" y1="193.0329" x2="173.074" y2="162.4265">
							<stop  offset="0.1505" style="stop-color:#725A49"/>
							<stop  offset="1" style="stop-color:#955A49"/>
						</linearGradient>
						<path style="fill:url(#SVGID_00000157271345902490024010000018187549525181935551_);" d="M141.958,211.432
							c-0.111,0.312-0.229,0.648-0.353,1.009c-0.403,1.312-0.605,2.338-0.605,3.079c0,1.345,0.521,2.32,1.564,2.925
							c0.488,0.268,1.328,0.605,2.522,1.01c-0.682-1.266-1.085-2.526-1.211-3.785c-0.167-2.08-0.201-3.576-0.101-4.491
							C143.314,211.311,142.709,211.395,141.958,211.432 M158.558,185.146c3.7,2.153,7.972,3.229,12.815,3.229
							c3.446,0,6.507-0.303,9.183-0.909c2.755-0.593,5.109-1.501,7.063-2.725c3.061-1.884,4.591-3.936,4.592-6.154
							c-5.285-1.113-10.045-3.788-14.279-8.023c-4.202-4.202-8.407-6.388-12.613-6.559c-4.205-0.137-8.124,0.873-11.756,3.027
							c-2.907,1.716-4.841,3.801-5.802,6.256c0-0.303-0.067-0.706-0.202-1.211c-0.169-0.806-0.437-1.462-0.807-1.967
							c-0.792-1.115-1.599-1.973-2.422-2.573c-0.067,0.258-0.101,0.578-0.101,0.959c0,2.018,0.757,3.852,2.27,5.5
							c0.683,0.725,1.322,1.28,1.917,1.665c-2.204,0.213-4.256,0.936-6.155,2.169c-4.306,2.759-6.459,7.837-6.459,15.237
							c0,3.061,1.11,5.634,3.331,7.719c0.183,0.173,0.368,0.341,0.555,0.505c0.935-0.471,2.029-0.707,3.279-0.707
							c0.976,0.001,1.598,0.051,1.867,0.152c0.232,0.062,0.433,0.146,0.605,0.252c0.255,1.235,0.709,2.126,1.363,2.675
							c0.261,0.208,0.597,0.36,1.009,0.454l0-3.532c2.135-1.54,3.952-3.272,5.449-5.196c2.856-3.57,3.983-7.389,3.381-11.454
							C157.193,184.312,157.832,184.715,158.558,185.146z"/>
						
							<linearGradient id="SVGID_00000109740847687433478030000009755985529757567113_" gradientUnits="userSpaceOnUse" x1="144.3232" y1="160.1607" x2="163.0615" y2="218.8746">
							<stop  offset="0.1505" style="stop-color:#FFB9B2"/>
							<stop  offset="1" style="stop-color:#FFDEC6"/>
						</linearGradient>
						<path style="fill:url(#SVGID_00000109740847687433478030000009755985529757567113_);" d="M171.373,188.375
							c-4.843-0.001-9.116-1.076-12.815-3.229c-0.725-0.431-1.365-0.834-1.917-1.211c0.602,4.065-0.525,7.883-3.381,11.454
							c-1.497,1.925-3.314,3.657-5.449,5.196l0,3.532c-0.412-0.094-0.749-0.246-1.009-0.454c-0.653-0.548-1.107-1.44-1.363-2.675
							c-0.171-0.106-0.373-0.189-0.605-0.252c-0.27-0.101-0.891-0.151-1.867-0.152c-1.251,0-2.344,0.236-3.279,0.707
							c-0.399,0.19-0.769,0.425-1.11,0.706c-1.413,1.077-2.119,2.691-2.119,4.843c0,3.061,1.615,4.592,4.844,4.592
							c0.234,0,0.453,0,0.656-0.001c0.751-0.037,1.356-0.12,1.816-0.252c-0.1,0.915-0.066,2.411,0.101,4.491
							c0.126,1.258,0.529,2.519,1.211,3.785c0.472,0.832,1.061,1.656,1.766,2.472c1.792,2.124,3.894,3.268,6.307,3.43
							c13.602,0.389,21.759-0.251,24.47-1.917c4.003-2.455,6.005-7.316,6.005-14.581c-0.001-3.734-0.454-8.208-1.362-13.421
							c-0.509-2.795-1.08-5.452-1.715-7.972C177.88,188.072,174.819,188.375,171.373,188.375z"/>
					</g>
				</g>
			</g>
			<g transform="matrix( 0.9986572265625, 0.0518035888671875, -0.0518035888671875, 0.9986572265625, -13,-8.15) ">
				<g>
					<g id="Layer0_5_MEMBER_10_MEMBER_0_FILL">
						<path style="fill:#5A5A5A;" d="M178.033,196.901c-0.74,0-1.379,0.252-1.918,0.757c-0.504,0.539-0.757,1.177-0.757,1.917
							c0,0.74,0.252,1.363,0.757,1.868c0.538,0.537,1.177,0.807,1.917,0.807c0.74,0,1.362-0.269,1.867-0.807
							c0.538-0.505,0.807-1.127,0.807-1.867c0-0.74-0.269-1.379-0.807-1.917C179.395,197.153,178.773,196.902,178.033,196.901
							 M162.897,196.901c-0.741,0-1.38,0.252-1.918,0.756c-0.504,0.539-0.756,1.178-0.757,1.918c0,0.74,0.252,1.362,0.756,1.867
							c0.538,0.539,1.178,0.807,1.918,0.808c0.74,0,1.362-0.269,1.867-0.808c0.538-0.504,0.808-1.126,0.808-1.866
							c0-0.74-0.27-1.379-0.808-1.918C164.259,197.153,163.637,196.901,162.897,196.901z"/>
					</g>
				</g>
				<g transform="matrix( 0.9986572265625, -0.0518035888671875, 0.0518035888671875, 0.9986572265625, 13.4,7.5) ">
					<g id="Layer0_5_MEMBER_10_MEMBER_0_1_STROKES">
						<path style="fill:#E5A8A8;" d="M172.756,216.654c-0.107,0.006-0.216,0.008-0.325,0.009c-1.371,0.013-2.584-0.35-3.602-1.078
							c-1.044-0.756-1.647-1.641-1.795-2.632c-0.041-0.275,0.149-0.532,0.425-0.573c0.272-0.041,0.532,0.149,0.573,0.424
							c0.108,0.723,0.561,1.364,1.386,1.962c0.838,0.6,1.849,0.9,3.003,0.888c1.164-0.009,2.156-0.322,3.009-0.959
							c0.821-0.624,1.294-1.423,1.442-2.443c0.039-0.275,0.298-0.468,0.571-0.427c0.276,0.039,0.467,0.296,0.427,0.571
							c-0.185,1.277-0.802,2.321-1.834,3.105C175.099,216.202,173.997,216.589,172.756,216.654z M173.265,209.766
							c-0.474,0.025-0.924-0.02-1.346-0.133c-0.269-0.072-0.429-0.349-0.357-0.618c0.072-0.269,0.349-0.43,0.618-0.357
							c0.465,0.124,0.985,0.137,1.55,0.04c0.851-0.148,0.994-0.527,1.021-0.878c0.051-0.615-0.192-1.32-0.722-2.099
							c-0.533-0.785-1.154-1.286-1.844-1.49c-0.268-0.079-0.42-0.359-0.342-0.626c0.079-0.268,0.359-0.421,0.626-0.341
							c0.921,0.271,1.726,0.907,2.394,1.89c0.662,0.975,0.963,1.899,0.893,2.747c-0.052,0.678-0.416,1.542-1.854,1.793
							C173.686,209.73,173.473,209.755,173.265,209.766z"/>
					</g>
				</g>
			</g>
		</g>
		<g>
			<g>
				<g transform="matrix( 1, 0, 0, 1, 27.3,-0.65) ">
					<g>
						<g id="Layer0_5_MEMBER_1_MEMBER_0_FILL">
							
								<linearGradient id="SVGID_00000092446125509195043740000010106746505109805500_" gradientUnits="userSpaceOnUse" x1="360.2231" y1="361.3857" x2="365.4243" y2="378.17">
								<stop  offset="0" style="stop-color:#DE966C"/>
								<stop  offset="0.828" style="stop-color:#E2AE93"/>
							</linearGradient>
							<path style="fill:url(#SVGID_00000092446125509195043740000010106746505109805500_);" d="M360.753,369.114
								c-0.61,0.641-0.963,1.011-1.059,1.109c-0.1,0.1-1.781,1.227-5.046,3.38c0.986,1.56,2.686,2.417,5.095,2.573
								c0.904-0.432,1.846-1.088,2.826-1.968c1.244-1.109,2.187-2.052,2.826-2.825c0.637-0.711,1.478-1.955,2.522-3.733
								c1.076-1.778,1.8-3.325,2.169-4.642c-0.168-0.472-0.336-0.976-0.505-1.514c-0.438-1.245-0.757-2.152-0.958-2.726
								c-0.571-0.672-1.346-1.429-2.321-2.27c-2.254-1.918-4.91-3.632-7.972-5.146l-2.069,8.678
								c1.314,0.136,2.877,0.555,4.693,1.262c0.571,0.169,1.178,0.403,1.816,0.707c0.403,1.311,0.622,2.168,0.655,2.572
								c0,0.135-0.016,0.286-0.05,0.454c-0.034,0.135-0.169,0.387-0.404,0.758C362.1,367.396,361.36,368.505,360.753,369.114z"/>
						</g>
					</g>
				</g>
				<g transform="matrix( 1, 0, 0, 1, 27.35,-1.2) ">
					<g>
						<g id="Layer0_5_MEMBER_1_MEMBER_1_FILL">
							
								<linearGradient id="SVGID_00000003798195596958698910000001565359311130169229_" gradientUnits="userSpaceOnUse" x1="297.1307" y1="365.5775" x2="277.0372" y2="391.1077">
								<stop  offset="0" style="stop-color:#DE966C"/>
								<stop  offset="0.828" style="stop-color:#E2AE93"/>
							</linearGradient>
							<path style="fill:url(#SVGID_00000003798195596958698910000001565359311130169229_);" d="M305.607,368.301
								c2.792-2.355,4.575-4.357,5.348-6.005l-15.438-12.865c0.238,3.666-0.399,6.913-1.917,9.737
								c-1.49,2.824-3.946,5.937-7.366,9.334c-0.404,3.498-0.773,6.913-1.11,10.241c-0.201,1.783-0.42,4.239-0.656,7.367
								c1.16,0.899,2.02,1.539,2.573,1.917c0.174,0.104,0.309,0.188,0.404,0.253c2.21,0.23,4.179,0.331,5.902,0.303
								c0.067-0.506-0.167-1.311-0.706-2.422c-0.505-1.143-0.892-1.716-1.159-1.716c-0.304,0-0.976,0.185-2.02,0.556
								c-0.337,0.131-0.641,0.231-0.908,0.302c0.3-1.972,2.436-5.991,6.408-12.058C298.796,372.773,302.344,371.127,305.607,368.301
								z"/>
						</g>
					</g>
				</g>
				<g transform="matrix( 1.223876953125, 0, 0, 1.223876953125, -37.3,-76.05) ">
					<g>
						<g id="Layer0_5_MEMBER_1_MEMBER_2_FILL">
							
								<linearGradient id="SVGID_00000147193512034353128950000006869055063015425202_" gradientUnits="userSpaceOnUse" x1="290.7045" y1="338.6303" x2="272.741" y2="324.4477">
								<stop  offset="0" style="stop-color:#DE966C"/>
								<stop  offset="0.828" style="stop-color:#E2AE93"/>
							</linearGradient>
							<path style="fill:url(#SVGID_00000147193512034353128950000006869055063015425202_);" d="M287.221,343.903
								c3.084,0.2,5.909-0.371,8.476-1.715c2.57-1.31,4.638-2.623,6.206-3.936v-2.573c-0.757,0.416-1.397,0.72-1.917,0.909
								c-1.38,0.505-3.448,0.756-6.206,0.756c-2.455,0-5.011-0.319-7.67-0.958c-2.253-0.572-3.935-1.345-5.045-2.32
								c-0.741-0.226-0.758,0.397-0.049,1.866c-0.549-0.196-1.574-1.306-3.078-3.329c-1.464-2.017-2.371-2.556-2.725-1.615
								c-0.201,0.907-0.302,1.832-0.302,2.774c0,2.994,1.328,5.433,3.986,7.316C281.389,342.794,284.164,343.737,287.221,343.903z"
								/>
						</g>
					</g>
				</g>
				<g transform="matrix( 1, 0, 0, 1, -16.15,0) ">
					<g>
						<g id="Layer0_5_MEMBER_1_MEMBER_3_FILL">
							<path style="fill:#86705F;" d="M429.883,317.604c0,0.035,0,0.068,0,0.102l1.413,1.564c0.975,0.908,1.75,1.413,2.321,1.514
								c0.066,0,0.135,0,0.202,0c0.773,0,1.16-0.454,1.16-1.362c0-1.479-0.841-2.371-2.524-2.674
								C430.809,316.411,429.952,316.697,429.883,317.604z"/>
							<path style="fill:#DE9870;" d="M367.119,357.161c-0.067-0.202-0.151-0.403-0.252-0.604c-0.874-2.12-1.547-3.466-2.019-4.037
								c-0.807-0.976-1.328-1.564-1.563-1.766c-0.202-0.168-0.472-0.252-0.807-0.252l-0.656,0.453c-0.102,0,0,0.403,0.302,1.211
								c0.404,1.211,0.623,2.726,0.656,4.54C364.126,356.775,365.572,356.925,367.119,357.161 M394.717,356.202h-0.252
								c-0.706,0.774-1.379,1.582-2.018,2.422c-0.908,1.145-1.496,2.068-1.766,2.775c1.581-0.066,3.162-0.369,4.742-0.908v-0.101
								C395.423,358.103,395.187,356.706,394.717,356.202z"/>
							
								<linearGradient id="SVGID_00000029742638896381391880000009756224849327106730_" gradientUnits="userSpaceOnUse" x1="384.9619" y1="369.0768" x2="386.8529" y2="314.2356">
								<stop  offset="0" style="stop-color:#E2A27D"/>
								<stop  offset="0.828" style="stop-color:#E2AE93"/>
							</linearGradient>
							<path style="fill:url(#SVGID_00000029742638896381391880000009756224849327106730_);" d="M401.226,314.326
								c-0.74,0.808-1.664,2.389-2.775,4.742c-1.143,2.322-2.236,5.097-3.279,8.325c-1.043,3.195-3.111,4.995-6.206,5.398
								c-3.094,0.403-5.516,0.706-7.266,0.908c-1.748,0.202-2.792,0.303-3.127,0.303c-0.875,0-2.725-0.253-5.55-0.757
								c-2.86-0.505-4.659-0.908-5.399-1.211c-4.811-1.85-7.938-2.775-9.384-2.775c-4.809,0-9.267,1.984-13.371,5.953
								c-4.306,4.138-6.458,8.914-6.458,14.328l0.303,3.078c0.706,3.162,1.816,5.466,3.33,6.913
								c1.479,1.412,2.539,2.454,3.178,3.128c0.606,0.639,1.01,1.127,1.212,1.463c0.101,0.403,0.151,1.515,0.151,3.329
								c0,0.034-0.066,2.103-0.202,6.207c0.572,1.749,1.816,3.884,3.733,6.407c1.783,2.321,3.852,4.76,6.206,7.316l9.637-0.102
								c-0.034-0.739-0.438-1.598-1.21-2.574c-0.876-1.108-1.464-1.664-1.766-1.664c-0.17,0-0.641,0.186-1.414,0.556
								c-0.773,0.37-1.362,0.656-1.767,0.857c-2.286-3.632-4.354-7.903-6.204-12.814c3.194-2.792,5.533-5.384,7.012-7.772
								c1.446-2.319,2.17-4.606,2.17-6.86c0-0.102,0-0.202,0-0.305c-0.033-1.815-0.252-3.329-0.656-4.54
								c-0.302-0.808-0.403-1.211-0.302-1.211l0.656-0.453c0.335,0,0.604,0.084,0.807,0.252c0.235,0.201,0.757,0.79,1.563,1.766
								c0.472,0.571,1.145,1.917,2.019,4.037c0.101,0.201,0.185,0.402,0.252,0.604c2.59,0.404,5.466,1.06,8.628,1.969
								c4.977,1.446,9.486,2.22,13.521,2.319c0.472,0,0.942-0.016,1.413-0.05c0.27-0.707,0.857-1.631,1.766-2.775
								c0.64-0.84,1.313-1.647,2.018-2.422h0.252c0.47,0.504,0.706,1.901,0.706,4.188v0.101c1.885-0.673,3.75-1.664,5.602-2.977
								c3.767-2.725,6.474-6.728,8.123-12.008c1.613-5.314,2.858-9.671,3.732-13.068c1.917-1.042,5.164-2.151,9.737-3.33
								c4.339-1.277,7.821-2.69,10.445-4.238c0.167-0.134,0.353-0.252,0.555-0.353l0.051-0.102c0.066-0.201,0.1-0.537,0.1-1.009
								c0-0.673-0.051-1.547-0.15-2.623c-0.571-0.101-1.347-0.605-2.321-1.514l-1.413-1.564c0-0.033,0-0.066,0-0.102
								c-1.244-0.134-2.824-0.302-4.742-0.504c-5.55-0.639-8.527-0.975-8.931-1.009c-1.21-2.019-1.967-3.178-2.269-3.481
								c-0.338-0.302-1.295-0.453-2.876-0.453c-0.975-0.067-2.153,0.016-3.533,0.252
								C405.38,312.745,403.279,313.385,401.226,314.326z"/>
						</g>
					</g>
				</g>
				<g transform="matrix( 1, 0, 0, 1, -16.15,0) ">
					<g>
						<g id="Layer0_5_MEMBER_1_MEMBER_3_MEMBER_0_FILL">
							<path style="fill:#F17A7A;" d="M392.901,330.32c-0.538,0.471-0.907,0.925-1.11,1.361c4.844,3.801,11.15,6.861,18.921,9.184
								c0.336-0.337,0.572-0.808,0.707-1.413c0.1-0.605,0.167-1.244,0.201-1.918c-7.232-2.219-13.033-4.994-17.406-8.325
								C393.843,329.445,393.406,329.815,392.901,330.32z"/>
						</g>
					</g>
				</g>
				<g>
					<defs>
						<path id="SVGID_00000046305675355270328220000014235239346621516438_" d="M385.076,314.326
							c-0.74,0.808-1.664,2.389-2.775,4.742c-1.143,2.322-2.236,5.097-3.279,8.325c-1.043,3.195-3.111,4.995-6.206,5.398
							c-3.094,0.403-5.516,0.706-7.266,0.908c-1.748,0.202-2.792,0.303-3.127,0.303c-0.875,0-2.725-0.253-5.55-0.757
							c-2.86-0.505-4.659-0.908-5.399-1.211c-4.811-1.85-7.938-2.775-9.384-2.775c-4.809,0-9.267,1.984-13.371,5.953
							c-4.306,4.138-6.458,8.914-6.458,14.328l0.303,3.078c0.706,3.162,1.816,5.466,3.33,6.913c1.479,1.412,2.539,2.454,3.178,3.128
							c0.606,0.639,1.01,1.127,1.212,1.463c0.101,0.403,0.151,1.515,0.151,3.329c0,0.034-0.066,2.103-0.202,6.207
							c0.572,1.749,1.816,3.884,3.733,6.407c1.783,2.321,3.852,4.76,6.206,7.316l9.637-0.102c-0.034-0.739-0.438-1.598-1.21-2.574
							c-0.876-1.108-1.464-1.664-1.766-1.664c-0.17,0-0.641,0.186-1.414,0.556c-0.773,0.37-1.362,0.656-1.767,0.857
							c-2.286-3.632-4.354-7.903-6.204-12.814c3.194-2.792,5.533-5.384,7.012-7.772c1.446-2.319,2.17-4.606,2.17-6.86
							c0-0.102,0-0.202,0-0.305c-0.033-1.815-0.252-3.329-0.656-4.54c-0.302-0.808-0.403-1.211-0.302-1.211l0.656-0.453
							c0.335,0,0.604,0.084,0.807,0.252c0.235,0.201,0.757,0.79,1.563,1.766c0.472,0.571,1.145,1.917,2.019,4.037
							c0.101,0.201,0.185,0.402,0.252,0.604c2.59,0.404,5.466,1.06,8.628,1.969c4.978,1.446,9.486,2.22,13.522,2.319
							c0.472,0,0.942-0.016,1.413-0.05c0.27-0.707,0.857-1.631,1.766-2.775c0.64-0.84,1.313-1.647,2.019-2.422h0.252
							c0.47,0.504,0.706,1.901,0.706,4.188v0.101c1.885-0.673,3.75-1.664,5.602-2.977c3.767-2.725,6.474-6.728,8.123-12.008
							c1.613-5.314,2.858-9.671,3.733-13.068c1.917-1.042,5.164-2.151,9.737-3.33c4.339-1.277,7.821-2.69,10.445-4.238
							c0.167-0.134,0.353-0.252,0.555-0.353l0.051-0.102c0.066-0.201,0.1-0.537,0.1-1.009c0-0.673-0.051-1.547-0.15-2.623
							c-0.571-0.101-1.347-0.605-2.321-1.514l-1.413-1.564c0-0.033,0-0.066,0-0.102c-1.244-0.134-2.824-0.302-4.742-0.504
							c-5.55-0.639-8.527-0.975-8.931-1.009c-1.21-2.019-1.967-3.178-2.27-3.481c-0.338-0.302-1.295-0.453-2.876-0.453
							c-0.975-0.067-2.153,0.016-3.533,0.252C389.23,312.745,387.129,313.385,385.076,314.326z"/>
					</defs>
					<clipPath id="SVGID_00000174567095190627591540000009686600533223211180_">
						<use xlink:href="#SVGID_00000046305675355270328220000014235239346621516438_"  style="overflow:visible;"/>
					</clipPath>
					
						<g transform="matrix( 1, 0, 0, 1, -16.15,0) " style="opacity:0.5;clip-path:url(#SVGID_00000174567095190627591540000009686600533223211180_);">
						<g>
							<g id="Layer0_5_MEMBER_2_1_STROKES_1_">
								<path style="fill:#F0D4C4;" d="M337.899,351.185c-7.446,0-15.068-0.758-22.856-2.277
									c-28.561-5.572-60.116-21.545-93.791-47.472c-0.221-0.171-0.262-0.486-0.092-0.708c0.169-0.221,0.487-0.261,0.708-0.093
									c67.04,51.615,124.613,62.88,171.117,33.476c0.235-0.147,0.547-0.08,0.697,0.156c0.148,0.235,0.079,0.548-0.157,0.696
									C376.447,345.76,357.809,351.185,337.899,351.185z"/>
							</g>
						</g>
					</g>
				</g>
				<g transform="matrix( 1, 0, 0, 1, 28.75,0.3) ">
					<g>
						<g id="Layer0_5_MEMBER_1_MEMBER_3_MEMBER_1_FILL">
							
								<linearGradient id="SVGID_00000085217975589839373230000016640993968923073982_" gradientUnits="userSpaceOnUse" x1="350.8748" y1="337.041" x2="360.3297" y2="312.4574">
								<stop  offset="0.1882" style="stop-color:#86705F"/>
								<stop  offset="1" style="stop-color:#A6705F"/>
							</linearGradient>
							<path style="fill:url(#SVGID_00000085217975589839373230000016640993968923073982_);" d="M362.18,320.787
								c-0.909-0.27-2.087-0.522-3.532-0.757c-0.37,0.102-0.773,0.234-1.211,0.404c-0.74,0.234-1.161,0.554-1.262,0.958
								c0,0.201-0.151,0.655-0.454,1.362c-0.135,0.403-0.404,0.942-0.807,1.614c-0.471,0.605-3.903,4.238-10.293,10.898
								c0.1,0.403,0.151,0.824,0.151,1.262c-0.034,0.638,0,1.06,0.1,1.261c1.65,0.941,3.801,1.866,6.459,2.775
								c0.335,0.101,0.672,0.235,1.009,0.402c1.85-1.042,3.094-1.933,3.733-2.673c0.269-0.304,1.177-1.984,2.724-5.046
								c1.48-3.095,2.271-4.742,2.373-4.944c0.066-0.235,0.368-1.328,0.907-3.279C362.583,323.041,362.616,321.628,362.18,320.787z"
								/>
							<path style="fill:#7B6D61;" d="M369.344,318.465c0.335-0.303,0.504-0.673,0.504-1.109c0-0.438-0.169-0.824-0.504-1.16
								c-0.303-0.304-0.674-0.455-1.11-0.455c-0.437,0-0.825,0.151-1.16,0.455c-0.303,0.336-0.455,0.723-0.455,1.16
								c0,0.437,0.152,0.807,0.455,1.109c0.335,0.337,0.724,0.505,1.16,0.505C368.67,318.97,369.041,318.802,369.344,318.465z"/>
						</g>
					</g>
				</g>
				<g transform="matrix( 1, 0, 0, 1, 27.8,-0.65) ">
					<g>
						<g id="Layer0_5_MEMBER_1_MEMBER_4_FILL">
							
								<linearGradient id="SVGID_00000129184228080436826220000018160535760494745247_" gradientUnits="userSpaceOnUse" x1="355.59" y1="370.2295" x2="357.481" y2="315.3891">
								<stop  offset="0" style="stop-color:#E2A27D"/>
								<stop  offset="1" style="stop-color:#E2B593"/>
							</linearGradient>
							<path style="fill:url(#SVGID_00000129184228080436826220000018160535760494745247_);" d="M349.809,356.347
								c-0.21,2.824-0.529,6.088-0.96,9.789c-0.435,3.7-0.585,7.282-0.453,10.747l3.886,11.15c4.17-0.37,7.449-0.471,9.839-0.303
								c-1.515-2.59-2.271-3.953-2.271-4.087c-1.077,0.101-2.321,0.556-3.733,1.361c-0.169-1.009-0.707-4.221-1.615-9.636
								c0.875-4.138,2.069-8.072,3.583-11.807c1.143-2.927,2.001-6.323,2.573-10.19
								C356.183,356.231,352.567,357.222,349.809,356.347z"/>
						</g>
					</g>
				</g>
			</g>
			<g transform="matrix( 1, 0, 0, 1, -16.15,0) ">
				<g>
					<g id="Layer0_5_MEMBER_2_1_STROKES">
						<path style="fill:#F17A7A;" d="M337.899,347.321c-7.446,0-15.068-0.758-22.856-2.277
							c-28.561-5.573-60.116-21.545-93.791-47.473c-0.221-0.17-0.262-0.487-0.092-0.708c0.169-0.22,0.487-0.261,0.708-0.092
							c67.04,51.614,124.613,62.88,171.117,33.475c0.235-0.146,0.547-0.08,0.697,0.156c0.148,0.236,0.079,0.548-0.157,0.697
							C376.447,341.896,357.809,347.321,337.899,347.321z"/>
					</g>
				</g>
			</g>
			<g transform="matrix( 1, 0, 0, 1, -16.15,0) ">
				<g>
					<g id="Layer0_5_MEMBER_11_FILL">
						<path style="fill:#D97373;" d="M223.376,296.919c-0.471-0.37-0.774-0.604-0.908-0.706c-0.317,0.889-0.889,1.662-1.715,2.321
							c-0.035,0.028-0.068,0.044-0.101,0.05l2.322,1.161l1.462-1.817C224.234,297.659,223.88,297.323,223.376,296.919z"/>
						<path style="fill:#F17A7A;" d="M217.725,288.291l0.605,2.17c1.294,0.488,1.95,1.801,1.968,3.936
							c0.056,2.171-1.088,3.332-3.431,3.48c-2.344,0.179-3.925-0.124-4.743-0.906c-0.814-0.777-1.234-1.567-1.261-2.372
							c-0.023-0.809,0.028-1.465,0.151-1.968c0.15-0.466,0.554-0.92,1.21-1.362c-0.453-0.597-1.025-1.052-1.715-1.361
							c-1.04,0.871-1.645,1.729-1.817,2.572c-0.166,0.882-0.182,2.008-0.05,3.38c0.16,1.378,0.967,2.522,2.422,3.431
							c1.456,0.94,3.104,1.311,4.944,1.11c1.794-0.191,3.341-0.796,4.642-1.816c0.033-0.006,0.067-0.022,0.101-0.05
							c0.827-0.659,1.399-1.433,1.715-2.321c0.19-0.491,0.292-1.029,0.303-1.614c0.032-1.579-0.422-2.941-1.363-4.087
							C220.737,289.692,219.509,288.951,217.725,288.291z"/>
					</g>
				</g>
			</g>
		</g>
		<g transform="matrix( 1, 0, 0, 1, 0.55,0) ">
			<g>
				<g id="Layer0_6_FILL">
					
						<linearGradient id="SVGID_00000170270507870680969040000008028001654369956779_" gradientUnits="userSpaceOnUse" x1="384.9729" y1="308.9783" x2="384.9729" y2="261.5268">
						<stop  offset="0" style="stop-color:#B3DB77"/>
						<stop  offset="1" style="stop-color:#90DBAC"/>
					</linearGradient>
					<path style="fill:url(#SVGID_00000170270507870680969040000008028001654369956779_);" d="M408.743,284.912
						c-1.916-2.893-3.598-4.339-5.044-4.339c-1.279,0-2.321,0.622-3.129,1.865c-0.808,1.212-1.177,2.692-1.109,4.44l-0.202-0.201
						c-0.64-2.153-1.934-4.677-3.885-7.568c-2.186-3.264-3.952-4.896-5.299-4.896c-1.58,0-2.841,1.061-3.783,3.181
						c-0.841,1.884-1.11,3.666-0.808,5.348l-0.201-0.203c-0.673-3.33-1.362-6.238-2.068-8.727c-1.346-4.81-3.213-7.216-5.601-7.216
						c-3.067,0-5.725,1.446-7.973,4.339c0.042-2.587-0.009-4.674-0.15-6.256c-0.303-4.139-2.035-6.206-5.197-6.206
						c-4.238,0-8.728,3.97-13.471,11.906c-4.139,6.896-6.206,11.824-6.206,14.784h-0.403c-0.37-1.65-0.689-2.978-0.959-3.986
						c-0.471-1.883-1.295-2.825-2.472-2.825c-1.985,0-3.785,1.228-5.398,3.683c-1.522,2.365-2.246,4.838-2.17,7.417l0.05,0.051
						v0.252c-0.005-0.1-0.022-0.2-0.05-0.303c-0.844-2.731-1.466-4.749-1.867-6.054c-0.772-2.321-1.665-3.482-2.674-3.482
						c-2.423,0-4.524,1.598-6.307,4.793c-2.052,3.7-3.077,8.68-3.077,14.935c0,1.513,0.186,3.38,0.554,5.6
						c0.247,1.382,0.449,2.373,0.606,2.978h126.841c1.987-1.517,3.097-3.568,3.33-6.155c0.268-2.557-0.994-3.835-3.785-3.835
						c-2.151,0-4.001,0.253-5.549,0.757c-1.331,0.435-2.222,0.973-2.674,1.614c-0.033,0.181-0.051,0.35-0.051,0.504h-0.201
						c0.058-0.168,0.142-0.337,0.252-0.504c0.105-0.555,0.393-1.192,0.857-1.918c0.571-0.941,0.857-1.783,0.857-2.522
						c0-0.808-0.067-1.345-0.201-1.614c-0.236-0.437-0.69-0.655-1.363-0.655c-0.941,0-2.32,0.555-4.137,1.665
						c-1.87,1.135-2.879,2.093-3.027,2.875c0.438-2.729,0.656-4.862,0.656-6.407c0-1.346-0.151-2.404-0.454-3.179
						c-0.303-0.705-0.674-1.06-1.11-1.06c-1.076,0-2.186,0.64-3.329,1.917c-1.279,1.379-2.053,3.061-2.321,5.046h-0.252
						c-0.203-3.431-0.438-6.307-0.707-8.628c-0.538-4.439-1.614-6.66-3.229-6.66c-1.614,0-3.347,1.245-5.196,3.733
						c-1.951,2.558-3.044,5.248-3.279,8.073h-0.252C411.013,288.812,409.888,286.694,408.743,284.912z"/>
				</g>
			</g>
		</g>
		<g>
			<g transform="matrix( 1, 0, 0, 1, 0,0) ">
				<g>
					<g id="Layer0_7_MEMBER_0_FILL">
						
							<linearGradient id="SVGID_00000169550204779059828810000005963131850305912230_" gradientUnits="userSpaceOnUse" x1="344.9381" y1="162.4003" x2="344.9381" y2="99.8774">
							<stop  offset="0.2634" style="stop-color:#9F9F9F"/>
							<stop  offset="1" style="stop-color:#BDC6D2"/>
						</linearGradient>
						<path style="fill:url(#SVGID_00000169550204779059828810000005963131850305912230_);" d="M351.07,293.589
							c-4.271-0.2-8.393-0.184-12.361,0.051c-0.067,1.313-0.252,6.105-0.556,14.379c-0.336,8.848-0.487,13.572-0.453,14.179
							c4.506,0.369,9.334,0.402,14.48,0.101C351.574,304.336,351.205,294.766,351.07,293.589 M346.58,129.816
							c-1.278-0.706-2.473-0.706-3.582,0l-0.606,102.119h-0.757l-0.05,18.012c-0.033,18.87-0.102,30.02-0.202,33.452
							c-0.101,1.984-0.185,3.615-0.253,4.893c2.288-0.033,4.743-0.033,7.367,0c-0.102-1.31-0.168-2.959-0.202-4.943
							c-0.134-3.33-0.219-14.482-0.252-33.452c0-9.922,0-15.909,0-17.961h-0.809c-0.335-47.898-0.554-79.381-0.654-94.45V129.816z"
							/>
						<path style="fill:#B4B4B4;" d="M341.13,288.291l-0.857,0.103c-1.145,0.033-2.002,0.066-2.573,0.1
							c-0.438,1.95-0.438,3.683,0,5.196l1.009-0.051c3.968-0.234,8.09-0.251,12.361-0.051l1.21,0.051
							c0.438-1.647,0.454-3.363,0.052-5.146l-3.835-0.203C345.873,288.258,343.418,288.258,341.13,288.291z"/>
					</g>
				</g>
			</g>
			<g transform="matrix( 1.1346435546875, 0, 0, 1.1346435546875, -46.8,-48.8) ">
				<g>
					<g id="Layer0_7_MEMBER_1_FILL">
						
							<linearGradient id="SVGID_00000066498578090605465870000013445461764520588681_" gradientUnits="userSpaceOnUse" x1="345.1262" y1="147.5704" x2="345.1262" y2="132.9299">
							<stop  offset="0.2312" style="stop-color:#FCE4A6"/>
							<stop  offset="1" style="stop-color:#FCD586"/>
						</linearGradient>
						<path style="fill:url(#SVGID_00000066498578090605465870000013445461764520588681_);" d="M322.624,153.364l3.632-0.353
							l1.362-0.202l3.027-14.026h-16.095l2.876,14.026l1.16,0.152L322.624,153.364 M367.628,153.364l4.037-0.404l1.16-0.152
							l2.876-14.026h-16.095l3.028,14.026l1.362,0.202L367.628,153.364z"/>
						
							<linearGradient id="SVGID_00000181797598683001587170000000367372852449738897_" gradientUnits="userSpaceOnUse" x1="345.1525" y1="151.3632" x2="345.1525" y2="122.64">
							<stop  offset="0.2634" style="stop-color:#9F9F9F"/>
							<stop  offset="1" style="stop-color:#BDC6D2"/>
						</linearGradient>
						<path style="fill:url(#SVGID_00000181797598683001587170000000367372852449738897_);" d="M367.55,155.171
							c-1.298,0-2.507-0.276-3.594-0.82l-0.048-0.024v-1.414l3.73,0.363l4.117-0.413v1.468l-0.054,0.023
							c-1.182,0.507-2.5,0.781-3.919,0.815L367.55,155.171z M322.469,155.168c-1.417-0.034-2.735-0.308-3.917-0.815l-0.053-0.023
							v-1.468l4.133,0.413l3.713-0.363v1.414l-0.049,0.024c-1.086,0.544-2.296,0.82-3.593,0.82L322.469,155.168z M357.087,138.872
							l1.332-2.453l1.028-0.146l0.959-0.101l0.11,0c2.11-0.214,4.271-0.323,6.415-0.323c0.536,0,1.072,0.007,1.611,0.02
							c1.913,0.034,3.851,0.136,5.755,0.304l0.094,0c0.814,0.034,1.631,0.102,2.433,0.202l1.399,2.499H357.087z M312.084,138.872
							l1.278-2.452c0.872-0.147,1.689-0.215,2.499-0.249h0.103c1.932-0.167,3.87-0.269,5.751-0.303
							c0.536-0.013,1.072-0.02,1.609-0.02c2.142,0,4.304,0.109,6.422,0.324l0.092,0c0.683,0.067,1.321,0.135,1.927,0.201
							l1.401,2.499H312.084z"/>
						
							<linearGradient id="SVGID_00000121273833287703347310000009495755730249952911_" gradientUnits="userSpaceOnUse" x1="345.1266" y1="186.1376" x2="345.1266" y2="123.6154">
							<stop  offset="0.2634" style="stop-color:#9F9F9F"/>
							<stop  offset="1" style="stop-color:#BDC6D2"/>
						</linearGradient>
						<path style="fill:url(#SVGID_00000121273833287703347310000009495755730249952911_);" d="M344.117,164.06h-0.908l-8.325-0.151
							l-11.251-0.302V162.9c-0.74,0.067-1.328,0.067-1.766,0h-0.354c0,1.951,0.085,3.515,0.253,4.692h1.715
							c0.068-0.639,0.102-1.176,0.102-1.615l11.301,0.253l8.325,0.151h0.908C344.387,165.742,344.387,164.968,344.117,164.06
							 M324.592,157.3c0.369-0.37,0.992-0.639,1.867-0.808l1.362-0.252h0.05c0.538-0.808,0.538-1.497,0-2.069l-1.615,0.101
							c-1.143,0.572-2.405,0.842-3.784,0.808c-1.411-0.034-2.708-0.303-3.884-0.808l-1.665-0.101c-0.369,0.504-0.369,1.127,0,1.867
							c0.909,0.167,1.884,0.572,2.927,1.211l0.1,0.051c0.977,0.605,1.514,1.783,1.615,3.531h1.917l0.303-1.916
							C323.885,158.309,324.155,157.77,324.592,157.3 M328.022,132.527l-2.674-0.555l-2.623-0.605l-2.623,0.605l-2.523,0.505
							c-0.102,0.201-0.236,0.521-0.405,0.959c-0.336,0.638-0.773,1.58-1.311,2.825c0.034,0,0.066,0,0.1,0
							c1.951-0.168,3.869-0.269,5.753-0.302c2.69-0.067,5.365,0.033,8.022,0.302c-0.538-1.245-0.958-2.187-1.262-2.825
							C328.275,133.031,328.124,132.728,328.022,132.527 M347.044,164.06h-0.858c-0.303,0.908-0.303,1.682,0,2.321h0.858
							l8.374-0.151l11.251-0.253c0,0.438,0.051,0.976,0.152,1.615h1.665c0.202-1.176,0.303-2.741,0.303-4.692h-0.405
							c-0.436,0.067-1.025,0.067-1.765,0v0.707l-11.201,0.302L347.044,164.06 M373.381,156.038c0.336-0.74,0.336-1.363,0-1.867
							l-1.715,0.101c-1.177,0.505-2.473,0.774-3.886,0.808c-1.379,0.034-2.641-0.235-3.783-0.808l-1.615-0.101
							c-0.537,0.571-0.537,1.261,0,2.069h0.05l1.362,0.252c0.875,0.168,1.498,0.438,1.867,0.808c0.437,0.47,0.708,1.009,0.808,1.615
							l0.353,1.916h1.917c0.068-1.748,0.589-2.926,1.564-3.531l0.101-0.051C371.446,156.61,372.439,156.206,373.381,156.038
							 M373.077,133.435c-0.167-0.438-0.286-0.757-0.352-0.959l-2.574-0.505l-2.624-0.605l-2.622,0.605l-2.674,0.555
							c-0.067,0.201-0.219,0.504-0.454,0.908c-0.303,0.638-0.724,1.58-1.262,2.825c2.658-0.269,5.331-0.37,8.022-0.302
							c1.918,0.033,3.834,0.134,5.751,0.302c0.034,0,0.068,0,0.102,0C373.852,135.015,373.414,134.073,373.077,133.435z"/>
						<path style="fill:#B4B4B4;" d="M321.513,162.9h0.354c0.438,0.067,1.026,0.067,1.766,0l0.707-0.05
							c0.336-0.572,0.336-1.245,0-2.019h-0.858h-1.917h-0.707c-0.37,0.673-0.37,1.346,0,2.019L321.513,162.9 M325.348,131.971
							c-0.403-2.321-1.245-3.498-2.523-3.532c-1.379-0.067-2.288,1.11-2.724,3.532l2.623-0.605L325.348,131.971 M368.385,162.9
							h0.405l0.655-0.05c0.337-0.673,0.337-1.346,0-2.019h-0.706h-1.917h-0.908c-0.304,0.774-0.304,1.447,0,2.019l0.706,0.05
							C367.36,162.967,367.948,162.967,368.385,162.9 M364.905,131.971l2.622-0.605l2.624,0.605
							c-0.437-2.422-1.329-3.599-2.674-3.532C366.165,128.473,365.308,129.651,364.905,131.971z"/>
					</g>
				</g>
			</g>
		</g>
		<g transform="matrix( 1.229461669921875, 0, 0, 1.229461669921875, -14.15,-20.6) ">
			<g>
				<g id="Layer0_8_FILL">
					
						<linearGradient id="SVGID_00000015356001464450989610000014257863228683350191_" gradientUnits="userSpaceOnUse" x1="148.0856" y1="149.1077" x2="148.0856" y2="20.7661">
						<stop  offset="0.1828" style="stop-color:#D4FCFF"/>
						<stop  offset="1" style="stop-color:#F7FEFF"/>
					</linearGradient>
					<path style="fill:url(#SVGID_00000015356001464450989610000014257863228683350191_);" d="M212.782,116.022
						c-0.513-1.739-1.284-2.609-2.312-2.609c-1.027,0-1.857,0.455-2.489,1.364c-0.475,0.987-0.83,1.62-1.068,1.896l-0.355-0.177
						c-0.434-1.225-0.751-1.996-0.948-2.311c-0.316-0.515-0.909-0.772-1.779-0.772c-1.264,0-2.331,0.494-3.201,1.482
						c-0.632,0.948-1.027,1.423-1.185,1.423c-0.197,0-0.711-0.574-1.541-1.72c-0.79-1.107-1.323-1.66-1.6-1.66
						c-0.712,0-1.344,0.236-1.897,0.711c-0.513,0.395-0.888,0.889-1.126,1.483c-0.119-1.107-0.257-2.016-0.415-2.727
						c-0.317-1.384-0.928-2.075-1.838-2.075c-1.106,0-2.035,0.375-2.786,1.126c-0.732,0.655-1.107,1.366-1.126,2.134v-0.178
						c0-2.174-0.297-4.445-0.89-6.816c-0.988-4.071-2.608-6.106-4.86-6.106c-1.225,0-2.885,0.909-4.979,2.727
						c-0.475,0.355-0.87,0.73-1.186,1.126c-0.119-0.396-0.218-0.79-0.297-1.186c-1.383-6.282-3.912-9.424-7.587-9.424
						c-1.028,0-1.996,0.079-2.905,0.237c0.04-0.394,0.059-0.79,0.059-1.186c0-6.717-0.81-12.348-2.43-16.893
						c-2.53-7.153-6.837-10.729-12.922-10.729c-7.785,0-13.97,2.747-18.554,8.24c-2.687,3.24-4.366,6.52-5.038,9.841
						c-3.793-2.371-6.777-1.483-8.95,2.667c-0.119-0.593-0.238-1.165-0.356-1.719c-1.976-9.8-5.71-14.701-11.203-14.701
						c-9.247,0-15.609,4.564-19.087,13.693c-1.305,3.319-2.095,6.994-2.371,11.025c-0.198,3.003-0.1,5.552,0.296,7.647
						c0.039,0.079,0.079,0.138,0.119,0.178v0.475c-0.04-0.198-0.079-0.415-0.119-0.652c-0.87-0.948-2.193-3.142-3.972-6.58
						c-1.502-2.963-2.726-4.446-3.675-4.446c-4.149,0-7.073,3.122-8.773,9.366c-0.909,3.2-1.382,6.579-1.422,10.136
						c-0.909-1.265-1.541-2.153-1.897-2.668c-0.671-0.869-1.58-1.304-2.726-1.304c-2.055,0-3.32,1.046-3.794,3.142
						c-0.236,0.869-0.336,3.062-0.297,6.579h-0.533c-0.04-1.304-0.653-2.391-1.838-3.26c-0.987-0.712-1.897-1.067-2.726-1.067
						c-1.225,0-2.312,0.711-3.261,2.134c-1.027,1.58-1.383,3.516-1.067,5.809c0.672,0,1.344,0,2.016,0
						c4.782,0,8.536-0.079,11.262-0.238h152.28C213.197,117.721,212.979,116.576,212.782,116.022 M233.943,116.378
						c-0.671,0.474-1.007,0.771-1.007,0.89c-0.119-0.079-0.455-0.416-1.007-1.008c-0.474-0.475-0.91-0.712-1.304-0.712
						c-0.475,0-0.83,0.04-1.067,0.119c-0.317,0.118-0.613,0.316-0.89,0.593c-0.475-1.7-0.732-2.589-0.77-2.667
						c-0.593-1.344-1.463-2.016-2.608-2.016c-1.778,0-3.517,1.107-5.216,3.319c-1.265,1.62-2.055,3.221-2.371,4.802h22.109
						c-0.236-0.593-0.553-1.206-0.948-1.839c-0.948-1.58-1.857-2.371-2.727-2.371C235.465,115.488,234.735,115.785,233.943,116.378
						 M247.578,118.453c-0.989-1.185-1.581-1.779-1.778-1.779c-1.107,0-2.172,1.009-3.201,3.024
						c1.857-0.079,3.794-0.119,5.809-0.119C248.171,119.223,247.895,118.848,247.578,118.453z"/>
				</g>
			</g>
		</g>
	</g>
</g>
</svg>
