<?xml version="1.0" encoding="utf-8"?>
<!-- Generator: Adobe Illustrator 27.5.0, SVG Export Plug-In . SVG Version: 6.00 Build 0)  -->
<svg version="1.1" xmlns="http://www.w3.org/2000/svg" xmlns:xlink="http://www.w3.org/1999/xlink" x="0px" y="0px"
	 viewBox="0 0 750 500" style="enable-background:new 0 0 750 500;" xml:space="preserve">
<g id="BACKGROUND">
	<rect style="fill:#f4f8ff;" width="500" height="500"/>
</g>
<g id="OBJECTS">
	<g>
		<g>
			<path style="fill:#CCF8F9;" d="M271.985,151.911c7.062-18.275,16.702-36.905,14.129-56.328
				c-2.901-21.896-21.961-39.571-43.457-44.647s-44.521,0.939-63.385,12.429c-18.864,11.49-34.092,28.054-47.858,45.327
				c-28.045,35.19-51.389,74.87-62.744,118.413c-11.355,43.542-10.012,91.267,9.197,131.96
				c17.831,37.774,50.894,68.087,90.071,82.58c44.056,16.298,96.842,11.424,133.657-17.751
				c36.815-29.175,53.417-83.573,33.889-126.295c-12.438-27.212-36.296-46.378-54.294-69.621
				C263.811,205.534,261.805,178.254,271.985,151.911z"/>
			<path style="fill:#CCF8F9;" d="M273.071,185.98c0.34,7.95,2.828,16.877,9.943,20.441c5.279,2.645,11.891,1.463,16.813-1.798
				c4.923-3.261,8.393-8.304,11.123-13.54c4.929-9.45,7.861-20.297,6.146-30.816c-2.043-12.536-14.943-29.83-28.629-19.49
				C276.412,149.885,272.47,171.944,273.071,185.98z"/>
			<path style="fill:#CCF8F9;" d="M298.279,228.516c0.067,2.922,0.682,5.998,2.652,8.157c2.887,3.164,8.248,3.355,11.704,0.823
				c3.455-2.531,4.939-7.246,4.145-11.455c-0.821-4.352-4.731-10.826-9.837-10.626C300.584,215.665,298.161,223.324,298.279,228.516
				z"/>
			<path style="fill:#CCF8F9;" d="M130.75,95.218c4.747-4.801,9.577-9.717,12.545-15.781c2.968-6.064,3.799-13.589,0.454-19.453
				c-3.791-6.644-12.198-9.648-19.802-8.812c-7.604,0.836-14.494,4.863-20.567,9.514c-6.987,5.35-13.379,11.842-16.91,19.902
				c-3.531,8.06-3.816,17.895,0.855,25.353c4.082,6.515,14.309,11.766,22.044,9.173C117.423,112.414,124.965,101.069,130.75,95.218z
				"/>
		</g>
		<g>
			<defs>
				<path id="SVGID_1_" d="M335.482,297.596c-12.438-27.212-36.296-46.378-54.294-69.621c-17.377-22.441-19.384-49.721-9.204-76.065
					c7.062-18.275,16.702-36.905,14.128-56.328c-2.901-21.896-21.961-39.571-43.457-44.647c-18.334-4.33-37.779-0.587-54.807,7.735
					c-10.791-0.653-21.581-0.237-31.935,2.693c-15.841,4.483-30.625,15.973-34.725,31.917c-2.143,8.335-1.066,17.393,2.7,25.116
					c-24.665,32.729-44.898,69.121-55.221,108.706c-11.355,43.542-10.012,91.267,9.197,131.96
					c17.831,37.774,50.894,68.087,90.071,82.58c44.056,16.298,96.842,11.424,133.657-17.751
					C338.408,394.717,355.01,340.319,335.482,297.596z"/>
			</defs>
			<clipPath id="SVGID_00000115488433721781484420000008298496782159373471_">
				<use xlink:href="#SVGID_1_"  style="overflow:visible;"/>
			</clipPath>
			<g style="clip-path:url(#SVGID_00000115488433721781484420000008298496782159373471_);">
				<path style="fill:#EBA58E;" d="M176.98,295.354c-8.315,5.651-16.833,11.397-26.542,14.01
					c-4.958,1.334-10.609,1.709-14.895-1.116c-5.079-3.348-6.673-10.351-5.392-16.297c1.281-5.947,4.857-11.102,8.353-16.079
					l33.632-15.667L176.98,295.354z"/>
				<path style="fill:#468097;" d="M166.628,265.953c-19.333,56-31.667,145.833-31.667,145.833l33.098,1.667l23.753-150.875
					L166.628,265.953z"/>
				<g>
					<path style="fill:#FFFFFF;" d="M178.259,254.63c-14.631,51.656-29.965,128.656-29.965,128.656l1.477,7.667l-1.477,8.667h32.333
						l11.185-137.041L178.259,254.63z"/>
					<path style="fill:#E4E4E0;" d="M178.259,254.63c-5.696,20.109-11.498,44.058-16.46,65.811
						c5.619-2.052,11.037-4.654,16.132-7.788l-7.437,63.538c-0.251,2.145-2.068,3.761-4.227,3.761c-1.438,0-2.779,0.726-3.565,1.931
						l-1.741,2.67c-0.487,0.747-1.197,1.322-2.029,1.644l-6.471,2.505h10.686c2.845,0,5.283,2.033,5.794,4.832l1.112,6.085h10.574
						l11.185-137.041L178.259,254.63z"/>
				</g>
				<g>
					<path style="fill:#454F6B;" d="M150.961,399.62l-7,58.667h118.333l-0.85-17.639c-0.322-6.682-0.912-13.349-1.768-19.984
						l-2.715-21.043H150.961z"/>
					<polygon style="fill:#422C4F;" points="259.417,418.653 256.961,399.62 170.054,399.62 162.461,423.953 					"/>
				</g>
				<g>
					<polygon style="fill:#F2C9AD;" points="191.961,170.786 196.424,183.312 226.817,174.206 215.128,140.286 					"/>
					<path style="fill:#472948;" d="M215.128,140.286l-23.167,30.5l3.096,8.692C211.795,174.786,215.461,145.953,215.128,140.286z"
						/>
				</g>
				<g>
					<path style="fill:#6A3649;" d="M139.115,98.651c-0.549,5.427-0.493,10.986,0.982,16.237c1.475,5.251,4.468,10.196,8.938,13.323
						c-0.575-9.768-0.053-19.855,1.426-29.527C147.199,99.832,142.483,99.434,139.115,98.651z"/>
					<path style="fill:#F2C9AD;" d="M217.494,108.035c-2.68-10.416-9.011-20.038-18.106-25.779
						c-9.095-5.741-20.976-7.255-30.88-3.061c-10.54,4.463-17.852,14.838-20.515,25.97c-2.663,11.132-1.142,22.917,2.235,33.853
						c3.246,10.513,8.455,20.83,17.092,27.645s21.23,9.381,30.885,4.105c5.306-2.9,9.273-7.833,12.026-13.216
						C217.592,143.16,221.562,123.845,217.494,108.035z"/>
					<path style="fill:#FFFFFF;" d="M203.096,71.956c-0.177,0.305-0.339,0.618-0.466,0.948
						C202.812,72.602,202.961,72.282,203.096,71.956z"/>
					<path style="fill:#6A3649;" d="M196.982,120.025c-1.87-3.292-5.468-5.536-9.247-5.768c-3.779-0.232-7.624,1.555-9.883,4.594
						C183.807,118.162,191.086,118.945,196.982,120.025z"/>
					<path style="fill:#6A3649;" d="M159.88,120.58c-0.636-0.845-1.28-1.699-2.091-2.377c-0.812-0.678-1.818-1.176-2.876-1.185
						c-1.8-0.015-3.36,1.406-4.074,3.058s-0.757,3.505-0.789,5.304C152.753,123.367,156.587,121.299,159.88,120.58z"/>
					<g>
						<path style="fill:#472948;" d="M192.758,130.211c0.167-1.043-0.18-2.389-1.087-3.473c-0.886-1.086-2.336-1.918-3.944-1.996
							c-1.608-0.078-3.132,0.609-4.119,1.604c-1.008,0.99-1.484,2.296-1.419,3.351c1.273-1.665,3.404-2.823,5.43-2.733
							C189.645,127.07,191.652,128.43,192.758,130.211z"/>
					</g>
					<g>
						<path style="fill:#472948;" d="M161.096,132.97c-0.328-0.995-1.067-2.14-2.015-2.906c-0.937-0.773-2.089-1.173-3.024-0.845
							c-0.936,0.329-1.514,1.336-1.667,2.491c-0.166,1.156,0.095,2.469,0.558,3.417c0.042-1.839,0.771-3.428,1.947-3.85
							C158.075,130.872,159.754,131.617,161.096,132.97z"/>
					</g>
					<path style="fill:#EBA58E;" d="M178.63,142.639c-3.192,0.306-6.383,0.612-9.575,0.918c1.04,1.789,2.655,3.152,4.717,2.985
						C175.835,146.376,177.89,144.572,178.63,142.639z"/>
					<path style="fill:#FFFFFF;" d="M197.634,146.382c-8.305,4.411-17.263,7.591-26.49,9.404c3.684,3.109,8.125,6.022,12.941,6.244
						c3.875,0.178,7.796-1.463,10.388-4.35S198.227,150.216,197.634,146.382z"/>
					<path style="fill:#EBA58E;" d="M197.192,161.795c-2.762,1.934-5.843,3.412-9.079,4.357c1.238,0.427,2.619,1.121,3.928,1.071
						c1.308-0.05,2.629-0.462,3.624-1.312C196.66,165.06,197.327,163.097,197.192,161.795z"/>
					<ellipse style="fill:#EBA58E;" cx="198.899" cy="138.48" rx="9.313" ry="4.16"/>
					<path style="fill:#EBA58E;" d="M163.014,139.976c0.65,1.468-0.666,3.473-2.939,4.479c-2.273,1.006-4.642,0.631-5.291-0.837
						s0.666-3.473,2.939-4.479C159.995,138.133,162.364,138.508,163.014,139.976z"/>
					<path style="fill:#EBA58E;" d="M190.405,104.451c3.307,10.877,13.42,15.135,19.363,15.006l8.898-5.206
						c-0.267-2.117-0.652-4.196-1.171-6.216c-1.213-4.714-3.18-9.26-5.806-13.363c-21.222,2.041-42.349,5.049-63.298,9.006
						c-0.138,0.494-0.277,0.988-0.396,1.486c-0.633,2.648-1.023,5.334-1.215,8.035C161.728,113.545,176.749,110.548,190.405,104.451
						z"/>
					<g>
						<path style="fill:#6A3649;" d="M217.705,134.919c-5.011-3.381-8.111-9.419-7.937-15.462
							c-8.09-2.315-15.386-9.015-17.246-17.222c-13.803,4.933-28.501,6.693-43.157,6.894c-4.684,0.064-9.482-0.141-13.832-1.878
							c-4.35-1.738-8.225-5.27-9.248-9.841c-1.572-7.022,3.79-13.688,9.513-18.049c18.162-13.839,44.176-16.513,64.774-6.659
							c-0.858-3.577-1.003-6.671-1.861-10.248c2.039,0.672,3.762,2.237,4.507,4.25c0.745,2.014,0.523,4.362-0.588,6.2
							c0.772-2.001,2.522-3.589,4.531-4.339c2.009-0.75,4.337-0.598,6.232,0.407c-2.216,1.782-4.518,3.634-6.734,5.417
							c4.221-1.468,9.386,0.249,12.922,2.982c3.536,2.733,5.835,6.834,7.059,11.133c1.224,4.298,1.452,8.815,1.452,13.284
							c0,5.098-0.288,10.197-0.862,15.263c-0.374,3.3-0.878,6.623-2.126,9.701c-1.248,3.078-3.31,5.923-6.2,7.56L217.705,134.919z"
							/>
						<path style="fill:#8E5A61;" d="M129.875,96.774c1.019-5.217,4.316-9.796,8.43-13.162c4.114-3.367,9.016-5.63,13.993-7.499
							c7.976-2.995,16.402-5.079,24.921-4.97c8.52,0.109,17.168,2.539,23.857,7.815c6.862-2.711,15.329-0.001,20.561,5.201
							c2.492,2.478,4.409,5.421,5.899,8.602c-0.214-1.436-0.498-2.859-0.897-4.257c-1.224-4.298-3.523-8.399-7.059-11.133
							c-3.536-2.733-8.701-4.451-12.922-2.982c2.216-1.782,4.518-3.634,6.734-5.417c-1.895-1.005-4.223-1.157-6.232-0.407
							c-1.679,0.627-3.167,1.843-4.065,3.391c-0.134,0.326-0.284,0.646-0.466,0.948c0.127-0.329,0.289-0.643,0.466-0.948
							c0.682-1.657,0.744-3.569,0.122-5.252c-0.745-2.014-2.468-3.578-4.507-4.25c0.858,3.577,1.004,6.671,1.861,10.248
							c-20.598-9.854-46.612-7.18-64.774,6.659c-5.724,4.361-11.085,11.027-9.513,18.049c0.546,2.439,1.909,4.579,3.717,6.311
							C129.474,101.453,129.43,99.054,129.875,96.774z"/>
					</g>
					<g>
						<path style="fill:#F2C9AD;" d="M222.946,117.182c2.585-1.254,5.969-1.062,8.045,0.925c2.526,2.418,2.429,6.445,1.83,9.89
							c-0.432,2.482-1.04,4.967-2.233,7.186c-1.192,2.219-3.024,4.17-5.363,5.106C211.928,145.615,214.335,121.357,222.946,117.182z
							"/>
						<path style="fill:#EBA58E;" d="M227.63,120.864c-2.809,0.006-5.288,2.13-6.449,4.688c-1.161,2.557-1.229,5.471-1.037,8.273
							c0.041,0.601,0.097,1.215,0.35,1.761c0.252,0.547,0.742,1.021,1.34,1.092c1.112,0.133,1.881-1.062,2.295-2.102
							c0.495-1.244,0.909-2.595,0.633-3.905c-0.275-1.31-1.465-2.514-2.795-2.359c-0.007-1.495,0.799-3.18,1.682-4.386
							C224.531,122.72,226.203,121.309,227.63,120.864z"/>
					</g>
				</g>
				<polygon style="fill:#94C7D3;" points="190.86,197.968 191.288,184.836 229.211,173.586 233.531,181.953 				"/>
				<g>
					<path style="fill:#6CA8BF;" d="M202.69,189.907l8.607-4.447c11.324-5.852,24.693-6.244,36.341-1.067h0
						c12.435,5.527,21.422,16.735,24.114,30.074l2.017,9.993c5.094,25.241,6.008,51.146,2.708,76.683l-14.516,112.309h-93.902
						l21.527-136L202.69,189.907z"/>
					<polygon style="fill:#41738C;" points="233.531,233.03 196.017,297.113 190.961,297.113 182.879,319.826 196.235,233.03 					
						"/>
					<path style="fill:#468097;" d="M254.961,265.953c-14.5,29-58.944,80.25-58.944,80.25l3.555-1.73
						c14.988-7.296,27.329-19.092,35.299-33.733C246.317,289.715,254.199,276.817,254.961,265.953z"/>
					<path style="fill:#468097;" d="M248.113,331.421c-14.241,9.903-29.512,18.323-45.487,25.081
						C220.566,356.295,238.041,346.268,248.113,331.421z"/>
				</g>
				<g>
					<g>
						<g>
							<path style="fill:#797C99;" d="M126.496,192.476c-7.682,22.712-6.161,48.393,4.15,70.039
								c3.319,6.969,8.019,13.954,15.261,16.624c1.518,5.755,2.69,11.786,3.347,17.799c0.428,3.914,4.529,6.335,8.093,4.663
								c0.828-0.389,1.642-0.809,2.438-1.27c1.748-1.012,2.818-2.906,2.803-4.926c-0.053-6.84-1.104-14.306-2.01-20.861l9.476-4.266
								c1.38,4.745,2.158,9.323,2.596,12.905c0.483,3.946,4.887,6.076,8.305,4.044c0.036-0.021,0.072-0.043,0.107-0.064
								c1.674-1.008,2.723-2.813,2.696-4.767c-0.131-9.291-2.942-16.962-2.942-16.962c16.396-36.48-18.218-78.824-18.218-78.824
								L126.496,192.476z"/>
							<path style="fill:#495375;" d="M146.728,206.148c8.001-1.471,15.868-8.179,18.436-16.121
								c-1.571-2.197-2.567-3.417-2.567-3.417l-36.101,5.866c-0.73,2.158-1.35,4.35-1.914,6.556
								C130.427,204.676,138.736,207.617,146.728,206.148z"/>
						</g>
						<g>
							<path style="fill:#797C99;" d="M162.779,186.838c0.116,0.146,0.285,0.362,0.501,0.643
								C163.064,187.199,162.895,186.983,162.779,186.838z"/>
							<path style="fill:#797C99;" d="M164.632,189.29c0.168,0.231,0.344,0.474,0.529,0.733
								C164.976,189.764,164.801,189.521,164.632,189.29z"/>
							<path style="fill:#797C99;" d="M162.597,186.61c0,0,0.061,0.075,0.175,0.218C162.66,186.688,162.597,186.61,162.597,186.61z"
								/>
							<path style="fill:#797C99;" d="M124.582,199.031c0.267-1.042,0.548-2.081,0.846-3.115
								C125.124,196.949,124.849,197.988,124.582,199.031z"/>
							<path style="fill:#797C99;" d="M163.302,187.509c0.326,0.424,0.756,0.995,1.269,1.698
								C164.057,188.502,163.628,187.933,163.302,187.509z"/>
							<path style="fill:#495375;" d="M180.815,265.433c2.362-5.256,3.661-10.633,4.161-15.987
								c-16.208,7.949-32.95,14.805-50.081,20.498c2.845,4.064,6.415,7.5,11.012,9.194c0.712,2.698,1.339,5.461,1.881,8.25
								c4.548-2.158,9.096-4.317,13.643-6.475c-0.277-2.179-0.571-4.321-0.855-6.369l9.476-4.266
								c0.583,2.006,1.054,3.976,1.442,5.859c3.621-1.719,7.243-3.437,10.864-5.156C181.6,267.589,180.815,265.433,180.815,265.433z
								"/>
							<path style="fill:#495375;" d="M125.428,195.916c0.339-1.152,0.683-2.302,1.068-3.44
								C126.111,193.614,125.76,194.762,125.428,195.916z"/>
							<polygon style="fill:#495375;" points="124.582,199.032 124.582,199.032 124.582,199.031 							"/>
							<path style="fill:#495375;" d="M163.281,187.48c0.007,0.009,0.015,0.019,0.022,0.029
								C163.295,187.499,163.288,187.49,163.281,187.48z"/>
							<polygon style="fill:#495375;" points="165.164,190.026 165.161,190.023 165.164,190.026 							"/>
							<path style="fill:#495375;" d="M162.771,186.828c0.003,0.004,0.005,0.007,0.008,0.01
								C162.776,186.834,162.774,186.832,162.771,186.828z"/>
							<path style="fill:#495375;" d="M164.572,189.207c0.02,0.028,0.04,0.056,0.061,0.083
								C164.612,189.262,164.592,189.234,164.572,189.207z"/>
							<path style="fill:#495375;" d="M146.728,206.148c8.001-1.471,15.868-8.179,18.436-16.121
								c-0.001-0.001-0.002-0.002-0.002-0.003c-0.185-0.259-0.361-0.502-0.529-0.733c-0.02-0.028-0.041-0.056-0.061-0.083
								c-0.513-0.703-0.943-1.273-1.269-1.698c-0.007-0.009-0.015-0.019-0.022-0.029c-0.216-0.28-0.385-0.497-0.501-0.643
								c-0.003-0.004-0.005-0.007-0.008-0.01c-0.113-0.143-0.175-0.218-0.175-0.218l-36.101,5.866
								c-0.385,1.138-0.729,2.288-1.068,3.44c-0.297,1.034-0.579,2.073-0.846,3.115c0,0.001,0,0.001,0,0.001
								C130.427,204.676,138.736,207.617,146.728,206.148z"/>
						</g>
					</g>
					<g>
						<path style="fill:#797C99;" d="M137.03,278.752c1.839,3.106,2.08,7.104,0.628,10.408c-1.452,3.304-4.561,5.83-8.092,6.575
							c-3.719,0.785-7.551-0.317-11.351-0.398c-9.937-0.212-19.443,7.555-21.217,17.334c-1.774,9.779,4.399,20.39,13.777,23.682
							c3.697,1.298,8.063,1.457,11.299-0.752c3.236-2.208,4.564-7.267,1.97-10.203c-2.482-2.81-6.892-2.508-10.347-3.965
							c-3.787-1.597-6.403-5.635-6.313-9.744c0.09-4.109,2.882-8.028,6.736-9.457c3.936-1.459,8.308-0.414,12.501-0.633
							c6.029-0.315,11.851-3.448,15.435-8.306c3.585-4.858,4.861-11.345,3.385-17.198
							C143.099,276.642,139.372,278.207,137.03,278.752z"/>
						<path style="fill:#495375;" d="M145.441,276.096c-2.342,0.545-6.069,2.111-8.411,2.656c1.826,3.084,2.072,7.047,0.653,10.338
							c2.413,0.159,4.859-0.179,7.13-1.01C146.176,284.258,146.435,280.035,145.441,276.096z"/>
					</g>
				</g>
				<g>
					<g>
						<path style="fill:#6CA8BF;" d="M156.711,222.703l32.875,54.75l43.944-44.423c8.043-8.131,10.064-20.459,5.038-30.732v0
							c-7.335-14.994-26.415-19.753-39.933-9.962L156.711,222.703z"/>
						<g>
							<path style="fill:#468097;" d="M196.017,262.578c-5.802-13.19-18.319-32.566-27.958-43.277
								C173.861,232.491,186.378,251.867,196.017,262.578z"/>
						</g>
						<path style="fill:#468097;" d="M172.673,249.286l11.451,10.954c3.962,3.79,10.109,4.084,14.414,0.69l33.587-26.48
							l-42.539,43.002L172.673,249.286z"/>
					</g>
					<g>
						<path style="fill:#F2C9AD;" d="M158.036,224.908l-34.205,28.429c-6.456,5.366-8.202,14.556-4.163,21.916h0
							c4.4,8.017,14.225,11.305,22.564,7.55l39.807-17.921L158.036,224.908z"/>
						<path style="fill:#EBA58E;" d="M158.036,224.908l24.003,39.974l-15.505,6.98l3.901-4.428
							c2.588-2.939,3.149-7.149,1.419-10.662l-15.142-30.763L158.036,224.908z"/>
					</g>
				</g>
				<g>
					<g>
						<path style="fill:#797C99;" d="M156.348,219.425c-1.429-2.055-3.124-4.284-5.596-4.682c-1.778-0.286-3.548,0.465-5.151,1.287
							c-1.222,0.626-2.47,1.353-3.186,2.525c-1.197,1.96,0.161,3.352,1.089,4.986c1.166,2.052,1.772,4.416,2.488,6.648
							c0.581,1.812,1.241,3.635,2.199,5.267c3.775-3.363,8.199-5.985,12.955-7.698C160.034,224.744,158.183,222.063,156.348,219.425
							z"/>
						<path style="fill:#99A3B0;" d="M161.145,227.757c-4.756,1.713-9.18,4.336-12.955,7.698c0.421,0.717,0.892,1.4,1.45,2.023
							c1.827,2.04,4.682,3.37,7.333,2.686c2.348-0.606,4.124-2.712,4.771-5.049s0.296-4.858-0.516-7.144
							C161.203,227.899,161.172,227.829,161.145,227.757z"/>
					</g>
					<path style="fill:#495375;" d="M146.555,234.451c-2.799,2.356-7.707,2.262-10.519-0.079c-1.902-1.583-2.961-3.997-3.378-6.436
						c-0.417-2.439-0.254-4.935-0.091-7.404c-3.606,14.921,2.394,23.554,2.394,23.554L146.555,234.451z"/>
					<g>
						<path style="fill:#495375;" d="M147.825,228.688c-0.715-2.232-1.322-4.596-2.488-6.648c-0.928-1.634-2.286-3.026-1.089-4.986
							c0.112-0.183,0.256-0.337,0.392-0.5c-0.881,0.518-1.698,1.137-2.225,2c-1.197,1.96,0.161,3.352,1.089,4.986
							c1.166,2.052,1.772,4.416,2.488,6.648c0.581,1.812,1.241,3.635,2.199,5.267c0.591-0.526,1.199-1.031,1.821-1.521
							C149.061,232.308,148.404,230.492,147.825,228.688z"/>
						<path style="fill:#797C99;" d="M151.474,235.978c-0.563-0.629-1.039-1.32-1.462-2.044c-0.622,0.49-1.23,0.995-1.821,1.521
							c0.421,0.717,0.892,1.4,1.45,2.023c1.827,2.04,4.682,3.37,7.333,2.686c1.246-0.322,2.323-1.072,3.163-2.049
							c-0.42,0.232-0.86,0.427-1.33,0.549C156.156,239.349,153.301,238.018,151.474,235.978z"/>
					</g>
					<g>
						<path style="fill:#797C99;" d="M183.273,202.712c-1.429-2.055-3.124-4.284-5.596-4.682c-1.778-0.286-3.548,0.465-5.151,1.287
							c-1.222,0.626-2.47,1.353-3.186,2.525c-1.197,1.96,0.161,3.352,1.089,4.986c1.166,2.052,1.772,4.416,2.488,6.648
							c0.581,1.812,1.241,3.635,2.199,5.267c3.775-3.362,8.199-5.985,12.955-7.698C186.96,208.031,185.109,205.35,183.273,202.712z"
							/>
						<path style="fill:#99A3B0;" d="M188.071,211.044c-4.756,1.713-9.18,4.336-12.955,7.698c0.421,0.717,0.893,1.4,1.45,2.023
							c1.827,2.04,4.682,3.37,7.333,2.686c2.348-0.606,4.124-2.712,4.771-5.049s0.296-4.858-0.516-7.144
							C188.129,211.186,188.098,211.116,188.071,211.044z"/>
					</g>
					<g>
						<path style="fill:#495375;" d="M174.751,211.975c-0.715-2.232-1.322-4.596-2.487-6.648c-0.928-1.634-2.286-3.026-1.089-4.986
							c0.112-0.183,0.256-0.337,0.392-0.5c-0.881,0.518-1.698,1.137-2.225,2c-1.197,1.96,0.161,3.352,1.089,4.986
							c1.166,2.052,1.772,4.416,2.488,6.648c0.581,1.812,1.241,3.635,2.199,5.267c0.591-0.526,1.199-1.031,1.821-1.521
							C175.986,215.595,175.329,213.779,174.751,211.975z"/>
						<path style="fill:#797C99;" d="M178.4,219.266c-0.563-0.629-1.039-1.32-1.463-2.044c-0.622,0.49-1.23,0.995-1.821,1.521
							c0.421,0.717,0.893,1.4,1.45,2.023c1.827,2.04,4.682,3.37,7.333,2.686c1.246-0.322,2.323-1.072,3.163-2.049
							c-0.42,0.232-0.86,0.427-1.33,0.549C183.081,222.636,180.226,221.305,178.4,219.266z"/>
					</g>
				</g>
				<g>
					<path style="fill:#797C99;" d="M148.461,151.828c-8.152,0.069-18.894,2.65-25.652,7.211l-7.223-16.4
						c-5.292,43.647,1.208,56.481,15.125,58.147c13.917,1.667,32.613-7.472,37.348-13.57c4.735-6.097-0.765-21.93-20.098-46.93
						L148.461,151.828z"/>
					<g>
						<path style="fill:#FFFFFF;" d="M141.33,172.063c-1.977-2.493-4.842-4.356-7.997-4.766c-3.155-0.41-6.559,0.769-8.506,3.285
							c-1.774,2.292-2.19,5.322-2.546,8.199c3.478,0.426,7.229,0.67,10.614-0.235C136.281,177.641,139.667,175.148,141.33,172.063z"
							/>
						<path style="fill:#21255C;" d="M131.193,177.906c3.153,0,5.708-2.556,5.708-5.708c0-1.945-0.975-3.661-2.461-4.692
							c-0.365-0.088-0.733-0.16-1.107-0.209c-2.401-0.312-4.942,0.302-6.88,1.719c-0.611,0.909-0.969,2.003-0.969,3.181
							C125.484,175.351,128.04,177.906,131.193,177.906z"/>
					</g>
					<g>
						<path style="fill:#FFFFFF;" d="M147.945,170.057c-0.034-3.089,0.89-5.967,2.728-7.707c1.722-1.631,4.285-2.145,6.599-1.157
							c2.041,0.871,3.738,2.761,5.324,4.563c-1.446,1.829-3.23,3.788-5.571,4.835C154.519,171.712,150.908,171.63,147.945,170.057z"
							/>
						<path style="fill:#21255C;" d="M157.637,169.244c-1.803,1.625-4.795,1.013-6.567-1.457c-1.091-1.52-1.399-3.321-0.992-4.791
							c0.187-0.229,0.384-0.447,0.596-0.647c1.321-1.251,3.136-1.839,4.943-1.605c0.79,0.393,1.531,1.011,2.124,1.829
							C159.332,164.766,159.329,167.719,157.637,169.244z"/>
					</g>
					<path style="fill:#21255C;" d="M159.945,178.623c-0.098,1.352-0.763,2.77-1.904,3.777c-1.122,1.026-2.718,1.493-4.297,1.319
						c-1.585-0.161-3.057-0.937-4.103-2.076c-1.062-1.13-1.718-2.53-2.061-3.837c-0.017,0.26-0.365,0.324-0.57,0.122
						c0.643,1.264,0.978,2.856,0.737,4.451c-0.219,1.595-1.091,3.105-2.403,4.14c-1.306,1.043-2.975,1.55-4.577,1.4
						c-1.609-0.128-3.083-0.816-4.167-1.729c0.739,1.209,2.181,2.344,4.015,2.731c1.822,0.428,4.002-0.069,5.571-1.344
						c1.598-1.238,2.577-3.248,2.574-5.12c0.003-0.145-0.007-0.287-0.014-0.43c0.05,0.075,0.094,0.152,0.147,0.225
						c1.004,1.451,2.791,2.565,4.718,2.748c1.912,0.232,3.969-0.527,5.124-1.926C159.924,181.72,160.287,179.936,159.945,178.623z"
						/>
					<path style="fill:#E47790;" d="M122.81,159.039c-2.182,1.414-4.182,3.248-5.515,5.581c-0.917-8.167-0.43-19.078-0.43-19.078
						L122.81,159.039z"/>
					<path style="fill:#E47790;" d="M148.461,151.828c3,0.125,5.878,0.792,5.878,0.792c-2.628-5.25-6.276-9.981-6.276-9.981
						L148.461,151.828z"/>
					<g>
						<g>
							<path style="fill:#21255C;" d="M111.879,191.788c2.844-1.525,6.536-3.535,10.301-5.401c3.76-1.876,7.591-3.607,10.523-4.955
								c-3.106,0.873-7.073,2.386-10.861,4.277C118.05,187.588,114.449,189.838,111.879,191.788z"/>
						</g>
						<g>
							<path style="fill:#21255C;" d="M112.983,197.135c2.713-2.113,6.243-4.867,9.897-7.451c3.647-2.595,7.413-5.016,10.304-6.878
								c-3.145,1.387-7.094,3.602-10.771,6.219C118.728,191.63,115.331,194.625,112.983,197.135z"/>
						</g>
						<g>
							<path style="fill:#21255C;" d="M119.834,197.57c1.846-1.832,4.238-4.229,6.726-6.527c2.481-2.305,5.054-4.507,7.022-6.207
								c-2.208,1.372-4.937,3.437-7.437,5.759C123.638,192.91,121.37,195.473,119.834,197.57z"/>
						</g>
					</g>
					<g>
						<g>
							<path style="fill:#21255C;" d="M176.208,170.012c-2.646-0.087-6.14,0.228-9.527,1.057c-3.39,0.812-6.642,2.13-8.955,3.419
								c2.487-0.911,5.754-2.011,9.101-2.814C170.172,170.856,173.579,170.339,176.208,170.012z"/>
						</g>
						<g>
							<path style="fill:#21255C;" d="M180.338,173.673c-3.051-0.431-7.12-0.547-11.15-0.127c-4.031,0.403-7.993,1.34-10.894,2.379
								c3.028-0.573,6.98-1.259,10.967-1.659C173.248,173.851,177.257,173.725,180.338,173.673z"/>
						</g>
						<g>
							<path style="fill:#21255C;" d="M179.841,177.165c-2.756-0.555-6.439-0.939-10.13-0.93c-3.69-0.003-7.373,0.385-10.128,0.944
								c2.81-0.122,6.468-0.286,10.129-0.284C173.373,176.887,177.031,177.047,179.841,177.165z"/>
						</g>
					</g>
					<path style="fill:#495375;" d="M150.243,173.549c-3.224-0.156-6.501,0.932-8.992,2.985c-0.568,0.469-0.436,1.392,0.239,1.687
						c1.525,0.666,3.166,1.107,4.819,1.25c0.997,0.086,1.962-0.368,2.579-1.156c0.786-1.004,1.563-2.162,2.171-3.274
						C151.413,174.393,150.979,173.584,150.243,173.549z"/>
				</g>
			</g>
		</g>
	</g>
	<g>
		<g>
			<path style="fill:#CCF8F9;" d="M561.109,55.325c-14.867,9.867-25.316,25.018-34.694,40.199
				c-9.378,15.18-18.245,31.003-31.107,43.371c-17.185,16.526-40.018,25.519-60.749,37.295
				c-20.731,11.777-41.004,28.56-46.138,51.843c-5.007,22.704,5.602,45.85,18.071,65.472c12.469,19.623,27.409,38.555,32.563,61.226
				c2.382,10.479,2.561,21.402,5.474,31.746c6.272,22.266,24.624,39.375,44.945,50.427c38.962,21.188,87.766,23.249,128.376,5.422
				c40.61-17.827,72.126-55.148,82.9-98.17c10.775-43.022,0.569-90.791-26.845-125.655c-10.913-13.879-24.654-26.303-30.349-43.015
				c-4.76-13.968-3.259-29.217-1.245-43.836c2.014-14.619,4.478-29.56,1.495-44.013C635.819,48.944,593.096,34.097,561.109,55.325z"
				/>
			<path style="fill:#CCF8F9;" d="M655.059,166.692c1.995,6.671,6.324,13.742,13.231,14.621c5.148,0.655,10.212-2.563,13.05-6.908
				c2.838-4.345,3.82-9.632,4.309-14.798c0.832-8.794,0.259-18.189-4.566-25.587c-4.596-7.048-18.186-14.476-23.905-5.101
				C650.957,139.119,651.802,155.799,655.059,166.692z"/>
			<path style="fill:#CCF8F9;" d="M472.283,139.893c-7.742,4.941-16.24,9.05-25.353,10.192c-9.113,1.143-18.946-1.008-25.681-7.253
				c-5.854-5.428-8.863-13.481-9.19-21.457c-0.326-7.977,1.835-15.893,5.064-23.194c12.051-27.246,40.148-46.643,69.896-48.256
				c14.397-0.78,36.642,7.233,34.536,25.331c-1.888,16.226-15.348,33.716-26.086,45.262
				C488.592,127.914,480.797,134.46,472.283,139.893z"/>
			<path style="fill:#CCF8F9;" d="M380.07,172.021c1.378,3.498,3.695,6.695,6.872,8.704c6.393,4.042,15.607,2.222,20.496-3.55
				c9.181-10.841,1.975-27.667-10.846-31.513C381.932,141.265,375.749,161.05,380.07,172.021z"/>
			<path style="fill:#CCF8F9;" d="M389.058,206.86c1.962-0.988,3.041-3.204,3.348-5.379c0.895-6.353-7.438-14.091-12.246-7.296
				C376.6,199.216,382.547,210.139,389.058,206.86z"/>
		</g>
		<g>
			<defs>
				<path id="SVGID_00000093160918556572862590000009826710087188937382_" d="M673.906,218.503
					c-10.913-13.879-24.654-26.303-30.349-43.015c-4.76-13.968-3.259-29.217-1.245-43.836c2.014-14.619,4.478-29.56,1.495-44.013
					c-7.987-38.694-50.71-53.542-82.697-32.313c-1.87,1.241-3.669,2.566-5.406,3.964c-8.835-9.5-24.303-12.315-37.047-8.358
					c-14.872,4.617-26.455,16.347-35.719,28.864c-9.893,13.367-18.028,28.473-20.601,44.902c-1.813,11.571-0.553,23.87,4.221,34.46
					c-10.538,5.852-21.535,11.089-31.999,17.033c-20.731,11.777-41.004,28.561-46.138,51.843
					c-5.007,22.704,5.602,45.85,18.071,65.472c12.469,19.623,27.409,38.555,32.563,61.226c2.382,10.479,2.561,21.402,5.474,31.746
					c6.272,22.266,24.624,39.375,44.945,50.427c38.962,21.188,87.766,23.249,128.376,5.422c40.61-17.827,72.126-55.148,82.9-98.17
					S701.319,253.366,673.906,218.503z"/>
			</defs>
			<clipPath id="SVGID_00000172418196354339384420000011571548235914766729_">
				<use xlink:href="#SVGID_00000093160918556572862590000009826710087188937382_"  style="overflow:visible;"/>
			</clipPath>
			<g style="clip-path:url(#SVGID_00000172418196354339384420000011571548235914766729_);">
				<g>
					<g>
						<path style="fill:#472948;" d="M501.745,71.341c0.624-7.364,5.678-13.941,12.203-17.412c8.237-4.381,19.168-3.841,26.25,2.233
							c5.452,4.675,8.19,12.315,6.949,19.389c-1.241,7.074-6.415,13.325-13.133,15.866c-7.712,2.917-14.486-0.109-21.713-2.669
							C505.334,86.279,501.135,78.552,501.745,71.341z"/>
						<path style="fill:#654059;" d="M540.199,56.161c-7.082-6.074-18.013-6.614-26.25-2.233
							c-4.729,2.515-8.676,6.667-10.733,11.563c2.903-3.541,6.624-6.39,10.884-8.066c7.961-3.131,17.619-1.891,24.196,3.579
							c5.365,4.462,8.324,11.69,7.685,18.579c0.526-1.299,0.924-2.65,1.167-4.034C548.388,68.476,545.651,60.837,540.199,56.161z"/>
					</g>
					<g>
						<path style="fill:#472948;" d="M589.16,176.755c-4.816-3.673-8.798-8.775-11.823-14.482
							c-1.872-3.512-3.374-7.215-4.646-10.952c-0.079-0.513-0.161-1.027-0.238-1.538c-2.613-17.454-4.863-35.94-15.574-49.966
							c-10.439-13.672-28.542-21.056-45.565-18.586c-17.023,2.47-32.281,14.693-38.405,30.768
							c-6.124,16.074-2.867,35.352,8.198,48.522c1.869,2.224,3.26,4.708,4.256,7.362c0.048,0.947,0.068,1.911,0.05,2.891
							c-0.068,4.176-0.788,8.589-2.244,12.756c-1.46,4.165-3.648,8.064-6.199,11.372c-2.546,3.319-5.447,6.034-8.186,8.133
							c3.032-1.643,6.286-4.107,9.126-7.36c2.846-3.238,5.265-7.252,6.791-11.608c1.32-3.775,1.953-7.767,1.965-11.568
							c2.43,12.287-2.169,27.046-8.857,37.759c37.657-3.761,76.487-8.604,114.144-12.364c-7.825-7.321-12.362-17.059-15.313-27.482
							c0.759,1.01,1.547,1.996,2.398,2.92c2.371,2.62,5.141,4.847,8.049,6.536c2.914,1.692,5.991,2.866,8.998,3.46
							c3.001,0.623,5.932,0.61,8.51,0.194C599.409,182.74,593.947,180.471,589.16,176.755z"/>
						<path style="fill:#654059;" d="M479.383,106.71c8.846-12.485,23.942-20.295,39.243-20.303
							c15.302-0.007,30.405,7.788,39.263,20.265c7.817,11.011,10.531,24.446,13.761,37.71c-2.361-15.801-5.159-31.978-14.77-44.566
							c-10.439-13.672-28.542-21.056-45.565-18.586c-17.023,2.47-32.281,14.693-38.405,30.768
							c-3.18,8.346-3.809,17.552-2.151,26.323C469.952,127.215,472.937,115.809,479.383,106.71z"/>
					</g>
				</g>
				<g>
					<path style="fill:#454F6B;" d="M488.682,465.946l-4.637-36.326c-1.778-13.932,0.49-28.082,6.534-40.76l3.932-8.247
						l135.667-4.667l5.115,8.35c9.893,16.148,12.636,35.679,7.574,53.927l-7.69,27.723H488.682z"/>
					<g>
						<path style="fill:#422C4F;" d="M599.733,407.724c13.181-5.235,25.64-12.081,37.973-19.104
							c-0.756-1.462-1.547-2.91-2.413-4.323l-5.115-8.349l-135.667,4.667l-3.932,8.247c-0.9,1.888-1.706,3.812-2.438,5.76
							c19.554,11.286,41.936,21.081,64.379,22.141C568.648,417.522,584.728,413.683,599.733,407.724z"/>
					</g>
					<path style="fill:#422C4F;" d="M523.012,425.696l25.813,8.271c6.021,1.929,12.517,1.764,18.432-0.469l33.256-12.552
						l-31.651,17.97c-2.797,1.588-4.66,4.425-5.005,7.624l-2.094,19.406h-5.5l-0.756-18.335c-0.15-3.648-2.277-6.924-5.547-8.546
						L523.012,425.696z"/>
				</g>
				<g>
					<path style="fill:#EBA7AC;" d="M637.451,381.082l-14.03-25.44c-6.314-11.448-10.163-24.091-11.299-37.116l-11.141-127.664
						l-19.214-0.258c-4.401,14.991-18.009,27.152-33.595,29.172c-16.198,2.098-33.12-6.94-40.83-21.246l-12.829,1.749
						c3.777,13.795,3.258,29.581-0.546,43.368c-2.054,7.445-5.175,14.554-7.416,21.945c-2.241,7.391-3.591,15.281-1.984,22.835
						c0.884,4.155,2.803,8.191,5.567,11.397c5.556,6.441,9.293,14.245,10.209,22.702l1.309,12.087
						c1.441,13.302-0.783,26.745-6.43,38.874l-7.042,15.125c19.051,11.178,41.06,21.064,63.124,22.105
						c15.386,0.726,30.726-2.936,45.041-8.622C610.658,396.411,624.082,388.733,637.451,381.082z"/>
					<path style="fill:#E68799;" d="M590.512,250.613c0.815,4.402,9.045,11.629,17.242,17.867l-5.288-60.597
						C588.512,218.946,588.845,241.613,590.512,250.613z"/>
					<g>
						<g>
							<path style="fill:#E68799;" d="M611.018,383.058c-6.501,2.711-13.953,5.491-22.052,7.668
								c-8.09,2.192-16.807,3.786-25.608,4.534c-8.803,0.721-17.664,0.593-26.006-0.228c-8.347-0.804-16.157-2.311-23.018-3.907
								c6.001,3.658,13.631,6.891,22.201,8.86c8.558,1.991,18.022,2.716,27.379,1.945c9.355-0.79,18.568-3.073,26.678-6.455
								C598.718,392.112,605.706,387.659,611.018,383.058z"/>
						</g>
						<g>
							<path style="fill:#E68799;" d="M604.725,373.032c-3.718,1.333-7.938,2.839-12.475,4.224
								c-4.534,1.391-9.382,2.662-14.286,3.676c-4.906,1.005-9.861,1.752-14.576,2.266c-4.715,0.52-9.187,0.803-13.129,1.048
								c3.815,1.001,8.362,1.667,13.251,1.765c4.887,0.106,10.107-0.355,15.211-1.402c5.103-1.054,10.081-2.693,14.528-4.721
								C597.701,377.866,601.616,375.458,604.725,373.032z"/>
						</g>
					</g>
					<g>
						<path style="fill:#E68799;" d="M581.072,211.212c-3.957,3.34-8.773,6.645-14.311,9.17c-5.521,2.536-11.736,4.29-18.057,4.815
							c-6.322,0.512-12.74-0.205-18.6-1.807c-5.875-1.589-11.166-4.064-15.614-6.715c3.384,3.907,8.34,7.686,14.406,10.205
							c6.039,2.541,13.158,3.804,20.212,3.225c7.054-0.579,13.871-2.986,19.416-6.477
							C574.096,220.155,578.37,215.619,581.072,211.212z"/>
					</g>
					<path style="fill:#E68799;" d="M612.121,318.527l-0.245-2.809c-37.281-0.244-74.576,1.917-111.579,6.46
						c0.014,0.117,0.033,0.232,0.045,0.349l1.309,12.087c0.833,7.689,0.434,15.423-1.136,22.926l32.59-23.044
						c-0.735,3.857-0.315,8.129,0.779,11.901c1.093,3.772,3.507,7.256,6.966,9.114c3.46,1.858,7.987,1.86,11.163-0.45
						c2.336-1.698,3.752-4.43,4.421-7.24c0.421-1.768,0.575-3.58,0.63-5.4c-0.087-1.068-0.1-2.14,0.028-3.218
						c0.003,1.071,0.005,2.146-0.028,3.218c0.184,2.25,0.732,4.483,1.224,6.718c0.725,3.296,2.792,6.495,5.961,7.653
						c4.214,1.54,9.039-1.045,11.523-4.781c2.484-3.736,3.179-8.343,3.813-12.784l36.248-1.542
						C613.937,331.461,612.69,325.042,612.121,318.527z"/>
				</g>
				<path style="fill:#BD6C67;" d="M497.012,259.946h-33l-8.689,59.609c-0.131,0.898-0.207,1.796-0.251,2.693l34.44-9.803
					L497.012,259.946z"/>
				<g>
					<path style="fill:#BD6C67;" d="M548.171,219.776c15.586-2.019,29.195-14.181,33.595-29.172l-24.176-0.325l-10.412-35.116
						l-28.729,24.116l5.396,17l-16.504,2.251C515.051,212.836,531.974,221.874,548.171,219.776z"/>
					<path style="fill:#472948;" d="M518.449,179.28l2.817,8.876c16.995,8.041,29.37-9.209,25.912-32.991L518.449,179.28z"/>
				</g>
				<g>
					<path style="fill:#A64F5A;" d="M497.166,169.588c-2.957,0.548-5.953,1.097-8.952,0.881c-2.999-0.216-6.053-1.287-8.067-3.52
						c-2.014-2.233-2.726-5.761-1.178-8.339c1.542-2.569,5.215-3.577,7.853-2.156C489.089,161.036,493.163,166.409,497.166,169.588z
						"/>
					<path style="fill:#BD6C67;" d="M550.093,149.689c-1.078,9.192-2.446,19.044-8.714,25.854
						c-6.091,6.617-15.977,8.937-24.797,7.179c-8.82-1.757-16.602-7.137-22.681-13.764c-11.165-12.172-17.14-28.956-16.175-45.445
						c13.347-9.986,30.659-15.002,47.278-13.709c-0.427,5.488,2.009,11.536,4.964,16.18c2.956,4.643,7.449,8.29,12.601,10.227
						c-0.521,2.131,0.153,4.214,1.193,6.146c1.04,1.932,2.813,3.458,4.879,4.197c-0.141-3.108,0.53-5.896,2.099-8.583
						c1.568-2.687,4.272-4.797,7.356-5.212c3.083-0.415,6.453,1.089,7.838,3.874c1.575,3.168,0.384,7.034-1.458,10.054
						c-1.519,2.491-3.576,4.799-6.299,5.849C555.453,153.586,551.874,152,550.093,149.689z"/>
					<path style="fill:#A64F5A;" d="M561.984,136.256c-2.149-0.632-4.563,0.221-6.134,1.817c-1.571,1.596-2.374,3.829-2.602,6.057
						c-0.09,0.875-0.092,1.788,0.252,2.598c0.344,0.81,1.102,1.493,1.981,1.522c1.166,0.038,2.067-1.016,2.59-2.058
						c0.503-1.002,0.841-2.145,0.618-3.244c-0.223-1.099-1.136-2.111-2.256-2.157C557.167,138.76,559.848,136.575,561.984,136.256z"
						/>
					<path style="fill:#472948;" d="M525.293,126.734c-1.844-3.289-5.786-5.266-9.525-4.779c-3.739,0.488-7.041,3.41-7.98,7.062
						C513.034,128.401,520.047,127.35,525.293,126.734z"/>
					<path style="fill:#472948;" d="M490.094,133.911c-0.684-0.91-1.379-1.831-2.276-2.531c-0.897-0.7-2.036-1.165-3.165-1.02
						c-1.73,0.222-3.016,1.836-3.418,3.533c-0.401,1.697-0.106,3.472,0.192,5.19C483.927,137.585,487.593,135.41,490.094,133.911z"
						/>
					<circle style="fill:#472948;" cx="518.449" cy="140.509" r="3.438"/>
					<path style="fill:#472948;" d="M492.673,147.666c0.446,1.845-0.276,3.603-1.612,3.926c-1.336,0.323-2.781-0.911-3.227-2.757
						c-0.446-1.845,0.276-3.603,1.612-3.926C490.783,144.586,492.227,145.82,492.673,147.666z"/>
					<path style="fill:#A64F5A;" d="M515.919,157.009c-4.96,2.297-10.152,4.094-15.471,5.354c2.738,1.251,5.852,1.817,8.707,0.866
						C512.011,162.279,514.477,159.651,515.919,157.009z"/>
					<path style="fill:#FFFFFF;" d="M535.379,156.435c-8.071,5.45-16.876,9.812-26.103,12.929
						c4.283,3.131,10.965,2.728,15.538,0.038C529.387,166.711,533.058,161.206,535.379,156.435z"/>
					<path style="fill:#A64F5A;" d="M532.897,168.491c-3.297,3.854-8.037,6.444-13.062,7.136c2.49,1.149,5.704,1.281,8.152,0.046
						C530.436,174.437,532.341,171.177,532.897,168.491z"/>
					<g>
						<path style="fill:#E4E4E0;" d="M560.012,154.196c0,1.749-1.418,3.167-3.167,3.167s-3.167-1.418-3.167-3.167
							c0-1.749,1.418-3.167,3.167-3.167S560.012,152.447,560.012,154.196z"/>
						<path style="fill:#FFFFFF;" d="M557.45,153.82c0,0.742-0.602,1.344-1.344,1.344c-0.742,0-1.344-0.602-1.344-1.344
							c0-0.742,0.602-1.344,1.344-1.344C556.848,152.477,557.45,153.078,557.45,153.82z"/>
					</g>
					<path style="fill:#A64F5A;" d="M535.786,144.761c0.84,2.043-1.714,5.03-5.705,6.67c-3.991,1.641-7.907,1.314-8.747-0.729
						c-0.84-2.043,1.714-5.03,5.705-6.67C531.03,142.392,534.946,142.718,535.786,144.761z"/>
					<path style="fill:#A64F5A;" d="M495.679,157.681c0.433,2.166-0.844,4.248-2.853,4.65c-2.009,0.402-3.989-1.028-4.422-3.194
						c-0.434-2.166,0.844-4.248,2.852-4.65C493.266,154.085,495.246,155.515,495.679,157.681z"/>
				</g>
				<path style="fill:#EBA7AC;" d="M494.512,200.28L494.512,200.28c-12.801,1.745-23.104,11.384-25.698,24.04l-7.302,35.627h38.936
					C500.448,206.613,494.512,200.28,494.512,200.28z"/>
				<path style="fill:none;" d="M602.093,286.222c-0.748,0.525-1.501,1.044-2.226,1.596
					C600.619,287.3,601.36,286.766,602.093,286.222z"/>
				<g>
					<path style="fill:#BD6C67;" d="M641.178,246.946l9.19,49.707c2.875,15.554-8.829,29.995-24.641,30.403l-99.215,2.557
						l52.333-31.333l31.075-4.977l-3.578-41.008L641.178,246.946z"/>
					<path style="fill:#A64F5A;" d="M591.512,314.196c-1.679,0.993-3.599,3.649-3.67,5.598c-0.071,1.949,0.908,3.905,2.511,5.016
						c2.036,1.412,4.706,1.394,7.181,1.282c8.742-0.393,18.074-1.523,24.722-7.213c5.488-4.697,8.356-12.276,7.352-19.429
						c-1.003-7.153-5.846-13.651-12.414-16.656l-1.091-10.158c10.259-0.963,21.396-5.504,28.214-8.721l-3.137-16.97l-34.837,5.348
						l3.578,41.008l-31.075,4.977l-52.333,31.333l13.002-0.335l37.748-16.582C582.762,314.446,591.512,314.196,591.512,314.196z"/>
				</g>
				<g>
					<path style="fill:#CEB49D;" d="M540.155,340.544c-0.163,0.771-0.313,1.551-0.439,2.35c-0.354,2.241-0.446,4.613,0.441,6.701
						c1.185,2.79,4.107,4.692,7.134,4.855c3.027,0.163,6.046-1.326,7.936-3.696c2.043-2.562,2.629-5.636,2.895-8.849
						C552.44,339.69,546.106,339.213,540.155,340.544z"/>
					<path style="fill:#967F92;" d="M545.193,329.132c-2.69,3.463-4.156,7.236-5.038,11.412c5.951-1.331,12.285-0.854,17.967,1.361
						c0.369-4.444,0.123-9.157,2.239-13.165L545.193,329.132z"/>
				</g>
				<g>
					<path style="fill:#CEB49D;" d="M562.938,340.969c-0.137,0.64-0.256,1.283-0.358,1.925c-0.354,2.241-0.446,4.613,0.441,6.701
						c1.185,2.79,4.107,4.692,7.134,4.855c3.027,0.163,6.046-1.326,7.936-3.696c2.278-2.857,2.812-6.482,3.111-10.235
						C575.248,338.868,568.804,339.026,562.938,340.969z"/>
					<path style="fill:#967F92;" d="M568.509,328.531c-2.788,3.589-4.615,7.964-5.571,12.438c5.866-1.943,12.31-2.101,18.264-0.45
						c0.341-4.267,0.378-8.702,2.318-12.376L568.509,328.531z"/>
				</g>
				<path style="fill:#EBA7AC;" d="M600.981,190.863l7.049,0.095c11.967,0.161,22.522,7.876,26.308,19.23l14.675,44.009
					c-15.75,9.5-45.884,9.944-45.884,9.944l-6.947-24.335c-3.37-11.805-3.153-24.346,0.624-36.028L600.981,190.863z"/>
				<g>
					<g>
						<path style="fill:#967F92;" d="M627.113,297.475c-0.346-6.888-3.564-15.273-9.701-18.419l-3.277,2.249
							c3.662,4.072,5.37,10.417,3.857,15.68c-1.514,5.263-5.872,9.613-11.139,11.117c-1.391,0.397-2.819,0.6-4.26,0.735
							c3.527,3.223,5.695,7.927,5.825,12.703c3.992-1.174,7.733-2.941,10.87-5.671C624.49,311.342,627.46,304.362,627.113,297.475z"
							/>
						<path style="fill:#645B79;" d="M602.593,308.837c-1.816,0.17-3.654,0.228-5.47,0.4c-3.257,0.309-6.653,1.096-9.038,3.335
							c-2.385,2.239-3.304,6.295-1.234,8.828c2.01,2.46,5.694,2.517,8.86,2.263c4.252-0.34,8.612-0.919,12.707-2.123
							C608.288,316.764,606.12,312.06,602.593,308.837z"/>
						<g>
							<path style="fill:#645B79;" d="M621.086,291.268c-0.526-1.503-1.787-2.686-3.272-3.243c0.867,2.95,0.997,6.112,0.178,8.96
								c-0.11,0.382-0.239,0.758-0.378,1.13c0.556-0.138,1.092-0.385,1.553-0.719C621.024,296.05,621.844,293.433,621.086,291.268z"
								/>
							<path style="fill:#645B79;" d="M620.904,306.267c-0.401,1.009-0.525,2.124-1.042,3.078c-0.997,1.841-3.212,2.688-4.46,4.368
								c-1.086,1.462-1.17,3.494-0.458,5.155c1.539-0.845,2.999-1.83,4.344-3c3.915-3.407,6.565-8.204,7.489-13.305
								C624.33,302.497,621.818,303.966,620.904,306.267z"/>
							<path style="fill:#645B79;" d="M615.612,308.763c0.378-0.085,0.719-0.284,1.037-0.505c0.945-0.658,4.627-4.697,2.205-5.452
								c-1.898-0.592-4.237,2.28-4.703,3.736c-0.224,0.7-0.24,1.596,0.351,2.033C614.814,308.805,615.235,308.848,615.612,308.763z"
								/>
						</g>
					</g>
					<g>
						<g>
							<path style="fill:#CEB49D;" d="M457.159,300.149c-1.183,0.895-2.291,1.879-3.258,3.007c-2.11,2.461-3.514,5.678-3.206,8.905
								c0.308,3.227,2.6,6.343,5.769,7.024c2.164,0.466,4.442-0.207,6.349-1.331c1.907-1.124,3.519-2.674,5.175-4.142
								c0.896-0.795,1.821-1.557,2.752-2.31C468.143,305.845,463.001,301.672,457.159,300.149z"/>
							<path style="fill:#967F92;" d="M494.935,261.921c-6.119,7.25-9.885,16.456-10.601,25.916
								c-7.87,1.881-15.711,5.441-22.74,9.45c-1.526,0.871-3.034,1.804-4.435,2.863c5.842,1.523,10.984,5.696,13.582,11.152
								c8.041-6.507,17.337-11.461,27.236-14.462C500.214,285.463,498.519,272.946,494.935,261.921z"/>
							<path style="fill:#645B79;" d="M494.935,261.921c-6.119,7.25-9.885,16.456-10.601,25.916
								c-2.555,0.611-5.104,1.413-7.627,2.336c0.006,1.722,0.663,3.447,1.874,4.677c1.109,1.126,2.64,1.803,4.213,1.935
								c1.956,0.164,3.613,1.499,4.385,3.304c0.109,0.255,0.193,0.52,0.291,0.78c3.403-1.585,6.914-2.939,10.508-4.029
								C500.214,285.463,498.519,272.946,494.935,261.921z"/>
						</g>
						<path style="fill:#472948;" d="M450.323,263.436c-1.032,1.798-2.2,3.532-2.964,5.459s-1.096,4.119-0.398,6.071
							c0.858,2.401,3.15,4.056,5.576,4.84c4.306,1.391,9.182,0.391,12.951-2.113c3.769-2.504,6.49-6.383,8.159-10.589
							c1.669-4.206,2.348-8.744,2.635-13.26c0.093-1.459,0.122-3.018-0.634-4.269c-1.204-1.991-3.865-2.436-6.189-2.54
							c-2.808-0.126-5.624-0.051-8.422,0.222c-1.955,0.191-5.02-0.148-5.616,1.991C454.033,254.23,452.939,258.879,450.323,263.436z
							"/>
						<path style="fill:#967F92;" d="M513.787,305.537c-5.292-5.343-11.662-11.479-15.77-17.778
							c-4.108-6.299-6.86-14.419-6.632-21.935c-4.496-4.504-9.167-9.41-14.143-13.377c-1.176-0.938-2.833-1.054-4.302-0.733
							c-1.47,0.321-2.822,1.023-4.214,1.595c-6.388,2.622-14.517,2.025-20.743-0.96c-5.388,2.766-11.02,2.008-15.48-1.254
							c-4.46-3.262-6.866-8.586-9.515-13.435c6.922-4.241,14.052-9.222,20.974-13.463c0.242-9.896,7.728-19.169,17.352-21.489
							c9.623-2.321,20.514,2.519,25.24,11.217c5.027,9.253,12.507,18.07,22.191,22.207c10.533,4.499,22.403,4.67,33.808,3.621
							c11.405-1.049,22.733-3.247,34.186-3.229c11.453,0.017,23.373,2.5,32.253,9.732c8.88,7.233,12.704,22.18,8.42,32.801
							l-17.545,12.042l-39.212,1.099L513.787,305.537z"/>
						<g>
							<path style="fill:#645B79;" d="M517.195,249.179c1.933,3.162,6.156,3.802,9.403,5.59c4.239,2.334,6.853,6.715,9.503,10.764
								c2.65,4.049,5.867,8.199,10.517,9.54c5.201,1.5,10.822-1.016,14.809-4.676c3.988-3.66,6.816-8.381,10.255-12.561
								c3.439-4.18,7.861-8.006,13.221-8.755c2.611-0.365,5.332,0.021,7.855-0.744c3.198-0.97,5.718-3.886,6.216-7.191
								c0.035-0.23,0.036-0.463,0.051-0.695c-6.961-2.82-14.722-3.917-22.286-3.929c-11.453-0.017-22.781,2.18-34.186,3.229
								c-7.961,0.732-16.146,0.865-23.947-0.649c-0.646,0.944-1.219,1.931-1.642,2.994
								C516.058,244.372,515.917,247.089,517.195,249.179z"/>
							<path style="fill:#645B79;" d="M518.61,263.441c-0.26,1.486,0.244,3.027,1.083,4.281c0.839,1.253,1.991,2.261,3.156,3.22
								c1.398,1.151,3.052,2.317,4.847,2.076c1.705-0.229,3.042-1.776,3.365-3.466c0.323-1.689-0.224-3.452-1.142-4.907
								C527.814,261.306,519.771,256.818,518.61,263.441z"/>
						</g>
						<path style="fill:#645B79;" d="M615.259,254.041c0.982,3.83,0.563,8.035-1.337,11.512c-2.811,5.143-9.217,9.047-15.069,8.732
							c2.029-2.962,4.294-6.382,6.324-9.345c-8.914,2.079-17.323,6.003-24.986,11.008c0.651-3.158,1.141-7.146,1.792-10.305
							c-9.776,5.406-18.653,14.169-23.861,24.052l-30.922,8.044c-4.038,1.05-8.356-0.481-10.705-3.929
							c-1.904-2.795-2.973-6.139-2.639-9.37l-15.578,3.691c4.113,6.167,10.322,12.168,15.509,17.405l46.869-13.34l39.212-1.099
							l17.545-12.042C620.477,271.458,619.375,261.659,615.259,254.041z"/>
						<ellipse style="fill:#472948;" cx="425.137" cy="238.259" rx="5.125" ry="3.438"/>
						<circle style="fill:#472948;" cx="460.199" cy="221.259" r="3.563"/>
						<path style="fill:#472948;" d="M447.983,252.347c4.779-2.734,12.216-9.067,12.216-9.067
							C458.428,248.53,453.455,252.663,447.983,252.347z"/>
						<path style="fill:#59395B;" d="M474.506,220.723c0.542,4.727,1.894,9.413,1.537,14.157c-0.492,6.539-4.135,12.339-7.017,18.23
							c-2.882,5.89-5.074,12.834-2.576,18.897c2.379,5.773,8.856,9.313,15.092,9.003c6.237-0.311,12.011-4.062,15.588-9.181
							c3.577-5.118,5.117-11.46,5.226-17.704c0.11-6.243-1.132-12.434-2.714-18.475c-1.553-5.932-3.476-11.855-6.806-17.004
							c-2.748-4.249-7.462-9.479-12.658-10.633C473.949,206.63,474.048,216.737,474.506,220.723z"/>
					</g>
				</g>
				<path style="fill:#BD6C67;" d="M616.527,282.786c0.897-1.063,1.76-2.648,0.885-3.73c-0.454-0.562-1.255-0.744-1.969-0.634
					c-0.714,0.109-1.363,0.464-1.992,0.818c-3.859,2.171-7.724,4.434-11.358,6.983c-0.734,0.543-1.474,1.078-2.226,1.596
					c0.725-0.553,1.478-1.072,2.226-1.596c4.567-3.383,8.788-7.232,12.57-11.474c0.57-0.639,1.142-1.307,1.439-2.111
					c0.297-0.804,0.269-1.782-0.286-2.434c-0.56-0.658-1.53-0.84-2.378-0.673c-0.847,0.167-1.605,0.625-2.343,1.074
					c-5.13,3.129-10.498,5.996-15.628,9.125c3.959-3.774,7.918-7.549,11.877-11.323c1.215-1.158,2.546-2.782,1.726-4.336
					c-0.382-0.725-1.165-1.161-1.98-1.247c-1.473-0.155-2.753,0.584-3.962,1.317c-8.029,4.867-15.859,10.019-22.988,16.129
					l3.62-10.149c0.594-1.664,0.946-3.405,1.046-5.169c0.091-1.61-1.864-2.49-2.995-1.34c-8.235,8.376-15.666,18.249-21.154,28.586
					l-71.145,20.25l0,0l-34.44,9.803c-0.398,7.992,2.578,15.835,8.295,21.552v0c8.851,8.851,22.444,10.885,33.498,5.013
					l77.397-41.117c13.775,0,28.195-4.534,38.462-13.719c0.58-0.519,1.169-1.078,1.444-1.807c0.275-0.729,0.134-1.674-0.521-2.096
					c-0.744-0.479-1.72-0.101-2.517,0.283c-2.796,1.35-6.337,2.533-9.134,3.882C607.545,291.454,612.522,287.532,616.527,282.786z"
					/>
				<g>
					<path style="fill:#CEB49D;" d="M483.967,316.327c-3.487-1.417-7.326-1.934-11.068-1.543c-0.246,0.481-0.489,0.964-0.71,1.455
						c-1.674,3.707-2.692,8.013-1.258,11.819c1.121,2.976,3.751,5.338,6.83,6.133c3.079,0.796,6.524,0.004,8.947-2.056
						c2.918-2.481,4.114-6.311,5.688-9.846C490.073,319.707,487.184,317.634,483.967,316.327z"/>
					<path style="fill:#967F92;" d="M513.856,284.441c-4.531-4.578-11.151-6.394-17.474-7.621
						c-1.516,6.287-1.69,12.895-0.506,19.253c-9.653,2.537-18.408,9.785-22.977,18.71c3.742-0.39,7.581,0.127,11.068,1.543
						c3.217,1.307,6.106,3.381,8.429,5.962c0.214-0.48,0.433-0.955,0.666-1.419c2.709-5.404,7.778-9.727,13.723-12.648
						c3.848-1.891,6.328-5.793,6.137-10.076C512.718,293.573,513.089,288.97,513.856,284.441z"/>
				</g>
			</g>
		</g>
	</g>
</g>
</svg>
