<?xml version="1.0" encoding="utf-8"?>
<!-- Generator: Adobe Illustrator 27.5.0, SVG Export Plug-In . SVG Version: 6.00 Build 0)  -->
<svg version="1.1" xmlns="http://www.w3.org/2000/svg" xmlns:xlink="http://www.w3.org/1999/xlink" x="0px" y="0px"
	 viewBox="0 0 500 500" style="enable-background:new 0 0 500 500;" xml:space="preserve">
<g id="BACKGROUND">
	<rect style="fill:#F9E4CC;" width="500" height="500"/>
</g>
<g id="OBJECTS">
	<g>
		<g>
			<g>
				<rect x="94.2" y="47.51" style="fill:#EDC6A8;" width="162" height="183"/>
				<rect x="100.39" y="54.51" style="fill:#FFF6EB;" width="149.61" height="169"/>
				<rect x="172.02" y="54.51" style="fill:#EDC6A8;" width="6" height="169"/>
			</g>
			<rect x="23.5" y="354.55" style="fill:#B58260;" width="453" height="2"/>
			<g>
				<g>
					<g>
						<path style="fill:#BA7768;" d="M396.53,302.04c14.92-83.07-13.09-178.03-65.26-229.75
							C321.73,169.21,343.32,234.69,396.53,302.04z"/>
						<path style="fill:#A15A50;" d="M390.23,289.9c-8.59-59.74-27.87-125.86-52.81-199.24
							C359.43,163.72,373.22,217.03,390.23,289.9z"/>
					</g>
					<g>
						<path style="fill:#C78775;" d="M394.49,296.27c-25.54-60.16-9.73-136.44,32.27-186.42C439.64,172,421.7,260.29,394.49,296.27z
							"/>
						<path style="fill:#AD675E;" d="M392.94,298.73c3.26-56.52,9.57-109.26,26.61-163.06C406.92,190.92,400.13,243.3,392.94,298.73
							z"/>
					</g>
					<g>
						<path style="fill:#D9A189;" d="M400.06,312.11c-8.93-38.88,11-90.46,57.17-120.8C453.29,241.12,435.24,289,400.06,312.11z"/>
						<path style="fill:#C78775;" d="M402.84,308.01c6.77-33.86,21.31-69,42.95-96.04C426.09,241.04,411.98,276.43,402.84,308.01z"
							/>
					</g>
					<g>
						<path style="fill:#D9A189;" d="M391.55,298.93c3.3-53.22-40.12-104.15-82.02-122.07
							C315.77,228.22,338.43,276.22,391.55,298.93z"/>
						<path style="fill:#C78775;" d="M390.76,306.63c-17.25-40.45-43.69-79.83-72.7-117C344.41,225.78,367.68,264.15,390.76,306.63z
							"/>
					</g>
				</g>
				<g>
					<g>
						<polygon style="fill:#EDC6A8;" points="433.47,288.8 428.65,311.35 418.98,356.55 368.95,356.55 363.55,331.25 354.47,288.8 
													"/>
					</g>
					<path style="fill:#E3B498;" d="M428.65,311.35l-9.67,45.2h-50.03l-5.4-25.29c9.91,0.75,19.97,0.02,29.55-2.25
						C406.51,325.81,418.82,319.6,428.65,311.35z"/>
				</g>
			</g>
		</g>
		<g>
			<ellipse style="fill:#EDC6A8;" cx="258.6" cy="421.46" rx="195.5" ry="25.83"/>
			<g>
				<g>
					<path style="fill:#3D0425;" d="M123.61,165.62c-0.2-7.96-3.92-15.82-10.16-20.76c-6.24-4.94-14.93-6.74-22.52-4.37
						c-7.6,2.37-13.8,8.96-15.39,16.76c-2.17,10.62,3.78,20.95,7.5,31.13c1.85,5.05,3.14,10.77,1,15.7
						c-2.85,6.56-10.77,9.53-14.31,15.74c-3.07,5.37-2,12.77,2.46,17.05c2.94,2.83,6.93,4.23,10.38,6.4c3.45,2.18,6.6,5.8,6.07,9.84
						c-0.32,2.46-1.94,4.52-2.84,6.83c-2.57,6.62,1.81,14.75,8.52,17.07c6.71,2.32,14.62-0.78,18.77-6.54
						c4.15-5.76,4.77-13.62,2.53-20.36c-1.73-5.17-5.05-10.28-3.93-15.61c0.94-4.48,4.76-7.65,7.62-11.22
						c5.9-7.38,7.98-17.66,5.42-26.75c-1.32-4.67-3.78-9.07-4.21-13.9C119.95,176.42,123.74,170.54,123.61,165.62z"/>
					<g>
						<path style="fill:#456A97;" d="M284.82,331.67l-2.39,9.72c0,0-0.41,63.13-131.81,75.8c-31.39,3.03-51.91-10.84-58.79-32.71
							c-3.89-12.37-0.8-21.63,2.85-27.52c3.09-4.98,6.58-7.55,6.58-7.55l12.26-6.82l74.96,5.07c0,0,6.41-1.11,15.45-2.76
							c16.74-3.06,42.5-7.94,53.32-10.98C273.91,329.25,284.82,331.67,284.82,331.67z"/>
						<path style="opacity:0.651;fill:#314C7A;enable-background:new    ;" d="M203.93,344.9c-0.9,3.54-3.04,6.8-5.73,9.34
							c-3.65,3.45-8.24,5.74-12.84,7.76c-15.52,6.78-32.44,10.93-49.35,10.02c-14.87-0.81-29.75-5.78-41.33-15.06
							c3.09-4.98,6.58-7.55,6.58-7.55l12.26-6.82l74.96,5.07C188.48,347.66,194.89,346.55,203.93,344.9z"/>
					</g>
					<path style="fill:#F78E77;" d="M172.51,235.28c2.11-3.44,6.43-5.14,10.44-4.78c4.02,0.35,7.71,2.5,10.62,5.3
						c2.91,2.8,5.12,6.22,7.25,9.64c4.13,6.65,8.06,13.44,12.82,19.66c4.76,6.21,10.43,11.87,17.9,15.8
						c9.87-7.31,18.8-18.39,25.39-29.26c5,2.68,9.07,5.2,14.92,5.97c-4.94,12.95-10.08,25.51-17.71,37.08
						c-3.54,5.37-11.54,19.41-23.82,17.53c-13.24-2.02-29.63-16.32-40.03-29.56C179.89,269.42,172.54,255.82,172.51,235.28z"/>
					<g>
						<path style="fill:#DB4463;" d="M202.05,344.52c-1.67,4.59-11.15,13.72-26.9,16.76c-25.02,4.82-57.43-2.59-75.97-9.86
							c12.03-22.97,19.33-33.8,20.06-42.38c0.05-0.48,0.07-0.95,0.07-1.41c0-19.71-6.61-46.03-2.44-70.8
							c7.24,0.49,15.43,2.21,24.67,4.54c6.02,0.22,12.03,0.44,19.42,1.29c4.2-3.01,8.42-7.89,13.79-10.18
							c18.22,16.65,25.12,46.82,24.3,59.46c-0.46,7.14-3.98,19.38-4.74,31.42c-0.04,0.52-0.07,1.03-0.09,1.55
							C193.88,332.72,197.02,343.65,202.05,344.52z"/>
						<path style="fill:#CC375F;" d="M202.05,344.52c-1.67,4.59-11.15,13.72-26.9,16.76c-25.02,4.82-57.43-2.59-75.97-9.86
							c12.03-22.97,19.33-33.8,20.06-42.38c8.76,7.18,19.02,12.54,29.97,15.48c14.73,3.94,30.58,3.45,45.1-1.16
							c-0.04,0.52-0.07,1.03-0.09,1.55C193.88,332.72,197.02,343.65,202.05,344.52z"/>
					</g>
					<g>
						<g>
							<path style="fill:#FE9F7F;" d="M169.15,255.87c-1.27,5.39-6.46,9.73-11.99,9.38c-12.51-0.81-20.49-15.45-24.18-23.53
								c2.26-5.19,3.8-10.32,4.81-15.25c0.57-2.72,0.97-5.37,1.24-7.95c8.89,5.46,18.93,9.02,29.24,10.02
								c-1.13,3.36-1.85,9.7-2.09,12.14c-0.07,0.63-0.1,1-0.1,1S170.94,248.29,169.15,255.87z"/>
							<path style="fill:#FC7C6E;" d="M168.27,228.54c-1.13,3.36-1.85,9.7-2.09,12.14c-10.6-1.24-20.95-6.33-28.39-14.21
								c0.57-2.72,0.97-5.37,1.24-7.95C147.92,223.98,157.96,227.54,168.27,228.54z"/>
						</g>
						<g>
							<g>
								<path style="fill:#FC7C6E;" d="M190.29,185.23c0.47-1.59,1.34-3.11,2.67-4.11c1.33-1,3.16-1.4,4.71-0.8
									c1.39,0.54,2.4,1.79,3.08,3.11c1.64,3.19,1.73,7.14,0.24,10.4c-1.5,3.26-4.55,5.77-8.04,6.61
									C192.22,195.32,191.49,190.19,190.29,185.23z"/>
								<g>
									<path style="fill:#FE9F7F;" d="M188.45,161.97c6.07,20.36,16.36,58.8-10.36,70.16c-19.98,7.21-35.96-5.34-43.06-10.65
										c-25.07,14.84-33.05-22.95-2.44-14.44c-7.81-13.48-15.05-31.76-5.04-45.85C142.04,144.62,177.25,137.43,188.45,161.97z"/>
									<path style="fill:#FC7C6E;" d="M132.66,207.76c2.51-9.69,2.79-21.58,1.62-30.75c8.25,5.76,21.8,4.67,30.09,0.52
										c-3.48-1.87-5.4-3.69-6.15-5.46c7.96,4.14,20.27,7.63,29.38,6.56c-0.62-2.51-1.57-4.94-2.91-6.99
										c3.36,1.97,6.28,4.67,8.5,7.87c-1.68-4.83-3.52-9.66-6.43-13.86c-2.91-4.2-6.99-7.77-12.57-8.75
										c-17.33-0.3-34.71,3.4-50.6,11.09C123.95,181.92,126.9,195.78,132.66,207.76z"/>
								</g>
								<g>
									<path style="fill:#4F042B;" d="M193.48,182.09c-2.54-6.78-7.24-12.24-13.24-15.06c1.4,2.9,2.8,5.81,4.2,8.72
										c-12.14,0.25-23.94-3.26-34.18-9.4c2.67,4.4,5.66,7.82,9.12,10.66c-9.45,2.93-20.26,0.87-28.74-4.8
										c2.05,6.05,2.95,12.36,3.25,18.67c0.3,6.3,0,12.62-0.3,18.93c-5.16-2.45-11.34-3.24-17.24-1.85
										c-7.52-6.28-12.7-15.53-13.28-25.31s3.72-19.9,12.22-25.75c0.75-3.19,2.15-6.19,4.02-8.87c2.29-3.3,5.29-6.14,8.66-8.33
										c6.12-3.99,13.38-5.96,20.65-6.61c8.41-0.76,17.07,0.24,24.77,3.71c7.69,3.47,14.35,9.53,17.76,17.25
										c1.75,3.95,2.6,8.15,2.92,12.45C194.45,171.65,194.05,176.94,193.48,182.09z"/>
									<path style="fill:#751A40;" d="M194.07,166.5c-6.72-12.68-18.78-22.56-32.71-26.14c-14.24-3.66-29.94-0.6-42.05,7.67
										c2.29-3.3,5.29-6.14,8.66-8.33c6.12-3.99,13.38-5.96,20.65-6.61c8.41-0.76,17.07,0.24,24.77,3.71
										c7.69,3.47,14.35,9.53,17.76,17.25C192.9,158,193.75,162.2,194.07,166.5z"/>
								</g>
							</g>
							<g>
								<g>
									<path style="fill:#4F042B;" d="M142.19,193.99c1.21-2.94,3.52-5.43,6.43-6.43c3.34-1.16,6.52-0.47,9.01,1.65
										c-0.77-2.63-3.45-5.05-6.06-5.4c-2.61-0.35-5.32,0.82-7.08,2.86C142.72,188.71,141.88,191.54,142.19,193.99z"/>
									<path style="fill:#4F042B;" d="M191.22,182.61c-1.89-2.01-4.31-2.57-6.97-1.86s-5.06,3.15-6.27,5.78
										c0.49-2.44,0.74-3.03,1.39-4.44c0.65-1.41,1.61-2.72,2.92-3.55c1.67-1.05,3.86-1.2,5.66-0.4S191.1,180.67,191.22,182.61z"
										/>
								</g>
								<g>
									<ellipse style="fill:#242B40;" cx="155.48" cy="205.26" rx="1.67" ry="2.5"/>
									<ellipse style="fill:#242B40;" cx="185.1" cy="197.49" rx="1.67" ry="2.5"/>
								</g>
								<g>
									<path style="fill:none;stroke:#B04150;stroke-linecap:round;stroke-miterlimit:10;" d="M174.35,201.87
										c0.89,2.69,1.03,5.63,0.4,8.39"/>
									<path style="fill:#FFFFFF;" d="M177.9,213.59c-4.71,1.75-9.97,1.98-15.06,0.79c-0.6,2.99,0.78,6.29,3.33,7.96
										s6.13,1.62,8.63-0.12C177.31,220.48,178.6,217.15,177.9,213.59z"/>
								</g>
							</g>
						</g>
					</g>
					<g>
						<path style="fill:#F78E77;" d="M186.74,395.31c-15.1,5.69-30.89,10.17-47.58,11.57c-3.95,0.33-7.94,1.11-9.67,4.67
							c-2.18,4.5,1.67,6.95,3.51,7.16c-1.98,2.99,0.23,8.64,2.44,13.28c1.23,2.58,4.18,5.92,7.03,7.61
							c4.61,2.73,9.21,0.71,14.06-1.58c13.61-6.44,27.26-12.91,39.85-21.17C190.99,410.28,187.19,402.07,186.74,395.31z"/>
						<path style="fill:#F78E77;" d="M179.81,388.59c30.79-9.78,51.85-38.51,81.06-52.31c5.75-2.72,11.91-4.86,18.27-5.02
							c6.36-0.16,12.98,1.86,17.38,6.45c5.4,5.63,6.67,14.42,4.37,21.87c-2.3,7.45-7.73,13.63-14.06,18.19
							c-6.33,4.56-13.56,7.67-20.76,10.67c-23.77,9.92-48.82,19.2-73.66,17.03C185.91,401.16,180.19,395.66,179.81,388.59z"/>
					</g>
					<g>
						<path style="fill:#FE9F7F;" d="M131.81,277.8c2.36-20.67-3.39-36.83-12.59-40.29c-11.83-4.45-27.15,6.85-18.17,34.43
							c2.65,8.13,21.27,53.16,31.92,64.11c3.98,4.09,10.38,11.12,16.93,7.45c11.63-6.52,35.6-34.23,46.46-55.33
							c-3.65-4.78-7.31-9.56-10.8-14.76c-10.04,13.48-35.95,35.86-38.73,35.07C143.37,307.5,131.81,277.8,131.81,277.8z"/>
						<g>
							<g>
								<path style="fill:#314875;" d="M249.55,232.06l5.89-6.66l-1.5-0.68c-0.87-0.39-1.86-0.44-2.77-0.14l-53.33,17.8
									c-1.36,0.45-2.27,1.72-2.27,3.15v31.21c0,0.66,0.39,1.27,0.99,1.54l1.37,0.62L249.55,232.06z"/>
								<path style="fill:#456A97;" d="M197.94,278.9v-31.62c0-1.43,0.91-2.69,2.26-3.15l55.24-18.73v31.71
									c0,1.37-0.87,2.58-2.17,3.02L197.94,278.9z"/>
								<g>
									<polygon style="fill:#6E95BA;" points="234.36,242.32 234.36,236.16 251.11,230.57 251.11,236.73 									"/>
									<g>
										<circle style="fill:#8AB3CF;" cx="248.06" cy="234.6" r="1.69"/>
										<circle style="fill:#8AB3CF;" cx="242.81" cy="236.04" r="1.69"/>
										<circle style="fill:#8AB3CF;" cx="237.56" cy="237.97" r="1.69"/>
									</g>
								</g>
							</g>
							<g>
								<path style="fill:#FE9F7F;" d="M185.52,275.93c-1.63-9.02-0.41-20.44,2.23-25.48c1.84-3.51,8.24-11.98,13.92-15.07
									c1.4-0.76,3.39-1.29,4.39-0.05c0.97,1.19,0.15,2.97-0.78,4.19c-3.49,4.58-8.62,8.33-9.18,13.67
									c4.96-3.22,10.98-4.78,16.88-4.39c1.63,0.11,3.34,0.4,4.6,1.44c1.26,1.04,1.87,3.02,1.02,4.45
									c1.18,0.52,2.07,1.63,2.34,2.89c0.26,1.26-0.11,2.64-1.22,3.9c0.49,1.34,0.96,2.89,0.28,4.14c-0.63,1.17-2.05,1.6-3.31,2.02
									c-6.76,2.26-8.84,3.64-10.06,6.42c-1.89,4.3-2.98,11.19-11.54,15.02C191.3,285.13,186.47,281.18,185.52,275.93z"/>
								<g>
									<path style="fill:none;stroke:#B04150;stroke-linecap:round;stroke-miterlimit:10;" d="M217.78,254.72
										c-6.52-0.21-13.09,1.65-18.52,5.25"/>
									<path style="fill:none;stroke:#B04150;stroke-linecap:round;stroke-miterlimit:10;" d="M218.84,261.32
										c-6.41-0.54-13.02,1.84-17.61,6.35"/>
								</g>
							</g>
							<g>
								<path style="fill:#FE9F7F;" d="M272.2,256.37c-0.02,0.13-0.06,0.25-0.09,0.37c-1.03,3.53-5.46,3.45-8.01,3.09
									c-2.54-0.36-4.85-2.07-5.93-4.39c0-0.02-0.01-0.03-0.02-0.05c-1.38,0.29-1.81,0.29-2.65,0.47
									c-0.73,0.15-1.52,0.25-2.21-0.04c-1.15-0.47-1.67-1.88-1.51-3.11c0.15-1.23,0.83-2.32,1.49-3.37
									c-0.97,0.13-2.02-0.35-2.51-1.15c-0.5-0.8-0.51-1.82-0.26-2.72c0.26-0.9,0.76-1.71,1.26-2.5c-1.63,0.37-2.8-0.61-3.18-1.77
									c-0.37-1.16-0.14-2.42,0.18-3.6c0.64-2.43,1.63-4.82,3.37-6.63c1.74-1.81,2.37-2.34,4.78-2.64c-2.29-1.5-3.26-1.87-5.7-2
									c-2.44-0.13-4.9,0.06-7.32-0.25c-1.23-0.15-2.68-0.65-2.9-1.87c-0.13-0.71,0.25-1.44,0.8-1.91
									c0.55-0.47,1.25-0.73,1.94-0.95c3.1-1,6.36-1.49,9.62-1.45c2.8,0.03,5.65,0.47,8.13,1.78c2.48,1.3,4.54,3.57,5.15,6.3
									C272.81,235.74,273.8,250.24,272.2,256.37z"/>
								<path style="fill:#F78E77;" d="M272.2,256.37c-0.02,0.13-0.06,0.25-0.09,0.37c-1.03,3.53-5.46,3.45-8.01,3.09
									c-2.54-0.36-4.85-2.07-5.93-4.39c0.06-0.02,3.13-1.05,6.06-2.22c0.3,1.52,1.59,3.24,3.07,3.7c1.48,0.45,3.11,0.23,4.53-0.38
									C271.95,256.49,272.08,256.43,272.2,256.37z"/>
								<g>
									<path style="fill:none;stroke:#B04150;stroke-linecap:round;stroke-miterlimit:10;" d="M252.13,242.66
										c2.58-4.05,6.59-6.97,11-8"/>
									<path style="fill:none;stroke:#B04150;stroke-linecap:round;stroke-miterlimit:10;" d="M254.06,248.94
										c3.49-2.81,7.85-4.81,12.5-5.75"/>
								</g>
							</g>
						</g>
					</g>
					<g>
						<path style="fill:#FE9F7F;" d="M228.09,418.72c-32.85-0.21-65.68-4.71-97.38-13.36c-9.49-2.59-19.17-5.71-26.61-12.15
							c-6.74-5.84-11.81-14.19-12.23-23.1c-0.51-10.96,8.46-19.43,17.96-22.24s19.86-0.82,28.93,3.14
							c9.08,3.96,17.18,9.8,25.56,15.08c22.05,13.91,46.36,24.23,72.32,30.05C238.87,404.94,235.37,414.9,228.09,418.72z"/>
						<path style="fill:#FE9F7F;" d="M227.26,394.97c16.13,0.11,32.5-1.16,48.65-5.62c3.82-1.05,7.92-1.79,10.69,1.04
							c2.5,2.56,0.87,5.14-1,6.7c2.67,0.71,2.71,11.94,2.5,14.54c-0.26,3.29-0.61,6.81-2.7,9.37c-3.38,4.16-9.65,4.05-14.99,3.58
							c-15-1.33-30.05-2.68-44.72-6.06C228.45,410.49,229.17,401.47,227.26,394.97z"/>
					</g>
				</g>
				<g>
					<path style="fill:#D9803D;" d="M318.78,317.13c-4.91,1.5-10.09,2.09-15.42,2.26c-2.59-2.97-5.21-5.98-8.41-8.28
						c-3.2-2.31-7.08-3.89-11.01-3.64c-6.65,0.42-11.92,5.83-15.36,11.53c-0.93,1.55-1.8,3.19-2.02,4.98
						c-0.22,1.79,0.32,3.78,1.77,4.86c1.99,1.48,4.85,0.8,7.02-0.39c2.18-1.19,4.19-2.86,7.75-3.17c2.26,6.14,6.5,11.54,11.92,15.2
						c5.42,3.66,12.01,5.57,18.51,5.99C315.55,336.99,317.58,327.52,318.78,317.13z"/>
					<path style="fill:#D9803D;" d="M344.79,377.37c-6.13-0.95-12.56,1.99-16.36,7.02c-3.8,5.03-5.03,11.9-3.67,18.13
						c1.36,6.22,5.16,11.75,10.14,15.81c-3.12-0.41-6.42-0.8-9.31,0.48c-2.89,1.28-5.07,4.87-3.74,7.81
						c0.92,2.04,3.12,3.09,5.22,3.71c7.34,2.2,15.18,1.27,22.95,0.45c4.77-7.78,7.1-17.12,6.57-26.3
						C356.06,395.28,352.67,386.3,344.79,377.37z"/>
					<path style="fill:#D9803D;" d="M396.23,388.68c7.84,4.23,17.63,4.67,25.83,1.17c8.19-3.5,14.62-10.88,16.94-19.46
						c2.28,5.2,2.74,11.17,1.29,16.65c1.87-1.17,3.41-2.85,4.41-4.81c1.69,7.33-0.71,15.47-6.12,20.72c2-0.61,3.99-1.21,5.99-1.82
						c-5.38,7.7-14.46,12.71-23.87,13.17c1.65,0.92,3.3,1.84,4.95,2.75c-4.55,1.26-9.39,1.79-13.99,0.74
						c-4.6-1.05-8.93-3.84-11.14-8C397.3,403.77,399.02,396.21,396.23,388.68z"/>
					<g>
						<g>
							<path style="fill:#FEB15F;" d="M403.14,405.86c-0.33,8.15-4.54,16.47-10.78,20.7c-15.26,8.37-33.61,8.86-50.91,6.97
								c-1.88-0.21-3.8-0.45-5.47-1.33c-1.67-0.88-3.06-2.54-3.08-4.42c-0.03-1.83,1.19-3.44,2.53-4.68
								c3.1-2.87,7.22-4.61,11.73-4.56c-5.53-3.65-9.24-5.44-11.34-14.75c-1.79-7.95,0.73-13.14,5.11-17.67
								c0.21-0.22,0.43-0.44,0.65-0.66c-1.29-1.67-2.77-3.15-4.36-4.51c-3.13-2.7-6.7-4.95-10.13-7.36
								c-1.84-1.3-3.65-2.64-5.33-4.12c-4.51-3.97-8.05-9-10.37-14.54c-0.46-1.1-0.88-2.23-1.24-3.37
								c-1.25-3.86-1.91-7.9-1.94-11.94c-0.01-0.91,0.02-1.82,0.08-2.72c0.78-12.15,7.47-23.77,17.57-30.57
								c12.48,3.23,26.25,4.24,40.56,3.52c1.04,18.47,6.8,36.65,16.57,52.35c4.31,6.93,9.38,13.37,13.42,20.46
								C400.44,389.75,403.46,397.71,403.14,405.86z"/>
							<g>
								<path style="fill:#D9803D;" d="M343.36,431.95c0.02-1.69,0.74-3.36,1.97-4.52c1.23-1.16,2.93-1.8,4.61-1.74
									C347.13,426.92,344.85,429.28,343.36,431.95z"/>
								<path style="fill:#D9803D;" d="M339.13,431.39c-0.59-1.48-0.51-3.22,0.23-4.63c0.74-1.41,2.11-2.48,3.67-2.84
									C341.11,425.89,339.74,428.41,339.13,431.39z"/>
							</g>
							<path style="fill:#F59B51;" d="M379.18,384.63c-18.73-10.68-37.94,1.17-37.6,0.83c-1.29-1.67-1.99-2.21-2.82-3.11
								c5.14-3.36,9.92-5.69,15.79-6.28C364.62,375.07,372.4,378.52,379.18,384.63z"/>
						</g>
						<g>
							<g>
								<path style="fill:#F59B51;" d="M320.03,350.04c-3.25,2.37-6.87,2.68-9.88,1.52c-1.25-3.86-1.91-7.9-1.94-11.94
									c2.42,2.42,6.59,2.7,7.64-4.01c0.35,0.71,3.45,1.17,3.8,1.88C320.96,340.66,321.27,345.55,320.03,350.04z"/>
								<path style="fill:#F59B51;" d="M347.03,361.88c-4.19,11.7-17.97,11.76-19.94,11.71c-1.84-1.3-3.65-2.64-5.33-4.12
									c-4.51-3.97-8.05-9-10.37-14.54c2.76-0.32,5.49-1,8.09-2.01c9.39-3.64,20.88-6.68,29.92-10.66
									C350.33,350.53,349.14,356,347.03,361.88z"/>
							</g>
							<g>
								<path style="fill:#FEB15F;" d="M350.09,337.09c-0.24,6.36-0.51,12.85-2.66,18.84c-2.15,6-6.53,11.54-12.6,13.46
									c-4.47,1.42-9.39,0.74-13.76-0.95s-8.97-4.34-12.87-7.14c-1.36,3.08,0.16,12.86-5.75,13.46c-1.94,0.2-8.8-1.99-8.8-20.03
									c0-7.25,4.06-14.1,8.45-13.42c3.67,0.58,9.97,1.39,13.34,2.4c0.17-2.81,0.34-5.61,0.51-8.42"/>
								<g>
									<path style="fill:#D9803D;" d="M305.14,374.47c-2.38-2.54-3.44-6.25-2.76-9.66c-0.67,1.86-1.15,3.85-0.79,5.79
										C301.96,372.54,303.33,374.39,305.14,374.47z"/>
									<path style="fill:#D9803D;" d="M300.69,374.77c-2.56-2.81-3.35-7.1-1.96-10.63c-1.37,1.66-2,3.91-1.68,6.04
										C297.36,372.31,298.6,374.28,300.69,374.77z"/>
								</g>
							</g>
						</g>
					</g>
					<g>
						<path style="fill:#D14D5F;" d="M326.7,278.26c-8.79-3-19.33,0.25-24.92,7.67c-1.02,1.35-1.91,2.9-2.02,4.59
							c-0.11,1.69,0.73,3.54,2.32,4.14c1.88,0.71,3.89-0.47,5.55-1.6c3.68-2.51,7.37-5.02,11.05-7.53
							C321.62,283.53,324.57,281.52,326.7,278.26z"/>
						<path style="fill:#FEB15F;" d="M367.12,302.64c1.55-8.26,5.6-15.79,8.42-23.71c2.82-7.91,4.33-16.92,0.8-24.54
							c-3.65-7.88-11.99-12.63-20.4-14.77c-5.86-1.49-12.12-1.96-17.94-0.31c-5.82,1.65-11.16,5.61-13.1,11.27
							c-4.54-0.22-8.91-1.75-13.41-2.33s-9.56-0.01-12.73,3.25c-2.31,2.38-3.23,5.84-3.19,9.16c0.04,3.32,0.95,6.56,2.4,10.4
							c9.89,0.59,19.83,0.41,29.97-0.72c-4.23,6.91-9.39,13.25-14.53,18.83c4.68,1.66,9.57,2.73,15.62,2.87
							c-0.85,4.18-1.69,6.44-3.09,10.79C338.26,306.21,351.91,306.55,367.12,302.64z"/>
						<path style="fill:#D63A47;" d="M325.66,299.34l-4.07,9.73c0,0,29.37,8.33,46.47,4.26l-0.03-12.84
							C368.04,300.49,341.04,302.06,325.66,299.34z"/>
						<path style="fill:#0D2040;" d="M309.17,248.16c-2.86-1.8-8.36-2.33-11.09-0.14c-2.57,2.06-2.75,5.95-2.01,8.96
							C301.12,255.41,305.71,252.39,309.17,248.16z"/>
						<path style="fill:#852E1E;" d="M327.58,257.26c1.23-3.17,3.94-5.72,7.17-6.77c2-0.65,4.33-0.69,6.07,0.49
							c1.72,1.17,2.54,3.34,2.54,5.42c0,2.08-0.7,4.09-2,5.69c1.03-2.14,0.53-4.89-1.08-6.64c-1.61-1.75-4.19-2.5-6.52-2.03
							C331.42,253.9,329.38,255.5,327.58,257.26z"/>
						<g>
							<path style="fill:#852E1E;" d="M382.33,291.72c-0.45,2.38-1.86,4.71-4.09,5.66c-0.06,2.97-0.19,6.31-1.53,9.27
								c-1.33,2.96-4.14,5.48-7.39,5.5c-1.23,1.09-2.23,2.68-3.54,3.99c-1.31,1.32-2.97,2.36-4.82,2.58
								c-3.11,0.39-6.17-1.71-7.56-4.52c-0.35-0.72-0.61-1.47-0.78-2.24c-0.52-2.25-0.34-4.68,0.26-6.94
								c-1.98,0.37-3.56-1.54-3.84-3.52c-0.27-1.97,0.45-3.94,1.31-5.74c0.85-1.8,1.86-3.56,2.22-5.52
								c-1.04,1.79-3.54,1.36-4.74-0.12c-1.21-1.48-1.3-3.63-0.74-5.46c0.57-1.82,1.7-3.41,2.77-4.99
								c6.69-9.84,11.91-20.68,15.44-32.05c6.04,7.45,10.35,15.61,13.27,24.14c1.45,4.18,2.56,8.44,3.38,12.74
								C382.41,286.88,382.78,289.34,382.33,291.72z"/>
							<path style="fill:#70221A;" d="M382.33,291.72c-0.45,2.38-1.86,4.71-4.09,5.66c-0.06,2.97-0.19,6.31-1.53,9.27
								c-1.33,2.96-4.14,5.48-7.39,5.5c-1.23,1.09-2.23,2.68-3.54,3.99c-1.31,1.32-2.97,2.36-4.82,2.58
								c-3.11,0.39-6.17-1.71-7.56-4.52c-0.35-0.72-0.61-1.47-0.78-2.24c1.01,0.43,2.09,0.7,3.19,0.77
								c3.61,0.23,7.27-1.67,9.16-4.74c1.64,0.86,4.13,0.09,5.82-1.46c1.69-1.54,2.67-3.75,3.12-5.99c0.45-2.25,0.42-4.56,0.39-6.85
								c1.66-0.51,3.01-1.45,3.69-2.66c0.67-1.21,0.81-2.64,0.9-4.02c0.33-5.08,0.23-10.19-0.32-15.25
								c1.45,4.18,2.56,8.44,3.38,12.74C382.41,286.88,382.78,289.34,382.33,291.72z"/>
						</g>
					</g>
				</g>
			</g>
		</g>
	</g>
</g>
</svg>
