<?xml version="1.0" encoding="utf-8"?>
<!-- Generator: Adobe Illustrator 27.5.0, SVG Export Plug-In . SVG Version: 6.00 Build 0)  -->
<svg version="1.1" xmlns="http://www.w3.org/2000/svg" xmlns:xlink="http://www.w3.org/1999/xlink" x="0px" y="0px"
	 viewBox="0 0 500 500" style="enable-background:new 0 0 500 500;" xml:space="preserve">
<g id="BACKGROUND">
	<rect style="fill:#00aa5b;" width="500" height="500"/>
	<path style="fill:#FFEAE9;" d="M415.129,96.891c-34.404-10.396-71.327,6.098-107.661,6.788c-31,0.589-60.557-10.36-89.985-19.031
		c-29.429-8.671-61.494-14.209-91.005-5.762c-65.96,18.879-87.744,69.048-96.48,90.494c-7.871,19.324-8.271,40.36-7.527,60.898
		c1.277,35.26,5.748,70.774,18.794,104.096s35.193,64.513,67.022,85.629c31.829,21.116,73.923,31.204,112.47,22.645
		c33.841-7.513,63.057-28.414,97.62-32.603c29.072-3.523,60.085,5.076,87.292-4.678c25.173-9.025,40.55-31.539,51.673-53.526
		c9.479-18.737,17.216-38.217,22.07-58.3c4.434-18.349,6.441-37.103,7.402-55.85C489.301,189.144,475.947,115.269,415.129,96.891z"
		/>
	<path style="opacity:0.5;fill:none;stroke:#1542BB;stroke-width:0.9206;stroke-miterlimit:10;stroke-dasharray:2.801;" d="
		M396.472,82.001c-34.185-7.517-68.332,11.172-103.362,14.526c-29.888,2.862-59.442-5.548-88.663-11.763
		c-29.221-6.215-60.701-9.203-88.429,1.152c-61.973,23.143-78.402,73.298-84.868,94.695c-5.826,19.28-4.279,39.664-1.673,59.482
		c4.474,34.024,12.058,68.057,27.721,99.336s39.922,59.823,72.606,77.902c32.684,18.079,74.269,24.729,110.712,13.599
		c31.995-9.772,58.293-32.155,91.291-38.763c27.756-5.558,58.501,0.47,83.882-10.979c23.484-10.593,36.267-33.515,44.989-55.612
		c7.433-18.83,13.115-38.252,15.957-58.043c2.596-18.083,2.811-36.377,2.016-54.589C476.593,165.784,456.904,95.289,396.472,82.001z
		"/>
</g>
<g id="OBJECTS">
	<g>
		<g>
			<g>
				<path style="fill:#DC6350;" d="M229.267,118.465c3.247-5.708,11.693-15.14,17.323-19.056c0.654-0.455,1.838-0.77,2.098-0.063
					c0.086,0.234,0.005,0.489-0.084,0.723c-0.569,1.507-1.412,2.916-2.262,4.311c-2.972,4.876-6.082,9.683-9.326,14.415
					c3.272-4.001,6.771-7.079,10.774-10.495c1.95-1.663,4.193-3.334,6.871-3.478c-0.038,1.226-0.802,2.328-1.592,3.325
					c-4.191,5.291-9.964,9.881-11.808,16.169c-1.188,4.049-0.579,8.344-1.181,12.497c-0.436,3.008-1.516,5.938-3.163,8.582"/>
				<path style="fill:#FD7650;" d="M183.922,191.305l3.323,10.5l38.488-50.25l11.352,5c0,0-20.605,39.259-27.527,53.009
					c-4.25,8.442-10.985,18.081-15.553,24.265c-2.564,3.472-7.894,4.174-11.461,1.52l-15.513-11.544l-4.707-25.5L183.922,191.305z"
					/>
				<path style="fill:#FD7650;" d="M237.085,156.555c0,0,4.781-6.239,3.701-14.202c-1.08-7.963-4.859-12.675-4.14-17.55
					c0.72-4.875,4.14-9.913,2.7-11.05c-1.44-1.137-7.919,6.5-7.919,6.5s11.879-21.125,9.539-22.588
					c-2.34-1.463-11.699,11.213-15.838,19.5c-4.14,8.288,3.78,25.838,2.52,29.088c-1.26,3.25-1.915,5.302-1.915,5.302
					L237.085,156.555z"/>
				<g>
					<path d="M232.56,119.291c-1.027,2.764-1.727,5.536-2.141,8.389c-0.443,2.847-0.6,5.738-0.938,8.67
						c-0.495-2.908-0.53-5.887-0.103-8.827C229.829,124.601,230.792,121.673,232.56,119.291z"/>
				</g>
				<g>
					<path d="M176.289,216.467c2.105-3.903,4.576-7.581,7.193-11.146c2.643-3.545,5.439-6.982,8.557-10.136
						c-2.472,3.68-5.102,7.211-7.712,10.762C181.692,209.479,179.082,213.025,176.289,216.467z"/>
				</g>
			</g>
			<g>
				<g>
					<g>
						<path style="fill:#FD7650;" d="M177.282,475.464h28.351c0.434-2.052,1.066-4.103,1.892-6.122
							c1.216-2.972,2.97-6.01,5.848-8.061c1.194-0.852,2.517-1.482,3.891-1.988c-2.263-0.38-4.848-0.643-7.551-0.838
							c-1.613,1.108-3.043,2.468-4.227,3.942c-1.901,2.369-3.199,5.023-4.117,7.695h-19.685c1.164-4.87,4.689-9.488,9.425-12.605
							c-3.18-0.263-5.511-0.658-6.281-1.366c-3.293-3.028-2.633-12.355-2.633-12.355l-25.047,3.777l0.564,15.803
							c5.678-0.003,10.977,1.801,14.708,5.048C174.638,470.323,176.287,472.754,177.282,475.464z"/>
						<path style="fill:#FFF9F0;" d="M181.684,470.091h19.685c0.918-2.671,2.216-5.326,4.117-7.695
							c1.183-1.474,2.613-2.834,4.227-3.942c-6.458-0.467-13.588-0.554-18.604-0.969
							C186.373,460.603,182.848,465.221,181.684,470.091z"/>
						<path style="fill:#F8C6AC;" d="M207.525,469.342c-0.826,2.018-1.458,4.069-1.892,6.122h23.73
							c-0.441-3.853-1.592-9.698-4.601-13.288c-1.165-1.391-3.933-2.283-7.498-2.882c-1.375,0.506-2.697,1.136-3.891,1.988
							C210.495,463.332,208.741,466.37,207.525,469.342z"/>
						<path style="fill:#F8C6AC;" d="M229.363,475.464h-23.73c-0.273,1.292-0.459,2.584-0.572,3.869h24.575
							C229.636,479.332,229.624,477.747,229.363,475.464z"/>
						<path style="fill:#F8C6AC;" d="M205.633,475.464h-28.351c0.455,1.238,0.772,2.535,0.944,3.869h26.835
							C205.174,478.047,205.36,476.756,205.633,475.464z"/>
						<path style="fill:#F8C6AC;" d="M158.144,475.464l0.138,3.869h19.944c-0.171-1.334-0.489-2.63-0.944-3.869H158.144z"/>
						<path style="fill:#F8C6AC;" d="M172.419,468.392c-3.732-3.248-9.03-5.051-14.708-5.048l0.433,12.12h19.138
							C176.287,472.754,174.638,470.323,172.419,468.392z"/>
					</g>
					
						<line style="fill:none;stroke:#2C254A;stroke-width:0.6687;stroke-miterlimit:10;" x1="158.144" y1="475.464" x2="229.363" y2="475.464"/>
					<path style="fill:none;stroke:#2C254A;stroke-width:0.6687;stroke-miterlimit:10;" d="M185.915,471.293
						c1.78-5.555,5.838-10.865,11.179-14.628"/>
					<path style="fill:none;stroke:#2C254A;stroke-width:0.6687;stroke-miterlimit:10;" d="M191.044,471.167
						c2.282-5.773,6.618-11.198,12.161-15.216"/>
					<path style="fill:none;stroke:#2C254A;stroke-width:0.6687;stroke-miterlimit:10;" d="M196.665,471.06
						c2.337-5.644,6.644-10.922,12.103-14.833"/>
				</g>
			</g>
			<g>
				<g>
					<g>
						<path style="fill:#FD7650;" d="M97.625,475.464H69.274c-0.434-2.052-1.066-4.103-1.892-6.122
							c-1.216-2.972-2.97-6.01-5.848-8.061c-1.194-0.852-2.517-1.482-3.891-1.988c2.263-0.38,4.847-0.643,7.551-0.838
							c1.613,1.108,3.043,2.468,4.227,3.942c1.901,2.369,3.199,5.023,4.117,7.695h19.685c-1.164-4.87-4.689-9.488-9.425-12.605
							c3.18-0.263,5.511-0.658,6.281-1.366c3.293-3.028,2.633-12.355,2.633-12.355l25.047,3.777l-0.564,15.803
							c-5.678-0.003-10.977,1.801-14.708,5.048C100.269,470.323,98.62,472.754,97.625,475.464z"/>
						<path style="fill:#FFF9F0;" d="M93.223,470.091H73.538c-0.918-2.671-2.216-5.326-4.117-7.695
							c-1.183-1.474-2.614-2.834-4.227-3.942c6.458-0.467,13.588-0.554,18.604-0.969C88.534,460.603,92.06,465.221,93.223,470.091z"
							/>
						<path style="fill:#F8C6AC;" d="M67.382,469.342c0.826,2.018,1.458,4.069,1.892,6.122h-23.73
							c0.441-3.853,1.592-9.698,4.601-13.288c1.165-1.391,3.933-2.283,7.498-2.882c1.375,0.506,2.697,1.136,3.891,1.988
							C64.412,463.332,66.166,466.37,67.382,469.342z"/>
						<path style="fill:#F8C6AC;" d="M45.544,475.464h23.73c0.273,1.292,0.459,2.584,0.572,3.869H45.271
							C45.271,479.332,45.283,477.747,45.544,475.464z"/>
						<path style="fill:#F8C6AC;" d="M69.274,475.464h28.351c-0.455,1.238-0.772,2.535-0.944,3.869H69.847
							C69.733,478.047,69.548,476.756,69.274,475.464z"/>
						<path style="fill:#F8C6AC;" d="M116.763,475.464l-0.138,3.869H96.681c0.171-1.334,0.489-2.63,0.944-3.869H116.763z"/>
						<path style="fill:#F8C6AC;" d="M102.488,468.392c3.732-3.248,9.03-5.051,14.708-5.048l-0.433,12.12H97.625
							C98.62,472.754,100.269,470.323,102.488,468.392z"/>
					</g>
					
						<line style="fill:none;stroke:#2C254A;stroke-width:0.6687;stroke-miterlimit:10;" x1="116.763" y1="475.464" x2="45.544" y2="475.464"/>
					<path style="fill:none;stroke:#2C254A;stroke-width:0.6687;stroke-miterlimit:10;" d="M88.992,471.293
						c-1.78-5.555-5.838-10.865-11.179-14.628"/>
					<path style="fill:none;stroke:#2C254A;stroke-width:0.6687;stroke-miterlimit:10;" d="M83.863,471.167
						c-2.282-5.773-6.618-11.198-12.161-15.216"/>
					<path style="fill:none;stroke:#2C254A;stroke-width:0.6687;stroke-miterlimit:10;" d="M78.242,471.06
						c-2.337-5.644-6.644-10.922-12.103-14.833"/>
				</g>
			</g>
			<path style="fill:#1542BB;" d="M174.547,271.548l22.954,180.694c0,0-12.475,5.794-21.897,6.247
				c-15.688,0.753-27.598-7.218-27.598-7.218l-9.684-131.472l-11.118,134.063c0,0-14.346,4.534-25.823,3.562
				c-11.477-0.971-21.161-7.448-21.161-7.448l11.836-176.808L174.547,271.548z"/>
			<path style="fill:#181818;" d="M189.969,194.478c0,0-17.055-45.106-22.302-51.422c-5.246-6.316-23.975-14.221-23.975-14.221
				l-26.206-4.025c0,0-26.767,17.193-34.345,27.369c-7.578,10.176-13.602,47.369-13.602,47.369l22.158,5.616l-5.38,71.889
				c0,0,29.051,10.686,54.516,7.772c25.465-2.914,40.887-11.01,40.887-11.01l-12.194-58.612l-1.076-14.896L189.969,194.478z"/>
			<path style="fill:#FD7650;" d="M162.166,63.938c0,0,1.928,8.032,1.928,13.654c0,5.622-0.482,6.747,0.482,8.032
				c0.964,1.285,7.871,4.659,7.55,8.353c-0.321,3.695-7.068,6.265-7.068,6.265s0.161,14.939-7.229,18.955
				c-7.389,4.016-14.986,0.896-14.986,0.896l0.85,8.742c0,0-1.82,4.922-8.662,5.273c-6.842,0.351-17.544-9.298-17.544-9.298
				l-3.509-51.229l42.457-14.211L162.166,63.938z"/>
			<g>
				<path style="fill:#FFFFFF;" d="M138.323,319.798c1.759-3.744,3.791-7.324,5.89-10.865c2.127-3.524,4.322-7.007,6.793-10.324
					c-1.757,3.745-3.789,7.326-5.89,10.865C142.987,312.996,140.791,316.479,138.323,319.798z"/>
			</g>
			<g>
				<g>
					<path style="fill:#FFFFFF;" d="M80.535,443.518l2.684,1.533l2.77,1.348l2.834,1.19c0.969,0.333,1.93,0.683,2.902,1
						c3.904,1.214,7.936,2.019,12.011,2.292c4.069,0.356,8.177,0.186,12.224-0.406l3.024-0.531l2.987-0.725l2.952-0.884
						c0.96-0.365,1.925-0.723,2.899-1.071c-0.926,0.452-1.859,0.9-2.8,1.332l-2.901,1.116l-2.986,0.879l-3.041,0.682
						c-4.09,0.769-8.285,0.936-12.438,0.655c-4.147-0.366-8.267-1.175-12.186-2.576c-0.973-0.367-1.932-0.769-2.897-1.151
						c-0.944-0.433-1.876-0.892-2.809-1.342l-2.684-1.569C82.218,444.714,81.374,444.115,80.535,443.518z"/>
				</g>
				<g>
					<path style="fill:#FFFFFF;" d="M81.035,439.233l2.684,1.533l2.77,1.348l2.834,1.19c0.969,0.332,1.93,0.683,2.902,1
						c3.904,1.214,7.936,2.02,12.011,2.292c4.069,0.356,8.177,0.186,12.224-0.406l3.024-0.531l2.987-0.725l2.952-0.884
						c0.96-0.365,1.925-0.722,2.899-1.071c-0.926,0.452-1.858,0.9-2.8,1.332l-2.901,1.116l-2.986,0.879l-3.042,0.682
						c-4.09,0.769-8.285,0.936-12.438,0.655c-4.147-0.366-8.267-1.175-12.186-2.576c-0.973-0.367-1.933-0.769-2.897-1.151
						c-0.944-0.433-1.876-0.892-2.809-1.342l-2.684-1.569C82.719,440.429,81.875,439.829,81.035,439.233z"/>
				</g>
			</g>
			<g>
				<g>
					<path style="fill:#FFFFFF;" d="M148.728,447.734l2.855,1.187l2.916,1l2.958,0.84l3.002,0.647
						c4.023,0.743,8.123,1.076,12.205,0.87c4.085-0.122,8.146-0.771,12.096-1.836l2.94-0.886l2.88-1.078l2.824-1.236l2.746-1.422
						c-0.863,0.563-1.732,1.127-2.615,1.669l-2.745,1.461l-2.861,1.231l-2.941,1.039c-3.973,1.246-8.122,1.903-12.281,2.109
						c-4.163,0.122-8.35-0.203-12.41-1.131l-3.014-0.798l-2.951-0.994l-2.856-1.229C150.55,448.708,149.636,448.222,148.728,447.734
						z"/>
				</g>
				<g>
					<path style="fill:#FFFFFF;" d="M148.599,443.426l2.855,1.187l2.916,1l2.959,0.84l3.002,0.648
						c4.023,0.743,8.123,1.076,12.205,0.87c4.085-0.122,8.146-0.771,12.096-1.836l2.94-0.886l2.88-1.078l2.824-1.236l2.746-1.422
						c-0.863,0.563-1.732,1.127-2.615,1.668l-2.745,1.462l-2.861,1.231l-2.941,1.039c-3.973,1.246-8.122,1.903-12.281,2.109
						c-4.163,0.122-8.351-0.203-12.409-1.131l-3.014-0.798l-2.952-0.994l-2.856-1.229
						C150.421,444.401,149.507,443.914,148.599,443.426z"/>
				</g>
			</g>
			<g style="opacity:0.44;">
				<path style="fill:#FFFFFF;" d="M168.741,204.05c-0.184-2.056-0.306-4.113-0.468-6.168l-0.396-6.168l-0.735-12.335l-0.644-12.34
					l-0.292-6.174c-0.066-2.061-0.174-4.118-0.219-6.182c0.283,2.044,0.493,4.095,0.734,6.143l0.585,6.157
					c0.364,4.107,0.615,8.223,0.885,12.337c0.186,4.119,0.398,8.236,0.491,12.359l0.104,6.184
					C168.775,199.926,168.794,201.987,168.741,204.05z"/>
			</g>
			<path style="opacity:0.44;fill:none;stroke:#FFFFFF;stroke-width:1.0524;stroke-miterlimit:10;" d="M113.089,127.776
				c0,0,9.934,10.848,21.082,11.327c11.149,0.479,14.599-8.628,14.599-8.628"/>
			<g>
				<polygon style="fill:#FD7650;" points="91.697,205.164 75.558,201.278 74.84,242.404 135.812,284.825 147.289,278.672 
					99.588,235.928 103.174,207.107 				"/>
				<path style="fill:#FD7650;" d="M147.289,278.672l22.579,7.167c1.581,0.502,2.198,2.226,1.241,3.468l-0.578,0.75
					c-0.5,0.649-1.335,1.019-2.209,0.979l-0.835-0.038c-1.109-0.05-2.126,0.557-2.508,1.499l-1.13,2.781
					c-0.302,0.744-1.008,1.294-1.867,1.454l-3.426,0.64c-0.727,0.136-1.351,0.552-1.708,1.139l-0.972,1.596
					c-0.446,0.732-1.297,1.186-2.222,1.186h-1.966c-0.673,0-1.318,0.241-1.793,0.671l0,0c-1.05,0.948-2.77,0.884-3.729-0.14
					c-2.07-2.208-5.411-5.941-7.229-8.871c-2.874-4.634-3.124-8.129-3.124-8.129L147.289,278.672z"/>
				<g>
					<path d="M100.976,237.14c-2.463-1.503-4.842-3.015-7.314-4.396c-2.457-1.407-4.98-2.67-7.524-4.032
						c2.832,0.58,5.525,1.707,8.043,3.117C96.682,233.264,99.037,234.995,100.976,237.14z"/>
				</g>
				<g style="opacity:0.53;">
					<path style="fill:#FFFFFF;" d="M100.989,206.952c2.218,0.021,4.432,0.098,6.648,0.148c2.215,0.062,4.428,0.162,6.643,0.241
						l-0.395,0.33c0.358-3.755,0.682-7.512,0.812-11.279c0.12-3.766,0.159-7.535,0.05-11.302c-0.128-3.766-0.384-7.528-0.751-11.282
						c-0.396-3.752-0.901-7.495-1.535-11.227c0.946,3.665,1.685,7.389,2.208,11.144c0.553,3.753,0.89,7.537,1.044,11.329
						c0.173,3.791,0.182,7.591-0.026,11.381c-0.198,3.789-0.501,7.575-1.055,11.327l-0.053,0.357l-0.342-0.027
						c-2.208-0.176-4.418-0.33-6.626-0.523C105.403,207.364,103.195,207.186,100.989,206.952z"/>
				</g>
			</g>
			<path d="M127.268,90.56c-0.144,4.5-0.289,9-0.433,13.501c-0.016,0.51-0.034,1.029-0.189,1.515
				c-0.214,0.67-0.672,1.23-1.138,1.757c-2.225,2.514-4.909,4.429-7.82,6.102c-3.937-0.568-7.765-2.243-10.603-5.03
				c-2.838-2.788-4.575-6.884-4.416-10.859c-1.318,0.488-2.802-0.002-4.012-0.716c-2.728-1.609-4.729-4.403-5.373-7.503
				c-0.645-3.101-0.052-6.253,1.809-8.815c-4.089-2.663-6.328-7.897-5.43-12.694c0.898-4.796,5.415-8.76,10.19-9.764
				c-0.652-4.554,0.993-9.379,4.29-12.587c3.298-3.208,8.957-4.698,13.491-3.921c0.753-2.659,2.958-4.704,5.418-5.965
				c5.736-2.94,13.612-1.947,18.376,2.396c5.38-3.635,12.276-5.414,18.511-3.6s11.231,8.293,11.084,14.784
				c3.531,1.027,6.335,4.214,6.903,7.847c0.568,3.633-0.611,7.538-3.66,9.593c1.481,2.4,1.415,5.665-0.16,8.004
				c-1.066,1.582-2.722,2.703-4.504,3.383c-1.782,0.68-3.71,0.76-5.612,0.902c-0.077-4.311-0.57-8.67-1.531-12.873
				c-2.137,2.525-5.375,4.084-8.682,4.18c-3.307,0.096-6.275-1.081-8.555-3.478c0.195,2.967-0.824,5.997-2.772,8.244
				c-1.948,2.247-4.527,3.868-7.492,4.096c-0.112,4.111-0.062,8.226,0.149,12.333c-0.716,0.037-2.559,0.255-2.559,0.255
				S129.196,90.251,127.268,90.56z"/>
			<g>
				<path style="fill:#FD7650;" d="M117.783,87.211c0.831,3.428,3.193,6.455,6.315,8.096c0.978,0.513,2.054,0.901,3.158,0.874
					c2.489-0.061,4.529-2.301,5.055-4.735c0.526-2.434-0.16-4.971-1.136-7.261c-1.263-2.961-3.431-5.987-6.621-6.416
					C119.41,77.077,116.753,82.965,117.783,87.211z"/>
				<path style="fill:#FD7650;" d="M129.872,92.884c-1.112-0.224-2.159-0.767-2.983-1.547c-0.166-0.157-0.328-0.333-0.387-0.553
					c-0.111-0.421,0.185-0.832,0.463-1.167c0.562-0.679,1.125-1.358,1.687-2.036c0.112-0.136,0.229-0.28,0.26-0.453
					c0.034-0.19-0.04-0.382-0.113-0.561c-0.931-2.285-2.01-4.74-4.17-5.931c-0.583-0.321-1.245-0.537-1.909-0.486
					c-0.986,0.076-1.853,0.737-2.411,1.554c-0.558,0.816-0.853,1.78-1.122,2.731c0,0-0.035,5.087,3.754,7.783
					C126.73,94.912,129.872,92.884,129.872,92.884z"/>
				<g>
					<path style="fill:#181818;" d="M119.186,84.434c0.159-1.01,0.406-2.027,0.958-2.962c0.564-0.9,1.532-1.71,2.761-1.756
						c1.211-0.033,2.238,0.564,3.081,1.247c0.846,0.714,1.481,1.613,2.001,2.532c0.509,0.931,0.906,1.893,1.281,2.847
						c0.044,0.119,0.106,0.265,0.141,0.466c0.042,0.19,0.012,0.485-0.091,0.677c-0.215,0.384-0.379,0.491-0.544,0.703l-1.016,1.144
						c-0.33,0.383-0.736,0.762-0.883,1.082c-0.071,0.166-0.081,0.279,0.001,0.437c0.083,0.157,0.274,0.34,0.444,0.51
						c0.689,0.701,1.581,1.199,2.552,1.524c-1.027-0.082-2.03-0.496-2.898-1.113c-0.212-0.164-0.422-0.309-0.625-0.577
						c-0.215-0.263-0.267-0.716-0.151-1.024c0.234-0.638,0.616-0.964,0.901-1.386l0.935-1.211c0.146-0.19,0.359-0.44,0.378-0.512
						c0.012-0.017,0.008-0.071-0.105-0.328c-0.399-0.932-0.792-1.855-1.277-2.707c-0.464-0.863-1.028-1.653-1.722-2.283
						c-0.682-0.631-1.544-1.124-2.398-1.176c-0.85-0.044-1.727,0.476-2.329,1.214C119.941,82.519,119.579,83.491,119.186,84.434z"/>
				</g>
			</g>
			<path style="fill:#181818;" d="M126.494,102.089c0,0,1.187,6.955,5.142,11.183c3.143,3.361,6.696,5.908,11.206,6.821
				c0.115,1.272,0.139,2.783,0.254,4.055c-3.049-0.886-5.526-2.327-7.929-4.402C126.409,112.182,126.494,102.089,126.494,102.089z"
				/>
			<g>
				<path style="fill:#181818;" d="M164.144,108.589c-1.47-0.689-2.73-1.699-3.807-2.831c-1.08-1.135-1.993-2.393-2.834-3.685
					c0.975,1.194,2.015,2.339,3.177,3.321c1.159,0.981,2.451,1.793,3.842,2.269L164.144,108.589z"/>
			</g>
			<g>
				<path style="fill:#181818;" d="M164.103,98.303c-0.86,0.537-1.769,0.851-2.693,1.101l-0.467,0.127l-0.117-0.514
					c-0.155-0.682-0.16-1.394-0.047-2.078c0.132-0.681,0.373-1.347,0.816-1.891c0.019,0.697-0.003,1.327,0.031,1.954
					c0.015,0.624,0.076,1.232,0.154,1.842l-0.583-0.387C162.14,98.29,163.096,98.185,164.103,98.303z"/>
			</g>
			<g>
				<path style="fill:#181818;" d="M147.283,79.897c1.387,0.061,2.758-0.024,4.082-0.307c1.326-0.249,2.609-0.669,3.808-1.234
					c1.213-0.558,2.235-1.397,3.372-2.026c1.143-0.65,2.242-1.366,3.538-2.084l0.155,0.126c-0.456,1.439-1.413,2.629-2.535,3.588
					c-1.127,0.981-2.578,1.457-3.96,1.89c-1.396,0.426-2.833,0.673-4.268,0.733c-1.437,0.026-2.868-0.109-4.225-0.489
					L147.283,79.897z"/>
			</g>
			<path style="fill:#181818;" d="M157.533,84.612c0,1.224-0.654,2.217-1.461,2.217c-0.807,0-1.461-0.993-1.461-2.217
				c0-1.224,0.654-2.217,1.461-2.217C156.879,82.395,157.533,83.387,157.533,84.612z"/>
			<path style="fill:#FD7650;" d="M155.405,92.714c0,1.578-2.12,2.857-4.736,2.857c-2.616,0-4.736-1.279-4.736-2.857
				c0-1.578,2.12-2.857,4.736-2.857C153.285,89.857,155.405,91.136,155.405,92.714z"/>
			<g style="opacity:0.46;">
				<g>
					<path style="fill:#FFEAE9;" d="M145.751,48.725c1.077-0.607,2.224-1.158,3.511-1.346c1.29-0.189,2.629,0.083,3.806,0.629
						c1.189,0.541,2.221,1.382,3.075,2.338c0.861,0.958,1.542,2.044,2.137,3.151l-0.517-0.231c0.799-0.166,1.627-0.097,2.373,0.135
						c0.747,0.24,1.426,0.607,2.035,1.054c1.247,0.914,2.05,2.348,2.183,3.805c-0.423-1.4-1.362-2.57-2.541-3.264
						c-1.196-0.709-2.586-1.138-3.84-0.812l-0.335,0.087l-0.182-0.319c-1.193-2.096-2.694-4.052-4.777-5.158
						c-1.034-0.544-2.187-0.874-3.369-0.842C148.122,47.978,146.931,48.347,145.751,48.725z"/>
				</g>
				<g>
					<path style="fill:#FFEAE9;" d="M130.456,43.632c-1.388,0.137-2.686,0.64-3.809,1.376c-1.132,0.727-2.064,1.726-2.754,2.845
						c-1.376,2.265-1.79,5.048-1.354,7.672l0.099,0.594l-0.585-0.035c-0.68-0.041-1.421,0.286-2.032,0.761
						c-0.625,0.465-1.174,1.079-1.528,1.777c-0.691,1.448-0.749,3.188-0.818,4.873c-0.123-0.841-0.206-1.687-0.208-2.549
						c-0.007-0.863,0.118-1.739,0.444-2.582c0.346-0.843,0.897-1.574,1.58-2.177c0.692-0.576,1.564-1.059,2.596-1.054l-0.486,0.558
						c-0.529-2.812-0.096-5.899,1.559-8.313c0.82-1.206,1.947-2.171,3.202-2.852C127.624,43.856,129.067,43.517,130.456,43.632z"/>
				</g>
				<g>
					<path style="fill:#FFEAE9;" d="M127.981,66.288c0.133-1.631,1.157-3.225,2.678-4.083c1.517-0.874,3.441-0.964,5.056-0.283
						l-0.578,0.191c0.577-0.897,1.535-1.594,2.592-1.75c1.053-0.167,2.096,0.162,2.88,0.731c-0.925-0.309-1.893-0.367-2.732-0.093
						c-0.841,0.264-1.51,0.863-1.935,1.609l-0.192,0.336l-0.387-0.145c-1.378-0.515-2.958-0.432-4.302,0.18
						C129.723,63.609,128.591,64.783,127.981,66.288z"/>
				</g>
				<g>
					<path style="fill:#FFEAE9;" d="M97.532,68.087c0.782-0.547,1.714-0.915,2.694-1.054c0.978-0.138,2.02-0.047,2.971,0.34
						c0.965,0.378,1.792,1.06,2.396,1.901c0.588,0.847,0.962,1.887,0.913,2.946l-0.536-0.455c0.565-0.081,1.161-0.035,1.688,0.171
						c0.528,0.2,0.997,0.507,1.378,0.884c0.77,0.748,1.254,1.702,1.522,2.675c-0.517-0.869-1.158-1.645-1.921-2.202
						c-0.76-0.558-1.662-0.818-2.51-0.627l-0.523,0.118l-0.013-0.573c-0.039-1.691-1.209-3.275-2.749-4.022
						C101.267,67.439,99.321,67.454,97.532,68.087z"/>
				</g>
				<g>
					<path style="fill:#FFEAE9;" d="M111.613,85.789c-0.656,0.426-1.097,1.068-1.287,1.771c-0.212,0.692-0.219,1.436-0.046,2.106
						c0.369,1.376,1.359,2.521,2.489,3.466l0.343,0.287l-0.251,0.376c-0.713,1.068-0.938,2.571-0.653,3.872
						c0.327,1.305,1.275,2.517,2.617,3.167c-1.47-0.282-2.823-1.415-3.354-2.946c-0.273-0.766-0.317-1.579-0.236-2.371
						c0.091-0.793,0.341-1.579,0.803-2.283l0.092,0.663c-0.615-0.517-1.185-1.105-1.661-1.779c-0.458-0.682-0.834-1.455-0.96-2.291
						c-0.139-0.845-0.003-1.706,0.355-2.451C110.238,86.647,110.849,86.006,111.613,85.789z"/>
				</g>
			</g>
		</g>
		<g>
			<g>
				<polygon style="fill:#FD7650;" points="222.232,206.263 239.165,228.791 232.665,230.666 				"/>
				<g>
					<g>
						<path style="fill:#F8C6AC;" d="M266.383,366.177c-0.269,0.808-1.885,56.535-0.269,74.573c1.615,18.038,7,27.998,7,27.998
							s8.346,0.808,12.653,5.384c2.661,2.827,2.423,5.654,2.423,5.654h-23.152l-15.345-54.92L266.383,366.177z"/>
						<path style="fill:#F8C6AC;" d="M270.421,348.678c-0.269,0.808,7.269,67.573,12.115,92.072c3.514,17.765,7,27.998,7,27.998
							s8.346,0.808,12.653,5.384c2.661,2.827,2.423,5.654,2.423,5.654h-23.152l-27.191-75.111L270.421,348.678z"/>
						<path style="fill:#F8C6AC;" d="M168.263,423.279c-19.991,3.156-41.209-10.931-46.06-30.58
							c-4.187-16.958,2.679-35.406-2.566-52.068c-5.755-18.283-24.122-29.081-41.126-37.926
							c8.849,10.055,11.826,22.97,11.965,36.363c0.112,10.83-2.781,22.289,1.787,32.108c-4.89-3.405-8.481-6.547-9.59-12.401
							c-1.715,22.697,7.843,47.623,25.74,61.687c17.897,14.065,42.924,18.515,64.572,11.483"/>
					</g>
					<g>
						<path style="fill:#181818;" d="M285.22,226.648c-0.542-1.166-1.925-1.664-3.087-1.114c-0.703,0.333-1.572,0.74-2.536,1.187
							c1.993,1.462,4.349,2.416,6.796,2.762C285.984,228.375,285.575,227.412,285.22,226.648z"/>
						<path style="fill:#F8C6AC;" d="M279.596,226.721c-5.878,2.723-15.726,7.087-18.867,7.271
							c-4.577,0.269-13.73-5.115-18.307-5.653c-4.577-0.538-7.269,0-7.269,0l-12.922-22.076c0,0-11.846,23.96-12.384,36.882
							c-0.539,12.922,12.653,30.152,13.461,36.344c0.808,6.192-5.115,25.575-13.73,41.728
							c-8.615,16.153-60.035,58.958-50.882,104.725c9.153,45.767,51.959,41.459,51.959,41.459s-4.846,7.807-0.808,10.499
							c4.038,2.692,64.342,1.615,64.342,1.615s-0.269-7.538-4.846-9.961c-4.577-2.423-19.922-5.923-19.922-5.923l2.154-14.807
							c0,0,12.922-56.804,17.23-74.842c4.307-18.038,8.615-38.229,1.884-54.92c-6.73-16.691-16.422-29.614-13.73-39.844
							c2.692-10.23,28.872-23.329,30.96-32.306c1.569-6.744,0.03-13.205-1.528-17.432
							C283.945,229.137,281.589,228.183,279.596,226.721z"/>
					</g>
				</g>
				<path style="fill:#FD7650;" d="M241.162,231.311c-4.63,2.056-7.713,6.95-8.08,12.003c-0.367,5.053,1.791,10.123,5.319,13.759
					c2.9,2.989,6.832,5.116,10.994,5.273c4.162,0.157,8.483-1.878,10.521-5.51c1.259-2.245,1.596-4.932,1.258-7.484
					c-0.338-2.551-1.315-4.983-2.544-7.244c-1.62-2.983-3.707-5.739-6.315-7.912C249.068,231.49,245.337,229.456,241.162,231.311z"
					/>
				<path style="fill:#181818;" d="M252.186,242.677c0.524,1.422,0.166,2.863-0.8,3.219c-0.966,0.356-2.173-0.508-2.697-1.93
					c-0.524-1.422-0.166-2.863,0.8-3.219C250.455,240.391,251.663,241.255,252.186,242.677z"/>
				<g>
					<g>
						<path style="fill:#181818;" d="M235.728,228.24c-1.702,0.678-3.348,1.251-4.961,1.949c-1.625,0.672-3.182,1.452-4.857,2.198
							c1.207-1.389,2.789-2.395,4.468-3.118C232.068,228.571,233.891,228.139,235.728,228.24z"/>
					</g>
					<g>
						<path style="fill:#181818;" d="M288.326,242.704c-1.647,0.149-3.304-0.309-4.765-1.071c-1.449-0.785-2.753-1.905-3.547-3.357
							c1.372,0.903,2.643,1.756,4.017,2.475C285.392,241.492,286.81,242.072,288.326,242.704z"/>
					</g>
					<g>
						<path style="fill:#181818;" d="M271.46,359.521c-1.173,7.637-2.199,15.29-2.986,22.966c-0.785,7.676-1.405,15.368-1.72,23.076
							c-0.396,7.704-0.495,15.421-0.42,23.136l0.095,5.787l0.189,5.786l0.243,5.786l0.32,5.785l-0.585-5.766l-0.469-5.779
							l-0.331-5.789l-0.232-5.795c-0.234-7.73-0.127-15.47,0.192-23.198c0.4-7.724,1.006-15.441,1.957-23.116
							C268.661,374.727,269.881,367.086,271.46,359.521z"/>
					</g>
					<g>
						<path style="fill:#181818;" d="M255.086,444.257c-1.925-6.876-3.991-13.706-6.176-20.496
							c-2.207-6.783-4.558-13.517-7.035-20.203l-0.331-0.892l0.9,0.304c0.595,0.201,1.185,0.248,1.743,0.077
							c0.557-0.165,1.107-0.535,1.614-0.93c1.005-0.806,1.791-1.896,2.582-3.006l0.465,0.754c-1.595,0.251-3.214,0.38-4.847,0.283
							c-1.619-0.105-3.309-0.417-4.765-1.388l-0.963-0.642l1.14-0.241c1.344-0.284,2.647-0.859,3.788-1.645
							c1.135-0.787,2.13-1.806,2.703-3.023l0.526,0.643c-2.011,0.464-4.071,0.633-6.119,0.577c-2.048-0.062-4.093-0.348-6.071-0.921
							l-0.543-0.157l0.301-0.474c1.45-2.284,2.522-4.805,3.313-7.411c0.793-2.609,1.322-5.301,1.742-8.009
							c0.414-2.711,0.757-5.438,1.112-8.166c0.357-2.727,0.753-5.455,1.351-8.14c-0.474,2.709-0.777,5.441-1.053,8.175
							c-0.279,2.734-0.503,5.477-0.879,8.208c-0.37,2.73-0.85,5.459-1.606,8.129c-0.756,2.665-1.795,5.279-3.261,7.664l-0.241-0.631
							c1.898,0.538,3.879,0.803,5.858,0.85c1.979,0.041,3.968-0.136,5.883-0.591l0.928-0.221l-0.401,0.864
							c-0.661,1.423-1.767,2.549-2.998,3.417c-1.241,0.866-2.639,1.496-4.13,1.823l0.176-0.883c1.206,0.803,2.753,1.096,4.273,1.208
							c1.535,0.101,3.098-0.011,4.634-0.243l1.137-0.172l-0.672,0.926c-0.801,1.105-1.635,2.266-2.78,3.176
							c-0.571,0.436-1.175,0.855-1.936,1.083c-0.76,0.233-1.598,0.147-2.291-0.099l0.57-0.588c2.47,6.705,4.727,13.488,6.783,20.33
							C251.589,430.408,253.441,437.31,255.086,444.257z"/>
					</g>
					<g>
						<path style="fill:#181818;" d="M277.644,469.875c2.878,0.35,5.824,0.886,8.438,2.438c1.29,0.792,2.431,1.848,3.23,3.141
							c0.811,1.274,1.234,2.833,1.011,4.29c-0.176-1.458-0.815-2.748-1.653-3.847c-0.854-1.093-1.917-2.019-3.105-2.729
							C283.177,471.704,280.352,470.988,277.644,469.875z"/>
					</g>
					<g>
						<path style="fill:#181818;" d="M298.51,479.734c-0.603-1.101-1.107-2.097-1.73-3.053c-0.604-0.969-1.292-1.846-2.033-2.861
							c1.214,0.371,2.195,1.273,2.876,2.324C298.284,477.208,298.685,478.477,298.51,479.734z"/>
					</g>
					<g>
						<path style="fill:#181818;" d="M301.475,479.728c-0.322-1.176-0.606-2.206-1.032-3.215c-0.408-1.017-0.928-1.949-1.523-3.014
							c1.14,0.479,1.974,1.505,2.447,2.634C301.822,477.272,301.948,478.587,301.475,479.728z"/>
					</g>
					<g>
						<path style="fill:#181818;" d="M261.17,466.165c0.944,2.16,1.586,4.376,2.16,6.612c0.543,2.244,1.014,4.503,1.19,6.853
							c-0.94-2.138-1.587-4.367-2.16-6.612C261.818,470.767,261.344,468.494,261.17,466.165z"/>
					</g>
					<g>
						<path style="fill:#181818;" d="M276.159,474.635c1.284-0.023,2.51,0.674,3.363,1.632c0.842,0.967,1.377,2.274,1.187,3.544
							c-0.599-1.111-1.188-2.042-1.938-2.885C278.033,476.073,277.184,475.369,276.159,474.635z"/>
					</g>
					<g>
						<path style="fill:#181818;" d="M285.071,479.734c-0.399-1.361-1-2.471-1.823-3.448c-0.815-0.988-1.839-1.78-2.951-2.67
							c1.42,0.154,2.762,0.906,3.716,2.028c0.466,0.572,0.836,1.228,1.03,1.939C285.243,478.286,285.282,479.045,285.071,479.734z"
							/>
					</g>
					<g>
						<path style="fill:#181818;" d="M206.248,393.626c3.794,0.324,7.539,1.203,11.139,2.483c3.591,1.31,7.025,3.056,10.224,5.167
							c6.408,4.214,11.747,10.044,15.461,16.771c3.682,6.779,5.463,14.417,6.087,22.012c0.622,7.624,0.256,15.252-0.253,22.839
							c0.038-3.805,0.131-7.608,0.065-11.407c-0.033-3.798-0.182-7.593-0.578-11.36c-0.775-7.51-2.53-15.014-6.198-21.606
							c-3.566-6.627-8.802-12.336-15.014-16.616C220.98,397.612,213.786,394.702,206.248,393.626z"/>
					</g>
					<g>
						<path style="fill:#181818;" d="M209.894,469.851c-0.064-1.077-0.031-2.141,0.037-3.2c0.025-0.531,0.085-1.057,0.129-1.585
							c0.023-0.27,0.066-0.519,0.046-0.695c-0.023-0.185-0.057-0.245-0.177-0.353c-0.242-0.216-0.824-0.447-1.266-0.671
							l-1.416-0.676c-0.951-0.444-1.911-0.875-2.875-1.358c1.076,0.082,2.129,0.314,3.155,0.63c0.517,0.149,1.016,0.346,1.519,0.538
							c0.25,0.098,0.494,0.211,0.739,0.321c0.238,0.11,0.522,0.226,0.805,0.466c0.291,0.233,0.492,0.693,0.49,1.039
							c0.014,0.354-0.042,0.631-0.084,0.885c-0.097,0.521-0.178,1.044-0.294,1.563C210.488,467.795,210.24,468.83,209.894,469.851z"
							/>
					</g>
					<g>
						<path style="fill:#181818;" d="M163.541,439.462c-2.15-2.732-3.622-5.988-4.498-9.369c-0.851-3.387-1.116-6.951-0.534-10.379
							c0.211,3.46,0.651,6.837,1.502,10.133C160.839,433.148,162.068,436.324,163.541,439.462z"/>
					</g>
					<g>
						<path style="fill:#181818;" d="M86.438,309.853c4.124,3.734,8.051,7.715,11.49,12.121c3.397,4.423,6.263,9.328,8.054,14.656
							c1.842,5.308,2.676,10.909,2.995,16.487c0.321,5.594-0.007,11.18-0.185,16.729c-0.203,5.544-0.257,11.112,0.686,16.552
							c0.927,5.431,3.003,10.638,6.043,15.242c0.364,0.586,0.747,1.159,1.173,1.703c0.415,0.551,0.817,1.112,1.243,1.655
							c0.904,1.042,1.762,2.128,2.756,3.09c1.902,2.006,4.036,3.785,6.284,5.396c2.222,1.657,4.662,2.998,7.149,4.22
							c2.508,1.192,5.14,2.102,7.819,2.858c-10.878-2.445-20.755-9.201-27.063-18.496c-3.2-4.62-5.31-9.981-6.3-15.511
							c-0.99-5.543-0.965-11.181-0.788-16.744c0.21-5.569,0.564-11.116,0.276-16.647c-0.272-5.525-1.116-11.034-2.814-16.292
							c-1.674-5.269-4.423-10.151-7.716-14.604C94.255,317.793,90.408,313.75,86.438,309.853z"/>
					</g>
					<g>
						<path style="fill:#181818;" d="M97.996,350.334l-0.086,12.659l-0.094,6.324c-0.005,2.108,0.031,4.214,0.096,6.318
							c0.286,8.383,1.023,16.885,4,24.722c1.449,3.907,3.413,7.646,6.063,10.867c1.297,1.631,2.778,3.108,4.328,4.503
							c1.59,1.35,3.23,2.652,4.989,3.791c3.48,2.335,7.275,4.185,11.152,5.812c3.873,1.652,7.877,2.99,11.883,4.316
							c-8.116-2.232-16.246-4.916-23.454-9.483c-3.613-2.243-6.883-5.067-9.603-8.364c-2.742-3.287-4.788-7.108-6.293-11.092
							c-1.477-4.003-2.417-8.179-2.973-12.384c-0.56-4.207-0.823-8.443-0.856-12.672c-0.019-2.115-0.01-4.228,0.04-6.339
							l0.236-6.329L97.996,350.334z"/>
					</g>
				</g>
			</g>
			<path style="fill:#1542BB;" d="M220.703,284.569c12.419,3.282,25.554,3.822,38.2,1.57l1.245-7.185
				c-12.646,2.251-25.782,1.711-38.201-1.57L220.703,284.569z"/>
			<path style="fill:#FD995A;" d="M266.64,284.923c1.402,2.11,1.625,4.428,0.497,5.178c-1.128,0.75-3.179-0.353-4.581-2.464
				c-1.402-2.11-1.625-4.428-0.497-5.178C263.187,281.71,265.238,282.813,266.64,284.923z"/>
			<g>
				<path style="fill:#181818;" d="M233.284,289.926c-5.701,12.709-7.026,27.09-7.783,39.779c-0.088,1.47-0.171,2.942-0.253,4.417
					c-0.732,13.033-1.488,26.51-5.908,38.758c-2.201,6.097-6.352,13.955-13.631,16.762c-6.326,2.444-16.132,0.556-22.623-7.773
					c-4.691-6.021-7.226-14.556-7.531-25.368c-0.31-10.927,1.438-22.021,3.126-32.749c1.298-8.247,2.641-16.775,3.073-25.283
					c0.211-4.138-0.018-9.982-4.422-12.944c-1.512-1.018-6.869-2.093-11.91-1.134c0,0,4.167,1.292,5.167,1.917
					s1.042,1.625,1.042,1.625c1.669,0.097,2.567,0.305,3.47,0.911c2.07,1.394,2.916,4.388,2.66,9.423
					c-0.423,8.297-1.749,16.72-3.03,24.864c-1.718,10.908-3.493,22.188-3.173,33.484c0.33,11.683,3.147,21.007,8.374,27.714
					c4.487,5.759,12.184,10.351,20.141,10.351c2.361,0,4.747-0.405,7.077-1.304c6.876-2.652,12.393-9.27,15.953-19.137
					c4.619-12.798,5.393-26.571,6.14-39.892c0.083-1.47,0.165-2.938,0.252-4.402c0.743-12.438,2.035-26.533,7.592-38.719
					C235.801,290.845,234.53,290.419,233.284,289.926z"/>
			</g>
			<circle style="fill:#FD995A;" cx="235.508" cy="288.658" r="3.21"/>
			<g style="opacity:0.68;">
				<g>
					<path style="fill:#F8C6AC;" d="M216.841,244.689c0.334,2.293,1.018,4.502,1.987,6.562c0.99,2.05,2.281,3.943,3.834,5.579
						l-0.821,0.426c-0.512-2.336-0.611-4.763-0.274-7.132l0.426-2.997l0.528,2.972c0.373,2.101,1.485,4.074,3.099,5.517l-0.57,0.259
						c0.08-1.283,0.188-2.564,0.395-3.831c0.21-1.266,0.45-2.525,0.79-3.759c-0.148,1.27-0.293,2.536-0.362,3.806
						c-0.073,1.269-0.139,2.535-0.126,3.803l0.007,0.704l-0.577-0.445c-1.85-1.426-3.152-3.556-3.604-5.876l0.954-0.025
						c-0.279,2.263-0.199,4.571,0.255,6.806l0.347,1.709l-1.168-1.283c-1.594-1.751-2.859-3.788-3.725-5.972
						C217.346,249.339,216.868,247.006,216.841,244.689z"/>
				</g>
				<g>
					<path style="fill:#F8C6AC;" d="M241.122,265.539c0.181,1.361,0.329,2.724,0.485,4.086c0.163,1.362,0.299,2.726,0.43,4.09
						l-0.49-0.219c1.797-1.443,3.285-3.23,4.469-5.18l0.835-1.374l-0.022,1.611c-0.027,1.974-0.185,3.947-0.474,5.902l-0.792-0.444
						c2.356-2.048,4.345-4.547,5.674-7.39l0.813-1.741l0.025,1.919c0.025,1.917-0.001,3.835-0.02,5.752l-0.607-0.198
						c0.984-1.235,1.898-2.524,2.814-3.814c0.911-1.294,1.761-2.632,2.603-3.979c-0.678,1.437-1.45,2.829-2.255,4.202
						c-0.801,1.377-1.701,2.694-2.622,3.996l-0.568,0.803l-0.039-1.001c-0.074-1.916-0.154-3.832-0.184-5.749l0.838,0.178
						c-1.355,2.961-3.326,5.67-5.844,7.76l-1.002,0.832l0.209-1.276c0.313-1.908,0.499-3.837,0.555-5.771l0.813,0.237
						c-1.246,2.047-2.935,3.801-4.847,5.208l-0.46,0.339l-0.03-0.558c-0.072-1.369-0.14-2.738-0.18-4.109
						C241.2,268.281,241.145,266.911,241.122,265.539z"/>
				</g>
				<g>
					<path style="fill:#F8C6AC;" d="M243.726,303.654c1.042,2.491,1.793,5.105,2.324,7.763c0.512,2.663,0.751,5.382,0.743,8.102
						l-0.718-0.111c0.886-3.243,1.361-6.599,1.32-9.955l-0.022-1.809l0.88,1.586c1.006,1.813,1.849,3.716,2.517,5.68
						c0.333,0.982,0.625,1.98,0.854,2.992c0.118,0.505,0.222,1.014,0.315,1.524c0.051,0.272,0.081,0.471,0.155,0.639
						c0.082,0.183,0.136,0.191,0.121,0.184l-0.466,0.324c0.579-1.671,0.824-3.456,0.891-5.251c0.07-1.799-0.037-3.613-0.139-5.436
						l-0.122-2.194l0.913,1.987l4.01,8.725l0.498,1.092c0.039,0.094,0.088,0.189,0.083,0.177c-0.014-0.034-0.121,0.025-0.077,0
						c0.024-0.03,0.051-0.108,0.057-0.176l0.025-0.297c0.067-0.792,0.098-1.587,0.101-2.384c0-1.593-0.121-3.189-0.354-4.773
						c0.353,1.562,0.568,3.159,0.645,4.766c0.039,0.803,0.05,1.609,0.024,2.414l-0.01,0.302c-0.009,0.131-0.031,0.254-0.114,0.393
						c-0.043,0.066-0.114,0.154-0.245,0.189c-0.127,0.034-0.255-0.005-0.342-0.074c-0.16-0.144-0.174-0.25-0.226-0.332l-0.54-1.072
						l-4.287-8.592l0.791-0.207c0.135,1.823,0.254,3.662,0.205,5.519c-0.05,1.852-0.283,3.733-0.883,5.529l-0.109,0.327
						l-0.357-0.003c-0.246-0.002-0.51-0.127-0.664-0.284c-0.157-0.156-0.247-0.319-0.316-0.472
						c-0.135-0.301-0.178-0.614-0.226-0.843c-0.096-0.495-0.202-0.988-0.322-1.477c-0.241-0.978-0.505-1.951-0.82-2.909
						c-0.629-1.915-1.429-3.775-2.39-5.55l0.858-0.223c0,3.443-0.489,6.892-1.531,10.169l-0.817,2.568l0.099-2.679
						c0.098-2.673-0.072-5.357-0.465-8.01C245.22,308.836,244.569,306.217,243.726,303.654z"/>
				</g>
				<g>
					<path style="fill:#F8C6AC;" d="M254.255,331.943c0.23,1.136,0.401,2.285,0.528,3.44c0.125,1.155,0.228,2.316,0.25,3.48
						c0.056,2.327-0.03,4.665-0.32,6.983l-0.764-0.318c1.356-1.813,2.399-3.857,3.069-6.013l0.705-2.266l0.235,2.372
						c0.249,2.513,0.41,5.033,0.608,7.55l-0.832-0.225c0.811-1.135,1.498-2.361,2.048-3.646c0.561-1.28,1.004-2.618,1.288-3.995
						l0.451-2.188l0.197,2.211c0.272,3.049,0.256,6.119-0.043,9.151c-0.013-3.047-0.218-6.079-0.608-9.08l0.647,0.023
						c-0.229,1.434-0.607,2.85-1.149,4.205c-0.553,1.35-1.25,2.642-2.081,3.845l-0.719,1.042l-0.112-1.267
						c-0.223-2.515-0.483-5.027-0.655-7.546l0.939,0.107c-0.739,2.25-1.862,4.368-3.307,6.237l-1.013,1.311l0.249-1.628
						c0.347-2.268,0.574-4.561,0.618-6.864c0.016-1.151,0.032-2.305-0.01-3.459C254.433,334.252,254.355,333.098,254.255,331.943z"
						/>
				</g>
				<g>
					<path style="fill:#F8C6AC;" d="M209.191,335.769c-1.788,2.968-3.169,6.151-4.167,9.438c-0.998,3.29-1.519,6.704-1.659,10.119
						l-0.873-0.104c0.55-2.852,2.266-5.45,4.689-7.077l1.092-0.733l-0.35,1.275c-0.723,2.635-0.989,5.407-0.671,8.131l-0.874-0.142
						c1.074-2.232,2.398-4.347,3.974-6.255l0.986-1.193l-0.265,1.512l-1.407,8.027l-0.444-0.226
						c2.049-1.942,3.868-4.131,5.464-6.483c-1.394,2.48-3.126,4.777-5.093,6.854l-0.557,0.588l0.113-0.814l1.118-8.072l0.721,0.319
						c-1.483,1.898-2.767,3.953-3.776,6.137l-0.677,1.465l-0.197-1.606c-0.348-2.837-0.164-5.756,0.643-8.508l0.742,0.542
						c-2.217,1.448-3.834,3.824-4.366,6.431l-0.873-0.104c0.146-3.501,0.864-6.961,1.98-10.262
						C205.58,341.723,207.19,338.594,209.191,335.769z"/>
				</g>
				<g>
					<path style="fill:#F8C6AC;" d="M248.988,370.055c0.049,2.26-0.137,4.534-0.544,6.772c-0.42,2.234-1.014,4.445-1.839,6.576
						l-0.635-0.53c2.207-1.444,4.114-3.342,5.544-5.548l1.399-2.158l-0.492,2.525c-0.588,3.02-1.428,5.99-2.527,8.861l-0.622-0.518
						c2.185-1.223,4.051-3.054,5.311-5.26l0.602-1.054l-0.153,1.186c-0.23,1.781-0.628,3.538-1.27,5.201
						c0.431-1.727,0.726-3.479,0.794-5.241l0.449,0.133c-1.177,2.35-3.024,4.383-5.297,5.776l-1.018,0.624l0.396-1.142
						c0.992-2.86,1.786-5.786,2.356-8.755l0.907,0.367c-1.523,2.318-3.552,4.299-5.915,5.738l-1.153,0.703l0.518-1.233
						c0.864-2.057,1.587-4.182,2.101-6.365C248.427,374.532,248.789,372.307,248.988,370.055z"/>
				</g>
				<g>
					<path style="fill:#F8C6AC;" d="M255.269,407.694c-0.033,2.275-0.105,4.547-0.228,6.815l-0.171,3.403l-0.167,2.714l-0.521,0.337
						c0.581-1.968,1.15-3.94,1.76-5.899l0.73-2.348l0.224,2.444c0.164,1.79,0.292,3.584,0.43,5.376l0.328,5.385l-0.472-0.102
						c0.816-1.263,1.34-2.715,1.608-4.228c-0.034,1.541-0.462,3.077-1.167,4.479l-0.369,0.733l-0.104-0.836l-0.664-5.354
						c-0.193-1.788-0.396-3.574-0.563-5.364l0.954,0.095c-0.57,1.971-1.18,3.931-1.779,5.894l-0.115,0.376l-0.406-0.039
						c-0.337-0.033-0.611-0.335-0.682-0.549c-0.088-0.22-0.105-0.41-0.11-0.59c0.009-0.383,0.05-0.593,0.073-0.898l0.164-1.695
						l0.377-3.386C254.643,412.198,254.936,409.944,255.269,407.694z"/>
				</g>
				<g>
					<path style="fill:#F8C6AC;" d="M211.14,416.207c1.462,0.278,2.62,1.347,3.634,2.365c1.043,1.027,1.993,2.15,2.853,3.34
						c0.869,1.184,1.643,2.438,2.338,3.736c0.703,1.296,1.257,2.667,1.749,4.056l-0.866,0.105c0.24-2.992-0.069-6.008-0.784-8.911
						l-0.294-1.193l1.027,0.66c2.243,1.44,4.271,3.208,6.001,5.228l-0.754,0.316c-0.111-1.423-0.334-2.847-0.667-4.256
						c-0.326-1.41-0.734-2.809-1.143-4.21l-0.178-0.61l0.538,0.309c1.914,1.099,3.599,2.588,4.838,4.379
						c-1.422-1.643-3.143-3.007-5.075-3.93l0.36-0.301c0.471,1.382,0.944,2.77,1.339,4.19c0.389,1.419,0.728,2.872,0.846,4.362
						l0.102,1.286l-0.855-0.97c-1.704-1.931-3.69-3.611-5.872-4.968l0.733-0.533c0.794,3.002,0.998,6.145,0.726,9.228l-0.187,2.119
						l-0.68-2.015c-0.914-2.712-2.143-5.333-3.738-7.732c-0.8-1.197-1.674-2.347-2.618-3.443
						C213.578,417.732,212.553,416.639,211.14,416.207z"/>
				</g>
				<g>
					<path style="fill:#F8C6AC;" d="M175.415,407.933c-0.785,3.352-0.823,6.83-0.223,10.172c0.595,3.348,1.924,6.535,3.797,9.334
						l-0.789,0.353c-0.709-2.692-0.552-5.601,0.449-8.21l0.501-1.305l0.417,1.343c0.99,3.188,2.878,6.121,5.483,8.239l-0.721,0.484
						c-0.753-2.572-0.941-5.317-0.451-7.948l0.25-1.344l0.48,1.264c1.794,4.723,4.956,8.935,9.008,12.071
						c-4.301-2.807-7.724-6.986-9.717-11.789l0.731-0.079c-0.35,2.528-0.187,5.13,0.568,7.563l0.441,1.419l-1.162-0.934
						c-2.751-2.212-4.865-5.255-5.842-8.668l0.917,0.038c-0.955,2.403-1.136,5.121-0.504,7.638l0.617,2.456l-1.406-2.103
						c-1.951-2.917-3.136-6.294-3.642-9.728C174.115,414.759,174.383,411.214,175.415,407.933z"/>
				</g>
				<g>
					<path style="fill:#F8C6AC;" d="M225.089,454.145c0.635,0.753,1.21,1.56,1.727,2.404c0.516,0.844,0.996,1.717,1.39,2.63
						c0.793,1.824,1.36,3.754,1.671,5.732l-0.781-0.151c0.906-1.658,1.453-3.498,1.657-5.364l0.15-1.371l0.744,1.166
						c1.368,2.144,2.398,4.5,3.067,6.952l-0.915-0.036c0.751-1.975,1.293-4.025,1.689-6.106l0.194-1.019l0.501,0.884
						c1.687,2.975,2.739,6.298,2.996,9.666c-0.655-3.307-1.875-6.47-3.643-9.28l0.695-0.134c-0.27,2.152-0.809,4.27-1.53,6.319
						l-0.5,1.419l-0.415-1.455c-0.673-2.355-1.679-4.611-2.963-6.695l0.894-0.205c-0.221,2-0.889,3.939-1.892,5.67l-0.648,1.12
						l-0.132-1.271c-0.2-1.92-0.65-3.822-1.33-5.643c-0.342-0.91-0.713-1.813-1.157-2.685
						C226.118,455.821,225.625,454.972,225.089,454.145z"/>
				</g>
			</g>
		</g>
		<g>
			<g>
				
					<ellipse transform="matrix(0.7071 -0.7071 0.7071 0.7071 31.2238 163.215)" style="fill:#F8C6AC;" cx="212.63" cy="43.917" rx="19.329" ry="19.329"/>
				<path style="fill:#F8C6AC;" d="M199.184,61.913c1.15,1.15,1.15,3.014,0,4.164c-1.15,1.15-3.014,1.15-4.164,0
					c-1.15-1.15-1.15-3.014,0-4.164C196.17,60.763,198.035,60.763,199.184,61.913z"/>
				<path style="fill:#F8C6AC;" d="M191.197,68.204c0,0.778-0.63,1.408-1.408,1.408c-0.778,0-1.408-0.631-1.408-1.408
					c0-0.778,0.631-1.408,1.408-1.408C190.566,66.796,191.197,67.426,191.197,68.204z"/>
			</g>
			<path style="fill:#FC4E53;" d="M212.889,42.906c-0.292-1.786-0.586-3.579-1.139-5.302c-0.343-1.069-0.798-2.127-1.545-2.965
				c-0.747-0.838-1.825-1.436-2.947-1.393c-1.294,0.05-2.438,0.939-3.136,2.03c-1.577,2.465-1.176,5.684-0.406,8.508
				c1.318,4.832,3.624,9.503,7.281,12.925c0.446-0.42,1.042-0.643,1.486-1.065c2.491-2.369,4.933-4.823,6.882-7.655
				c1.948-2.832,3.394-6.082,3.689-9.507c0.068-0.784,0.059-1.63-0.379-2.284c-0.627-0.934-1.973-1.156-3.036-0.787
				c-1.063,0.369-1.896,1.196-2.644,2.036C215.479,39.151,214.003,40.915,212.889,42.906z"/>
		</g>
	</g>
	<g>
		<g>
			<g>
				<path style="fill:#FD995A;" d="M390.028,469.343l8.494-129.957l-33.041,10.096l7.801,111.055c0,0-27.534,8.26-33.959,9.637
					c-1.929,0.413-3.603,1.451-5.011,2.695C352.71,476.301,371.691,474.169,390.028,469.343z"/>
				<path style="fill:#FC4E53;" d="M334.312,472.869c-1.31,1.158-2.389,2.495-3.206,3.687c-0.946,1.381,0.02,3.254,1.694,3.254
					h56.545l0.684-10.467C371.691,474.169,352.71,476.301,334.312,472.869z"/>
			</g>
			<g>
				<path style="fill:#F8C6AC;" d="M384.026,469.343l8.494-129.957l-33.041,10.096l7.801,111.055c0,0-27.534,8.26-33.959,9.637
					c-1.929,0.413-3.604,1.451-5.011,2.695C346.708,476.301,365.689,474.169,384.026,469.343z"/>
				<path style="fill:#FC4E53;" d="M328.31,472.869c-1.31,1.158-2.389,2.495-3.207,3.687c-0.946,1.381,0.02,3.254,1.694,3.254
					h56.545l0.684-10.467C365.689,474.169,346.708,476.301,328.31,472.869z"/>
			</g>
			<g>
				<path style="fill:#F8C6AC;" d="M396.854,118.687l7.722-48.769l-45.738-10.482c0,0-4.75,9.028-5.081,9.145
					c-1.16,6.294-1.235,11.916-0.576,18.283c0.199,1.923,0.04,4.694-0.289,6.598c-0.477,2.758-2.225,5.101-3.92,7.328
					c1.854,1.115,3.495,1.964,5.606,2.437c0,0,2.589,14.328,7.524,17.185c4.935,2.857,13.508-2.468,13.508-2.468
					s0.123,2.381-0.144,5.206c0.705,0.071,1.42,0.088,2.124,0.084C384.244,123.197,390.882,121.621,396.854,118.687z"/>
				<g>
					<path style="fill:#1542BB;" d="M421.424,355.616c20.179-6.347,29.843-15.557,29.843-15.557l-52.885-144.838
						c0,0,10.005-29.539,9.052-43.833c-0.953-14.293-11.911-24.298-11.911-24.298l1.331-8.404c-5.972,2.934-12.61,4.51-19.265,4.547
						c-0.703,0.004-1.418-0.013-2.124-0.084c-0.246,2.609-0.823,5.596-2.147,7.449c-2.758,3.861-24.823,17.1-28.684,27.305
						c-3.861,10.205,7.999,25.65,7.999,25.65v16.549l-42.393,143.291c0,0,4.875,3.918,14.915,8.109l33.849-115.782L335.73,355.284
						c6.991,2.129,15.456,4.02,25.444,5.141l14.164-121.037l-1.941,121.955c2.387,0.095,4.828,0.156,7.357,0.156
						c10.146,0,19.139-0.964,27.034-2.474c-1.785-15.871-14.117-119.971-14.117-119.971L421.424,355.616z"/>
					<path style="fill:#152C9A;" d="M325.156,351.503c3.043,1.27,6.572,2.562,10.574,3.781l23.275-119.563L325.156,351.503z"/>
					<path style="fill:#152C9A;" d="M361.174,360.426c3.847,0.432,7.922,0.747,12.223,0.918l1.941-121.955L361.174,360.426z"/>
					<path style="fill:#152C9A;" d="M393.672,239.055c0,0,12.331,104.099,14.117,119.971c4.981-0.953,9.532-2.119,13.636-3.41
						L393.672,239.055z"/>
					<polygon style="fill:#152C9A;" points="398.382,195.222 352.625,193.103 352.633,200.104 401.323,203.453 					"/>
				</g>
			</g>
			<path style="fill:#FD7650;" d="M380.675,75.389c2.046,17.928,4.932,36.288,14.07,51.847c0,0,12.45,12.946,10.938,29.793
				c-1.512,16.847-8.64,38.879-8.64,38.879l26.567,68.469c5.272,0,9.464-3.083,12.482-7.406c3.018-4.323,4.097-9.819,3.597-15.068
				c1.703,2.244,2.261,5.253,2.471,8.061c0.209,2.809-0.187,5.631-0.776,8.385c8.625-7.661,11.683-20.031,10.819-31.535
				c-0.864-11.504-5.025-22.458-8.614-33.422c-8.567-26.169-14.051-53.229-19.517-80.216c0,0-6.974-55.311-25.22-63.512
				c-18.247-8.201-40.799-0.615-48.384,8.611c-7.586,9.226,2.255,18.862,2.255,18.862c0.021-4.508,1.389-8.726,3.913-12.462
				c1.493,2.303,2.674,4.603,4.755,6.393c2.081,1.79,4.65,3.109,7.388,3.308c0.439,0.032,0.999-0.046,1.124-0.468
				c0.054-0.182,0.003-0.378-0.051-0.56c-0.534-1.785-1.442-3.458-2.648-4.878C371.082,71.478,375.926,74.153,380.675,75.389z"/>
			<g>
				<path style="fill:#F8C6AC;" d="M395.272,91.204c-0.728,3.003-2.797,5.654-5.532,7.092c-0.856,0.449-1.799,0.789-2.766,0.766
					c-2.18-0.053-3.967-2.016-4.428-4.148c-0.461-2.132,0.14-4.355,0.996-6.361c1.106-2.594,3.006-5.244,5.8-5.62
					C393.846,82.327,396.174,87.484,395.272,91.204z"/>
				<path style="fill:#F8C6AC;" d="M384.682,96.174c0.974-0.196,1.891-0.672,2.613-1.355c0.145-0.137,0.288-0.291,0.339-0.485
					c0.098-0.369-0.162-0.729-0.405-1.023c-0.492-0.595-0.985-1.189-1.478-1.784c-0.098-0.119-0.2-0.245-0.228-0.397
					c-0.03-0.167,0.035-0.335,0.099-0.492c0.816-2.001,1.76-4.152,3.653-5.195c0.511-0.281,1.091-0.47,1.673-0.426
					c0.864,0.067,1.623,0.646,2.112,1.361c0.489,0.715,0.747,1.559,0.983,2.393c0,0,0.031,4.456-3.289,6.817
					C387.434,97.95,384.682,96.174,384.682,96.174z"/>
				<g>
					<path style="fill:#181818;" d="M394.042,88.771c-0.344-0.826-0.661-1.677-1.22-2.322c-0.527-0.647-1.296-1.102-2.04-1.064
						c-0.748,0.045-1.503,0.477-2.101,1.03c-0.609,0.551-1.103,1.244-1.509,1.999c-0.426,0.746-0.769,1.555-1.119,2.371
						c-0.1,0.225-0.103,0.272-0.092,0.287c0.016,0.063,0.204,0.282,0.331,0.449l0.819,1.061c0.25,0.369,0.583,0.655,0.789,1.214
						c0.102,0.27,0.056,0.667-0.132,0.897c-0.178,0.234-0.362,0.361-0.547,0.505c-0.761,0.54-1.639,0.903-2.539,0.975
						c0.851-0.284,1.631-0.721,2.235-1.335c0.149-0.149,0.316-0.309,0.389-0.447c0.072-0.139,0.064-0.237,0.001-0.382
						c-0.129-0.28-0.484-0.613-0.774-0.948l-0.89-1.002c-0.144-0.185-0.288-0.28-0.477-0.616c-0.091-0.168-0.116-0.426-0.08-0.593
						c0.031-0.175,0.085-0.304,0.124-0.408c0.328-0.835,0.676-1.678,1.122-2.493c0.455-0.805,1.012-1.592,1.753-2.218
						c0.738-0.599,1.638-1.122,2.699-1.093c1.076,0.04,1.924,0.75,2.418,1.538C393.687,86.996,393.903,87.887,394.042,88.771z"/>
				</g>
			</g>
			<path style="fill:#FFFFFF;" d="M388.027,100.021c0,1.585-1.285,2.87-2.87,2.87s-2.87-1.285-2.87-2.87
				c0-1.585,1.285-2.87,2.87-2.87S388.027,98.436,388.027,100.021z"/>
			<path style="fill:#181818;" d="M375.644,118.081c3.988-3.353,8.066-6.815,10.581-11.378c-2.549,5.49-6.269,10.868-10.698,14.995
				L375.644,118.081z"/>
			<g>
				<path style="fill:#181818;" d="M356.198,110.412c2.133-1.676,3.898-3.885,5.082-6.413c-0.874,2.651-2.389,5.129-4.417,7.16
					L356.198,110.412z"/>
			</g>
			<g>
				<path style="fill:#FD7650;" d="M369.616,84.245c-1.357,0.38-2.789,0.515-4.225,0.489c-1.435-0.06-2.872-0.307-4.268-0.733
					c-1.382-0.433-2.833-0.909-3.96-1.89c-1.121-0.959-2.079-2.149-2.535-3.588l0.155-0.126c1.296,0.718,2.395,1.434,3.538,2.084
					c1.137,0.629,2.159,1.468,3.372,2.026c1.2,0.565,2.482,0.985,3.808,1.234c1.324,0.284,2.696,0.368,4.082,0.307L369.616,84.245z"
					/>
			</g>
			<path style="fill:#181818;" d="M359.335,88.762c0,1.224,0.654,2.217,1.461,2.217c0.807,0,1.461-0.993,1.461-2.217
				c0-1.224-0.654-2.217-1.461-2.217C359.989,86.545,359.335,87.538,359.335,88.762z"/>
			<path style="fill:#F8C6AC;" d="M372.549,96.637c0.166,1.569-1.808,3.064-4.409,3.339c-2.601,0.275-4.845-0.773-5.011-2.342
				c-0.166-1.569,1.808-3.064,4.409-3.339C370.14,94.019,372.384,95.068,372.549,96.637z"/>
			<path style="fill:#181818;" d="M365.886,189.115c-1.712-8.91-6.483-17.204-13.324-23.165c-4.763-4.15-10.405-7.135-15.992-10.083
				c3.247-0.593,5.059-2.079,7.153-4.631c-5.236,1.086-11.017,0.226-15.694-2.367c2.167-0.667,3.01-1.756,4.206-3.682
				c1.197-1.926,1.67-4.29,1.307-6.528c-1.885,1.587-4.923,2.979-7.369,3.277c1.675-1.414,4.507-3.68,5.126-5.783
				c-6.825,0.22-13.365-2.92-19.409-6.098c-6.044-3.178-12.075-6.723-18.801-7.904l3.453,11.908c0,0-6.308,3.823-6.69,9.748
				c-0.382,5.925,1.911,14.336,1.147,15.865c-0.765,1.529-4.205,6.69-4.205,6.69s5.161,8.601,10.513,7.646
				c5.352-0.956,13.189-7.455,15.291-6.117c2.103,1.338,6.994,9.126,6.364,12.304c-0.63,3.178-8.76,20.297-8.76,20.297l37.948,6.009
				L365.886,189.115z"/>
			<path style="fill:#F8C6AC;" d="M318.962,180.196l-5.078,16.555l-5.512,10.297c0,0-8.524-4.932-0.019-16.588
				C315.316,180.918,318.962,180.196,318.962,180.196z"/>
			<polygon style="fill:#FD7650;" points="293.089,122.151 296.542,134.059 298.836,132.912 			"/>
			<g>
				<path style="fill:#FFEAE9;" d="M292.787,172.844c1.416-2.664,1.957-5.82,1.485-8.856c0.636,3.006,0.278,6.24-1.037,9.078
					L292.787,172.844z"/>
			</g>
			<path style="fill:#FFEAE9;" d="M297.61,154.166c0.448,0.613,0.424,1.393-0.053,1.741c-0.477,0.348-1.227,0.133-1.674-0.48
				c-0.448-0.613-0.424-1.393,0.053-1.741C296.413,153.338,297.163,153.553,297.61,154.166z"/>
			<path style="fill:#F8C6AC;" d="M395.301,142.821c10.448,4.323,2.026,22.694-4.458,34.244
				c-6.484,11.55-22.086,35.054-22.086,35.054s-12.615,1.621-25.864,1.193c-13.249-0.427-34.521-6.263-34.521-6.263l3.075-10.104
				l44.747,0.179C356.194,197.124,377.673,135.526,395.301,142.821z"/>
			<g style="opacity:0.36;">
				<g>
					<path style="fill:#FFEAE9;" d="M302.941,149.296c-1.264-0.323-2.574-0.366-3.83-0.145c-1.249,0.24-2.463,0.694-3.486,1.442
						l-0.503,0.368l0.128-0.619c0.19-0.918,0.757-1.734,1.514-2.272l0.102,0.415c-1.189-0.175-2.48,0.273-3.313,1.183l-0.179,0.196
						l-0.074-0.245c-0.296-0.98,0-2.077,0.68-2.765c-0.581,0.778-0.709,1.816-0.4,2.673l-0.253-0.049
						c0.83-1.06,2.24-1.64,3.604-1.45l0.561,0.078l-0.459,0.337c-0.66,0.485-1.117,1.219-1.313,2.005l-0.374-0.251
						c1.106-0.754,2.387-1.262,3.712-1.401C300.378,148.638,301.733,148.796,302.941,149.296z"/>
				</g>
				<g>
					<path style="fill:#FFEAE9;" d="M306.584,138.395c1.238,1.492,2.673,2.803,4.269,3.865c1.593,1.065,3.337,1.902,5.175,2.424
						l-0.199,0.451c-0.621-0.383-1.197-0.849-1.696-1.38c-0.501-0.53-0.931-1.109-1.347-1.689l-0.346-0.483l0.57,0.149
						c2.18,0.569,4.503,0.597,6.741,0.119c-2.18,0.714-4.574,0.803-6.841,0.297l0.224-0.334c0.829,1.145,1.748,2.206,2.955,2.896
						l1.862,1.067l-2.061-0.616c-1.882-0.563-3.672-1.433-5.259-2.582C309.047,141.427,307.654,140.016,306.584,138.395z"/>
				</g>
				<g>
					<path style="fill:#FFEAE9;" d="M313.34,152.536c1.985,0.539,3.888,1.391,5.65,2.473c1.765,1.082,3.368,2.424,4.79,3.932
						l-0.425,0.229c-0.361-1.567-0.826-3.098-1.728-4.411l-0.855-1.245l1.167,0.957c0.939,0.769,2.138,1.186,3.366,1.358
						c1.231,0.184,2.494,0.178,3.753,0.17c-1.251,0.132-2.516,0.228-3.787,0.106c-1.258-0.127-2.56-0.48-3.599-1.298l0.312-0.288
						c0.96,1.353,1.477,2.967,1.856,4.533l0.231,0.954l-0.656-0.725c-1.365-1.507-2.939-2.815-4.63-3.949
						C317.091,154.198,315.258,153.27,313.34,152.536z"/>
				</g>
				<g>
					<path style="fill:#FFEAE9;" d="M316.286,162.383c2.631,2.573,4.009,6.412,3.58,10.129l-0.349-0.131
						c1.541-2.428,2.117-5.448,1.777-8.291l-0.067-0.562l0.451,0.339c2.768,2.081,4.688,5.082,5.906,8.259l-0.408,0.008
						c0.438-1.322,0.528-2.754,0.446-4.164c-0.082-1.416-0.34-2.822-0.654-4.212l-0.09-0.398l0.287,0.283
						c1.251,1.238,2.701,2.285,4.28,3.088c-1.614-0.732-3.12-1.718-4.443-2.916l0.197-0.114c0.362,1.388,0.651,2.803,0.773,4.244
						c0.116,1.435,0.079,2.921-0.384,4.327l-0.189,0.574l-0.219-0.566c-1.208-3.115-3.151-5.993-5.79-8.028l0.384-0.223
						c0.178,1.489,0.085,2.997-0.227,4.454c-0.318,1.453-0.853,2.878-1.71,4.113l-0.455,0.656l0.105-0.787
						C319.965,168.884,318.779,165.082,316.286,162.383z"/>
				</g>
				<g>
					<path style="fill:#FFEAE9;" d="M346.705,179.245c1.792,1.965,2.884,4.585,3.012,7.286l-0.385-0.058
						c0.88-2.697,1.129-5.624,0.596-8.398l-0.149-0.777l0.556,0.557c1.707,1.71,3.968,2.84,6.354,3.264l-0.147,0.286
						c-1.467-1.601-2.307-3.574-3.369-5.395c0.588,0.879,1.127,1.791,1.707,2.672c0.583,0.876,1.172,1.754,1.906,2.486l0.352,0.35
						l-0.499-0.064c-2.485-0.32-4.841-1.505-6.643-3.255l0.406-0.221c0.309,1.436,0.344,2.913,0.222,4.363
						c-0.131,1.451-0.419,2.891-0.916,4.261l-0.364,1.003l-0.022-1.061C349.268,183.937,348.344,181.333,346.705,179.245z"/>
				</g>
				<g>
					<path style="fill:#FFEAE9;" d="M339.975,165.488c2.457,0.869,4.933,1.57,7.474,2.009l-0.188,0.403
						c-0.541-0.49-1.051-1.02-1.505-1.599c-0.453-0.572-0.852-1.222-1.019-1.934c0.299,0.665,0.77,1.21,1.251,1.734
						c0.492,0.517,1.035,0.985,1.579,1.45l0.597,0.51l-0.786-0.107C344.784,167.601,342.238,166.79,339.975,165.488z"/>
				</g>
			</g>
			<g>
				<path style="fill:#FFEAE9;" d="M319.457,197.307c0.839-3.487,2.017-6.856,3.15-10.22c1.163-3.355,2.23-6.736,3.5-10.09
					c-0.503,3.549-1.409,7.023-2.554,10.413C322.38,190.79,321.035,194.089,319.457,197.307z"/>
			</g>
			<g>
				<path style="fill:#FFEAE9;" d="M329.324,197.638c1.031-3.429,2.34-6.74,3.718-10.021c1.405-3.27,2.881-6.51,4.638-9.63
					c-1.029,3.43-2.338,6.74-3.718,10.021C332.554,191.277,331.078,194.517,329.324,197.638z"/>
			</g>
			<g style="opacity:0.4;">
				<g>
					<path style="fill:#FFEAE9;" d="M360.85,51.668c0.81,1.488,1.607,2.983,2.488,4.422c0.88,1.439,1.867,2.809,2.986,4.049
						c1.119,1.235,2.413,2.315,3.851,3.127c1.435,0.811,3.026,1.344,4.646,1.439l-0.449,0.372c0.334-3.126-0.41-6.361-2.074-9.015
						l0.822-0.457c1.523,3.001,4.014,5.421,6.744,7.44c2.765,2.001,5.754,3.722,8.89,5.099c3.118,1.42,6.392,2.512,9.745,3.267
						c3.351,0.779,6.783,1.197,10.239,1.322c-3.456,0.118-6.935-0.149-10.349-0.796c-3.409-0.662-6.767-1.654-9.974-3.016
						c-3.206-1.371-6.259-3.084-9.113-5.106c-2.838-2.022-5.446-4.575-7.025-7.793l0.822-0.457c1.748,2.857,2.501,6.29,2.109,9.605
						l-0.048,0.408l-0.401-0.036c-1.764-0.158-3.447-0.787-4.928-1.686c-1.486-0.901-2.789-2.062-3.903-3.369
						c-1.115-1.307-2.023-2.764-2.842-4.251C362.264,54.748,361.548,53.211,360.85,51.668z"/>
				</g>
				<g>
					<path style="fill:#FFEAE9;" d="M378.103,47.865c2.106,2.387,4.378,4.601,6.838,6.574c2.467,1.963,5.083,3.731,7.852,5.225
						c2.758,1.514,5.663,2.751,8.651,3.756l2.262,0.697l2.298,0.581l2.323,0.501c0.783,0.121,1.566,0.254,2.351,0.396
						c-0.795-0.035-1.591-0.078-2.387-0.134l-2.38-0.282l-2.357-0.449l-2.333-0.574c-3.094-0.848-6.079-2.089-8.904-3.614
						c-2.815-1.546-5.477-3.379-7.868-5.517C382.05,52.897,379.886,50.508,378.103,47.865z"/>
				</g>
				<g>
					<path style="fill:#FFEAE9;" d="M403.682,78.962c1.261,7.161,2.55,14.316,4.028,21.434c1.41,7.13,2.948,14.234,4.583,21.315
						c3.283,14.157,6.881,28.243,11.013,42.176c2,6.985,4.172,13.92,6.384,20.84c2.263,6.905,4.591,13.788,7.032,20.633
						c2.398,6.854,5.04,13.654,6.937,20.696c1.871,7.024,3,14.354,2.27,21.613c0.567-7.273-0.724-14.534-2.741-21.482
						c-1.986-6.982-4.698-13.73-7.189-20.565c-5.027-13.655-9.547-27.494-13.652-41.455c-4.058-13.975-7.676-28.077-10.801-42.288
						c-1.545-7.109-3.004-14.236-4.314-21.391C405.913,93.335,404.783,86.149,403.682,78.962z"/>
				</g>
				<g>
					<path style="fill:#FFEAE9;" d="M399.477,103.521c1.08,11.77,3.461,23.356,6.262,34.814c2.804,11.464,5.961,22.847,8.685,34.355
						c2.64,11.519,4.8,23.206,5.467,35.04c0.324,5.911,0.292,11.848-0.237,17.745c-0.561,5.891-1.583,11.746-3.256,17.414
						c2.935-11.459,3.548-23.374,2.725-35.111c-0.822-11.758-2.963-23.388-5.672-34.862c-2.636-11.5-5.808-22.883-8.457-34.405
						c-1.319-5.761-2.532-11.55-3.506-17.382C400.545,115.293,399.802,109.42,399.477,103.521z"/>
				</g>
			</g>
		</g>
		<g>
			<g>
				
					<ellipse transform="matrix(0.3827 -0.9239 0.9239 0.3827 146.4252 329.0868)" style="fill:#F8C6AC;" cx="319.469" cy="54.973" rx="17.893" ry="17.893"/>
				<path style="fill:#F8C6AC;" d="M331.916,71.632c-1.064,1.064-1.064,2.79,0,3.855c1.065,1.064,2.79,1.064,3.855,0
					c1.064-1.064,1.064-2.79,0-3.855C334.706,70.567,332.98,70.567,331.916,71.632z"/>
				<path style="fill:#F8C6AC;" d="M339.31,77.456c0,0.72,0.584,1.304,1.304,1.304s1.304-0.584,1.304-1.304
					c0-0.72-0.584-1.304-1.304-1.304S339.31,76.736,339.31,77.456z"/>
			</g>
			<path style="fill:#FC4E53;" d="M319.229,54.037c0.27-1.653,0.542-3.313,1.054-4.908c0.318-0.99,0.739-1.969,1.431-2.745
				c0.691-0.776,1.69-1.33,2.729-1.29c1.198,0.046,2.257,0.869,2.903,1.879c1.46,2.282,1.088,5.262,0.375,7.876
				c-1.22,4.473-3.355,8.797-6.74,11.965c-0.413-0.389-0.965-0.595-1.376-0.986c-2.306-2.193-4.567-4.464-6.37-7.086
				c-1.804-2.622-3.142-5.63-3.415-8.801c-0.063-0.726-0.055-1.509,0.351-2.114c0.58-0.865,1.827-1.07,2.811-0.729
				c0.984,0.342,1.755,1.107,2.448,1.885C316.832,50.561,318.198,52.194,319.229,54.037z"/>
		</g>
		<g>
			<path style="fill:#FFEAE9;" d="M288.777,169.007c0.274-0.944,0.421-1.861,0.395-2.792c-0.014-0.931-0.199-1.84-0.512-2.773
				c0.66,0.741,0.985,1.761,1.012,2.762C289.686,167.206,289.404,168.238,288.777,169.007z"/>
		</g>
	</g>
</g>
</svg>
