<?xml version="1.0" encoding="utf-8"?>
<!-- Generator: Adobe Illustrator 27.5.0, SVG Export Plug-In . SVG Version: 6.00 Build 0)  -->
<svg version="1.1" id="Layer_1" xmlns="http://www.w3.org/2000/svg" xmlns:xlink="http://www.w3.org/1999/xlink" x="0px" y="0px"
	 viewBox="0 0 100 100" style="enable-background:new 0 0 100 100;" xml:space="preserve">
<rect x="0" y="0" style="fill:#00aa5b;" width="100" height="100"/>
<g>
	<path style="fill:#E8F2FA;" d="M56.32,87.117c0,2.641-10.306,4.782-23.018,4.782c-12.712,0-23.018-2.141-23.018-4.782
		c0-2.641,10.306-4.782,23.018-4.782C46.014,82.336,56.32,84.476,56.32,87.117z"/>
	<ellipse style="fill:#E8F2FA;" cx="68.452" cy="88.484" rx="19.822" ry="4.118"/>
	<g>
		<path style="fill:#DC6501;" d="M39.364,82.353c-0.197,0.237-1.065,0.592-1.065,0.592s1.736,1.46,2.762,2.92
			c1.026,1.46,1.065,1.775,1.223,1.854c0.158,0.079,4.442-0.039,4.498-0.039c1.112,0-0.71-1.539-2.801-2.249
			c-1.988-0.675-3.669-3.748-3.945-3.709C39.759,81.761,39.364,82.353,39.364,82.353z"/>
		<path style="fill:#F7A98F;" d="M41.179,77.382c-0.2,0.15-0.434,3.432-0.75,3.906c-0.316,0.473-0.608,0.613-0.608,0.613
			c0.197,0.197,2.738,4.082,3.369,4.122c0.631,0.039,1.831-0.102,1.831-0.102s-1.989-1.397-2.068-1.594
			c-0.079-0.197-0.355-1.736-0.316-2.367c0.04-0.631,0.947-2.801,0.947-2.801S41.337,77.264,41.179,77.382z"/>
		<path style="fill:#DC6501;" d="M36.877,83.421l-1.321,3.537c0,0-0.995,0.912-1.282,1.423c-0.287,0.512-0.275,0.914-0.275,0.914
			s5.785,0.102,5.864-0.125c0.078-0.227-0.399-3.069-0.444-3.277S38.027,82.775,36.877,83.421z"/>
		<path style="fill:#F7A98F;" d="M37.12,80.34c0,0-0.141,1.777-0.441,2.126c-0.299,0.349-0.242,0.719-0.101,1.063
			s-0.984,3.675-0.731,3.598c0.253-0.077,2.164-0.805,3.291,0.059l-0.01-6.185C39.129,81.002,37.289,80.049,37.12,80.34z"/>
		<path style="fill:#27A77E;" d="M36.372,45.993c0,0-4.622,5.462-4.622,7.434c0,1.973,3.077,15.86,2.92,16.649
			c-0.158,0.789-1.026,3.393-0.868,3.866c0.158,0.473,2.919,7.654,2.919,7.654l2.92-0.237l0.394-10.652c0,0-0.552-1.657-0.631-1.894
			c-0.079-0.237,0-13.887,0-13.887l0.418,1.441c0,0,2.92,12.048,2.604,11.969c-0.316-0.079-1.071,1.472-1.338,2.5
			c-0.089,0.341-0.258,6.975-0.258,7.212s2.052,3.472,2.604,2.92c0.552-0.552,3.775-10.688,3.988-11.544
			c0.715-2.871-3.837-22.309-4.468-23.256C42.323,45.221,36.925,45.519,36.372,45.993z"/>
		<path style="fill:#F7A98F;" d="M31.513,39.303l-1.499,4.734c0,0-2.367,2.367-2.446,3.077c-0.079,0.71-0.631,7.18-0.631,7.18
			l1.578,0.552c0,0,3.866-7.023,3.866-7.496c0-0.473,0-2.051,0.158-2.367c0.158-0.316,1.263-3.393,1.263-3.393L31.513,39.303z"/>
		<path style="fill:#F7A98F;" d="M36.248,43.248l0.158,3.472c0,0,1.815,1.736,4.34,1.184c2.525-0.552,2.209-2.209,2.209-2.209
			l0.079-2.762C43.034,42.933,36.484,43.248,36.248,43.248z"/>
		<path style="fill:#F7A98F;" d="M46.426,40.487c0,0-1.815,0.395-2.367,1.105c-0.552,0.71-1.026,2.131-1.026,2.131
			s0.71,2.446,1.105,2.919c0.395,0.473,0.868,1.341,1.499,1.026c0.631-0.316,2.762-5.129,3.235-6.391
			c0.473-1.263,0.462-2.148,0.383-2.385C49.177,38.654,46.426,40.487,46.426,40.487z"/>
		<path style="fill:#D92C09;" d="M37.747,32.438c0,0-3.63,0.158-4.261,0.552c-0.631,0.395-1.736,3.393-1.736,3.393
			s-1.481,4.23-1.165,4.625c0.316,0.395,3.612,2.95,3.691,2.714c0.079-0.237,0.552-2.052,0.552-2.052l1.105,3.709
			c0,0,2.052-0.789,4.419-0.789c2.367,0,2.762,0.079,2.762,0.079l0.473-1.105l3.235-3.077c0,0-2.139-7.384-2.376-7.699
			c-0.237-0.316-3.937-0.665-3.937-0.665L37.747,32.438z"/>
		<path style="fill:#7C4415;" d="M37.234,17.565c0,0-0.907,0.118-1.697,0.671c-0.789,0.552-1.026,1.973-0.631,2.486
			c0.394,0.513,1.262,0.71,1.262,0.71l5.405-2.367c0,0,0.592-1.42,0.434-1.618c-0.158-0.197-1.341-0.592-1.341-0.592
			s0.395-0.868-0.513-0.868C39.246,15.986,37.55,16.736,37.234,17.565z"/>
		<path style="fill:#7C4415;" d="M37.51,19.813c-0.077,0.098-2.762,2.328-2.841,2.841c-0.079,0.513,0.907,4.143,1.223,4.616
			c0.316,0.473,2.051,2.998,2.17,3.077c0.118,0.079,4.971-6.746,4.971-6.746s0.75-0.907,0.986-1.697
			c0.237-0.789,0.197-1.618,0.158-1.854c-0.04-0.237-2.762-1.105-2.762-1.105S37.944,19.261,37.51,19.813z"/>
		<path style="fill:#F7A98F;" d="M37.629,26.757c0,0-0.226,4.536-0.395,5.059c-0.34,1.052-1.828,1.006-1.828,1.006
			s0.131,3.522,3.209,3.799s4.039-1.131,4.157-2.394c0.118-1.263,0.118-1.263,0.118-1.263s-1.604-0.508-1.999-1.258
			s-0.186-2.464-0.146-2.582C40.785,29.006,37.629,26.757,37.629,26.757z"/>
		<path style="fill:#F7A98F;" d="M52.239,36.489c0.164-0.142,0.947-0.368,0.999-0.053c0.053,0.316-0.947,0.736-0.947,0.736
			s0.736-0.263,0.736,0.105c0,0.368-0.842,0.736-0.842,0.736s0.789-0.421,0.789-0.105s-0.736,0.842-0.736,0.842
			s0.631-0.263,0.526,0.053c-0.105,0.316-0.894,0.894-0.894,0.894S51.45,37.173,52.239,36.489z"/>
		<path style="fill:#C7E1F6;" d="M48.951,35.147l0.026-0.868c0,0,0.552-0.132,0.631-0.132s0.316,0.815,0.316,0.815L48.951,35.147z"
			/>
		<path style="fill:#7C4415;" d="M48.662,35.7c0,0,0.158,5.839,0.316,6.049c0.158,0.21,2.472,0.316,2.735-0.053
			c0.263-0.368,0.579-5.629,0.579-6.155S48.82,34.963,48.662,35.7z"/>
		<path style="fill:#F7A98F;" d="M27.042,53.585c0,0-1.841,1.841-2.051,2.315c-0.21,0.473,0.053,1.473,0.263,1.578
			c0.21,0.105,1.039,0.546,1.197,0.335c0.158-0.21,0.634-0.925,0.634-0.925s0.795,0.174,1.321-0.299
			c0.526-0.473,0.899-0.531,0.846-0.952c-0.053-0.421-0.368-1.105-0.421-1.315C28.778,54.111,27.884,53.059,27.042,53.585z"/>
		<path style="fill:#F7A98F;" d="M47.926,39.487c0-0.158-0.368-1.42,0.105-1.841c0.473-0.421,1.631-1.105,1.631-1.105
			s0.947,1,0.894,1.157c-0.053,0.158-0.421,0.421-0.579,0.368c-0.158-0.053-0.526-0.263-0.526-0.263s0.316,2.209-0.579,2.577
			c-0.894,0.368-0.749-0.394-0.749-0.394L47.926,39.487z"/>
		<path style="fill:#A1CDF0;" d="M48.564,35.297c0,0-0.251-0.566,1.971-0.57c1.641-0.003,1.864,0.473,1.864,0.473l-0.073,0.938
			c0,0-0.682-0.5-1.818-0.5c-1.136,0-1.919,0.447-1.919,0.447L48.564,35.297z"/>
		<path style="fill:#F7A98F;" d="M38.299,22.772c-0.257,0.2-0.671,1.894-0.631,2.012c0.039,0.118-0.079,1.105-0.079,1.105
			s-0.947-1.617-1.46-1.223c-0.513,0.395,0.158,2.288,0.513,2.486c0.355,0.197,0.671,0.118,0.671,0.118s0.434,1.42,0.75,1.696
			c0.316,0.276,1.736,1.065,2.407,0.947c0.671-0.118,1.539-0.592,1.933-2.249c0.394-1.657,0.473-4.221,0.237-4.379
			c-0.237-0.158-1.657,0.434-2.407,0.118C39.483,23.088,38.654,22.496,38.299,22.772z"/>
		<g>
			<path style="fill:#7C4415;" d="M25.965,57.802c-0.441,1.528-0.882,3.057-1.323,4.585c-0.702,2.435-1.405,4.869-2.108,7.304
				c-0.161,0.557-0.321,1.114-0.482,1.671c-0.028,0.098,0.124,0.14,0.152,0.042c0.441-1.528,0.882-3.057,1.323-4.585
				c0.702-2.435,1.405-4.869,2.108-7.304c0.161-0.557,0.321-1.114,0.482-1.671C26.145,57.746,25.993,57.704,25.965,57.802
				L25.965,57.802z"/>
		</g>
		<g>
			<path style="fill:#3E220B;" d="M42.894,86.458c0.691-0.23,1.408-0.367,2.129-0.459c0.099-0.013,0.101-0.171,0-0.158
				c-0.735,0.094-1.466,0.231-2.17,0.465C42.756,86.338,42.797,86.49,42.894,86.458L42.894,86.458z"/>
		</g>
		<g>
			<path style="fill:#7C4415;" d="M37.158,26.66c0.083,0.372,0.177,0.743,0.282,1.11c0.111,0.386,0.213,0.877,0.483,1.19
				c0.315,0.366,0.838,0.617,1.27,0.807c0.45,0.198,0.999,0.396,1.489,0.235c0.096-0.032,0.055-0.184-0.042-0.152
				c-0.518,0.171-1.13-0.095-1.591-0.323c-0.365-0.181-0.856-0.417-1.082-0.774c-0.379-0.598-0.505-1.449-0.657-2.134
				C37.288,26.519,37.136,26.561,37.158,26.66L37.158,26.66z"/>
		</g>
		<g>
			<path style="fill:#7C4415;" d="M36.987,33.198c0.718,0.225,1.48,0.351,2.213,0.52c0.047,0.011,0.104,0.015,0.149,0.034
				c0.073,0.031-0.029-0.031,0.011-0.003c0.133,0.096,0.198,0.262,0.37,0.315c0.374,0.114,0.547-0.523,0.645-0.779
				c0.036-0.095-0.116-0.136-0.152-0.042c-0.063,0.167-0.23,0.701-0.48,0.655c-0.136-0.025-0.188-0.215-0.294-0.281
				c-0.145-0.09-0.409-0.098-0.572-0.136c-0.612-0.142-1.248-0.248-1.848-0.435C36.932,33.015,36.89,33.167,36.987,33.198
				L36.987,33.198z"/>
		</g>
		<g>
			<path style="fill:#3E220B;" d="M34.804,22.67c0.127-0.104,0.218-0.312,0.312-0.444c0.26-0.36,0.547-0.702,0.867-1.01
				c0.438-0.421,0.948-0.789,1.531-0.976c0.632-0.203,1.296-0.129,1.926,0.046c0.718,0.199,1.213,0.601,1.243,1.37
				c0.017,0.436-0.067,0.825-0.318,1.191c-0.086,0.125-0.295,0.265-0.283,0.427c0.013,0.185,0.25,0.288,0.401,0.312
				c0.317,0.051,0.592-0.055,0.815-0.276c0.266-0.263,0.45-0.61,0.61-0.943c0.069-0.145,0.231-0.378,0.237-0.542
				c0.006-0.163-0.165-0.361-0.247-0.488c-0.197-0.306-0.41-0.602-0.632-0.891c-0.326-0.424-0.574-0.787-1.119-0.867
				c-0.724-0.106-1.57-0.166-2.294-0.032c-0.262,0.049-0.437,0.23-0.633,0.402c-0.25,0.219-0.493,0.446-0.734,0.675
				c-0.074,0.07,0.038,0.182,0.112,0.112c0.178-0.17,0.358-0.337,0.54-0.502c0.194-0.176,0.415-0.437,0.67-0.518
				c0.275-0.088,0.629-0.059,0.913-0.06c0.359-0.001,0.719,0.01,1.077,0.042c0.249,0.022,0.554,0.024,0.763,0.177
				c0.226,0.166,0.407,0.441,0.576,0.66c0.22,0.285,0.431,0.579,0.625,0.882c0.094,0.146,0.226,0.333,0.206,0.433
				c-0.055,0.269-0.255,0.576-0.391,0.812c-0.205,0.356-0.473,0.771-0.928,0.776c-0.146,0.002-0.392-0.03-0.417-0.215
				c0.004,0.033-0.024,0.081,0.022,0.013c0.038-0.056,0.094-0.105,0.137-0.159c0.228-0.287,0.405-0.627,0.444-0.996
				c0.043-0.41,0.016-0.897-0.219-1.249c-0.379-0.568-1.164-0.741-1.791-0.832c-1.089-0.157-2.036,0.265-2.834,0.991
				c-0.322,0.293-0.61,0.622-0.874,0.968c-0.131,0.172-0.257,0.46-0.425,0.598C34.614,22.623,34.726,22.734,34.804,22.67
				L34.804,22.67z"/>
		</g>
		<g>
			<path style="fill:#3E220B;" d="M40.983,23.578c0.522-0.097,1.06-0.184,1.565-0.349c0.588-0.191,0.895-0.936,0.956-1.502
				c0.14-1.29-1.194-2.006-2.226-2.372c-0.448-0.159-0.909-0.274-1.374-0.366c-0.099-0.02-0.142,0.132-0.042,0.152
				c1.107,0.218,2.51,0.57,3.206,1.533c0.483,0.668,0.341,1.907-0.414,2.347c-0.265,0.154-0.656,0.189-0.949,0.251
				c-0.254,0.054-0.508,0.105-0.763,0.152C40.842,23.445,40.884,23.597,40.983,23.578L40.983,23.578z"/>
		</g>
		<g>
			<path style="fill:#3E220B;" d="M37.225,17.525c-0.285,0.422-2.43,3.651-1.373,3.805c0.099,0.014,0.142-0.138,0.042-0.152
				c-0.726-0.106,1.205-3.183,1.468-3.573C37.418,17.52,37.282,17.441,37.225,17.525L37.225,17.525z"/>
		</g>
		<g>
			<path style="fill:#3E220B;" d="M40.432,16.873c-0.379,0.956-1.042,2.278-2.077,2.629c-0.097,0.033-0.058,0.17,0.042,0.152
				c1.265-0.223,3.034-1.072,2.542-2.663c-0.03-0.097-0.182-0.056-0.152,0.042c0.464,1.5-1.254,2.261-2.432,2.469
				c0.014,0.051,0.028,0.101,0.042,0.152c1.099-0.373,1.786-1.728,2.187-2.739C40.622,16.82,40.47,16.779,40.432,16.873
				L40.432,16.873z"/>
		</g>
		<g>
			<path style="fill:#7C4415;" d="M26.506,54.831c-0.138,0.135-0.373,0.343-0.406,0.546c-0.039,0.241,0.144,0.584,0.232,0.801
				c0.109,0.268,0.391,1.006,0.792,0.772c0.228-0.133,0.4-0.459,0.557-0.67c0.091-0.123,0.36-0.431,0.292-0.614
				c-0.124-0.331-0.827,0.058-0.988,0.17c-0.083,0.057-0.004,0.194,0.08,0.136c0.14-0.097,0.28-0.174,0.447-0.218
				c0.298-0.08,0.329-0.041,0.175,0.245c-0.102,0.19-0.547,0.916-0.844,0.76c-0.215-0.112-0.379-0.67-0.447-0.864
				c-0.039-0.109-0.108-0.248-0.117-0.366c-0.022-0.265,0.17-0.421,0.341-0.587C26.69,54.871,26.579,54.76,26.506,54.831
				L26.506,54.831z"/>
		</g>
		<g>
			<path style="fill:#7C4415;" d="M25.5,55.74c0.125,0.55,0.393,1.235,0.775,1.659c0.33,0.367,0.62-0.107,0.693-0.42
				c0.023-0.099-0.129-0.141-0.152-0.042c-0.017,0.103-0.052,0.2-0.105,0.292c-0.235,0.082-0.386,0.034-0.454-0.145
				c-0.096-0.112-0.165-0.282-0.235-0.412c-0.165-0.311-0.292-0.63-0.37-0.974C25.63,55.599,25.478,55.641,25.5,55.74L25.5,55.74z"
				/>
		</g>
		<g>
			<path style="fill:#7C4415;" d="M25.056,56.367c0.069,0.539,0.286,1.022,0.718,1.366c0.161,0.128,0.392,0.311,0.612,0.222
				c0.216-0.088,0.248-0.34,0.259-0.542c0.005-0.102-0.153-0.101-0.158,0c-0.011,0.218-0.139,0.454-0.443,0.318
				c-0.061-0.027-0.121-0.082-0.172-0.122c-0.135-0.107-0.253-0.229-0.35-0.372c-0.177-0.26-0.267-0.559-0.307-0.868
				C25.201,56.268,25.043,56.267,25.056,56.367L25.056,56.367z"/>
		</g>
		<g>
			<path style="fill:#7C4415;" d="M27.935,54.986c-0.143,0.258-0.154,0.571-0.259,0.852c-0.128,0.343-0.257,0.687-0.385,1.03
				c-0.453,1.21-0.905,2.421-1.358,3.631c-1.047,2.799-2.093,5.598-3.14,8.397c-0.247,0.66-0.493,1.319-0.74,1.979
				c-0.036,0.095,0.117,0.136,0.152,0.042c0.66-1.764,1.319-3.529,1.979-5.293c1.034-2.766,2.069-5.532,3.103-8.298
				c0.162-0.434,0.324-0.868,0.487-1.302c0.105-0.28,0.17-0.731,0.297-0.96C28.12,54.977,27.984,54.897,27.935,54.986L27.935,54.986
				z"/>
		</g>
		<g>
			<path style="fill:#7C4415;" d="M46.794,40.35c-1.242,1.098-2.676,2.669-1.958,4.462c0.037,0.093,0.19,0.053,0.152-0.042
				c-0.697-1.742,0.715-3.245,1.917-4.309C46.982,40.395,46.87,40.283,46.794,40.35L46.794,40.35z"/>
		</g>
		<g>
			<path style="fill:#7C4415;" d="M30.131,44.545c0.298-0.226,0.62-0.41,0.968-0.545c0.094-0.036,0.053-0.189-0.042-0.152
				c-0.361,0.141-0.697,0.326-1.006,0.561C29.971,44.47,30.05,44.607,30.131,44.545L30.131,44.545z"/>
		</g>
		<g>
			<path style="fill:#F9D275;" d="M33.302,33.359c0.472,0.019,0.714,0.885,0.829,1.228c0.252,0.751,0.413,1.535,0.553,2.313
				c0.196,1.082,0.348,2.175,0.452,3.27c0.01,0.1,0.167,0.101,0.158,0c-0.077-0.816-0.186-1.629-0.312-2.439
				c-0.195-1.255-0.389-2.601-0.924-3.764c-0.141-0.307-0.366-0.75-0.757-0.765C33.2,33.197,33.201,33.355,33.302,33.359
				L33.302,33.359z"/>
		</g>
		<g>
			<path style="fill:#F9D275;" d="M34.851,41.402c0.421-1.157,0.842-2.315,1.263-3.472c0.035-0.096-0.118-0.137-0.152-0.042
				c-0.421,1.157-0.842,2.315-1.263,3.472C34.664,41.456,34.816,41.497,34.851,41.402L34.851,41.402z"/>
		</g>
		<g>
			<path style="fill:#F9D275;" d="M43.484,34.195c0.192,0.501,0.365,1.011,0.527,1.523c0.272,0.862,0.57,1.785,0.596,2.695
				c0.028,1.004-0.497,2.034-0.865,2.944c-0.16,0.396-0.189,0.864-0.267,1.281c-0.12,0.643-0.24,1.287-0.36,1.93
				c-0.019,0.099,0.134,0.142,0.152,0.042c0.104-0.555,0.207-1.111,0.311-1.666c0.088-0.471,0.146-1.079,0.292-1.488
				c0.328-0.92,0.826-1.826,0.892-2.82c0.056-0.842-0.233-1.739-0.469-2.535c-0.194-0.656-0.412-1.308-0.657-1.948
				C43.6,34.059,43.447,34.1,43.484,34.195L43.484,34.195z"/>
		</g>
		<g>
			<path style="fill:#F9D275;" d="M35.159,40.225c0.485,0.597,1.51,0.718,2.223,0.761c1.121,0.067,2.027-0.438,2.95-1.025
				c0.085-0.054,0.006-0.191-0.08-0.136c-0.862,0.549-1.726,1.053-2.777,1.009c-0.692-0.029-1.733-0.139-2.205-0.719
				C35.207,40.035,35.096,40.147,35.159,40.225L35.159,40.225z"/>
		</g>
		<g>
			<path style="fill:#F9D275;" d="M43.649,42.488c0.643-0.764,1.186-1.714,2.053-2.25c0.086-0.053,0.007-0.19-0.08-0.136
				c-0.881,0.545-1.432,1.498-2.085,2.275C43.473,42.453,43.584,42.566,43.649,42.488L43.649,42.488z"/>
		</g>
		<g>
			<path style="fill:#7C4415;" d="M40.358,44.889c-0.194,0.253-0.221,0.579-0.093,0.867c0.041,0.093,0.177,0.012,0.136-0.08
				c-0.107-0.239-0.065-0.502,0.092-0.708C40.556,44.888,40.419,44.81,40.358,44.889L40.358,44.889z"/>
		</g>
		<g>
			<path style="fill:#14543F;" d="M39.415,55.039c1.459-2.047,1.399-4.631,1.237-7.027c-0.007-0.101-0.165-0.102-0.158,0
				c0.16,2.37,0.229,4.922-1.215,6.947C39.22,55.042,39.357,55.121,39.415,55.039L39.415,55.039z"/>
		</g>
		<g>
			<path style="fill:#14543F;" d="M39.512,54.903c0.887-0.871,1.686-1.826,2.467-2.792c0.063-0.078-0.048-0.191-0.112-0.112
				c-0.781,0.966-1.58,1.921-2.467,2.792C39.328,54.863,39.44,54.974,39.512,54.903L39.512,54.903z"/>
		</g>
		<g>
			<path style="fill:#14543F;" d="M36.97,47.15c-0.253,0.406-0.657,0.866-0.788,1.331c-0.065,0.23-0.023,0.531,0.225,0.635
				c0.272,0.114,0.516-0.111,0.646-0.326c0.236-0.388,0.396-0.795,0.67-1.165c0.061-0.082-0.076-0.16-0.136-0.08
				c-0.132,0.178-0.256,0.36-0.363,0.554c-0.118,0.215-0.198,0.514-0.367,0.692c-0.103,0.193-0.282,0.187-0.538-0.016
				c-0.023-0.131-0.002-0.251,0.065-0.359c0.057-0.142,0.15-0.269,0.23-0.398c0.164-0.263,0.328-0.526,0.492-0.789
				C37.16,47.143,37.023,47.064,36.97,47.15L36.97,47.15z"/>
		</g>
		<g>
			<path style="fill:#14543F;" d="M42.444,47.028c0.024,0.243,0.125,0.484,0.192,0.719c0.066,0.234,0.118,0.515,0.232,0.731
				c0.117,0.221,0.344,0.235,0.533,0.067c0.233-0.208,0.045-0.619-0.006-0.871c-0.115-0.563-0.234-1.126-0.347-1.69
				c-0.02-0.099-0.172-0.057-0.152,0.042c0.131,0.647,0.263,1.295,0.399,1.941c0.04,0.192,0.062,0.791-0.307,0.377
				c-0.068-0.076-0.091-0.29-0.119-0.384c-0.089-0.287-0.235-0.633-0.265-0.933C42.592,46.928,42.434,46.927,42.444,47.028
				L42.444,47.028z"/>
		</g>
		<g>
			<path style="fill:#14543F;" d="M36.076,69.643c0.278,0.288,0.548,0.585,0.834,0.865c0.102,0.1,0.181,0.182,0.327,0.11
				c0.203-0.1,0.395-0.431,0.532-0.606c0.256-0.329,0.484-0.675,0.692-1.035c0.051-0.088-0.085-0.168-0.136-0.08
				c-0.286,0.495-0.612,0.962-0.99,1.392c-0.248,0.282-0.349,0.071-0.559-0.147c-0.196-0.204-0.392-0.407-0.589-0.611
				C36.117,69.458,36.005,69.569,36.076,69.643L36.076,69.643z"/>
		</g>
		<g>
			<path style="fill:#14543F;" d="M42.439,68.281c0.148,0.918,0.456,1.787,0.916,2.596c0.05,0.088,0.187,0.009,0.136-0.08
				c-0.454-0.797-0.754-1.653-0.9-2.558C42.575,68.139,42.423,68.182,42.439,68.281L42.439,68.281z"/>
		</g>
		<g>
			<path style="fill:#14543F;" d="M42.489,68.232c0.294,0.554,0.748,0.99,1.314,1.26c0.091,0.044,0.171-0.093,0.08-0.136
				c-0.543-0.259-0.975-0.671-1.257-1.203C42.577,68.062,42.441,68.142,42.489,68.232L42.489,68.232z"/>
		</g>
		<g>
			<path style="fill:#3E220B;" d="M35.235,88.229c0.67-1.447,4.007-2.237,4.248-0.101c0.011,0.1,0.169,0.101,0.158,0
				c-0.259-2.294-3.798-1.588-4.543,0.021C35.057,88.241,35.193,88.321,35.235,88.229L35.235,88.229z"/>
		</g>
		<g>
			<path style="fill:#F7931E;" d="M21.803,71.87c0,0,3.866,0.079,4.498-0.552c0.631-0.631,0.947-4.024,1.42-4.103
				c0.473-0.079,0.789,2.92,0.71,3.156c-0.079,0.237-0.947,2.288-0.947,2.288s1.026,1.184,1.263,3.945
				c0.237,2.762,0.473,4.734,0.237,4.971c-0.237,0.237-1.605,3.376-1.605,3.376l-2.104,0.096c0,0-0.158-1.026,0.395-1.184
				c0.552-0.158,1.078-0.266,1.078-0.266l0.5-2.574l-1.105-2.052l-2.841,4.024l-2.446,0.789L19.2,83.706
				c0,0-0.316-1.578,0.079-1.815C19.673,81.654,21.803,71.87,21.803,71.87z"/>
			<path style="fill:#F7931E;" d="M14.36,67.504c-0.378,0.063-1.315,1.578-1.473,2.262c-0.158,0.684,0.053,1.683,0.473,1.999
				c0.421,0.316,1.631,0.053,1.631,0.053s-1.105,2.525-0.947,3.156c0.158,0.631,1.368,1.894,1.368,1.894s-0.105,0.579,0.053,0.842
				c0.158,0.263,0.421,0.526,0.421,0.526v1.21l0.409,0.901c0,0-0.094,1.729-0.357,2.045c-0.263,0.316-2.42,2.051-2.578,2.578
				c-0.158,0.526-0.579,2.63-0.316,2.735c0.263,0.105,1.473,0,1.841-0.894c0.368-0.894,0.473-1.894,0.473-1.894
				s2.104-0.158,2.367-0.631c0.263-0.473,0.894-2.104,0.894-2.104l1.999,0.579c0,0,1.841,5.26,1.683,5.313
				c-0.158,0.053-1.946,0.105-2.052,0.526c-0.105,0.421,0.046,0.746,0.046,0.746l2.9,0.043c0,0,0.789-2.104,1.052-3.945
				c0.263-1.841,0.631-4.997,0.631-4.997l-2.157-7.943c0,0,0.684-0.842,0.894-0.684s1.315,1.052,1.788,0.842
				c0.474-0.21,0.789-1.21,0.789-1.841c0-0.631,0-1.315-0.789-1.42c-0.789-0.105-3.314,1.525-3.577,1.683
				c-0.263,0.158-0.316-0.631-2.578-0.894c-2.262-0.263-4.419,0.736-4.419,0.736s-0.316-0.473-0.263-0.842
				C14.623,69.713,15.938,67.241,14.36,67.504z"/>
			<g>
				<path style="fill:#5D3310;" d="M13.964,86.368c-0.031,0.23-0.04,0.459-0.016,0.69c0.018,0.177,0.029,0.418,0.131,0.566
					c0.019,0.028,0.054,0.047,0.089,0.036c0.215-0.065,0.425-0.316,0.553-0.489c0.169-0.227,0.264-0.479,0.296-0.759
					c0.012-0.101-0.146-0.1-0.158,0c-0.026,0.226-0.103,0.435-0.233,0.623c-0.106,0.154-0.314,0.417-0.5,0.473
					c0.03,0.012,0.059,0.024,0.089,0.036c-0.099-0.144-0.104-0.404-0.117-0.57c-0.015-0.188-0.008-0.377,0.018-0.564
					C14.13,86.311,13.978,86.268,13.964,86.368L13.964,86.368z"/>
			</g>
			<g>
				<path style="fill:#5D3310;" d="M15.012,84.422c0.144,0.153,0.251,0.33,0.318,0.529c0.032,0.096,0.185,0.055,0.152-0.042
					c-0.076-0.225-0.196-0.426-0.359-0.599C15.053,84.237,14.942,84.348,15.012,84.422L15.012,84.422z"/>
			</g>
			<g>
				<path style="fill:#5D3310;" d="M15.978,82.459c0.168-0.077,0.401,0.045,0.525,0.156c0.076,0.067,0.188-0.044,0.112-0.112
					c-0.185-0.165-0.475-0.292-0.716-0.181C15.806,82.365,15.886,82.501,15.978,82.459L15.978,82.459z"/>
			</g>
			<g>
				<path style="fill:#5D3310;" d="M16.503,80.49c0.625,0.63,1.097,1.386,1.968,1.692c0.478,0.168,0.976,0.291,1.464,0.43
					c0.271,0.077,0.536,0.098,0.656,0.39c0.107,0.261,0.163,0.561,0.237,0.833c0.027,0.098,0.179,0.056,0.152-0.042
					c-0.075-0.278-0.153-0.556-0.237-0.833c-0.032-0.105-0.053-0.208-0.139-0.284c-0.107-0.095-0.278-0.118-0.407-0.154
					c-0.293-0.083-0.586-0.168-0.879-0.252c-0.565-0.163-1.141-0.292-1.592-0.695c-0.405-0.362-0.729-0.811-1.111-1.197
					C16.543,80.307,16.431,80.418,16.503,80.49L16.503,80.49z"/>
			</g>
			<g>
				<path style="fill:#5D3310;" d="M21.759,89.304c-0.118-0.246,0.01-0.564,0.266-0.659c0.094-0.035,0.053-0.188-0.042-0.152
					c-0.356,0.132-0.525,0.549-0.36,0.891C21.667,89.475,21.803,89.396,21.759,89.304L21.759,89.304z"/>
			</g>
			<g>
				<path style="fill:#5D3310;" d="M21.214,88.416c-0.259,0.161-0.494,0.526-0.387,0.843c0.048,0.142,0.17,0.161,0.305,0.165
					c0.198,0.007,0.384,0.042,0.581-0.004c0.099-0.023,0.057-0.175-0.042-0.152c-0.119,0.028-0.227,0.024-0.347,0.013
					c-0.117-0.011-0.313,0.03-0.355-0.11c-0.07-0.229,0.149-0.508,0.325-0.618C21.379,88.499,21.3,88.362,21.214,88.416
					L21.214,88.416z"/>
			</g>
			<g>
				<path style="fill:#5D3310;" d="M22.272,88.089c0.281,0.123,0.602,0.22,0.912,0.189c0.1-0.01,0.101-0.168,0-0.158
					c-0.281,0.028-0.576-0.056-0.832-0.168C22.259,87.912,22.179,88.048,22.272,88.089L22.272,88.089z"/>
			</g>
			<g>
				<path style="fill:#5D3310;" d="M15.289,76.098c0.224,0.65,0.37,1.63,1.074,1.94c0.74,0.326,1.516-0.313,2.135-0.647
					c0.089-0.048,0.01-0.184-0.08-0.136c-0.565,0.304-1.329,0.927-1.992,0.633c-0.641-0.284-0.778-1.231-0.985-1.833
					C15.409,75.96,15.256,76.001,15.289,76.098L15.289,76.098z"/>
			</g>
			<path style="fill:#D92C09;" d="M18.838,78.975c1.112-0.741,2.022-2.129,2.643-3.312c0.622-1.183,0.952-1.891,1.245-3.195
				c0,0-0.219,2.56-0.719,3.56c-0.5,1-2.538,4.075-4.031,3.721c-0.357-0.085-0.693-0.226-0.972-0.464
				c-0.392-0.334-0.794-0.651-1.118-1.051l-0.421-0.526c0,0,1.093,1.336,2.029,1.537C18.43,79.448,18.838,78.975,18.838,78.975z"/>
			<g>
				<path style="fill:#5D3310;" d="M22.398,74.965c0.477,1.364,0.744,2.878,0.183,4.261c-0.038,0.094,0.115,0.135,0.152,0.042
					c0.57-1.405,0.302-2.958-0.183-4.344C22.517,74.828,22.364,74.869,22.398,74.965L22.398,74.965z"/>
			</g>
			<g>
				<path style="fill:#5D3310;" d="M22.782,72.451c0.317-0.396,0.697-0.721,1.134-0.98c0.224-0.133,0.458-0.248,0.699-0.346
					c0.104-0.043,0.235-0.118,0.345-0.128c0.039-0.013,0.077-0.025,0.116-0.038c0.148,0.269,0.12,0.438-0.083,0.506
					c-0.09,0.048-0.01,0.184,0.08,0.136c0.231-0.122,0.534-0.333,0.408-0.642c-0.112-0.275-0.408-0.169-0.62-0.095
					c-0.847,0.294-1.626,0.77-2.19,1.475C22.608,72.418,22.718,72.531,22.782,72.451L22.782,72.451z"/>
			</g>
			<g>
				<path style="fill:#5D3310;" d="M15.294,70.797c-0.094,0.149-0.16,0.305-0.187,0.479c-0.019,0.12,0.007,0.234-0.033,0.338
					c-0.062,0.163-0.193,0.323-0.282,0.473c-0.052,0.087,0.084,0.167,0.136,0.08c0.091-0.153,0.184-0.304,0.273-0.458
					c0.037-0.064,0.046-0.083,0.053-0.156c0.025-0.255,0.033-0.451,0.176-0.677C15.484,70.79,15.348,70.711,15.294,70.797
					L15.294,70.797z"/>
			</g>
			<g>
				<path style="fill:#5D3310;" d="M24.955,80.672c1.177-1.508,2.198-3.127,3.048-4.842c0.045-0.091-0.091-0.171-0.136-0.08
					c-0.844,1.702-1.854,3.312-3.023,4.81C24.782,80.64,24.892,80.752,24.955,80.672L24.955,80.672z"/>
			</g>
			<g>
				<path style="fill:#5D3310;" d="M19.622,82.45c-0.248,0.381-0.105,0.922,0.133,1.273c0.057,0.084,0.194,0.005,0.136-0.08
					c-0.207-0.306-0.352-0.778-0.133-1.114C19.814,82.444,19.678,82.365,19.622,82.45L19.622,82.45z"/>
			</g>
			<g>
				<path style="fill:#5D3310;" d="M26.431,84.081c-0.269,0.227-0.27,0.669-0.002,0.898c0.077,0.066,0.189-0.045,0.112-0.112
					c-0.206-0.176-0.205-0.5,0.002-0.675C26.621,84.127,26.508,84.016,26.431,84.081L26.431,84.081z"/>
			</g>
			<g>
				<path style="fill:#5D3310;" d="M27.124,80.749c0.334,0.448,0.749,0.812,1.24,1.079c0.089,0.049,0.169-0.088,0.08-0.136
					c-0.467-0.254-0.866-0.597-1.184-1.023C27.2,80.589,27.063,80.668,27.124,80.749L27.124,80.749z"/>
			</g>
			<g>
				<path style="fill:#5D3310;" d="M26.498,71.593c0.221,0.43,0.534,0.791,0.923,1.077c0.082,0.06,0.161-0.077,0.08-0.136
					c-0.368-0.27-0.659-0.615-0.867-1.021C26.588,71.423,26.452,71.503,26.498,71.593L26.498,71.593z"/>
			</g>
			<g>
				<path style="fill:#5D3310;" d="M26.819,71.403c0.151,0.379,0.415,0.687,0.771,0.89c0.088,0.05,0.168-0.086,0.08-0.136
					c-0.318-0.181-0.562-0.455-0.698-0.795C26.934,71.268,26.781,71.309,26.819,71.403L26.819,71.403z"/>
			</g>
			<g>
				<path style="fill:#5D3310;" d="M13.168,86.524c-0.022,0.219-0.019,0.438,0.017,0.656c0.025,0.153,0.053,0.363,0.138,0.497
					c0.159,0.248,0.601,0.06,0.794-0.048c0.089-0.049,0.009-0.186-0.08-0.136c-0.125,0.07-0.309,0.16-0.458,0.137
					c-0.14-0.022-0.16-0.139-0.192-0.259c-0.074-0.279-0.09-0.561-0.061-0.847C13.336,86.423,13.178,86.424,13.168,86.524
					L13.168,86.524z"/>
			</g>
			<g>
				<path style="fill:#7C4415;" d="M16.379,75.032c0.016-0.076,0.502,0.002,0.666-0.181c0.165-0.183,0.238-0.573,0.238-0.573
					s-0.108,0.598-0.012,0.704c0.096,0.106,0.968,0.501,1.224,0.401c0.256-0.1,0.928-0.507,0.928-0.507s-1.414,1.189-1.781,1.486
					C17.275,76.66,16.262,75.581,16.379,75.032z"/>
				<path style="fill:#D92C09;" d="M17.198,75.727c0,0-0.67-0.448-0.82-0.318c-0.15,0.13-0.074,1.793,0.089,1.987
					c0.163,0.193,1.372-1.056,1.639-1.484C18.373,75.483,17.52,75.323,17.198,75.727z"/>
				<path style="fill:#5D3310;" d="M16.919,73.466c-0.207,0.067,0.084,0.988,0.205,1.043c0.121,0.056,1.165-0.519,0.999-0.804
					C17.957,73.421,17.127,73.399,16.919,73.466z"/>
				<g>
					<path style="fill:#5D3310;" d="M16.531,72.684c-0.328,0.223-0.647,0.471-0.933,0.746c-0.279,0.269-0.637,0.628-0.434,1.038
						c0.212,0.428,0.807,0.722,1.275,0.645c0.194-0.032,0.522-0.132,0.658-0.293c0.09-0.107,0.119-0.309,0.166-0.439
						c-0.051,0-0.101,0-0.152,0c0.035,0.257-0.01,0.576,0.214,0.73c0.428,0.294,0.955,0.468,1.451,0.26
						c0.291-0.122,0.655-0.298,0.786-0.602c0.189-0.438,0.264-0.951-0.035-1.355c-0.06-0.081-0.197-0.002-0.136,0.08
						c0.254,0.343,0.235,0.926-0.006,1.287c-0.147,0.22-0.555,0.422-0.806,0.495c-0.353,0.103-0.974-0.054-1.235-0.341
						c-0.062-0.069,0.039,0.081-0.001-0.02c-0.021-0.054-0.018-0.13-0.026-0.188c-0.018-0.129-0.035-0.259-0.053-0.388
						c-0.011-0.085-0.129-0.064-0.152,0c-0.132,0.366-0.168,0.477-0.588,0.592c-0.434,0.119-1.415-0.237-1.248-0.827
						c0.094-0.329,0.49-0.626,0.74-0.835c0.191-0.159,0.389-0.31,0.595-0.45C16.694,72.763,16.615,72.627,16.531,72.684
						L16.531,72.684z"/>
				</g>
				<g>
					<path style="fill:#DC6501;" d="M17.114,75.607c-0.197,0.209-0.273,0.489-0.32,0.766c-0.017,0.099,0.135,0.142,0.152,0.042
						c0.042-0.248,0.102-0.508,0.28-0.696C17.295,75.645,17.184,75.533,17.114,75.607L17.114,75.607z"/>
				</g>
				<g>
					<path style="fill:#5D3310;" d="M16.87,72.769c0.579-0.28,1.31-0.137,1.873,0.095c0.094,0.039,0.135-0.114,0.042-0.152
						c-0.606-0.249-1.376-0.378-1.995-0.079C16.699,72.677,16.779,72.813,16.87,72.769L16.87,72.769z"/>
				</g>
			</g>
			<g>
				<path style="fill:#5D3310;" d="M26.049,71.403c-0.103,0.231-0.218,0.459-0.344,0.68c-0.091,0.16-0.185,0.329-0.311,0.464
					c-0.13,0.141-0.183,0.131-0.35,0.056c-0.562-0.254-1.093-0.619-1.626-0.929c-0.088-0.051-0.167,0.085-0.08,0.136
					c0.283,0.165,0.567,0.329,0.852,0.492c0.201,0.115,0.402,0.23,0.604,0.343c0.105,0.058,0.253,0.181,0.376,0.195
					c0.251,0.03,0.439-0.305,0.55-0.48c0.178-0.278,0.328-0.577,0.462-0.878C26.226,71.39,26.09,71.31,26.049,71.403L26.049,71.403z
					"/>
			</g>
			<path style="fill:#5D3310;" d="M21.058,73.478c0,0.338-0.274,0.612-0.612,0.612c-0.338,0-0.612-0.274-0.612-0.612
				c0-0.338,0.274-0.612,0.612-0.612C20.783,72.866,21.058,73.14,21.058,73.478z"/>
			<path style="fill:#5D3310;" d="M16.396,72.544c0,0.338-0.274,0.612-0.612,0.612s-0.612-0.274-0.612-0.612
				c0-0.338,0.274-0.612,0.612-0.612S16.396,72.206,16.396,72.544z"/>
			<g>
				<path style="fill:#F9D275;" d="M18.265,79.18c-0.226,0.032-0.511-0.103-0.719,0.026c-0.117,0.072-0.159,0.218-0.129,0.348
					c0.102,0.447,0.782,0.403,1.113,0.312c0.098-0.027,0.056-0.179-0.042-0.152c-0.228,0.063-0.858,0.142-0.919-0.202
					c-0.038-0.217,0.193-0.204,0.342-0.19c0.135,0.013,0.261,0.03,0.397,0.01C18.407,79.317,18.365,79.165,18.265,79.18
					L18.265,79.18z"/>
			</g>
			<g>
				<path style="fill:#F9D275;" d="M18.535,79.051c-0.271,0.127-0.569,0.429-0.293,0.713c0.206,0.212,0.578,0.107,0.727-0.119
					c0.056-0.085-0.081-0.164-0.136-0.08c-0.093,0.142-0.349,0.224-0.479,0.088c-0.191-0.2,0.095-0.387,0.261-0.465
					C18.706,79.145,18.626,79.008,18.535,79.051L18.535,79.051z"/>
			</g>
			<g>
				<path style="fill:#F9D275;" d="M21.204,76.232c0.148-0.223,0.435-0.22,0.515,0.053c0.06,0.203-0.088,0.332-0.194,0.486
					c-0.058,0.084,0.079,0.163,0.136,0.08c0.085-0.124,0.212-0.247,0.233-0.402c0.017-0.13-0.032-0.294-0.112-0.396
					c-0.203-0.261-0.556-0.138-0.713,0.099C21.012,76.237,21.148,76.316,21.204,76.232L21.204,76.232z"/>
			</g>
			<g>
				<path style="fill:#F9D275;" d="M21.301,76.045c0.06-0.117,0.113-0.255,0.192-0.361c0.109-0.147,0.393-0.178,0.523-0.027
					c0.089,0.104-0.039,0.298-0.084,0.398c-0.059,0.129-0.123,0.256-0.19,0.381c-0.048,0.09,0.088,0.169,0.136,0.08
					c0.115-0.214,0.258-0.451,0.316-0.689c0.032-0.132-0.004-0.241-0.116-0.32c-0.141-0.1-0.349-0.14-0.513-0.077
					c-0.218,0.084-0.301,0.346-0.4,0.536C21.118,76.055,21.254,76.135,21.301,76.045L21.301,76.045z"/>
			</g>
		</g>
		<g>
			<path style="fill:#7C4415;" d="M40.737,27.421c0.248-0.094,0.467-0.253,0.569-0.504c0.039-0.094-0.114-0.135-0.152-0.042
				c-0.08,0.195-0.269,0.322-0.459,0.394C40.601,27.305,40.642,27.457,40.737,27.421L40.737,27.421z"/>
		</g>
		<path style="fill:#001C31;" d="M39.708,25.74c0,0.256-0.208,0.464-0.464,0.464c-0.256,0-0.464-0.208-0.464-0.464
			c0-0.256,0.207-0.464,0.464-0.464C39.501,25.276,39.708,25.484,39.708,25.74z"/>
		<path style="fill:#001C31;" d="M42.598,25.776c0,0.256-0.208,0.464-0.464,0.464c-0.256,0-0.464-0.208-0.464-0.464
			s0.207-0.464,0.464-0.464C42.391,25.313,42.598,25.52,42.598,25.776z"/>
		<path style="fill:#FFFFFF;" d="M39.883,27.811h1.723c0,0-0.288,0.908-0.945,0.888C40.004,28.679,39.883,27.811,39.883,27.811z"/>
		<g>
			<path style="fill:#001C31;" d="M38.487,24.607c0.446-0.243,0.953-0.267,1.418-0.06c0.092,0.041,0.172-0.095,0.08-0.136
				c-0.518-0.231-1.078-0.212-1.577,0.06C38.318,24.519,38.397,24.656,38.487,24.607L38.487,24.607z"/>
		</g>
		<g>
			<path style="fill:#001C31;" d="M41.645,24.673c0.338-0.201,0.728-0.222,1.082-0.05c0.091,0.044,0.171-0.092,0.08-0.136
				c-0.406-0.197-0.853-0.18-1.241,0.05C41.478,24.588,41.558,24.725,41.645,24.673L41.645,24.673z"/>
		</g>
		<g>
			<path style="fill:#001C31;" d="M41.594,25.562c0.338-0.201,0.728-0.222,1.082-0.05c0.091,0.044,0.171-0.092,0.08-0.136
				c-0.406-0.197-0.853-0.18-1.241,0.05C41.427,25.477,41.506,25.614,41.594,25.562L41.594,25.562z"/>
		</g>
		<g>
			<path style="fill:#001C31;" d="M38.487,25.562c0.446-0.243,0.953-0.267,1.418-0.06c0.092,0.041,0.172-0.095,0.08-0.136
				c-0.518-0.231-1.078-0.212-1.577,0.06C38.318,25.474,38.397,25.611,38.487,25.562L38.487,25.562z"/>
		</g>
	</g>
	<g>
		<path style="fill:#F9D275;" d="M62.007,82.664l-1.49,4.126c0,0-1.031,0.573-1.261,1.032c-0.229,0.458-0.344,1.261-0.344,1.261
			h4.47c0,0,1.375-2.98,1.948-3.323c0.573-0.344,1.031-1.031,1.031-1.031l-0.416-2.702C65.946,82.025,62.236,82.091,62.007,82.664z"
			/>
		<path style="fill:#F9D275;" d="M71.548,84.168c0,0-0.057,0.859,0.057,2.578c0.115,1.719-0.172,2.063,0.172,2.235
			c0.344,0.172,4.813,0.344,4.985-0.401c0.172-0.745-1.375-2.407-1.433-2.579c-0.057-0.172-0.516-1.776-0.974-2.063
			C73.897,83.652,71.548,84.168,71.548,84.168z"/>
		<path style="fill:#F7931E;" d="M72.229,83.261c0,0,0.802,3.381,0.974,3.438c0.172,0.057,1.776-0.057,1.948-0.344
			c0.172-0.286-1.089-2.751-1.203-2.922C73.833,83.261,72.229,83.261,72.229,83.261z"/>
		<path style="fill:#F7931E;" d="M71.605,87.778l-0.072,1.195c0,0,0.415,0.467,2.822,0.41c2.407-0.057,2.545-0.439,2.545-0.439
			l-0.155-0.706c0,0-1.302,0.687-3.193,0.515C71.662,88.58,71.605,87.778,71.605,87.778z"/>
		<path style="fill:#F7931E;" d="M59.076,88.314c0,0,3.79,0.367,4.306-0.092c0.516-0.458,1.318-2.407,1.49-2.407
			c0.172,0,1.203-2.12,1.318-1.948c0.115,0.172,0.459,1.432,0.344,1.662c-0.115,0.229-1.662,0.745-1.662,0.745
			s-1.146,2.521-1.49,2.808s-4.082,0.259-4.47,0.059C58.684,89.022,59.076,88.314,59.076,88.314z"/>
		<path style="fill:#F7931E;" d="M60.803,86.789c0.286,0,1.261,0.286,1.662-0.057c0.401-0.344,1.948-4.412,1.719-4.584
			c-0.229-0.172-2.063,0.172-2.177,0.516C61.892,83.007,60.803,86.789,60.803,86.789z"/>
		<path style="fill:#016FC2;" d="M60.775,48.855c0,0-1.633,17.589-1.633,18.878s1.977,15.475,1.977,15.475s3.461,1.927,5.438-0.737
			c0,0,0.922-11.987,0.836-12.503c-0.086-0.516-1.461-2.665-1.461-2.665s2.063-11.486,2.321-11.658
			c0.258-0.172,1.93,12.042,1.93,12.042s-1.375,4.383-1.203,5.759c0.172,1.375,2.568,11.926,2.568,11.926l3.954-0.602
			c0,0,0.15-11.251,0.698-15.364C77.059,62.959,76.16,49.8,76.16,49.8S61.376,47.566,60.775,48.855z"/>
		<path style="fill:#FBE4AC;" d="M56.534,35.475c0,0.516,0.726,4.857,2.531,5.287c1.805,0.43,2.162-1.629,2.162-1.629
			s0.378,4.365-0.138,6.256c-0.516,1.891-0.773,3.954-0.859,4.298s0.859,3.008,6.704,1.977c5.845-1.031,9.541-1.891,9.541-1.719
			c0,0.172,0-12.979,0.086-14.096c0.086-1.117,1.891-7.048,0.43-9.713c-1.461-2.665-10.744-1.547-11.174-1.633
			c-0.43-0.086-5.243,0.859-5.931,2.321C59.199,28.284,56.534,35.475,56.534,35.475z"/>
		<g>
			<path style="fill:#F7931E;" d="M62.256,21.753c-0.181,0-0.86,1.946-0.95,2.444c-0.091,0.498,0.633,3.846,1.267,3.575
				c0.633-0.271,0.905-1.358,0.905-1.358s1.131,0.045,1.584-0.181c0.452-0.226,0.996-0.905,0.996-0.905l1.448-0.362
				c0,0,3.348,0.769,3.348,0.905c0,0.136-4.118,5.294-4.389,6.742c-0.271,1.448-0.543,5.656-0.045,5.52
				c0.498-0.136,2.896-0.814,3.122-1.946c0.226-1.131,1.9-9.774,2.217-9.955c0.317-0.181,2.263,0.226,3.168-0.588
				c0.905-0.815,0.724-2.986,0.498-4.389c-0.226-1.403-3.213-2.579-5.158-1.855C68.319,20.124,62.256,21.753,62.256,21.753z"/>
			<g>
				<path style="fill:#7C4415;" d="M71.623,25.104c0.165,0.416,0.247,0.833-0.024,1.224c-0.058,0.084,0.079,0.163,0.136,0.08
					c0.294-0.424,0.22-0.891,0.04-1.346C71.738,24.969,71.585,25.009,71.623,25.104L71.623,25.104z"/>
			</g>
			<g>
				<path style="fill:#7C4415;" d="M70.19,23.928c-0.03-1.238,0.819-2.39,2.105-2.485c1.225-0.09,2.26,0.915,2.166,2.146
					c-0.008,0.101,0.15,0.101,0.158,0c0.101-1.315-1.018-2.397-2.323-2.304c-1.369,0.098-2.295,1.316-2.262,2.643
					C70.035,24.029,70.193,24.03,70.19,23.928L70.19,23.928z"/>
			</g>
			<g>
				<path style="fill:#7C4415;" d="M66.737,22.961c-0.593,0.173-1.281,0.324-1.811,0.654c-0.488,0.304-0.745,0.873-1.026,1.351
					c-0.141,0.24-0.259,0.457-0.32,0.73c-0.037,0.167-0.129,0.478-0.016,0.634c0.135,0.186,0.451,0.217,0.588,0.037
					c0.062-0.08-0.075-0.159-0.136-0.08c-0.108,0.141-0.317-0.103-0.338-0.194c-0.021-0.094,0.032-0.258,0.054-0.356
					c0.045-0.21,0.13-0.39,0.235-0.576c0.191-0.337,0.377-0.692,0.613-1c0.494-0.648,1.451-0.831,2.199-1.049
					C66.876,23.085,66.835,22.933,66.737,22.961L66.737,22.961z"/>
			</g>
			<g>
				<path style="fill:#7C4415;" d="M65.679,24.7c0.077,0.154-0.033,0.505-0.06,0.67c-0.031,0.195-0.071,0.374-0.188,0.537
					c-0.059,0.083,0.077,0.162,0.136,0.08c0.153-0.213,0.187-0.459,0.225-0.713c0.031-0.206,0.121-0.457,0.023-0.653
					C65.77,24.53,65.634,24.61,65.679,24.7L65.679,24.7z"/>
			</g>
			<g>
				<path style="fill:#7C4415;" d="M64.09,25.491c-0.053,0.23-0.215,0.591-0.112,0.826c0.077,0.175,0.282,0.19,0.448,0.177
					c0.586-0.046,0.596-0.638,0.673-1.098c0.017-0.099-0.135-0.142-0.152-0.042c-0.048,0.284-0.044,0.805-0.347,0.941
					c-0.183,0.082-0.526,0.08-0.483-0.214c0.027-0.183,0.084-0.367,0.126-0.547C64.265,25.434,64.113,25.392,64.09,25.491
					L64.09,25.491z"/>
			</g>
			<g>
				<path style="fill:#7C4415;" d="M65.987,24.471c-0.035,0.155-0.094,0.298-0.18,0.432c-0.055,0.086,0.082,0.165,0.136,0.08
					c0.092-0.144,0.158-0.302,0.196-0.47C66.161,24.414,66.009,24.372,65.987,24.471L65.987,24.471z"/>
			</g>
			<g>
				<path style="fill:#7C4415;" d="M62.502,23.384c0.562,0.513,0.985,1.135,1.251,1.847c0.035,0.094,0.188,0.054,0.152-0.042
					c-0.276-0.739-0.709-1.385-1.292-1.917C62.538,23.204,62.426,23.315,62.502,23.384L62.502,23.384z"/>
			</g>
			<g>
				<path style="fill:#7C4415;" d="M62.983,23.422c0.05,0.157,0.075,0.316,0.075,0.481c0,0.102,0.158,0.102,0.158,0
					c0-0.178-0.027-0.353-0.081-0.523C63.104,23.283,62.952,23.325,62.983,23.422L62.983,23.422z"/>
			</g>
			<g>
				<path style="fill:#7C4415;" d="M62.345,24.701c0.544-0.208,1.006,0.139,1.349,0.531c0.067,0.076,0.178-0.035,0.112-0.112
					c-0.379-0.432-0.911-0.797-1.503-0.571C62.209,24.584,62.25,24.737,62.345,24.701L62.345,24.701z"/>
			</g>
			<g>
				<path style="fill:#7C4415;" d="M66.258,22.685c-0.077,0.166-0.165,0.326-0.262,0.481c-0.054,0.086,0.082,0.166,0.136,0.08
					c0.097-0.155,0.184-0.315,0.262-0.481C66.437,22.673,66.301,22.593,66.258,22.685L66.258,22.685z"/>
			</g>
			<g>
				<path style="fill:#7C4415;" d="M70.666,22.337c0.234-0.58,0.684-0.948,1.105-1.384c0.071-0.073-0.041-0.185-0.112-0.112
					c-0.445,0.46-0.9,0.844-1.146,1.454C70.476,22.389,70.629,22.43,70.666,22.337L70.666,22.337z"/>
			</g>
			<g>
				<path style="fill:#7C4415;" d="M71.803,26.152c0.081,0.029,0.12-0.008,0.192-0.046c0.208-0.109,0.405-0.261,0.598-0.396
					c0.362-0.252,0.712-0.522,1.052-0.803c0.078-0.065-0.034-0.176-0.112-0.111c-0.279,0.231-0.565,0.454-0.86,0.665
					c-0.124,0.089-0.248,0.175-0.375,0.26c-0.065,0.044-0.379,0.306-0.453,0.279C71.75,25.965,71.709,26.118,71.803,26.152
					L71.803,26.152z"/>
			</g>
			<g>
				<path style="fill:#7C4415;" d="M66.651,32.415c0.477-0.213,1.13-0.468,1.557-0.012c0.32,0.343,0.519,0.893,0.697,1.32
					c0.173,0.414,0.316,0.84,0.43,1.275c0.123,0.471,0.26,0.971,0.116,1.451c-0.029,0.097,0.123,0.139,0.152,0.042
					c0.158-0.529,0.005-1.086-0.134-1.604c-0.156-0.581-0.367-1.147-0.627-1.69c-0.194-0.405-0.402-0.947-0.849-1.132
					c-0.476-0.197-0.985,0.02-1.421,0.215C66.479,32.32,66.56,32.456,66.651,32.415L66.651,32.415z"/>
			</g>
			<g>
				<path style="fill:#7C4415;" d="M66.634,32.337c0.266-0.398,0.549-0.832,0.99-1.055c0.549-0.276,1.12-0.098,1.397,0.451
					c0.445,0.881,0.403,2.082,0.254,3.03c-0.016,0.099,0.137,0.142,0.152,0.042c0.108-0.687,0.124-1.379,0.024-2.069
					c-0.072-0.497-0.179-1.081-0.553-1.451c-0.89-0.878-1.922,0.254-2.401,0.972C66.442,32.342,66.578,32.422,66.634,32.337
					L66.634,32.337z"/>
			</g>
			<g>
				<path style="fill:#7C4415;" d="M64.747,26.364c0.268,0.105,0.601-0.141,0.765-0.332c0.066-0.077-0.045-0.189-0.112-0.112
					c-0.127,0.148-0.398,0.375-0.611,0.291C64.694,26.174,64.653,26.327,64.747,26.364L64.747,26.364z"/>
			</g>
			<g>
				<path style="fill:#7C4415;" d="M62.659,26.137c0.092,0.183,0.19,0.364,0.294,0.541c0.056,0.095,0.15,0.342,0.284,0.352
					c0.116,0.008,0.19-0.126,0.226-0.216c0.081-0.207,0.094-0.432,0.189-0.635c0.043-0.092-0.093-0.172-0.136-0.08
					c-0.055,0.117-0.091,0.237-0.121,0.363c-0.016,0.069-0.031,0.138-0.05,0.206c-0.018,0.065-0.026,0.2-0.126,0.14
					c-0.038-0.023-0.072-0.116-0.097-0.158c-0.042-0.07-0.083-0.141-0.124-0.213c-0.07-0.125-0.137-0.253-0.202-0.381
					C62.749,25.966,62.613,26.046,62.659,26.137L62.659,26.137z"/>
			</g>
			<g>
				<path style="fill:#7C4415;" d="M62.207,26.624c0.101,0.236,0.217,0.464,0.355,0.68c0.067,0.106,0.146,0.25,0.291,0.248
					c0.245-0.003,0.37-0.365,0.396-0.56c0.014-0.1-0.145-0.099-0.158,0c-0.013,0.093-0.05,0.188-0.099,0.268
					c-0.069,0.115-0.142,0.177-0.241,0.045c-0.17-0.227-0.297-0.501-0.407-0.761C62.304,26.451,62.168,26.531,62.207,26.624
					L62.207,26.624z"/>
			</g>
			<g>
				<path style="fill:#7C4415;" d="M68.699,29.031c0.557-0.085,1.188,0.163,1.49,0.637c0.191,0.301,0.317,0.659,0.392,1.007
					c0.016,0.075,0.136,0.075,0.152,0c0.073-0.344,0.19-0.701,0.224-1.05c0.018-0.182-0.054-0.308-0.145-0.474
					c-0.42-0.772-1.145-1.124-1.952-0.664c-0.088,0.05-0.009,0.187,0.08,0.136c0.805-0.459,1.461,0,1.811,0.754
					c0.091,0.196,0.063,0.163,0.013,0.398c-0.061,0.286-0.122,0.572-0.183,0.858c0.051,0,0.101,0,0.152,0
					c-0.095-0.443-0.272-0.928-0.574-1.272c-0.343-0.391-0.996-0.559-1.502-0.482C68.557,28.894,68.6,29.046,68.699,29.031
					L68.699,29.031z"/>
			</g>
			<g>
				<path style="fill:#7C4415;" d="M73.335,19.397c-0.841-0.018-1.076,1.423-1.149,1.977c-0.013,0.1,0.145,0.099,0.158,0
					c0.062-0.466,0.266-1.835,0.991-1.819C73.436,19.557,73.436,19.399,73.335,19.397L73.335,19.397z"/>
			</g>
			<g>
				<path style="fill:#7C4415;" d="M74.268,19.835c-0.741,0.117-1.094,0.97-1.184,1.614c-0.014,0.099,0.138,0.142,0.152,0.042
					c0.083-0.593,0.387-1.396,1.074-1.504C74.41,19.971,74.368,19.819,74.268,19.835L74.268,19.835z"/>
			</g>
		</g>
		<g>
			<path style="fill:#F7931E;" d="M59.272,19.535c0,0,0.894,2.324,1.194,2.59c0.3,0.266,2.584,0.647,3.197,0.439
				c0.613-0.208,1.925-1.914,1.97-2.245c0.045-0.331-1.639-3.28-1.639-3.28s-0.117-1.274-0.451-1.949
				c-0.334-0.675-0.981,1.909-0.981,1.909s-1.681,0.465-2.354,1.114c0,0-1.799-0.966-1.86-0.682
				C58.286,17.715,59.272,19.535,59.272,19.535z"/>
			<g>
				<path style="fill:#7C4415;" d="M60.762,22.323c0.544,0.159,1.085,0.329,1.655,0.357c0.459,0.023,0.968,0.072,1.41-0.08
					c0.439-0.151,0.762-0.583,1.062-0.916c0.336-0.373,0.766-0.746,1.006-1.189c0.048-0.089-0.088-0.169-0.136-0.08
					c-0.213,0.394-0.593,0.721-0.89,1.055c-0.324,0.365-0.702,0.887-1.194,1.009c-0.939,0.234-1.974-0.047-2.872-0.309
					C60.706,22.142,60.664,22.294,60.762,22.323L60.762,22.323z"/>
			</g>
			<g>
				<path style="fill:#7C4415;" d="M59.754,19.425c0.089-0.184,0.163-0.374,0.245-0.561c0.03-0.07,0.082-0.155,0.068-0.235
					c-0.02-0.112-0.193-0.23-0.27-0.301c-0.115-0.107-0.237-0.207-0.363-0.301c-0.122-0.091-0.393-0.32-0.555-0.172
					c-0.154,0.141,0.03,0.436,0.108,0.568c0.052,0.087,0.188,0.008,0.136-0.08c-0.094-0.16-0.223-0.402,0.071-0.294
					c0.158,0.058,0.329,0.243,0.454,0.356c0.158,0.143,0.25,0.242,0.174,0.472c-0.053,0.16-0.131,0.316-0.205,0.467
					C59.573,19.437,59.709,19.517,59.754,19.425L59.754,19.425z"/>
			</g>
			<g>
				<path style="fill:#7C4415;" d="M60.231,18.195c0.098,0.068,0.196,0.136,0.295,0.205c0.084,0.058,0.163-0.079,0.08-0.136
					c-0.098-0.068-0.196-0.136-0.294-0.205C60.227,18.001,60.148,18.138,60.231,18.195L60.231,18.195z"/>
			</g>
			<g>
				<path style="fill:#7C4415;" d="M62.556,17.079c0.105,0.062,0.206,0.13,0.303,0.204c0.081,0.062,0.16-0.076,0.08-0.136
					c-0.097-0.074-0.198-0.142-0.303-0.204C62.548,16.891,62.468,17.027,62.556,17.079L62.556,17.079z"/>
			</g>
			<g>
				<path style="fill:#7C4415;" d="M62.351,21.581c0.6,0.111,1.099-0.285,1.119-0.897c-0.049,0.013-0.098,0.027-0.147,0.04
					c0.363,0.488,1.3,0.11,1.299-0.476c0-0.101-0.158-0.102-0.158,0c-0.075,0.133-0.15,0.265-0.225,0.398
					c-0.078,0.043-0.16,0.075-0.246,0.096c-0.179,0.05-0.394,0.091-0.534-0.097c-0.045-0.061-0.144-0.044-0.147,0.04
					c-0.016,0.505-0.419,0.837-0.919,0.745C62.294,21.41,62.251,21.562,62.351,21.581L62.351,21.581z"/>
			</g>
			<path style="fill:#7C4415;" d="M62.754,20.192c0.004,0.083,0.52,0.504,0.637,0.492c0.118-0.012,0.333-0.833,0.088-0.846
				C63.234,19.824,62.754,20.192,62.754,20.192z"/>
			<path style="fill:#7C4415;" d="M61.79,20.048c0.073,0.215-0.042,0.448-0.257,0.521c-0.215,0.073-0.448-0.042-0.521-0.257
				c-0.073-0.215,0.042-0.448,0.257-0.521C61.484,19.718,61.717,19.833,61.79,20.048z"/>
			<path style="fill:#7C4415;" d="M64.377,18.736c0.073,0.215-0.042,0.448-0.257,0.521c-0.215,0.073-0.448-0.042-0.521-0.257
				c-0.073-0.215,0.042-0.448,0.257-0.521C64.071,18.407,64.304,18.522,64.377,18.736z"/>
			<g>
				<path style="fill:#7C4415;" d="M60.805,19.659c0.072-0.136,0.163-0.257,0.274-0.364c0.073-0.071-0.038-0.182-0.112-0.111
					c-0.12,0.116-0.22,0.249-0.298,0.396C60.621,19.669,60.757,19.748,60.805,19.659L60.805,19.659z"/>
			</g>
			<g>
				<path style="fill:#7C4415;" d="M63.415,18.133c0.18-0.063,0.362-0.092,0.553-0.086c0.102,0.003,0.101-0.155,0-0.158
					c-0.204-0.006-0.403,0.024-0.595,0.092C63.278,18.014,63.319,18.167,63.415,18.133L63.415,18.133z"/>
			</g>
			<g>
				<path style="fill:#7C4415;" d="M63.09,21.429c0.2,0.18,0.513,0.111,0.721-0.024c0.168-0.11,0.385-0.375,0.166-0.549
					c-0.079-0.063-0.191,0.048-0.112,0.111c0.197,0.156-0.435,0.555-0.663,0.35C63.126,21.249,63.014,21.361,63.09,21.429
					L63.09,21.429z"/>
			</g>
			<g>
				<path style="fill:#7C4415;" d="M61.04,17.626c0.133,0.123,0.255,0.256,0.365,0.401c0.061,0.08,0.198,0.001,0.136-0.08
					c-0.118-0.155-0.247-0.3-0.39-0.433C61.077,17.445,60.965,17.556,61.04,17.626L61.04,17.626z"/>
			</g>
			<g>
				<path style="fill:#7C4415;" d="M61.466,17.463c0.167,0.085,0.279,0.316,0.379,0.469c0.101,0.155,0.196,0.313,0.287,0.473
					c0.05,0.088,0.187,0.009,0.136-0.08c-0.114-0.201-0.234-0.398-0.363-0.589c-0.099-0.147-0.196-0.327-0.359-0.411
					C61.455,17.281,61.375,17.417,61.466,17.463L61.466,17.463z"/>
			</g>
			<g>
				<path style="fill:#7C4415;" d="M61.848,17.289c0.12,0.135,0.231,0.276,0.335,0.424c0.058,0.083,0.195,0.004,0.136-0.08
					c-0.111-0.159-0.231-0.311-0.359-0.456C61.892,17.101,61.781,17.213,61.848,17.289L61.848,17.289z"/>
			</g>
			<g>
				<path style="fill:#7C4415;" d="M59.831,20.624c0.113-0.277,0.318-0.497,0.581-0.636c0.09-0.048,0.01-0.184-0.08-0.136
					c-0.302,0.16-0.526,0.415-0.654,0.731C59.64,20.676,59.793,20.717,59.831,20.624L59.831,20.624z"/>
			</g>
			<g>
				<path style="fill:#7C4415;" d="M59.973,20.964c0.096-0.256,0.27-0.47,0.499-0.619c0.085-0.055,0.006-0.192-0.08-0.136
					c-0.266,0.173-0.46,0.417-0.571,0.713C59.785,21.017,59.937,21.058,59.973,20.964L59.973,20.964z"/>
			</g>
		</g>
		<g>
			<path style="fill:#001C31;" d="M64.184,11.924c-0.344,0.401,0.401,3.495,0.458,3.667c0.057,0.172,5.189,4.878,5.189,4.878
				s1.974-2.242,2.146-4.534c0.172-2.292,0.516-3.037-0.172-3.725s-4.699-1.432-5.673-1.146
				C65.158,11.351,64.184,11.924,64.184,11.924z"/>
			<path style="fill:#F7A98F;" d="M65.731,19.774c0,0-0.115,4.412-0.172,4.756c-0.057,0.344-1.604,1.948-1.433,2.349
				c0.172,0.401,0.458,1.891,2.579,1.776c2.12-0.115,4.068-2.808,4.068-2.808c-0.688-0.837-0.86-2.235-0.802-2.579
				C70.029,22.926,69.8,18.8,69.8,18.8L65.731,19.774z"/>
			<path style="fill:#F7A98F;" d="M64.986,13.987c0,0,0.802,0.745,2.063,0.172c1.261-0.573,2.636-0.573,2.636-0.401
				s0.286,3.495,0.286,3.495s1.547-1.891,1.547-0.573c0,1.318-1.49,2.12-1.49,2.12s-0.688,1.776-0.917,2.005
				s-2.578,1.662-3.094,1.261c-0.516-0.401-1.203-1.146-1.318-1.719s-0.401-5.329-0.229-5.73
				C64.643,14.216,64.986,13.987,64.986,13.987z"/>
			<g>
				<path style="fill:#7C4415;" d="M65.618,21.836c0.368,0.443,0.915,0.535,1.423,0.32c0.692-0.292,1.352-0.732,1.947-1.188
					c0.416-0.319,0.555-0.742,0.719-1.232c0.171-0.509,0.32-1.026,0.455-1.545c0.026-0.098-0.127-0.14-0.152-0.042
					c-0.107,0.41-0.224,0.819-0.351,1.223c-0.141,0.449-0.259,1.042-0.628,1.362c-0.483,0.419-1.066,0.767-1.627,1.069
					c-0.57,0.306-1.183,0.511-1.674-0.08C65.665,21.646,65.554,21.758,65.618,21.836L65.618,21.836z"/>
			</g>
			<g>
				<path style="fill:#016FC2;" d="M69.639,13.883c0.684-0.338,1.667-1.363,2.454-0.671c0.076,0.067,0.188-0.044,0.112-0.112
					c-0.429-0.377-0.993-0.267-1.477-0.058c-0.426,0.184-0.761,0.504-1.168,0.705C69.468,13.792,69.548,13.928,69.639,13.883
					L69.639,13.883z"/>
			</g>
			<g>
				<path style="fill:#016FC2;" d="M70.257,13.387c-0.888-0.69-2.12-1.3-3.245-0.902c-0.438,0.155-0.859,0.353-1.273,0.562
					c-0.198,0.1-0.393,0.203-0.591,0.302c-0.133,0.067-0.319,0.201-0.469,0.211c-0.244,0.016-0.291-0.472-0.331-0.67
					c-0.043-0.211-0.191-0.841,0.047-0.994c0.085-0.055,0.006-0.191-0.08-0.136c-0.414,0.264-0.136,1.194-0.024,1.551
					c0.045,0.143,0.095,0.382,0.264,0.424c0.206,0.05,0.553-0.189,0.716-0.272c0.973-0.491,1.992-1.169,3.119-0.864
					c0.622,0.168,1.261,0.517,1.755,0.9C70.224,13.56,70.337,13.449,70.257,13.387L70.257,13.387z"/>
			</g>
			<g>
				<path style="fill:#016FC2;" d="M64.742,13.702c0.084,0.142,0.188,0.269,0.311,0.378c0.076,0.067,0.188-0.044,0.112-0.112
					c-0.114-0.101-0.209-0.215-0.287-0.346C64.827,13.535,64.69,13.614,64.742,13.702L64.742,13.702z"/>
			</g>
			<g>
				<path style="fill:#016FC2;" d="M64.408,13.249c0.458-0.36,0.94-0.686,1.449-0.971c0.494-0.277,1.098-0.658,1.678-0.64
					c0.524,0.016,1.091,0.204,1.586,0.363c0.567,0.183,1.407,0.428,1.365,1.175c-0.006,0.101,0.152,0.101,0.158,0
					c0.031-0.547-0.377-0.892-0.842-1.095c-0.625-0.273-1.324-0.465-1.998-0.569c-0.64-0.099-1.161,0.171-1.718,0.461
					c-0.634,0.33-1.229,0.723-1.791,1.164C64.216,13.2,64.329,13.311,64.408,13.249L64.408,13.249z"/>
			</g>
			<g>
				<path style="fill:#7C4415;" d="M65.393,18.663c0.105,0.234,0.284,0.424,0.511,0.544c0.09,0.047,0.17-0.089,0.08-0.136
					c-0.205-0.109-0.359-0.275-0.454-0.487C65.488,18.491,65.352,18.571,65.393,18.663L65.393,18.663z"/>
			</g>
			<path style="fill:#FFFFFF;" d="M65.269,19.549c0,0,0.391,0.421,2.075,0c0,0-0.438,1.078-1.087,1.104
				C65.608,20.68,65.269,19.549,65.269,19.549z"/>
			<path style="fill:#001C31;" d="M68.511,16.889c0,0.268-0.217,0.485-0.485,0.485c-0.268,0-0.485-0.217-0.485-0.485
				c0-0.268,0.217-0.485,0.485-0.485C68.294,16.403,68.511,16.621,68.511,16.889z"/>
			<path style="fill:#001C31;" d="M65.526,16.849c0,0.268-0.217,0.485-0.485,0.485s-0.485-0.217-0.485-0.485
				c0-0.268,0.217-0.485,0.485-0.485S65.526,16.581,65.526,16.849z"/>
			<g>
				<path style="fill:#001C31;" d="M67.355,16.574c0.474-0.221,0.99-0.135,1.453,0.07c0.092,0.041,0.173-0.095,0.08-0.136
					c-0.522-0.23-1.081-0.317-1.612-0.07C67.183,16.48,67.263,16.616,67.355,16.574L67.355,16.574z"/>
			</g>
			<g>
				<path style="fill:#001C31;" d="M64.477,16.498c0.289-0.269,0.797-0.072,1.051,0.159c0.075,0.068,0.187-0.043,0.111-0.112
					c-0.322-0.292-0.915-0.492-1.274-0.159C64.29,16.455,64.402,16.567,64.477,16.498L64.477,16.498z"/>
			</g>
			<g>
				<path style="fill:#001C31;" d="M67.283,15.655c0.435-0.219,1.126-0.396,1.577-0.148c0.089,0.049,0.169-0.087,0.08-0.136
					c-0.507-0.279-1.25-0.097-1.737,0.148C67.113,15.565,67.192,15.701,67.283,15.655L67.283,15.655z"/>
			</g>
			<g>
				<path style="fill:#001C31;" d="M64.537,15.482c0.302-0.169,0.78,0.03,1.077,0.141c0.095,0.035,0.136-0.117,0.042-0.152
					c-0.347-0.129-0.845-0.324-1.199-0.125C64.369,15.395,64.449,15.531,64.537,15.482L64.537,15.482z"/>
			</g>
		</g>
		<path style="fill:#F7A98F;" d="M59.2,27.324c0,0-2.54,5.776-2.706,7.385c-0.166,1.609,1.288,4.685,2.181,4.405
			c0.893-0.279,2.621-3.213,2.873-4.395c0.251-1.182-0.044-7.111-0.044-7.111S59.685,26.816,59.2,27.324z"/>
		<path style="fill:#F7A98F;" d="M74.13,25.606c0,0-3.118,6.759-3.199,7.702c-0.136,1.579,0.556,3.265,0.808,3.447
			c0.542,0.391,2.144-0.626,3.619-2.605c1.475-1.979,0.908-8.228,0.908-8.228S74.521,25.445,74.13,25.606z"/>
		<g>
			<path style="fill:#F7A98F;" d="M73.858,25.804c-0.013-0.043-0.026-0.086-0.038-0.129c-0.016-0.053-0.039-0.105-0.053-0.158
				c-0.016-0.057-0.018-0.114-0.041-0.17c-0.046-0.116-0.106-0.239-0.128-0.361c-0.019-0.104-0.072-0.216-0.119-0.311
				c-0.025-0.05-0.048-0.09-0.06-0.144c-0.011-0.052-0.021-0.097-0.043-0.145c-0.046-0.1-0.093-0.199-0.141-0.298
				c-0.047-0.097-0.067-0.2-0.111-0.297c-0.052-0.116-0.103-0.237-0.145-0.357c-0.043-0.124-0.101-0.234-0.165-0.349
				c-0.061-0.108-0.106-0.225-0.173-0.329c-0.029-0.045-0.049-0.09-0.074-0.137c-0.012-0.023-0.038-0.04-0.049-0.061
				c-0.013-0.025-0.014-0.015-0.001-0.041c0.009-0.018,0.035-0.035,0.048-0.05c0.1-0.107,0.243-0.17,0.354-0.259
				c-0.016-0.031-0.052-0.052-0.076-0.076c-0.02-0.021-0.026-0.038-0.041-0.061c-0.045-0.068-0.107-0.136-0.167-0.192
				c-0.028-0.026-0.076-0.061-0.076-0.103c0-0.037,0.028-0.07,0.038-0.105c0.011-0.042,0.002-0.064-0.003-0.105
				c-0.006-0.045,0.017-0.061,0.047-0.092c0.062-0.064,0.123-0.128,0.184-0.193c0.016-0.017,0.035-0.045,0.054-0.058
				c0.017-0.011,0.032-0.009,0.048-0.019c0.015-0.01,0.025-0.028,0.041-0.038c0.015-0.01,0.029-0.01,0.048-0.028
				c0.016-0.016,0.03-0.036,0.048-0.051c0.019-0.016,0.032-0.012,0.048-0.024c0.034-0.024,0.055-0.065,0.092-0.087
				c0.033-0.02,0.066-0.057,0.107-0.055c0.036,0.002,0.078,0.035,0.109,0.05c0.04,0.02,0.078,0.043,0.116,0.056
				c0.042,0.015,0.052,0,0.09-0.016c0.073-0.03,0.133-0.102,0.198-0.152c0.027-0.021,0.06-0.033,0.092-0.046
				c0.045-0.019,0.097-0.052,0.145-0.061c0.066-0.012,0.126,0.054,0.17,0.094c0.285,0.257,0.505,0.597,0.717,0.914
				c0.362,0.542,0.698,1.104,1.013,1.675c0,0-0.179-1.181,0.03-1.338c0.209-0.157,0.619,1.84,0.571,2.388
				c-0.048,0.548-0.055,1.612-0.354,1.801c-0.015,0.009-0.03,0.016-0.046,0.023c-0.129,0.055-0.277,0.073-0.414,0.09
				c-0.202,0.026-0.407,0.037-0.611,0.038c-0.212,0.001-0.424-0.009-0.633-0.041c-0.091-0.014-0.182-0.032-0.271-0.059
				c-0.037-0.011-0.081-0.021-0.115-0.041c-0.031-0.017-0.066-0.093-0.103-0.048c-0.023-0.036-0.025-0.081-0.045-0.119
				c-0.029-0.057-0.047-0.121-0.068-0.181C73.889,25.901,73.873,25.853,73.858,25.804z"/>
			<g>
				<path style="fill:#7C4415;" d="M73.966,23.803c-0.272-0.561-0.525-1.132-0.953-1.594c-0.031-0.033-0.08-0.027-0.112,0
					c-0.135,0.114-0.297,0.182-0.43,0.3c-0.028,0.025-0.027,0.065-0.012,0.096c0.529,1.128,1.193,2.187,1.395,3.435
					c0.016,0.1,0.168,0.058,0.152-0.042c-0.153-0.946-0.563-1.74-0.983-2.587c-0.103-0.207-0.203-0.414-0.303-0.623
					c-0.109-0.227-0.18-0.257,0.106-0.332c0.153-0.04,0.046-0.072,0.165-0.038c0.115,0.033,0.302,0.418,0.366,0.528
					c0.175,0.303,0.32,0.623,0.472,0.938C73.874,23.974,74.01,23.894,73.966,23.803L73.966,23.803z"/>
			</g>
			<g>
				<path style="fill:#7C4415;" d="M74.441,23.234c-0.22-0.667-0.583-1.275-1.093-1.762c-0.124-0.118-0.279-0.301-0.47-0.267
					c-0.2,0.036-0.34,0.266-0.447,0.417c-0.015,0.021-0.015,0.059,0,0.08c0.149,0.2,0.287,0.406,0.414,0.621
					c0.052,0.087,0.188,0.008,0.136-0.08c-0.069-0.117-0.388-0.468-0.37-0.605c0.038-0.288,0.384-0.243,0.53-0.142
					c0.097,0.067,0.195,0.185,0.274,0.27c0.401,0.434,0.688,0.949,0.872,1.509C74.32,23.372,74.473,23.33,74.441,23.234
					L74.441,23.234z"/>
			</g>
			<g>
				<path style="fill:#7C4415;" d="M74.96,22.844c-0.247-0.601-0.619-1.115-1.065-1.584c-0.108-0.113-0.285-0.386-0.452-0.407
					c-0.176-0.023-0.467,0.271-0.592,0.381c-0.076,0.067,0.035,0.178,0.112,0.112c0.225-0.197,0.378-0.346,0.644-0.155
					c0.159,0.115,0.303,0.312,0.431,0.461c0.32,0.374,0.584,0.779,0.771,1.235C74.846,22.978,74.998,22.938,74.96,22.844
					L74.96,22.844z"/>
			</g>
			<g>
				<path style="fill:#7C4415;" d="M73.651,21.088c0.138-0.046,0.31-0.131,0.455-0.137c0.151-0.006,0.155,0.028,0.254,0.154
					c0.233,0.295,0.449,0.605,0.667,0.911c0.474,0.666,0.882,1.255,1.055,2.081c0.021,0.099,0.173,0.057,0.152-0.042
					c-0.196-0.938-0.71-1.618-1.256-2.377c-0.183-0.255-0.382-0.649-0.637-0.842c-0.201-0.152-0.515,0.028-0.733,0.1
					C73.513,20.968,73.554,21.12,73.651,21.088L73.651,21.088z"/>
			</g>
			<g>
				<path style="fill:#7C4415;" d="M76.395,26.208c0.107-0.424,0.206-0.853,0.274-1.285c0.066-0.424,0.02-0.82-0.047-1.241
					c-0.076-0.479-0.145-0.997-0.32-1.452c-0.118-0.306-0.318-0.212-0.577-0.055c-0.033,0.02-0.041,0.053-0.036,0.089
					c0.047,0.318,0.094,0.636,0.141,0.953c0.015,0.1,0.167,0.058,0.152-0.042c-0.025-0.171-0.051-0.343-0.076-0.514
					c-0.016-0.105-0.018-0.228-0.049-0.33c-0.006-0.019-0.014-0.059-0.012-0.08c0.002-0.016-0.076,0.057,0.024,0.022
					c0.117-0.041,0.181-0.128,0.261-0.051c0.047,0.046,0.07,0.211,0.086,0.27c0.072,0.261,0.126,0.528,0.176,0.794
					c0.093,0.493,0.205,1.007,0.136,1.51c-0.063,0.461-0.173,0.918-0.287,1.369C76.218,26.265,76.37,26.307,76.395,26.208
					L76.395,26.208z"/>
			</g>
		</g>
		<g>
			<path style="fill:#F7A98F;" d="M59.092,27.821c0,0-0.714-2.872,0.172-3.755c0.469-0.467,0.894-0.974,1.346-1.457
				c0.088-0.094,0.178-0.188,0.271-0.278c0.047-0.046,0.104-0.122,0.166-0.148c0.061-0.025,0.102,0.027,0.147,0.062
				c0.036,0.028,0.073,0.067,0.105,0.101c0.027,0.028,0.056,0.055,0.083,0.083c0.02,0.021,0.053,0.065,0.083,0.07
				c0.036,0.006,0.078-0.028,0.112-0.031c0.036-0.003,0.115,0.003,0.149,0.015c0.015,0.005,0.02,0.019,0.035,0.025
				c0.088,0.038,0.188,0.055,0.255,0.128c0.023,0.026,0.039,0.058,0.061,0.084c0.029,0.035,0.076,0.056,0.102,0.093
				c0.024,0.035,0.02,0.076,0.016,0.116c-0.006,0.062-0.04,0.115-0.057,0.173c-0.013,0.043-0.055,0.108-0.027,0.156
				c0.023,0.041,0.081,0.044,0.12,0.056c0.004,0.001,0.013,0.016,0.021,0.019c0.015,0.005,0.033,0.001,0.048,0.006
				c0.02,0.007,0.058,0.032,0.077,0.044c0.043,0.025,0.07,0.051,0.059,0.106c-0.01,0.048-0.03,0.087-0.035,0.137
				c-0.005,0.054-0.008,0.102-0.026,0.153c-0.018,0.055-0.016,0.107-0.026,0.164c-0.01,0.054-0.028,0.11-0.043,0.163
				c-0.019,0.073-0.029,0.146-0.048,0.22c-0.021,0.082-0.018,0.167-0.04,0.249c-0.016,0.06-0.026,0.114-0.033,0.175
				c-0.007,0.059-0.031,0.111-0.038,0.169c-0.016,0.126-0.066,0.247-0.078,0.373c-0.012,0.127-0.015,0.263-0.041,0.388
				c-0.014,0.063-0.031,0.12-0.037,0.185c-0.006,0.061-0.027,0.111-0.039,0.17c-0.042,0.217-0.066,0.439-0.087,0.661
				c-0.005,0.055-0.024,0.095-0.036,0.147c-0.013,0.056-0.004,0.117-0.016,0.173c-0.01,0.047-0.024,0.093-0.034,0.14
				c-0.005,0.023-0.016,0.032-0.022,0.052c-0.009,0.031-0.004,0.065-0.013,0.095c-0.012,0.038-0.028,0.058-0.031,0.099
				c-0.004,0.052-0.014,0.039-0.038,0.075c-0.068,0.099,0.024,0.221-0.056,0.317c-0.022,0.027-0.05,0.04-0.081,0.053
				c-0.082,0.035-0.17,0.057-0.256,0.078c-0.281,0.069-0.568,0.112-0.855,0.14c-0.316,0.031-0.64,0.044-0.956,0.003
				c-0.215-0.028-0.18,0.866-0.315,0.676C59.107,28.674,59.087,27.903,59.092,27.821z"/>
			<g>
				<path style="fill:#7C4415;" d="M60.861,22.263c0.163,0.028,0.57,0.019,0.433,0.364c-0.031,0.077-0.17,0.149-0.235,0.203
					c-0.209,0.172-0.355,0.367-0.531,0.571c-0.321,0.372-0.689,0.733-0.826,1.219c-0.028,0.098,0.125,0.14,0.152,0.042
					c0.124-0.439,0.455-0.77,0.748-1.105c0.224-0.258,0.436-0.487,0.691-0.714c0.109-0.097,0.299-0.25,0.261-0.417
					c-0.059-0.255-0.459-0.281-0.649-0.314C60.804,22.094,60.761,22.246,60.861,22.263L60.861,22.263z"/>
			</g>
			<g>
				<path style="fill:#7C4415;" d="M61.335,22.45c0.079,0.191,0.283,0.087,0.431,0.188c0.083,0.056,0.062-0.053,0.056,0.052
					c-0.002,0.032-0.059,0.094-0.076,0.121c-0.053,0.082-0.109,0.165-0.169,0.241c-0.415,0.523-0.855,0.972-1.024,1.641
					c-0.025,0.099,0.127,0.141,0.152,0.042c0.182-0.722,0.709-1.164,1.114-1.751c0.054-0.078,0.228-0.27,0.206-0.377
					c-0.045-0.22-0.474-0.044-0.538-0.199C61.448,22.315,61.296,22.356,61.335,22.45L61.335,22.45z"/>
			</g>
			<g>
				<path style="fill:#7C4415;" d="M61.954,22.792c0.13,0.041,0.186,0.014,0.187,0.175c0.001,0.107-0.13,0.257-0.189,0.337
					c-0.107,0.145-0.229,0.277-0.333,0.425c-0.27,0.384-0.469,0.812-0.56,1.273c-0.02,0.099,0.132,0.142,0.152,0.042
					c0.109-0.551,0.378-1.032,0.726-1.468c0.199-0.249,0.367-0.47,0.388-0.799c0.003-0.047-0.039-0.074-0.079-0.079
					c-0.083-0.019-0.167-0.039-0.25-0.058C61.899,22.609,61.858,22.761,61.954,22.792L61.954,22.792z"/>
			</g>
			<g>
				<path style="fill:#7C4415;" d="M62.07,23.325c0.09,0.063,0.178,0.143,0.275,0.194c0.082,0.043,0.022-0.104,0.006-0.011
					c-0.022,0.133-0.052,0.264-0.079,0.396c-0.105,0.528-0.21,1.056-0.314,1.585c-0.17,0.854-0.339,1.708-0.509,2.562
					c-0.02,0.099,0.132,0.142,0.152,0.042c0.303-1.528,0.606-3.057,0.91-4.585c0.007-0.037-0.006-0.068-0.036-0.089
					c-0.109-0.076-0.217-0.153-0.325-0.229C62.067,23.13,61.988,23.267,62.07,23.325L62.07,23.325z"/>
			</g>
		</g>
		<g>
			<path style="fill:#A1CDF0;" d="M59.886,68.248c0.312,0.301,0.428,0.757,0.924,0.413c0.647-0.449,1.249-0.981,1.867-1.469
				c0.08-0.063-0.033-0.174-0.112-0.112c-0.422,0.333-0.844,0.665-1.266,0.998c-0.101,0.079-0.201,0.159-0.302,0.237
				c-0.04,0.032-0.08,0.063-0.121,0.095c-0.108,0.16-0.245,0.192-0.411,0.097c-0.256-0.055-0.208-0.051-0.329-0.213
				c-0.045-0.059-0.085-0.106-0.139-0.158C59.925,68.066,59.813,68.178,59.886,68.248L59.886,68.248z"/>
		</g>
		<g>
			<path style="fill:#A1CDF0;" d="M65.823,67.336c-0.614,1.596-1.254,3.182-1.919,4.757c-0.039,0.092,0.097,0.173,0.136,0.08
				c0.671-1.588,1.316-3.186,1.935-4.795C66.012,67.283,65.859,67.242,65.823,67.336L65.823,67.336z"/>
		</g>
		<g>
			<path style="fill:#A1CDF0;" d="M65.823,67.336c-0.158,1.149-0.207,2.303-0.142,3.461c0.006,0.101,0.163,0.102,0.158,0
				c-0.063-1.143-0.019-2.285,0.137-3.419C65.989,67.279,65.837,67.236,65.823,67.336L65.823,67.336z"/>
		</g>
		<g>
			<path style="fill:#A1CDF0;" d="M70.085,67.296c0.398,1.98,1.084,3.885,2.039,5.664c0.048,0.09,0.184,0.01,0.136-0.08
				c-0.949-1.768-1.628-3.66-2.023-5.627C70.217,67.155,70.065,67.197,70.085,67.296L70.085,67.296z"/>
		</g>
		<g>
			<path style="fill:#A1CDF0;" d="M74.56,81.327c0.305-1.086,0.291-2.289,0.34-3.407c0.053-1.191,0.029-2.421,0.238-3.598
				c0.018-0.099-0.134-0.142-0.152-0.042c-0.2,1.124-0.185,2.295-0.234,3.433c-0.051,1.171-0.025,2.436-0.344,3.573
				C74.38,81.383,74.532,81.425,74.56,81.327L74.56,81.327z"/>
		</g>
		<g>
			<path style="fill:#A1CDF0;" d="M68.185,56.008c0.564-0.427,0.84-1.213,1.069-1.855c0.127-0.356,0.241-0.72,0.328-1.089
				c0.137-0.58,0.128-1.181,0.268-1.76c0.024-0.099-0.128-0.141-0.152-0.042c-0.124,0.512-0.126,1.039-0.224,1.555
				c-0.065,0.34-0.166,0.675-0.273,1.003c-0.222,0.678-0.5,1.601-1.096,2.052C68.025,55.932,68.104,56.069,68.185,56.008
				L68.185,56.008z"/>
		</g>
		<g>
			<path style="fill:#DC6501;" d="M62.01,41.391c1.043,3.056,3.055,5.717,5.71,7.554c0.084,0.058,0.163-0.079,0.08-0.136
				c-2.62-1.812-4.609-4.445-5.638-7.46C62.129,41.253,61.977,41.294,62.01,41.391L62.01,41.391z"/>
		</g>
		<g>
			<path style="fill:#DC6501;" d="M61.558,31.45c-0.089,3.216-0.301,6.426-0.422,9.641c-0.004,0.102,0.154,0.101,0.158,0
				c0.12-3.215,0.333-6.425,0.422-9.641C61.718,31.349,61.561,31.349,61.558,31.45L61.558,31.45z"/>
		</g>
		<g>
			<path style="fill:#DC6501;" d="M76.517,35.584c-0.318,1.143-0.806,2.242-1.515,3.199c-0.33,0.445-0.712,0.882-1.151,1.224
				c-0.16,0.125-0.301,0.102-0.511,0.049c-0.908-0.23-1.544-1.157-1.859-1.986c-0.345-0.905-0.477-1.896-0.511-2.859
				c-0.036-0.984,0.01-2.034,0.37-2.961c0.037-0.095-0.116-0.136-0.152-0.042c-0.351,0.905-0.405,1.933-0.379,2.894
				c0.029,1.055,0.169,2.155,0.571,3.139c0.328,0.803,0.947,1.648,1.803,1.933c0.162,0.054,0.41,0.125,0.583,0.076
				c0.341-0.097,0.717-0.599,0.946-0.858c0.948-1.073,1.577-2.393,1.958-3.765C76.696,35.528,76.544,35.486,76.517,35.584
				L76.517,35.584z"/>
		</g>
		<g>
			<path style="fill:#DC6501;" d="M76.236,30.402c-0.173,1.058-0.372,2.111-0.589,3.161c-0.326,1.577-0.606,3.322-1.378,4.756
				c-0.221,0.411-0.573,0.983-1.115,0.939c-0.495-0.041-0.915-0.506-1.235-0.84c-0.07-0.073-0.182,0.038-0.112,0.112
				c0.439,0.457,1.124,1.151,1.818,0.784c0.714-0.378,1.037-1.379,1.274-2.101c0.569-1.728,0.906-3.542,1.235-5.327
				c0.089-0.479,0.175-0.959,0.253-1.44C76.404,30.344,76.252,30.302,76.236,30.402L76.236,30.402z"/>
		</g>
		<g>
			<path style="fill:#DC6501;" d="M56.871,37.091c0.16,0.511,0.364,1.013,0.597,1.494c0.308,0.637,0.74,1.488,1.44,1.772
				c0.491,0.199,0.871-0.181,1.14-0.556c0.439-0.613,0.722-1.345,0.975-2.05c0.18-0.501,0.344-1.011,0.479-1.526
				c0.026-0.098-0.126-0.14-0.152-0.042c-0.263,1.002-0.6,2.015-1.077,2.935c-0.201,0.387-0.588,1.187-1.126,1.144
				c-0.696-0.055-1.198-1.071-1.467-1.604c-0.261-0.515-0.485-1.057-0.657-1.609C56.993,36.952,56.84,36.993,56.871,37.091
				L56.871,37.091z"/>
		</g>
	</g>
</g>
</svg>
