<?xml version="1.0" encoding="utf-8"?>
<!-- Generator: Adobe Illustrator 27.5.0, SVG Export Plug-In . SVG Version: 6.00 Build 0)  -->
<svg version="1.1" xmlns="http://www.w3.org/2000/svg" xmlns:xlink="http://www.w3.org/1999/xlink" x="0px" y="0px"
	 viewBox="0 0 499.999 500" style="enable-background:new 0 0 499.999 500;" xml:space="preserve">
<g id="BACKGROUND">
	<path style="opacity:0.7;fill:#E4F7F5;" d="M442.687,138.045c-16.671-21.892-44.455-32.503-72.438-24.76
		c-40.959,12.001-66.804,29.378-110.553,7.562c-23.051-11.493-46.551-25.593-72.171-28.094
		c-46.968-4.586-99.458,7.641-128.698,47.666c-14.342,19.628-17.046,41.642-9.444,64.5c7.354,22.11,21.978,41.699,20.682,66.116
		c-0.704,13.235-8.44,24.135-11.957,37.368c-7.033,28.027,13.365,48.27,36.576,56.055c27.163,9.11,55.217,5.873,81.756-3.306
		c17.089-5.909,35.385-10.866,53.318-5.58c20.773,6.123,38.423,18.294,59.951,22.766c23.632,4.911,48.297,4.861,72.092,1.154
		c29.881-4.653,61.294-11.517,80.353-37.133c23.843-32.046,8.436-63.59-2.094-96.595c-6.077-19.051,1.723-35.361,8.756-53.082
		C456.804,172.552,456.249,155.859,442.687,138.045z"/>
</g>
<g id="OBJECTS">
	<g>
		<g>
			<path style="opacity:0.3;fill:#A7C4C9;" d="M95.865,436.198c0,6.129,33.285,11.096,74.35,11.096
				c41.063,0,74.35-4.967,74.35-11.096c0-6.127-33.287-11.098-74.35-11.098C129.15,425.1,95.865,430.071,95.865,436.198z"/>
			<g>
				<g>
					<g>
						<g>
							<g>
								<g>
									<g>
										<path style="fill:#F6DFD7;" d="M197.433,177.191c1.483,5.794,4.771,11.517,6.335,17.289
											c1.791,6.596,4.343,15.087,6.83,21.485c2.135,5.515,14.135,25.097,17.494,29.391c3.39,3.864,10.144,9.438,11.779,10.506
											c2.868,2.102,5.318,3.727,7.522,6.579c1.254,1.624,2.326,3.259,2.975,5.222c0.042,0.127,0.083,0.265,0.037,0.392
											c-0.044,0.126-0.216,0.212-0.316,0.125c0.337,0.637,0.572,1.328,0.689,2.038c0.018,0.099,0.027,0.214-0.042,0.286
											c-0.073,0.075-0.197,0.064-0.298,0.033c-0.349-0.103-0.646-0.371-0.785-0.707c0.034,0.326,0.007,0.659-0.077,0.978
											c-0.018,0.064-0.042,0.137-0.102,0.167c-0.078,0.038-0.168-0.008-0.24-0.055c-0.629-0.414-1.148-0.99-1.492-1.658
											c0.164,0.427,0.139,0.923-0.063,1.332c-0.036,0.073-0.083,0.147-0.155,0.185c-0.099,0.053-0.219,0.023-0.324-0.011
											c-2.192-0.699-3.638-2.772-5.474-4.046c-1.526-1.189-5.456-3.625-6.118-0.35c1.881,6.936-5.454-4.952-10.773-11.53
											c-0.56-0.673,0.563,0.665,0,0c-1.585-1.715-3.639-3.813-5.352-5.493c-4.227-4.169-8.467-8.96-12.042-13.728
											c-1.764-2.35-11.457-19.729-12.017-21.884c-0.166-0.646-5.719-20.42-7.157-25.371c-0.264-0.91-2.063-11.576-2.001-12.52
											C186.748,168.441,194.106,186.434,197.433,177.191z"/>
									</g>
									<g>
										<g>
											<path style="fill:#E8A07D;" d="M242.374,261.571c1.192,0.546,2.314,1.273,3.277,2.174
												c0.966,0.895,1.813,1.906,2.538,2.992l0.037,0.055l0.002,0.006c0.059,0.139,0.202,0.371,0.31,0.56l0.335,0.61
												c0.207,0.418,0.445,0.827,0.569,1.294c-0.15-0.179-0.33-0.332-0.492-0.498l-0.49-0.497l-0.475-0.512
												c-0.157-0.188-0.292-0.326-0.47-0.583l0.039,0.061l-2.564-2.824l-1.303-1.391
												C243.251,262.55,242.782,262.099,242.374,261.571z"/>
										</g>
										<g>
											<path style="fill:#E8A07D;" d="M247.291,268.987c-0.6-0.381-1.11-0.84-1.6-1.311c-0.494-0.469-0.944-0.972-1.389-1.479
												c-0.872-1.034-1.667-2.105-2.351-3.33c0.632,0.323,1.179,0.756,1.687,1.214c0.514,0.455,0.976,0.956,1.424,1.468
												C245.933,266.593,246.72,267.701,247.291,268.987z"/>
										</g>
									</g>
									<g>
										<g>
											<path style="fill:#E8A07D;" d="M243.945,260.738c0.733,0.3,1.395,0.718,2.014,1.193c0.624,0.478,1.186,1.013,1.695,1.667
												c0.47,0.697,0.791,1.372,1.09,2.092c0.294,0.713,0.545,1.446,0.697,2.223c-0.525-0.592-0.967-1.221-1.386-1.858
												c-0.425-0.623-0.81-1.308-1.208-1.868c-0.414-0.564-0.929-1.121-1.417-1.688
												C244.93,261.935,244.425,261.365,243.945,260.738z"/>
										</g>
									</g>
								</g>
							</g>
						</g>
					</g>
				</g>
			</g>
			<g>
				<g>
					<g>
						<path style="fill:#AF7E1C;" d="M183.275,173.09c-1.152,1.5-0.828,2.04-0.457,3.907c0.644,3.272,3.252,4.399,5.654,6.583
							c0.453,0.408,1.615,10.519,1.938,10.443c6.855-1.602,9.393-1.872,14.189-5.48c0,0-4.797-17.622-15.491-16.99
							C187.488,171.648,184.068,172.061,183.275,173.09z"/>
					</g>
				</g>
			</g>
			<g>
				<g>
					<path style="fill:#723838;" d="M169.809,102.55c0.307-11.634-14.391-16.837-23.882-12.251
						c-19.901,9.496-1.527,30.316-4.591,45.011c-1.839,8.266-11.636,11.635-14.083,19.288c-2.759,8.879,4.593,8.879,9.184,13.474
						c6.432,6.122-8.573,14.696,2.14,20.513c-6.121-12.556,12.864-12.861,10.105-23.268c-0.611-2.758-3.672-4.597-3.368-7.964
						c0.308-3.98,4.288-5.51,6.737-7.959c7.963-8.573,4.898-18.369,3.063-28.474L169.809,102.55z"/>
				</g>
				<g>
					<g>
						<path style="fill:#80403F;" d="M151.313,141.858c3.291,6.691,9.906,12.57,17.277,13.494
							c5.314,0.665,11.054,2.771,15.793-0.579c5.999-4.243,14.643-6.931,18.457-13.571c4.691-8.159,5.594-17.693,1.538-26.254
							c-2.999-6.324-10.555-14.542-17.648-16.275c-9.913-2.419-21.013-0.229-29.505,5.347c-6.159,4.044-7.882,11.699-8.848,18.508
							C147.476,128.892,148.473,136.083,151.313,141.858z"/>
					</g>
				</g>
				<g>
					<path style="fill:#F6DFD7;" d="M160.714,128.789c0.052-0.511,3.277-1.046,3.719-1.154c1.733-0.443,3.425-0.972,5.082-1.65
						c4.504-1.848,8.559-4.554,12.467-7.425c1.816-1.335,3.281-2.83,4.365-4.827c0.406,1.368-0.762,3.165-0.866,4.581
						c1.72-1.047,3.952-1.928,4.806-3.997c0.349-0.831,1.007-2.999,0.438-3.887c2.331,0.737,4.267,3.575,5.245,5.664
						c2.133,4.567,3.668,11.106,3.066,16.139c-0.502,4.121-1.771,8.107-2.158,12.241c-0.468,4.917-2.722,11.022-7.79,13.257
						c-2.657,1.205-7.994,1.967-8.857,2.055c-0.905,0.096-2.273,5.116-1.912,7.436c0.383,3.674,5.132,7.198,5.596,8.266
						c1.711,3.911-6.037,7.534-9.365,8.645c-8.609,2.898-23.396-4.319-13.054-11.958c2.088-1.541,5.791-3.942,7.118-7.198
						c0.693-1.724,2.916-7.087,1.852-8.544c-0.368-0.512-0.368-0.512-3.519-3.986c-3.798-4.184-5.624-9.176-5.624-9.176
						c-1.295-0.184-4.281-0.388-5.618-3.095c-2.446-4.953-0.886-7.383,4.857-6.352L160.714,128.789z"/>
				</g>
				<g>
					<g>
						<g>
							<path d="M189.499,141.967c-0.213,1.165,0.274,2.225,1.081,2.372c0.809,0.148,1.64-0.672,1.852-1.837
								c0.212-1.157-0.276-2.217-1.085-2.364C190.541,139.991,189.71,140.81,189.499,141.967z"/>
						</g>
					</g>
				</g>
				<g>
					<g>
						<g>
							<path d="M172.045,138.783c-0.213,1.165,0.273,2.225,1.084,2.373c0.812,0.148,1.631-0.673,1.844-1.839
								c0.211-1.157-0.266-2.214-1.077-2.362C173.084,136.806,172.256,137.626,172.045,138.783z"/>
						</g>
					</g>
				</g>
				<g>
					<g>
						<path style="fill:#663616;" d="M171.599,129.982c0,0,0.137-0.04,0.368-0.15c0.233-0.088,0.546-0.31,0.92-0.413
							c0.18-0.07,0.371-0.126,0.554-0.217c0.186-0.084,0.429-0.114,0.636-0.198c0.215-0.09,0.448-0.139,0.682-0.181
							c0.23-0.04,0.454-0.123,0.693-0.142c0.474-0.047,0.938-0.112,1.385-0.08c0.23,0.009,0.458-0.023,0.659,0.032
							c0.198,0.038,0.407,0.054,0.598,0.075c0.202,0,0.364,0.075,0.523,0.107c0.156,0.035,0.307,0.073,0.422,0.105
							c0.245,0.046,0.399,0.067,0.399,0.067s-0.077-0.115-0.24-0.317c-0.083-0.092-0.179-0.22-0.301-0.342
							c-0.134-0.126-0.259-0.31-0.46-0.408c-0.384-0.205-0.848-0.54-1.417-0.612c-0.281-0.035-0.578-0.157-0.879-0.128
							c-0.294,0.011-0.605,0.032-0.908,0.041c-0.301,0.051-0.585,0.158-0.879,0.242c-0.288,0.059-0.544,0.206-0.784,0.343
							c-0.502,0.262-0.911,0.621-1.222,0.953c-0.339,0.304-0.44,0.648-0.575,0.857C171.657,129.844,171.599,129.982,171.599,129.982
							z"/>
					</g>
					<g>
						<path style="fill:#663616;" d="M189.838,131.648c0,0,0.154,0.017,0.419,0.022c0.257,0.039,0.643-0.016,1.05,0.026
							c0.204,0.023,0.419,0.051,0.636,0.051c0.214-0.011,0.454,0.067,0.69,0.09c0.23,0.042,0.486,0.042,0.711,0.124
							c0.236,0.067,0.47,0.128,0.713,0.19l0.643,0.287c0.227,0.075,0.393,0.233,0.581,0.347c0.183,0.139,0.398,0.231,0.519,0.411
							c0.141,0.15,0.298,0.297,0.444,0.435c0.159,0.128,0.215,0.301,0.333,0.43c0.093,0.138,0.185,0.264,0.262,0.363
							c0.157,0.205,0.26,0.328,0.26,0.328s0.016-0.137,0.02-0.409c-0.004-0.136,0-0.294-0.02-0.486
							c-0.026-0.183,0.006-0.424-0.109-0.626c-0.086-0.223-0.191-0.463-0.319-0.71c-0.099-0.272-0.308-0.485-0.527-0.704
							c-0.233-0.206-0.423-0.496-0.729-0.614c-0.288-0.15-0.582-0.32-0.879-0.444c-0.311-0.071-0.634-0.13-0.943-0.204
							c-0.308-0.088-0.614-0.006-0.908-0.018c-0.59-0.01-1.136,0.195-1.57,0.336c-0.432,0.147-0.703,0.387-0.939,0.527
							C189.96,131.545,189.838,131.648,189.838,131.648z"/>
					</g>
					<path style="fill:#E8A07D;" d="M185.717,150.8l-0.058,0.228l-0.041,0.104l-0.02,0.058l-0.035,0.067l-0.231,0.393l-0.012,0.016
						c-0.176,0.181-0.364,0.378-0.569,0.56l0.041-0.024l-0.505,0.322c-0.169,0.099-0.361,0.211-0.537,0.259l-0.547,0.183
						l-0.274,0.076l-0.07,0.017l-0.017,0.005l-0.01,0.005l-0.099,0.006h-0.032l-0.137,0.02l-0.522,0.056l-0.262,0.016l-0.131,0.008
						l-0.036,0.007l-0.092-0.007l-0.061-0.008c-0.352-0.034-0.699-0.049-1.045-0.097l-0.09-0.013h-0.003l-1.151-0.334l0.051,0.015
						l-1.109-0.52l-0.434-0.312c-0.15-0.11-0.291-0.182-0.444-0.343l-0.422-0.429c-0.157-0.15-0.222-0.299-0.337-0.449
						c-0.108-0.134-0.2-0.328-0.281-0.507c-0.095-0.178-0.104-0.373-0.147-0.549c0.289,0.277,0.516,0.451,0.823,0.638
						c0.322,0.205,0.605,0.333,0.882,0.462c0.115,0.067,0.308,0.132,0.464,0.198l0.499,0.197c-0.061-0.032,0.115,0.03,0.166,0.042
						l0.229,0.069l0.455,0.144l0.048,0.006l0.007,0.011l1.007,0.224l-0.096-0.017c0.355,0.032,0.7,0.093,1.045,0.135l0.074,0.013
						c-0.023,0,0.067,0-0.029,0h0.035h0.132h0.262l0.523,0.022h0.139l0.025,0.008h0.007h0.003c-0.182,0.011-0.052,0-0.09,0l0,0h0.01
						h0.013l0.058-0.008l0.24-0.022l0.486-0.038c0.179,0.005,0.301-0.061,0.453-0.087l0.467-0.091l0.042-0.021
						c0.173-0.081,0.367-0.144,0.572-0.225l-0.013,0.014l0.387-0.233c0.007-0.003,0.045-0.038,0.032-0.013l0.039-0.032l0.092-0.074
						L185.717,150.8z"/>
					<path style="fill:#E8A07D;" d="M185.103,139.134c-0.014,0.372-0.045,0.733-0.086,1.108c-0.07,0.368-0.042,0.718-0.036,1.042
						l0.004,0.497l0.093,0.46c0.038,0.149,0.028,0.311,0.122,0.437c0.075,0.132,0.128,0.271,0.182,0.401
						c0.035,0.142,0.17,0.26,0.249,0.389l0.285,0.385l0.674,0.783c0.486,0.537,0.922,1.145,1.373,1.746l0.473,0.633l-0.655,0.364
						c-0.444,0.248-0.901,0.438-1.373,0.563c-0.47,0.096-0.933,0.164-1.39,0.176c-0.925,0.021-1.801-0.103-2.674-0.31
						c0.86-0.252,1.728-0.419,2.532-0.649c0.406-0.115,0.787-0.24,1.148-0.397l0.524-0.246l0.46-0.297l-0.179,0.988l-1.355-1.621
						l-0.697-0.891c-0.111-0.157-0.208-0.353-0.304-0.525c-0.097-0.191-0.215-0.343-0.263-0.563c-0.07-0.205-0.138-0.41-0.179-0.616
						c-0.077-0.209-0.045-0.422-0.055-0.627l0.014-0.618c0.041-0.202,0.099-0.393,0.149-0.585
						C184.313,140.368,184.719,139.786,185.103,139.134z"/>
				</g>
				<path style="fill:#80403F;" d="M193.558,107.312c-1.161-4.685-6.099-6.736-10.29-7.822c-5.84-1.517-11.013,0.679-16.452,2.71
					c-3.058,1.141-6.275,2.12-8.621,4.521c-5.455,5.586-9.107,14.194-2.529,20.324c1.349,1.253,1.723,1.429,2.203,3.06
					c0.924,3.151,0.387,8.79,4.867,9.436c-4.135-7.534,6.165-8.477,10.577-9.881c5.414-1.72,11.32-3.194,13.536-8.856
					c0,2.709-0.984,5.908-2.709,8.121c5.421-3.692,8.861-8.365,9.356-15.014c0-0.494-0.249-5.664,0.49-3.689
					C193.9,109.171,193.775,108.201,193.558,107.312z"/>
			</g>
			<g>
				<g>
					<path style="fill:#8A82C3;" d="M173.244,176.79c0.006,0,0.008,0,0.014,0c-0.006,0-0.006,0.003-0.006,0.003
						C173.249,176.79,173.249,176.79,173.244,176.79z"/>
				</g>
			</g>
			<g>
				<g>
					<g>
						<path style="fill:#F9DBCD;" d="M191.124,209.712l-0.746,16.214c0,0,0.902,10.132,3.115,17.285
							c2.205,7.151-14.125,14.372-15.934,14.345c-1.811-0.029-22.275-6.89-22.275-6.89l-7.633-12.258l2.262-7.87l-0.193-3.845
							c0,0-1.563-8.848-0.051-13.862C151.179,207.814,191.124,209.712,191.124,209.712z"/>
						<path style="fill:#DBA52C;" d="M150.21,173.244l0.908-3.762l8.609-0.605l4.605-0.331c0,0,0.26,8.609,8.223,8.763
							c0.172,0.003,0.328,0,0.49-0.002c0.004,0,0.004,0,0.008,0.002c0,0,0-0.002,0.006-0.002c8.777-0.104,7.047-7.446,7.047-7.446
							l5.428,0.896l5.67,0.93c0,0,0.223,15.37,2.688,24.449c2.467,9.085-1.832,11.945-2.398,13.147c0,0,1.135,7.333,0.549,12.988
							c0,0-16.682,6.247-45.287-1.618c-0.803-11.087-0.211-28.248-0.863-31.682C144.951,184.025,150.21,173.244,150.21,173.244z"/>
					</g>
					<g>
						<path style="fill:none;" d="M155.958,234.023"/>
					</g>
				</g>
				<g>
					<g>
						<g>
							<path style="fill:#F6DFD7;" d="M149.483,175.198c-3.903,0.864-9.121,1.296-10.421,4.518
								c-1.758,4.357-3.938,13.609-4.904,18.186c-2.988,14.149-4.294,27.254-5.445,39.272c-0.325,3.397-0.77,11.698,4.321,11.558
								c4.507-0.124,4.965-4.771,6.279-8.195c3.287-8.572,3.189-10.488,4.226-19.662C146.68,193.08,152.633,183.477,149.483,175.198
								z"/>
						</g>
					</g>
				</g>
				<g>
					<g>
						<path style="fill:#E5B85E;" d="M153.587,170.206c-1.889-1.017-4.494-0.965-6.516-0.211c-3.539,1.319-5.912,4.202-7.918,7.286
							c-0.371,0.579-4.08,8.834-3.758,9.032c5.785,3.558,12.001,5.503,16.739,6.079c3.313-4.128,4.501-12.813,3.905-18.448
							C155.839,172.112,154.884,170.906,153.587,170.206z"/>
					</g>
				</g>
			</g>
			<g>
				<g>
					<g>
						<g>
							<path style="fill:#3F2C26;" d="M137.08,418.053c-6.92-5.098-12.139-13.279-15.435-21.473l-3.719,3.662
								c0,0,14.633,26.252,21.881,28.209C139.806,428.452,141.826,428.485,137.08,418.053z"/>
						</g>
						<g>
							<path style="fill:#F9DBCD;" d="M151.406,378.143c0.936,0.762,2.063,1.811,3.205,2.773
								c-12.965,11.443-21.781,19.959-21.479,21.728c0.51,3.02,2.602,10.141,3.947,15.408c-6.92-5.098-12.139-13.279-15.435-21.473
								l1.281-1.268c5.008-5.158,14.016-14.715,23.166-24.221C147.47,373.688,149.197,376.102,151.406,378.143z"/>
						</g>
					</g>
					<g>
						<path style="fill:#6C95B7;" d="M146.113,389.776c16.693-13.877,49.938-52.928,53.822-129.756h-29.262
							c0.094,9.549-2.563,41.746-2.83,49c-0.195,5.281-10.055,29.361-11.885,34.264c-5.176,13.883-13.875,28.289-18.953,34.4
							C136.978,377.721,143.074,387.094,146.113,389.776z"/>
					</g>
				</g>
				<g>
					<g>
						<path style="fill:#3F2C26;" d="M215.134,433.045c-7.881,3.434-17.578,3.846-26.322,2.59l1.309,5.057
							c0,0,30.049,0.5,35.375-4.789C225.496,435.903,226.537,434.17,215.134,433.045z"/>
					</g>
					<g>
						<path style="fill:#F9DBCD;" d="M187.787,400.641c1.123-0.428,2.6-0.877,4.006-1.385c3.398,16.955,6.348,28.853,8.033,29.478
							c2.867,1.074,10.074,2.838,15.309,4.311c-7.881,3.434-17.578,3.846-26.322,2.59l-0.451-1.748
							c-1.953-6.914-5.705-19.502-9.342-32.186C181.958,401.811,184.91,401.528,187.787,400.641z"/>
					</g>
					<g>
						<path style="fill:#6C95B7;" d="M195.193,411.051c-3.635-21.402-24.654-137.703-33.537-161.899l-21.086,11.292
							c-1.311,32.502,14.109,58.236,16.721,65.012c1.895,4.932,3.875,15.232,4.117,20.457c0.707,14.801,16.02,59.498,18.76,66.955
							C180.183,412.915,191.351,412.336,195.193,411.051z"/>
					</g>
				</g>
				<path style="fill:#6C95B7;" d="M142.974,283.909c-0.762-6.594-2.479-13.338-2.479-20.439c0-4.086,0.363-8.388,1.691-15.369
					c1.016-3.807,5.354-15.177,5.354-15.177c18.77,4.002,35.055,2.731,45.402-0.507c0,0,7.191,17.414,6.848,25.746
					c-0.053,1.328-0.254,18.824-1.521,18.643L142.974,283.909z"/>
				<path style="fill:#4F7F99;" d="M191.843,237.732c-3.281,1.725-6.871,2.908-10.533,3.621c-3.666,0.736-7.406,1.028-11.135,1.048
					c-7.457-0.022-14.883-1.138-21.986-3.24c7.35,0.921,14.658,1.742,21.984,1.716c3.662,0.012,7.316-0.208,10.939-0.69
					C184.734,239.683,188.33,238.914,191.843,237.732z"/>
				<path style="fill:#4F7F99;" d="M175.707,241.915c0.631,4.797,1.156,9.599,0.891,14.493c-0.158,2.437-0.492,4.895-1.293,7.249
					c-0.781,2.332-2.098,4.613-4.08,6.055c1.523-1.9,2.391-4.109,2.938-6.387c0.535-2.283,0.791-4.635,0.918-7.007
					c0.154-2.367,0.166-4.76,0.225-7.166C175.353,246.754,175.398,244.328,175.707,241.915z"/>
				<path style="fill:#4F7F99;" d="M173.314,242.515c-0.412,6.748-0.217,13.458-0.852,20.242c-0.166,1.688-0.391,3.391-0.678,5.055
					c-0.266,1.621-0.412,3.293-0.551,4.955c-0.229,3.336-0.314,6.721-0.607,10.096c-0.299-3.371-0.609-6.736-0.578-10.142
					c0-1.709,0.117-3.402,0.313-5.125c0.242-1.664,0.445-3.313,0.59-4.983c0.336-3.332,0.521-6.692,0.838-10.059
					C172.08,249.19,172.521,245.807,173.314,242.515z"/>
				<path style="fill:#4F7F99;" d="M178.826,276.653c-0.371,0.83-0.951,1.518-1.58,2.125c-0.627,0.619-1.338,1.135-2.088,1.582
					c-0.754,0.438-1.547,0.809-2.381,1.064c-0.83,0.268-1.693,0.449-2.598,0.445c0.686-0.59,1.387-1.066,2.092-1.52
					c0.699-0.459,1.406-0.887,2.115-1.303C175.816,278.215,177.216,277.418,178.826,276.653z"/>
				<path style="fill:#4F7F99;" d="M153.292,241.02c-0.014,1.504-0.34,2.997-0.857,4.417c-0.51,1.427-1.24,2.771-2.117,4.018
					c-0.895,1.229-1.941,2.359-3.158,3.279c-1.207,0.925-2.568,1.659-4.027,2.034c1.17-0.941,2.246-1.895,3.24-2.923
					c0.979-1.034,1.895-2.116,2.711-3.276C150.755,246.263,152.06,243.743,153.292,241.02z"/>
				<path style="fill:#4F7F99;" d="M198.218,252.063c-0.717,0.298-1.564,0.183-2.309-0.017c-0.752-0.221-1.469-0.55-2.131-0.953
					c-1.334-0.801-2.479-1.869-3.465-3.058c-0.963-1.206-1.771-2.545-2.293-4.003c-0.541-1.439-0.801-2.995-0.66-4.508
					c0.492,1.434,1.045,2.766,1.742,4.022c0.695,1.247,1.486,2.434,2.393,3.53c0.883,1.111,1.883,2.132,2.967,3.048
					c0.551,0.45,1.117,0.882,1.733,1.235C196.81,251.72,197.457,252.021,198.218,252.063z"/>
				<path style="fill:#4F7F99;" d="M183.98,350.282l-1.93-8.365l-1.867-8.377c-1.254-5.582-2.406-11.184-3.564-16.785
					c-1.125-5.609-2.254-11.217-3.27-16.85l-1.523-8.445c-0.453-2.828-0.961-5.643-1.375-8.48c0.754,2.764,1.404,5.553,2.107,8.33
					l1.939,8.361c1.285,5.576,2.453,11.176,3.609,16.781c1.123,5.609,2.236,11.221,3.221,16.863l1.449,8.461
					C183.195,344.608,183.669,347.434,183.98,350.282z"/>
				<path style="fill:#4F7F99;" d="M168.472,376.969c-0.838-2.33-1.385-4.746-1.996-7.135c-0.322-1.193-0.543-2.42-0.936-3.578
					l-1.08-3.545c-0.705-2.365-1.373-4.771-1.846-7.213c-0.488-2.447-0.865-4.896-1.188-7.348c-0.348-2.453-0.607-4.904-0.93-7.344
					c-0.332-2.441-0.564-4.895-1.146-7.23c-1.184-4.723-2.982-9.34-4.74-13.961c2.318,4.367,4.516,8.828,5.928,13.647
					c0.365,1.199,0.617,2.455,0.828,3.672c0.203,1.225,0.42,2.449,0.584,3.674c0.342,2.455,0.664,4.902,0.961,7.348
					c0.311,2.445,0.631,4.881,1.012,7.297c0.389,2.424,0.91,4.81,1.441,7.225C166.476,367.295,167.212,372.204,168.472,376.969z"/>
			</g>
			<g>
				<g>
					<path style="fill:#8E5346;" d="M183.902,142.16c0.006,0.031,0.002,0.064,0.006,0.102c0.014,0.046,0.021,0.088,0.025,0.145
						L183.902,142.16z"/>
				</g>
			</g>
		</g>
		<g>
			<path style="opacity:0.3;fill:#A7C4C9;" d="M225.865,436.198c0,6.129,33.285,11.096,74.35,11.096
				c41.063,0,74.35-4.967,74.35-11.096c0-6.127-33.287-11.098-74.35-11.098C259.15,425.1,225.865,430.071,225.865,436.198z"/>
			<g>
				<g>
					<g>
						<g>
							<g>
								<g>
									<path style="fill:#D7ECF9;" d="M280.987,189.937"/>
								</g>
							</g>
						</g>
						<g>
							<g>
								<g>
									<path style="fill:#D7ECF9;" d="M252.579,214.39"/>
								</g>
							</g>
						</g>
					</g>
				</g>
				<g>
					<g>
						<g>
							<polygon style="fill:#BF7E6F;" points="233.42,419.786 233.67,415.254 238.545,399.672 248.284,405.351 241.842,425.401 
															"/>
							<g>
								<g>
									<g>
										<path style="fill:#983300;" d="M239.446,419.108c0,0,3.221-7.869,6.085-8.62c2.868-0.749,2.372,2.966,2.372,2.966
											c-0.737,3.035-0.962,4.96-0.554,5.482c0.122,0.157,0.294,0.357,0.492,0.586c1.88,2.149,6.988,7.338,11.504,11.563
											c-2.5,0.446-4.332,1.856-5.275,3.965c-2.604-0.928-5.004-2.045-7.422-3.401c-2.729-1.431-5.63-2.77-8.346-4.198
											c-2.348-1.343-4.547-3.17-6.822-4.753l0.914-3.005l0.53-1.742c0.079-0.292,0.382-1.385,0.745-2.695
											C233.67,415.254,236.188,417.654,239.446,419.108z"/>
									</g>
									<g>
										<g>
											<path style="fill:#EFF9FF;" d="M266.003,436.826c-0.122-0.105-0.257-0.204-0.403-0.317
												c-1.467-1.065-3.77-3.092-6.254-5.424c-2.5,0.446-4.332,1.856-5.275,3.965c0.568,0.198,1.14,0.399,1.733,0.577
												C259.255,436.678,262.605,436.848,266.003,436.826z"/>
										</g>
									</g>
									<g>
										<g>
											<path style="fill:#BABABA;" d="M266.003,436.826c-3.398,0.022-6.747-0.148-10.199-1.199
												c-3.301-1.004-6.21-2.337-9.154-3.978c-2.729-1.431-5.63-2.77-8.346-4.198c-2.348-1.343-4.547-3.17-6.822-4.753
												l-0.613,2.017c0,0,28.107,16.611,35.449,14.86C266.317,439.574,267.903,438.465,266.003,436.826z"/>
										</g>
									</g>
								</g>
								<g>
									<path style="fill:#EFF9FF;" d="M243.641,422.995c0.207,0.063,0.439,0.024,0.615-0.124c2.02-1.691,3.525-1.683,5.448-1.1
										c0.35,0.107,0.72-0.091,0.824-0.439c0.104-0.349-0.091-0.717-0.44-0.823c-1.932-0.588-4.08-0.832-6.677,1.348
										c-0.28,0.235-0.318,0.651-0.083,0.93C243.415,422.888,243.526,422.957,243.641,422.995z"/>
								</g>
								<g>
									<path style="fill:#EFF9FF;" d="M245.732,425.477c0.208,0.061,0.44,0.024,0.616-0.124c2.016-1.691,3.522-1.686,5.444-1.1
										c0.35,0.107,0.718-0.089,0.824-0.439c0.104-0.349-0.094-0.717-0.44-0.821c-1.932-0.588-4.078-0.832-6.676,1.344
										c-0.281,0.235-0.318,0.655-0.084,0.932C245.503,425.371,245.611,425.442,245.732,425.477z"/>
								</g>
								<g>
									<path style="fill:#EFF9FF;" d="M248.301,427.793c0.212,0.064,0.443,0.022,0.621-0.128c2.012-1.688,3.518-1.684,5.439-1.093
										c0.35,0.104,0.721-0.092,0.828-0.444c0.104-0.349-0.09-0.717-0.439-0.821c-1.936-0.59-4.084-0.834-6.678,1.348
										c-0.283,0.233-0.318,0.649-0.079,0.93C248.073,427.687,248.184,427.757,248.301,427.793z"/>
								</g>
							</g>
						</g>
						<g>
							<path style="fill:#BAD7E8;" d="M272.243,272.432c-1.9,9.35-4.592,67.726-5.731,70.881
								c-1.236,3.43-27.906,50.424-34.213,69.224c0,0,3.46,6.507,15.893,6.121c0,0,28.322-45.775,31.677-50.466
								c43.061-60.196,38.403-122.856,38.403-122.856l-21.315-15.074C290.708,238.479,275.851,254.718,272.243,272.432z"/>
						</g>
						<path style="fill:#97B5C4;" d="M312.013,249.568c-0.606,1.228-0.502,2.655-0.408,3.953c0.139,1.321,0.325,2.593,0.699,3.913
							c0.401,1.286,0.949,2.527,1.7,3.649c0.738,1.114,1.69,2.157,2.892,2.752c-0.845-1.02-1.461-2.116-2.001-3.258
							c-0.523-1.143-0.98-2.318-1.33-3.519c-0.364-1.178-0.62-2.474-0.953-3.706C312.338,252.103,311.951,250.877,312.013,249.568z"
							/>
					</g>
					<g>
						<g>
							<polygon style="fill:#BF7E6F;" points="306.053,434.074 303.757,430.161 299.216,414.477 310.476,413.835 316.168,434.109 
															"/>
							<g>
								<g>
									<g>
										<path style="fill:#983300;" d="M310.7,430.187c0,0-1.661-8.342,0.317-10.55c1.976-2.21,3.612,1.163,3.612,1.163
											c1.063,2.94,1.936,4.668,2.569,4.88c0.188,0.06,0.443,0.135,0.73,0.213c2.757,0.758,9.88,2.263,15.979,3.295
											c-1.842,1.748-2.593,3.937-2.209,6.214c-2.688,0.666-5.306,1.059-8.069,1.261c-3.067,0.314-6.223,0.799-9.274,1.107
											c-2.701,0.178-5.544-0.131-8.314-0.2l-0.897-3.008l-0.522-1.744c-0.09-0.287-0.444-1.369-0.862-2.656
											C303.757,430.161,307.178,430.766,310.7,430.187z"/>
									</g>
									<g>
										<g>
											<path style="fill:#EFF9FF;" d="M342.624,430.293c-0.16-0.013-0.329-0.026-0.51-0.039
												c-1.814-0.076-4.852-0.494-8.208-1.066c-1.842,1.748-2.593,3.937-2.209,6.214c0.582-0.15,1.167-0.296,1.76-0.471
												C336.92,433.899,339.798,432.192,342.624,430.293z"/>
										</g>
									</g>
									<g>
										<g>
											<path style="fill:#BABABA;" d="M342.624,430.293c-2.826,1.898-5.704,3.605-9.167,4.638
												c-3.308,0.98-6.463,1.477-9.829,1.731c-3.067,0.314-6.223,0.799-9.274,1.107c-2.701,0.178-5.544-0.131-8.314-0.2
												l0.602,2.022c0,0,32.609-1.661,37.763-7.173C344.404,432.418,345.114,430.616,342.624,430.293z"/>
										</g>
									</g>
								</g>
								<g>
									<path style="fill:#EFF9FF;" d="M316.345,431.108c0.204-0.059,0.378-0.225,0.447-0.444c0.745-2.522,2.006-3.347,3.931-3.921
										c0.353-0.104,0.551-0.471,0.447-0.823c-0.108-0.349-0.475-0.549-0.821-0.444c-1.939,0.577-3.861,1.561-4.828,4.813
										c-0.104,0.35,0.097,0.718,0.447,0.822C316.096,431.147,316.224,431.143,316.345,431.108z"/>
								</g>
								<g>
									<path style="fill:#EFF9FF;" d="M319.458,432.027c0.205-0.065,0.378-0.225,0.443-0.446c0.745-2.52,2.009-3.347,3.932-3.92
										c0.353-0.107,0.55-0.47,0.446-0.822c-0.103-0.351-0.472-0.549-0.821-0.444c-1.936,0.577-3.861,1.559-4.824,4.81
										c-0.102,0.349,0.098,0.719,0.443,0.823C319.21,432.064,319.338,432.062,319.458,432.027z"/>
								</g>
								<g>
									<path style="fill:#EFF9FF;" d="M322.88,432.534c0.208-0.059,0.381-0.224,0.443-0.443c0.748-2.521,2.009-3.345,3.935-3.918
										c0.353-0.107,0.55-0.472,0.446-0.825c-0.107-0.348-0.475-0.544-0.824-0.441c-1.936,0.574-3.861,1.557-4.82,4.808
										c-0.108,0.351,0.097,0.721,0.442,0.82C322.631,432.571,322.76,432.571,322.88,432.534z"/>
								</g>
							</g>
						</g>
						<g>
							<g>
								<path style="fill:#BAD7E8;" d="M261.461,285.061c3.925,8.646,21.472,58.309,22.4,61.537
									c1.004,3.511,15.032,76.789,18.479,87.304c0,0,7.411-8.418,18.046-8.915c0,0-10.456-72.028-11.501-77.767
									c-1.039-5.735-16.911-96.497-16.911-96.497l-34.642-12.041C256.523,254.534,254.03,268.686,261.461,285.061z"/>
							</g>
							<g>
								<path style="fill:#97B5C4;" d="M320.387,424.987c-1.568-12.445-3.28-24.872-5.011-37.301l-5.352-37.253
									c-0.256-1.551-0.404-3.092-0.786-4.66l-1.069-4.585l-2.15-9.156l-4.152-18.338c-1.365-6.114-2.656-12.25-3.855-18.401
									c-1.235-6.143-2.344-12.314-3.331-18.508c1.436,12.468,3.706,24.824,6.199,37.12c1.223,6.153,2.601,12.274,3.973,18.395
									l2.095,9.176l1.035,4.574c0.36,1.485,0.503,3.077,0.752,4.616l5.651,37.184C316.321,400.237,318.282,412.62,320.387,424.987
									z"/>
								<path style="fill:#97B5C4;" d="M264.402,292.342c3.886,11.616,7.903,23.174,11.941,34.721
									c1.994,5.781,4.079,11.536,6.122,17.302c0.983,2.904,2.224,5.702,2.657,8.712l1.741,9.012
									c2.379,12.013,4.672,24.039,7.155,36.029c2.563,11.972,4.859,24.026,8.322,35.784c-1.548-5.921-2.678-11.938-3.865-17.946
									l-3.468-18.031l-6.856-36.086l-1.801-9.011c-0.467-3.081-1.745-5.925-2.742-8.799c-2.099-5.759-4.16-11.531-6.307-17.268
									C273.059,315.259,268.796,303.773,264.402,292.342z"/>
							</g>
							<path style="fill:#97B5C4;" d="M305.322,273.098c-2.648,0.224-5.167,1.004-7.611,1.875c-2.435,0.916-4.808,1.934-7.116,3.222
								c2.635-0.3,5.132-1.114,7.569-1.989C300.595,275.291,302.97,274.315,305.322,273.098z"/>
							<path style="fill:#97B5C4;" d="M298.611,250.389c-0.43,4.003-0.322,7.989-0.336,11.948c0.02,0.993,0.003,1.979-0.015,2.959
								c-0.013,0.49-0.023,0.976-0.068,1.445c-0.011,0.246-0.066,0.442-0.09,0.669c-0.07,0.349-0.053,0.575-0.083,0.801
								c-0.059,0.896-0.475,1.651-1.302,2.082c-0.794,0.483-1.811,0.601-2.803,0.728c0.991,0.165,2.032,0.209,3.064-0.142
								c0.513-0.17,1.009-0.501,1.379-0.952c0.377-0.455,0.574-1.029,0.676-1.563c0.056-0.262,0.083-0.538,0.135-0.676
								c0.059-0.261,0.139-0.549,0.166-0.799c0.08-0.521,0.122-1.027,0.166-1.535c0.059-1.01,0.084-2.019,0.087-3.02
								c-0.024-2.004-0.107-4-0.277-5.992C299.166,254.353,298.891,252.374,298.611,250.389z"/>
							<path style="fill:#97B5C4;" d="M292.433,250.829c-0.479,4.519-0.232,9.052,0.142,13.542c0.214,2.247,0.471,4.49,0.835,6.72
								c0.35,2.228,0.789,4.457,1.458,6.626l-0.44-6.746c-0.155-2.242-0.353-4.479-0.543-6.719
								C293.468,259.774,292.987,255.322,292.433,250.829z"/>
							<path style="fill:#97B5C4;" d="M274.466,251.494c-0.056,1.748-0.142,3.469-0.276,5.167c-0.157,1.696-0.379,3.382-0.815,4.984
								c-0.42,1.601-1.06,3.142-2.095,4.367c-1.03,1.237-2.592,1.979-4.327,2.239c1.712,0.266,3.706-0.184,5.057-1.521
								c1.382-1.28,2.162-3.026,2.632-4.751C275.519,258.486,275.352,254.871,274.466,251.494z"/>
						</g>
					</g>
					<g>
						<g>
							<g>
								<g>
									<g>
										<g>
											<path style="fill:#C1C1C1;" d="M256.731,242.561v6.345c0,0,40.852,3.754,62.035-2.267v-7.15
												C318.766,239.489,293.818,246.666,256.731,242.561z"/>
										</g>
									</g>
								</g>
								<g>
									<g>
										<g>
											<path style="fill:#3F4356;" d="M268.602,252.21c-0.076-0.338,0-10.555,0-10.555l2.428,1.818v9.584L268.602,252.21z"/>
										</g>
									</g>
								</g>
								<g>
									<g>
										<g>
											<polyline style="fill:#3F4356;" points="308.886,252.21 308.886,241.656 311.851,241.656 311.851,253.057 
												309.479,253.057 											"/>
										</g>
									</g>
								</g>
							</g>
						</g>
					</g>
				</g>
				<g>
					<g>
						<g>
							<path style="fill:#BF7E6F;" d="M328.968,170.11c2.985,6.533,12.935,31.754,10.508,34.556
								c-3.363,3.733-10.618,3.064-13.79-0.295c-3.363-3.361-7.734-21.753-10.535-31.459c-0.37-0.933-0.558-2.055-0.741-2.988
								L328.968,170.11z"/>
						</g>
						<path style="fill:#BF7E6F;" d="M375.382,150.393c4.35-3.801,8.231-8.227,13.087-11.425c0.605-0.4,1.285-0.82,2.004-0.705
							c1.379,0.229,1.681,2.05,1.653,3.447c-0.079,3.545-0.163,7.134-1.113,10.549c-1.408,5.053-4.871,9.19-8.674,12.654
							c-2.83,2.58-8.03,7.609-12.347,5.704l-0.186-0.083c-4.616,4.886-9.194,11.539-14.871,18.002l-15.938,16.626
							c-6.237,3.499-16.879,2.267-13.472-6.826c1.223-3.268,7.903-9.682,14.263-14.468c3.975-2.932,14.545-11.681,18.624-14.344
							c2.137-1.293,5.185-2.625,6.358-4.785c0.082-0.192,0.146-0.384,0.211-0.571c-1.884-5.439,1.178-11.167,4.211-16.088
							c0.779-1.111,5.763-10.429,7.301-6.98c0.939,2.164-3.519,8.649-4.264,10.658c0.032,0.013,0.05,0.028,0.083,0.042
							c0.198,0.088,2.868-3.048,3.155-3.289c1.084-0.9,2.342-1.286,3.509-2.048c0.591-0.384,1.171-0.8,1.734-1.236"/>
						<g>
							<g>
								<rect x="373.038" y="169.402" style="fill:#C4B59B;" width="14.403" height="2.462"/>
								<polygon style="fill:#EFE9DA;" points="371.673,170.252 388.805,170.252 391.801,134.598 368.677,134.598 								"/>
								<g>
									<polygon style="fill:#50A072;" points="392.347,141.529 391.184,155.351 369.294,155.351 368.13,141.529 									"/>
								</g>
								<polygon style="fill:#EFE9DA;" points="368.677,133.048 391.801,133.048 390.003,128.305 370.471,128.305 								"/>
								<rect x="366.932" y="132.142" style="fill:#F9F9F7;" width="26.61" height="3.489"/>
							</g>
							<g>
								<g>
									<g>
										<path style="fill:#BF7E6F;" d="M391.532,156.325c0.558,1.524,0.194,3.053-1.376,4.028
											c-1.018,0.675-2.667,0.823-3.428-0.272c-1.425-1.946,1.975-2.919,3.534-3.145L391.532,156.325z"/>
										<g>
											<path style="fill:#8E5346;" d="M391.823,156.42c0.629,1.962-0.237,3.742-2.19,4.464c-1.049,0.392-2.534,0.137-3.18-0.859
												c-0.871-1.345,0.245-2.201,1.455-2.7c0.62-0.258,1.281-0.41,1.936-0.531c0.495-0.085,0.976-0.414,1.424-0.628
												c0.177-0.085,0.669,0.249,0.528,0.315c-0.475,0.232-0.979,0.577-1.508,0.658c-1.028,0.163-2.082,0.487-2.943,1.079
												c-0.457,0.311-0.707,0.751-0.642,1.302c0.184,1.519,2.017,1.26,2.947,0.82c1.639-0.779,2.113-2.491,1.594-4.114
												C391.195,156.083,391.763,156.235,391.823,156.42z"/>
										</g>
									</g>
									<g>
										<path style="fill:#BF7E6F;" d="M392.318,152.654c-0.765-1.093-5.899,1.782-4.871,4.014
											c1.023,2.065,9.123-0.165,5.997-3.536L392.318,152.654z"/>
										<path style="fill:#8E5346;" d="M393.476,153.054l0.022,0.003l0.011,0.016c0.218,0.296,0.53,0.533,0.648,0.915
											c0.085,0.175,0.161,0.355,0.151,0.561c0.016,0.203,0.035,0.405-0.049,0.595c-0.082,0.399-0.326,0.736-0.59,1.013
											c-0.262,0.293-0.58,0.507-0.899,0.714c-0.664,0.363-1.371,0.626-2.105,0.779c-0.374,0.052-0.745,0.122-1.129,0.116
											c-0.377,0.023-0.769-0.02-1.153-0.121c-0.196-0.061-0.384-0.09-0.596-0.241l-0.298-0.199
											c-0.065-0.075-0.114-0.144-0.173-0.215c-0.312-0.403-0.307-0.834-0.263-1.257c0.18-0.83,0.719-1.431,1.277-1.912
											c0.573-0.482,1.207-0.873,1.893-1.151c0.347-0.127,0.698-0.246,1.068-0.286c0.34-0.054,0.814-0.055,1.026,0.268
											C392.707,152.78,393.092,152.912,393.476,153.054z M391.32,152.542c-0.34,0.076-0.665,0.232-0.977,0.395
											c-0.624,0.329-1.205,0.738-1.7,1.225c-0.481,0.486-0.912,1.065-1.02,1.665c-0.023,0.279,0.021,0.629,0.174,0.79
											c0.06,0.067,0.11,0.145,0.171,0.204c0.057,0.021,0.117,0.048,0.168,0.074c0.082,0.069,0.255,0.106,0.405,0.148
											c0.307,0.078,0.647,0.114,0.984,0.098c0.343,0.009,0.682-0.05,1.024-0.092c0.676-0.142,1.345-0.339,1.957-0.651
											c0.288-0.182,0.593-0.341,0.827-0.573c0.243-0.22,0.464-0.485,0.549-0.786c0.082-0.147,0.073-0.308,0.073-0.468
											c0.029-0.163-0.029-0.318-0.085-0.478c-0.059-0.334-0.319-0.594-0.492-0.898l0.028,0.018
											c-0.367-0.181-0.729-0.366-1.09-0.558C392.042,152.37,391.652,152.465,391.32,152.542z"/>
									</g>
									<g>
										<path style="fill:#BF7E6F;" d="M388.791,148.391c1.685-1.824,4.475-3.045,5.878-1.143
											c2.323,3.153-3.595,7.102-6.345,5.522C386.743,151.864,387.382,149.917,388.791,148.391z"/>
										<g>
											<path style="fill:#8E5346;" d="M388.511,148.263c1.305-1.329,3.968-3.105,5.81-1.597c1.79,1.46,1.23,3.498-0.268,4.933
												c-1.255,1.197-3.537,2.152-5.271,1.508C386.308,152.19,387.108,149.875,388.511,148.263
												c0.117-0.134,0.688,0.109,0.557,0.259c-1.157,1.33-2.592,4.452,0.707,4.445c1.375,0,2.713-0.765,3.723-1.631
												c0.973-0.835,1.603-2.046,1.292-3.33c-0.776-3.2-4.483-0.746-5.722,0.516
												C388.943,148.649,388.379,148.399,388.511,148.263z"/>
										</g>
									</g>
									<g>
										<path style="fill:#BF7E6F;" d="M388.445,142.644c0.729-2.521,4.1-5.558,5.594-2.655c1.493,2.904-3.316,7.714-5.466,4.542
											C388.245,144.043,388.237,143.368,388.445,142.644z"/>
										<g>
											<path style="fill:#8E5346;" d="M388.182,142.471c0.572-1.763,2.267-4.092,4.373-3.838
												c1.58,0.193,2.293,2.224,1.926,3.564c-0.478,1.73-1.964,3.45-3.847,3.579c-1.81,0.124-2.835-1.714-2.463-3.272
												c0.049-0.199,0.587,0.116,0.548,0.282c-0.255,1.057-0.129,2.265,1.173,2.559c0.607,0.137,1.249-0.142,1.77-0.43
												c1.069-0.587,1.847-1.702,2.23-2.838c0.217-0.645,0.2-1.341-0.021-1.979c-0.457-1.306-1.606-1.21-2.564-0.691
												c-1.25,0.681-2.169,2.092-2.597,3.412C388.664,142.954,388.119,142.665,388.182,142.471z"/>
										</g>
									</g>
								</g>
								<path style="fill:#BF7E6F;" d="M367.486,146.204c-0.586,2.135-1.552,4.052-1.946,6.271
									c-0.575,3.242-4.253,16.786,3.864,9.07c0.004-0.003,1.157-2.563,1.192-2.834c0.121-0.941-0.204-2.116-0.254-3.079
									c-0.114-2.23-0.059-4.498,0.604-6.649c0.52-1.693,1.434-3.328,1.558-5.12c0.094-1.361,0.534-3.624-0.426-4.747
									c-0.602-0.707-1.642-0.832-2.569-0.804C367.714,138.367,367.763,145.191,367.486,146.204z"/>
							</g>
						</g>
					</g>
					<g>
						<path style="fill:#726F1F;" d="M312.907,177.191c13.354,0,21.648-6.067,21.648-6.067c-1.012-2.227-3.034-7.485-4.045-9.712
							c-1.621-4.45-3.239-9.508-6.275-13.149c-2.022-2.429-7.902-6.471-10.938-7.48c-2.631-0.606-2.818,2.018-5.447,1.41
							L312.907,177.191z"/>
					</g>
					<path style="fill:#989633;" d="M250.622,244.948c0,0,3.615-22.439,3.615-26.487c0-13.35-1.423-24.404-3.445-37.553
						c-1.417-10.722-15.899-37.374,10.569-45.276c8.326-2.487,22.009-8.007,30.909-4.769c4.249,1.416,7.487,4.651,11.732,6.27
						c4.25,1.416,8.298,3.035,12.143,5.058c4.853,2.428,0.2,18.41,0,23.873c-0.606,10.317,0.401,20.84,1.413,31.158
						c0.81,8.698,0.203,17.801,1.824,26.503c0.807,4.45,0.066,15.181,2.774,19.072c3.234,4.653,3.234,4.653,3.234,4.653
						c-1.616,2.023-4.855,4.248-6.877,5.871c-2.023,1.615-9.712,3.843-9.712,3.843s-12.211-7.595-14.639-13.058
						c-3.033,5.463-16.113,14.069-16.113,14.069C264.496,256.356,250.622,244.948,250.622,244.948z"/>
					<g>
						<path style="opacity:0.7;fill:#726F1F;" d="M311.851,186.542c0,1.104-0.896,2-2,2h-9.893c-1.105,0-2-0.896-2-2v-15.996
							c0-1.104,0.895-2,2-2h9.893c1.104,0,2,0.896,2,2V186.542z"/>
						<path style="opacity:0.7;fill:#726F1F;" d="M281.869,186.542c0,1.104-1.115,2-2.49,2h-12.314c-1.377,0-2.49-0.896-2.49-2
							v-15.996c0-1.104,1.113-2,2.49-2h12.314c1.375,0,2.49,0.896,2.49,2V186.542z"/>
						<g>
							<path style="fill:#726F1F;" d="M293.932,243.087c0.957-3.261,1.243-6.665,1.089-10.03c-0.125-3.371-0.635-6.717-1.289-10.031
								c-0.668-3.313-1.416-6.616-2.137-9.935c-0.693-3.317-1.415-6.673-1.62-10.104c-0.372-6.818,0.057-13.605-0.039-20.361
								c-0.075-1.692,0.02-3.423,0.103-5.106c0.086-1.694,0.175-3.385,0.224-5.076c0.058-1.69,0.077-3.382-0.033-5.067
								c-0.123-1.679-0.337-3.374-0.963-4.955c0.727,1.54,1.037,3.246,1.227,4.932c0.186,1.694,0.242,3.397,0.259,5.097
								c0.034,3.399-0.252,6.796-0.049,10.155c0.255,6.804-0.18,13.589,0.268,20.322c0.169,3.347,0.849,6.658,1.512,9.977
								c0.675,3.317,1.447,6.626,2.001,9.984c0.566,3.353,0.999,6.746,1.023,10.159
								C295.501,236.449,295.106,239.893,293.932,243.087z"/>
						</g>
						<path style="fill:#726F1F;" d="M288.287,166.112c0,0.686-0.407,1.242-0.91,1.242s-0.91-0.556-0.91-1.242
							c0-0.686,0.407-1.241,0.91-1.241S288.287,165.427,288.287,166.112z"/>
						<path style="fill:#726F1F;" d="M288.287,197.112c0,0.686-0.407,1.242-0.91,1.242s-0.91-0.556-0.91-1.242
							c0-0.686,0.407-1.241,0.91-1.241S288.287,196.427,288.287,197.112z"/>
						<path style="fill:#726F1F;" d="M288.287,228.112c0,0.686-0.407,1.242-0.91,1.242s-0.91-0.556-0.91-1.242
							c0-0.686,0.407-1.241,0.91-1.241S288.287,227.427,288.287,228.112z"/>
					</g>
					<g>
						<g>
							<path style="fill:#BF7E6F;" d="M234.473,249.697c-2.938-13.463-5.835-53.031-2.762-58.808
								c1.134-2.121,7.658-25.064,13.333-36.427c2.899-6.032,6.565-15.716,14.322-14.327l1.682,16.021
								c-5.612,11.007-13.636,33.155-16.175,43.256c-1.417,5.9-4.289,29.838-2.586,47.976c0.311,1.154,0.731,2.334,1.333,3.56
								c0.896,1.823,2.612,7.68,3,9.79c0.862,4.678-1.002-0.727-2.648,0.833c-1.232,1.167-1.159,4.909-1.078,6.342
								c0.021,0.394,0.384,1.372,1.335,1.784c0.915,0.399,1.907,0.497,2.294,1.081c1.214,1.83-3.434,1.428-4.317,1.355
								c-0.569-0.046-0.931,0.115-1.629,0c-0.245-0.039-1.267-0.615-1.553-0.697c-1.593-0.465-2.722-0.12-4.112-1.708
								c-3.034-3.463-3.077-6.628-2.751-11.017C232.315,256.629,233.842,253.381,234.473,249.697z"/>
						</g>
						<g>
							<path style="fill:#AFAB45;" d="M247.733,144.837c2.224-2.698,3.636-5.351,7.452-5.864c16.375-2.197,3.789,35.42-0.253,40.614
								c0,0-12.737,1.995-19.77-9.663C235.163,169.923,243.855,149.549,247.733,144.837z"/>
						</g>
					</g>
					<path style="fill:#726F1F;" d="M288.187,162.131c-3.377-2.871-8.353-3.683-12.371-5.821c1.718-1.143,3.627-3.193,4.741-4.513
						c2.085-2.649-1.257-2.634-3.228-2.715c-4.854-0.197-10.032,0.199-14.87-0.301c1.385-4.194,3.089-8.684,4.03-13.2
						c0.36-1.352-0.11-4.711,0.986-5.579c0.946-0.873,4.743-0.869,5.969-1.122c7.951-1.348,15.161,0.618,22.842,2.146
						c1.809,0.378,3.779,0.458,5.58,0.988c0.748,0.332,1.945,0.687,2.687,1.17c1.175,0.96,1.022,0.954,0.953,2.622
						c-0.042,4.857,1.152,9.007,2.636,13.622c-3.956,0.144-7.993-1.389-11.81-0.786c-0.527,1.65,4.183,5.333,5.534,5.695
						L288.187,162.131z"/>
				</g>
				<g>
					<path style="fill:#3F1919;" d="M302.498,81.576c6.06,0.206,22.754-2.132,17.798-13.54c-2.092-5.071-7.941-4.619-12.029-3.597
						c-2.57,0.653-4.985,1.568-7.518,2.494c-3.31,1.458-5.147,3.111-7.674,5.968L302.498,81.576z"/>
					<g>
						<path style="fill:#705754;" d="M281.008,122.55c-7.368-2.377-14.093-9.191-17.46-16.006
							c-4.966-9.822-8.054-25.292-2.923-35.275c6.085-11.414,23.492-12.767,34.892-8.288c9.974,3.922,10.236,14.052,10.236,22.133
							c0,6.024-2.002,7.963-2.802,13.824L281.008,122.55z"/>
						<path style="fill:#BF7E6F;" d="M268.669,100.811c0.035-0.043,0.059-0.09,0.092-0.133c-0.031-0.491-0.063-0.982-0.095-1.463
							c-0.093-1.456-0.653-12.674-0.93-16.815c-0.165-2.405-0.948-5.261,0.258-7.503c1.287-2.395,4.927-0.118,6.86,0.567
							c6.912,2.452,14.798,1.974,21.768-0.004c1.824-0.518,3.845-1.293,5.68-0.281c1.497,0.827,2.309,2.362,2.695,3.976
							c0.564,0.201,0.745,0.925,0.772,2.867c0.038,3.018-0.531,6.018-0.283,9.043c0.439,5.335,0.748,12.469,0.065,17.974
							c-0.316,2.347,0.016,5.142-1.108,6.968c-0.004,0.007,0.001-0.006,0.001-0.006c-2.038,4.857-6.639,7.871-12.329,7.948
							c0.017,1.196-0.089,0.957-0.326,2.787c-0.055,1.452,0.04,2.025,0.048,2.485c0.023,2.038,3.026,3.708,6.267,5.622
							l-9.708,23.761c0,0-12.044-23.708-14.167-25.308c3.142-0.752,4.829-1.367,5.768-2.571c0.459-2.407,0.075-5.506,0.103-7.344
							c-3.87-2.219-7.769-4.363-9.268-8.776c-0.286-0.847-0.519-1.72-0.725-2.603c-0.618-0.898-1.028-1.357-3.065-1.718
							c-3.071-0.579-5.828-1.886-6.852-5.311C257.967,97.54,264.873,94.747,268.669,100.811z"/>
						<g>
							<path style="fill:#BF7E6F;" d="M291.715,92.354c0,2.898,1.933,5.313,3.382,7.729c1.448,2.576,2.254,4.83-0.806,6.44
								c-2.254,0.966-4.347,1.288-6.44,0.161"/>
							<path style="fill:#8E5346;" d="M291.715,92.354c0.139,1.354,0.674,2.576,1.331,3.716c0.66,1.143,1.449,2.216,2.189,3.358
								c0.388,0.573,0.709,1.185,1.008,1.816c0.289,0.636,0.56,1.317,0.615,2.085c0.067,0.755-0.124,1.616-0.623,2.227
								c-0.486,0.616-1.116,1.021-1.746,1.345l-0.022,0.011l-0.009,0.004c-1.063,0.41-2.198,0.732-3.366,0.741
								c-1.164,0.012-2.324-0.328-3.243-0.973c0.522,0.206,1.055,0.36,1.594,0.435c0.54,0.077,1.082,0.051,1.612-0.01
								c1.063-0.142,2.083-0.517,3.065-0.979l-0.03,0.014c1.119-0.617,1.95-1.56,1.781-2.732c-0.121-1.164-0.788-2.377-1.421-3.502
								c-0.676-1.145-1.406-2.3-1.964-3.559C291.93,95.104,291.574,93.706,291.715,92.354z"/>
						</g>
					</g>
					<g>
						<g>
							<g>
								<g>
									<path style="fill:#3F1919;" d="M275.075,85.993c1.036-3.304,4.688-5.151,7.989-4.116L275.075,85.993z"/>
								</g>
							</g>
						</g>
						<g>
							<g>
								<g>
									<path style="fill:#3F1919;" d="M297.327,82.495c2.485-0.785,5.33,0.456,6.099,3.388L297.327,82.495z"/>
								</g>
							</g>
						</g>
						<g>
							<g>
								<g>
									<path style="fill:#FFFFFF;" d="M284.02,111.383c0,0,0.145,0.168,0.421,0.447c0.27,0.262,0.706,0.651,1.274,1.007
										c0.552,0.384,1.261,0.74,2.053,1.05c0.406,0.125,0.818,0.303,1.259,0.383c0.439,0.108,0.892,0.17,1.35,0.23
										c0.47,0.022,0.936,0.051,1.397,0.005c0.462-0.011,0.913-0.12,1.344-0.227c0.855-0.248,1.624-0.633,2.143-1.133
										c0.278-0.219,0.483-0.472,0.643-0.704c0.182-0.219,0.303-0.429,0.378-0.614c0.169-0.37,0.244-0.571,0.244-0.571
										L284.02,111.383z"/>
								</g>
							</g>
						</g>
						<g>
							<g>
								<g>
									<path d="M297.327,95.706c0,1.185,0.669,2.14,1.489,2.14c0.822,0,1.492-0.955,1.492-2.14c0-1.176-0.67-2.131-1.492-2.131
										C297.996,93.575,297.327,94.53,297.327,95.706z"/>
								</g>
							</g>
						</g>
						<g>
							<g>
								<g>
									<path d="M279.585,95.706c0,1.185,0.667,2.14,1.492,2.14s1.483-0.955,1.483-2.14c0-1.176-0.658-2.131-1.483-2.131
										S279.585,94.53,279.585,95.706z"/>
								</g>
							</g>
						</g>
						<path style="fill:#E8A07D;" d="M294.64,104.45l0.004,0.007l0.001,0.007C294.656,104.502,294.647,104.48,294.64,104.45z"/>
					</g>
					<g>
						<path style="fill:#3F1919;" d="M268.146,57.661c-1.324,0.651-4.517,1.447-2.518-1.187c0.579-0.904,2.983-2.297,4.104-1.858
							c2.112,0.77,0.171,2.096-1.057,2.619L268.146,57.661z"/>
						<path style="fill:#EFF9FF;" d="M262.892,60.523c1.609,2.412,2.907,4.886,3.914,7.658c0.842,2.301,1.523,4.697,1.951,7.154
							c0.138,0.794,3.267-3.233,3.243-0.269c0.938-0.257,4.401,1.229,4.688,0.845c8.101-11.196,11.561-6.76,24.016-7.81
							c0.176-0.6-2.376-2.827-2.652-3.268c-1.2-1.533-1.948-3.222-3.028-4.765c-1.909-2.869-2.555-5.976-6.149-6.813
							c-6.13-1.538-13.929,0.366-19.542,3.12C267.036,57.541,264.851,58.917,262.892,60.523"/>
						<path style="fill:#983300;" d="M268.329,75.419c0.94,0.277,4.264,1.349,5.292,1.614c2.41,0.469,5.352,0.134,7.772-0.015
							c5.464-0.399,11.418-3.425,16.332-6.018c4.138-2.27,9.452-5.554,14.069-6.237c3.192-0.479,4.689,0.145,7.601,1.683
							c-2.429-5.389-21.81-2.102-25.502-1.971c-4.5,0.152-10.496,1.039-15.223,2.994C271.904,70.266,268.329,75.419,268.329,75.419z
							"/>
						<g>
							<path style="fill:#3F1919;" d="M255.345,71.066c1.455-4.297,4.167-7.764,7.547-10.542c1.609,2.412,2.907,4.886,3.914,7.658
								c0.824,2.255,1.457,4.607,1.912,7.006c-5.467,3.313-9.702,6.45-11.264,7.644C255.845,79.106,254.037,74.671,255.345,71.066z"
								/>
						</g>
					</g>
				</g>
			</g>
		</g>
		<g>
			<g>
				<g>
					<path style="fill:#593E1B;" d="M358.928,431.747c-1.531-5.04-1.234-10.643-1.465-15.675
						c-0.152-8.071-0.551-15.959-0.279-23.952c0.742-12.041-0.456-24.197,1.342-36.061l-25.664,9.115
						c0.298,2.282,0.636,4.603,0.997,6.941c-0.77,2.758-2.461,5.228-4.255,7.679c1.264-0.896,2.118-1.031,3.112-1.97
						c-0.051,1.934-1.134,3.416-2.447,4.581c1.172-0.353,2.57-0.396,3.738-0.752c-0.274,1.62-0.503,2.968-0.73,4.316
						c1.234-0.25,2.317,0.364,3.285,1.376c3.388,16.796,8.15,33.979,13.98,49.064c1.643,4.407,6.683,6.649,11.65,6.84
						C369.094,443.552,359.942,434.743,358.928,431.747z"/>
				</g>
				<g>
					<path style="fill:#CFB493;" d="M230.126,326.23c-4.451-16.739,1.4-34.108,0.282-51.062
						c-0.931-14.065-5.509-25.475-11.711-36.531c6.563,21.607-6.901,43.619-6.423,65.558c0.636,19.918,11.79,44.137,32.13,51.168
						l2.245-3.331C239.578,346.01,231.089,329.855,230.126,326.23z"/>
					<path style="fill:#6D4F23;" d="M254.405,303.024c4.56-33.456-15.475-47.36-36.758-67.444c0.402,1.021,0.741,2.038,1.051,3.058
						c6.202,11.056,10.78,22.465,11.711,36.531c1.118,16.953-4.733,34.322-0.282,51.062c0.963,3.625,9.451,19.78,16.523,25.803
						l6.77-10.035C244.601,333.952,252.364,314.409,254.405,303.024z"/>
				</g>
				<path style="fill:#593E1B;" d="M234.254,399.702c1.843,6.449,3.026,13.289,5,19.869c1.845,5.657,3.422,11.446,5.265,17.104
					c1.051,3.157,1.447,5,4.869,5.919c3.418,0.79,7.104,0.923,10.523,0.135c0-2.238-2.501-4.08-3.682-5.922
					c-1.973-3.156-3.029-7.105-4.211-10.525c-3.818-10.79-4.999-22.367-4.738-33.686L234.254,399.702z"/>
				<path style="fill:#593E1B;" d="M355.538,310.671c2.751-3.082,6.458-11.067,8.285-18.92c2.659,0.821,5.314,6.746,5.727,8.997
					c1.022,4.806-0.51,9.305-4.499,12.579L355.538,310.671z"/>
				<path style="fill:#9C805F;" d="M266.537,380.971c0,0,0.158-0.351,0.434-0.97c0.291-0.608,0.665-1.501,1.194-2.532
					c0.525-1.029,1.117-2.245,1.782-3.527c0.658-1.282,1.361-2.652,2.061-4.018c0.339-0.693,0.671-1.384,1.008-2.06
					c0.338-0.674,0.633-1.357,0.923-2.012c0.279-0.662,0.605-1.278,0.84-1.893c0.24-0.614,0.465-1.194,0.671-1.734
					c0.104-0.266,0.206-0.526,0.301-0.768c0.075-0.251,0.151-0.485,0.226-0.712c0.139-0.446,0.259-0.834,0.359-1.156
					c0.213-0.644,0.333-1.01,0.333-1.01s-0.066,0.378-0.181,1.045c-0.067,0.335-0.143,0.737-0.228,1.199
					c-0.048,0.234-0.095,0.482-0.143,0.747c-0.079,0.25-0.161,0.517-0.244,0.796c-0.171,0.555-0.354,1.157-0.553,1.795
					c-0.191,0.642-0.469,1.285-0.735,1.962c-0.275,0.674-0.532,1.383-0.877,2.064c-0.326,0.692-0.658,1.392-0.991,2.09
					c-0.722,1.369-1.427,2.748-2.156,3.998c-0.712,1.263-1.417,2.411-2.003,3.407c-0.602,0.988-1.102,1.813-1.454,2.393
					C266.747,380.647,266.537,380.971,266.537,380.971z"/>
				<g>
					<path style="fill:#EBB3B1;" d="M349.719,297.734c1.072,5.145,2.143,10.711,4.498,15.214c0.855-2.145,1.073-4.714,1.501-7.286
						c0.643,1.928,1.07,4.073,1.928,5.784c0.216-1.285,0.427-2.569,0.643-3.856c0.427,0.645,1.286,1.716,1.501,2.571
						c0.756-0.075,1.522-0.426,2.206-0.939l-0.278,0.083c-0.408-4.289-8.02-16.158-12.813-19.115
						C348.797,292.715,349.456,296.821,349.719,297.734z"/>
					<path style="fill:#161616;" d="M404.054,324.301c0.044-0.561,0.079-1.127,0.079-1.714c0-0.285-0.007-0.56-0.017-0.831
						c-0.17-5.27-3.251-5.449-7.015-5.28C397.503,318.738,400.878,322.273,404.054,324.301z"/>
					<g>
						<g>
							<path style="fill:#CC841C;" d="M328.333,337.79c0.91-3.756,1.461-2.507,4.003-1.675c6.914,2.407,13.603,6.257,19.993,9.602
								c3.855,1.906,7.712,3.811,11.257,6.033c1.72,1.065,6.658,3.689,6.57,4.978c-0.589,8.642-40.786-12.335-41.496-12.818
								L328.333,337.79z"/>
						</g>
					</g>
					<path style="fill:#CFB493;" d="M381.424,329.013c-7.281-0.214-7.728-2.495-13.924-2.783c-9.449-0.443-7.48,18.206-9.626,25.706
						c-2.571,9.209-9.438,18.765-19.293,23.689c-4.413,2.206-11.786,4.375-16.497,5.018c-6,0.641-12.021-0.994-17.137-2.569
						c-11.14-3.429-10.276-6.668-20.524-10.884c-7.268-2.992-17.887,0-21.347,15.344c-1.058,1.965,5.604,4.772,12.318,6.569
						c11.443,3.066,15.917,3.493,27.647,3.493c9.823,0,19.039-1.458,26.539-3.171c9.354-2.138,18.463-4.354,25.87-10.838
						c6.497-5.689,10.792-13.622,12.6-22.02c1.099-5.113,0.834-14.797,7.94-15.366c10.258-0.82,17.58-1.964,22.034-4.382
						c3.96-2.59,4.156-4.859,5.36-8.91c-0.238,0.097-0.488,0.182-0.755,0.245C392.777,330.513,385.28,329.228,381.424,329.013z"/>
				</g>
				<path style="fill:#6D4F23;" d="M397.102,316.476c-1.505,0.066-3.116,0.189-4.701,0.066c-5.781-0.446-11.508-2.08-15.634-6.368
					c-1.839-1.912-4.22-3.215-6.749-3.134c1.073-1.151,1.744-2.475,1.184-4.162c-0.826,1.917-2.466,3.561-4.382,4.382
					c0.548-1.645,0.821-3.564,0.548-5.201c-1.37,3.011-4.653,7.39-7.393,7.664l1.115,0.047c-0.427,0.207-0.864,0.348-1.301,0.391
					c-0.215-0.855-1.074-1.927-1.501-2.571c-0.216,1.287-0.427,2.571-0.643,3.856c-0.857-1.711-1.285-3.856-1.928-5.784
					c-0.428,2.572-0.646,5.142-1.501,7.286c-2.355-4.503-3.426-10.069-4.498-15.214c-0.264-0.913-0.922-5.018-0.815-7.544
					c-0.233-0.148-0.466-0.281-0.686-0.379c-2.144,3.855-1.846,9.18-2.783,15.85c-0.988,6.998-2.783,14.352-5.572,20.568
					c-2.785,5.996-7.283,10.175-13.067,13.603c-8.355,5.138-22.813,3.391-32.241,0.82c-12.108-3.303-25.95-4.545-38.701-1.675
					c-4.199,0.944-7.503,3.681-11.106,5.888c-12.615,7.734-9.387,26.164-14.468,38.29c-2.44,1.032-5.395,1.348-8.354,0.924
					c1.061,0.385,1.792,1.283,2.555,1.913c-0.819-0.083-1.934,0.076-2.751-0.006c0.516,0.326,2.485,3.05,3.005,3.38
					c-1.748,0.923-5.233,2.257-7.086,1.519c0.637,0.913,1.391,1.579,2.219,2.034c-3.555,1.026-7.277,1.709-7.898,5.715
					c-0.855,6.429,9,45.205,12.214,45.632c2.14,0.428,4.928,0,7.068,0.216c5.142,1.068-2.141-8.143-4.282-18.424
					c-1.153-5.517-3.645-11.569-1.929-17.784c5.356-0.639,12.306-1.498,17.234-3.64c7.497-3.211,21.955-17.874,25.182-25.492
					c0.025-0.066,0.075-0.107,0.142-0.14c3.093-7.531,9.086-13.348,16.354-10.356c10.241,4.214,9.856,5.998,20.996,9.427
					c5.116,1.575,11.137,3.21,17.137,2.569c4.711-0.643,12.084-2.811,16.497-5.018c9.854-4.925,16.722-14.48,19.293-23.689
					c2.146-7.5-1.049-24.864,8.398-24.421c6.199,0.287,7.871,1.284,15.152,1.498c3.855,0.215,11.353,1.5,21.207-0.858
					c0.267-0.063,0.517-0.148,0.755-0.245c0.338-1.137,0.56-2.341,0.668-3.608C400.878,322.273,397.503,318.738,397.102,316.476z"/>
				<path style="fill:#CFB493;" d="M392.001,329.535c-22.143-1.735-30.11-5.033-32.573-6.947l0,0
					c0.82,0.546,1.368,1.914,1.919,2.737c-1.372-0.272-2.739,0.275-3.834,0c0.548,0.548,1.367,1.643,2.191,1.915
					c-1.096,0.82-2.463,1.916-3.562,2.735c0.275,0,1.099,0,1.644,0c-1.096,2.19-2.188,4.383-2.735,6.845
					c1.092-1.093,2.19-1.093,3.558-1.915c-0.699,2.403-1.798,5.201-0.699,9.031c1.915-1.365,3.713-1.913,5.626-3.559
					c3.014-3.007,7.392-4.377,11.77-4.65"/>
				<path style="fill:#161616;" d="M374.314,317.925c-0.064,0.015-0.13,0.04-0.193,0.07c-0.592,0.27-0.753,1.012-0.839,1.591
					c-0.143,0.98-0.143,3.626,1.563,3.225c1.729-0.405,1.108-3.047,0.652-4.118C375.277,318.17,374.878,317.777,374.314,317.925z"/>
				<path style="fill:#563D1F;" d="M375.992,331.099c0,0,0.288,0.18,0.801,0.5c0.25,0.16,0.557,0.361,0.905,0.586
					c0.178,0.11,0.358,0.236,0.561,0.355c0.205,0.104,0.425,0.216,0.649,0.334c0.446,0.229,0.931,0.482,1.443,0.749
					c0.52,0.253,1.111,0.442,1.685,0.694c0.291,0.122,0.589,0.245,0.889,0.368c0.305,0.113,0.627,0.197,0.941,0.302
					c0.633,0.195,1.268,0.419,1.918,0.595c0.658,0.16,1.314,0.313,1.959,0.466c0.644,0.176,1.296,0.242,1.916,0.354
					c0.63,0.085,1.228,0.248,1.811,0.286c0.58,0.057,1.127,0.11,1.634,0.164c1.017,0.122,1.864,0.107,2.463,0.155
					c0.599,0.037,0.94,0.059,0.94,0.059s-0.339,0.036-0.934,0.094c-0.301,0.024-0.665,0.054-1.083,0.091
					c-0.209,0.019-0.431,0.034-0.665,0.057c-0.237,0.01-0.481-0.006-0.74-0.01c-0.514-0.013-1.073-0.025-1.666-0.036
					c-0.595,0.011-1.212-0.1-1.854-0.166c-0.64-0.096-1.317-0.118-1.976-0.298c-0.662-0.148-1.336-0.298-2.01-0.45
					c-0.665-0.186-1.318-0.429-1.964-0.637c-0.322-0.109-0.645-0.204-0.952-0.334c-0.305-0.144-0.605-0.28-0.899-0.417
					c-0.586-0.277-1.162-0.523-1.675-0.825c-0.51-0.315-0.987-0.617-1.428-0.891c-0.219-0.141-0.428-0.271-0.63-0.398
					c-0.188-0.143-0.346-0.291-0.51-0.426c-0.317-0.271-0.595-0.506-0.823-0.698C376.249,331.326,375.992,331.099,375.992,331.099z"
					/>
				<path style="fill:#6D4F23;" d="M344.928,435.747c-1.531-5.04-1.234-10.643-1.465-15.675c-0.152-8.071-0.551-15.959-0.279-23.952
					c0.742-12.041-0.456-24.197,1.342-36.061l-25.664,9.115c0.298,2.282,0.636,4.603,0.997,6.941
					c-0.77,2.758-2.461,5.228-4.255,7.679c1.264-0.896,2.118-1.031,3.112-1.97c-0.051,1.934-1.134,3.416-2.447,4.581
					c1.172-0.353,2.57-0.396,3.738-0.752c-0.274,1.62-0.503,2.968-0.73,4.316c1.234-0.25,2.317,0.364,3.285,1.376
					c3.388,16.796,8.15,33.979,13.98,49.064c1.643,4.407,6.683,6.649,11.65,6.84C355.094,447.552,345.942,438.743,344.928,435.747z"
					/>
			</g>
			<g>
				<g>
					<path style="fill:none;stroke:#F9F6DC;stroke-width:0.75;stroke-miterlimit:10;" d="M320.583,341.943
						c0,0-123.091,13.036-155.396-129.045"/>
					<g>
						<g>
							<path style="fill:#EDB82B;" d="M329.384,335.297c0.27,3.158,2.877,6.743,4.998,8.609c4.54,3.823,9.409,6.713,14.782,9.484
								c5.786,2.756,14.44,4.794,20.992,3.336c1.411,9.246-14.683,6.147-19.26,4.774c-7.122-1.992-14.108-6.545-19.767-11.042
								c-2.325-1.652-6.757-6.602-7.022-9.763L329.384,335.297z"/>
						</g>
					</g>
					<g>
						<g>
							<path style="fill:#BCBCBC;" d="M324.975,340.085c-0.223-0.357-0.539-0.632-0.956-0.769c-1.732-0.569-3.611,0.843-3.436,2.627
								C320.999,346.169,327.388,343.945,324.975,340.085z"/>
						</g>
					</g>
				</g>
				<g>
					<path style="fill:#CE9525;" d="M160.353,207.275c-0.618-1.548-1.044-0.183-1.364-1.819c-0.195-0.994,0.231-5.28,1.302-5.664
						c1.116-0.401,1.899,0.532,2.638,1.324c1.567,1.681,4.843,7.502,5.006,8.51c0.15,0.924,0.25,1.214-0.092,2.063
						c-0.307,0.762-1.555,2.571-2.561,2.194c-0.612-0.229-1.05-1.759-1.345-2.29C162.793,209.539,161.432,207.838,160.353,207.275z"
						/>
				</g>
				<g>
					<g>
						<g>
							<g>
								<path style="fill:#F6DFD7;" d="M171.696,202.931c-1.684,0.322-3.994,0.924-5.609,0.541c0.15-1.284,10.082-1.431,9.36-3.483
									c0.082-0.724-3.276-0.226-4.61-0.063c-1.688,0.323-3.381,0.26-5.001,0.493c2.132-1.651,9.862-1.28,9.462-2.861
									c-0.334-1.171-6.916-0.265-9.377,0.315c2.72-1.727,6.559-1.007,8.226-2.696c0.03-1.08-5.644-0.739-7.366,0.048
									c-1.98,0.999-2.631,1.269-4.098,2.837c-2.146,2.394-6.037,10.035-7.113,14.587c-5.427,5.71-14.46,10.767-19.118,17.126
									c0,0-1.472-0.019-4.246,4.165c-2.081,3.147-5.237,10.161-2.085,13.005c2.994,2.702,6.439,2.611,8.569,0.508
									c3.66-3.61,6.708-7.894,9.61-12.119c2.865-4.169,5.565-8.455,8.158-12.799c0.537-0.896,2.326-5.423,3.346-5.766
									c1.427-0.483,2.275,0.13,3.402-1.25c1.598-1.718,3.514-6.636,4.714-9.134c0.738-0.392,1.474-0.809,2.596-1.262
									c1.411-0.482,1.931-0.284,3.666-1.462C175.074,202.743,172.941,202.713,171.696,202.931z"/>
							</g>
							<g>
								<path style="fill:#E8A07D;" d="M150.948,216.838c-2.27,2.362-4.831,4.379-7.31,6.446c-2.497,2.056-4.938,4.12-7.187,6.489
									c1.626-2.863,4.059-5.178,6.551-7.26C145.532,220.445,148.188,218.586,150.948,216.838z"/>
							</g>
						</g>
					</g>
				</g>
				<g>
					<path style="fill:#50A072;" d="M160.043,199.96c-2.673,3.053-3.236,5.8-3.236,5.8c1.102,6.216,5.413,9.931,7.188,11.523
						c0.593,0,3.001-3.445,3.439-4.775c0,0-1.653-1.365-2.248-2.199C163.403,207.807,161.439,204.116,160.043,199.96z"/>
				</g>
			</g>
		</g>
	</g>
</g>
</svg>
