<?xml version="1.0" encoding="utf-8"?>
<!-- Generator: Adobe Illustrator 27.5.0, SVG Export Plug-In . SVG Version: 6.00 Build 0)  -->
<svg version="1.1" id="_x3C_Layer_x3E_" xmlns="http://www.w3.org/2000/svg" xmlns:xlink="http://www.w3.org/1999/xlink" x="0px"
	 y="0px" viewBox="0 0 1236 1236" style="enable-background:new 0 0 1236 1236;" xml:space="preserve">
<rect style="fill:#00aa5b;" width="1236" height="1236"/>
<g>
	<g>
		<defs>
			<path id="SVGID_1_" d="M428.783,47.37c-283.821,50.602-94.076,159.26-192.821,223.579
				c-92.732,68.99-257.028,391.844-101.165,665.906c60.99,100.852,152.958,116.146,229.438,127.391
				c76.479,11.245,108.918-1.709,181.517,19.531c72.599,21.24,255.031,115.387,407.052,111.757
				c266.013-15.248,213.494-211.283,198.489-248.193c-45.914-117.501-151.338-180.005-234.962-253.6
				c-31.867-28.045-25.765-64.431-25.765-105.2c0-75.027,22.129-176.74-1.625-224.173c-22.515-44.959-185.791-13.928-224.839-42.294
				C540.596,233.868,712.605-3.232,428.783,47.37z"/>
		</defs>
		<clipPath id="SVGID_00000174587415956724430080000010503577468137616318_">
			<use xlink:href="#SVGID_1_"  style="overflow:visible;"/>
		</clipPath>
		
			<linearGradient id="SVGID_00000079464192725545000160000010863212133827811467_" gradientUnits="userSpaceOnUse" x1="657.7081" y1="304.9922" x2="596.7189" y2="1141.4221">
			<stop  offset="0" style="stop-color:#ECDADF"/>
			<stop  offset="0.7931" style="stop-color:#F8CDD5"/>
			<stop  offset="1" style="stop-color:#FCC9D2"/>
		</linearGradient>
		
			<path style="clip-path:url(#SVGID_00000174587415956724430080000010503577468137616318_);fill:url(#SVGID_00000079464192725545000160000010863212133827811467_);" d="
			M410.656,215.343c0,0-75.949-8.713-174.694,55.606c-92.732,68.99-257.028,391.844-101.165,665.906
			c60.99,100.852,152.958,116.146,229.438,127.391c76.479,11.245,108.918-1.709,181.517,19.531
			c72.599,21.24,255.031,115.387,407.052,111.757c266.013-15.248,213.494-211.283,198.489-248.193
			c-63.41-162.278-240.328-219.656-316.566-346.224S744.343,380.368,664.1,322.075C540.596,233.868,410.656,215.343,410.656,215.343
			z"/>
		<g style="clip-path:url(#SVGID_00000174587415956724430080000010503577468137616318_);">
			<rect x="1060.433" y="1111.459" style="fill:#AADDF1;" width="32.047" height="107.458"/>
			<rect x="1060.433" y="1077.483" style="fill:#94CEE9;" width="32.047" height="67.951"/>
			<rect x="725.065" y="1111.459" style="fill:#AADDF1;" width="32.047" height="107.458"/>
			<rect x="725.065" y="1077.483" style="fill:#94CEE9;" width="32.047" height="67.951"/>
			<path style="fill:#AADDF1;" d="M1082.95,1128.01H729.221c-9.472,0-17.151-7.679-17.151-17.151v-20.846l401.845-39.208
				l0.007,14.885c-0.485,13.583-1.521,19.347-5.272,32.348c0,0-2.229,7.333-5.698,16.007
				C1100.14,1121.009,1092.48,1127.556,1082.95,1128.01z"/>
			<path style="fill:#D1EFFB;" d="M1081.135,1106.955l-352.657,0.208c-11.647,0-20.632-10.193-14.654-22.9l12.9-28.135
				c5.536-12.071,17.331-17.649,26.804-17.649l343.039-0.773c9.473,0,20.721,5.594,16.413,19.135l-12.27,32.961
				C1097.29,1100.692,1090.608,1106.955,1081.135,1106.955z"/>
		</g>
		<path style="clip-path:url(#SVGID_00000174587415956724430080000010503577468137616318_);fill:#94CEE9;" d="M894.707,1057.262
			c-3.229,1.688-6.916,2.222-10.516,2.782c-16.415,2.554-32.664,6.168-48.614,10.813c-5.13,1.494-11.269,4.436-11.182,9.778
			c0.085,5.208,6.145,8.042,11.298,8.795c14.248,2.084,28.671-2.13,43.066-1.786c10.725,0.256,21.434,3.042,32.076,1.682
			c8.616-1.101,16.712-4.873,25.318-6.052c6.06-0.83,12.211-0.354,18.315,0.028c14.926,0.933,30.476,1.181,44.145-4.884
			c4.456-1.977,8.636-4.598,13.261-6.139c5.621-1.873,11.636-2.069,17.524-2.726c5.888-0.657,11.955-1.888,16.692-5.447
			s7.746-10.008,5.708-15.571c-2.63-7.181-11.605-9.422-19.24-9.856c-29.041-1.652-57.942,7.556-86.951,5.425
			c-7.577-0.557-15.117-1.886-22.712-1.718c-6.07,0.135-12.28,1.313-17.572,4.408
			C900.629,1049.541,899.507,1054.753,894.707,1057.262z"/>
		<g style="clip-path:url(#SVGID_00000174587415956724430080000010503577468137616318_);">
			<path style="fill:#FFFFFF;" d="M1026.512,1003.893c3.588,0.698,7.214,1.56,10.364,3.414c6.915,4.069,10.438,12.426,10.631,20.447
				c0.158,6.541-1.827,13.448-6.736,17.773c-5.334,4.7-12.965,5.54-20.068,5.825c-4.027,0.161-8.357,0.13-11.673-2.162
				c-3.929-2.715-5.324-7.82-6.011-12.547c-0.481-3.309-0.751-6.704-0.085-9.981c0.569-2.798,1.799-5.41,3.019-7.991
				C1010.02,1010.07,1015.945,1001.838,1026.512,1003.893z"/>
			<path style="opacity:0.44;fill:#FFCAD4;" d="M1027.918,1011.872c0.574,1.829,0.984,3.583,1.267,4.836
				c2.185,9.662,3.551,34.153-11.173,34.91c-1.397,0.072-2.782-0.266-4.115-0.688c-1.676-0.53-3.425-1.294-4.322-2.806
				c-0.663-1.118-0.755-2.473-0.801-3.772c-0.411-11.413,1.341-22.901,5.134-33.673c0.793-2.251,1.76-4.589,3.666-6.025
				C1023.115,1000.48,1026.23,1006.497,1027.918,1011.872z"/>
		</g>
		<path style="clip-path:url(#SVGID_00000174587415956724430080000010503577468137616318_);fill:#FFE1E8;" d="M883.291,1019.755
			c0,0,1.776,8.299,8.794,20.037c7.019,11.738,15.369,20.693,21.419,22.145c6.051,1.452,49.978,0.242,53.003-2.178
			c3.025-2.42-20.532-48.305-20.532-48.305l-52.801-6.634L883.291,1019.755z"/>
		<path style="clip-path:url(#SVGID_00000174587415956724430080000010503577468137616318_);fill:#FFBA94;" d="M479.796,450.187
			c0,0,8.777,6.21,15.856,20.006c8.391,16.352,42.838,179.339,75.753,217.578c32.915,38.239,184.542,92.815,184.542,92.815
			s14.703-7.805,27.228-8.35c12.525-0.544,26.865,3.63,33.762,4.357c6.898,0.726,15.368-3.388,17.063-0.726
			c1.694,2.662-4.201,6.156-10.891,8.35c-6.69,2.193-22.145,7.26-22.145,7.26s11.012,4.477,22.145,11.98
			c11.133,7.503,39.57,37.756,35.214,44.29c-4.356,6.534-35.698-8.955-52.64-16.336c-16.941-7.382-57.359-18.515-57.359-18.515
			s-170.142-39.934-207.897-81.078c-37.755-41.144-96.325-165.543-96.325-165.543L479.796,450.187z"/>
		
			<linearGradient id="SVGID_00000059280754243689091470000018016766589692548270_" gradientUnits="userSpaceOnUse" x1="546.3099" y1="602.1456" x2="468.6208" y2="598.5153">
			<stop  offset="0" style="stop-color:#FFFFFF"/>
			<stop  offset="0.2786" style="stop-color:#FCFDFE"/>
			<stop  offset="0.4811" style="stop-color:#F3F8FC"/>
			<stop  offset="0.6595" style="stop-color:#E3F0F8"/>
			<stop  offset="0.8239" style="stop-color:#CCE3F2"/>
			<stop  offset="0.9775" style="stop-color:#B0D4EB"/>
			<stop  offset="1" style="stop-color:#ABD1EA"/>
		</linearGradient>
		
			<path style="clip-path:url(#SVGID_00000174587415956724430080000010503577468137616318_);fill:url(#SVGID_00000059280754243689091470000018016766589692548270_);" d="
			M568.82,752.048c-12.193-6.591-22.12-13.393-28.393-20.229c-37.755-41.144-96.325-165.543-96.325-165.543l35.694-116.088
			c0,0,8.777,6.21,15.856,20.006c8.391,16.352,42.838,179.339,75.753,217.578c6.397,7.431,17.277,15.48,30.657,23.625
			c0,0-7.181,3.239-17.346,14.856C574.552,737.87,568.82,752.048,568.82,752.048z"/>
		
			<linearGradient id="SVGID_00000070101928704177557100000004500498308367877519_" gradientUnits="userSpaceOnUse" x1="321.6017" y1="303.869" x2="214.1436" y2="169.3044">
			<stop  offset="0.4239" style="stop-color:#603838"/>
			<stop  offset="1" style="stop-color:#7C4C47"/>
		</linearGradient>
		
			<path style="clip-path:url(#SVGID_00000174587415956724430080000010503577468137616318_);fill:url(#SVGID_00000070101928704177557100000004500498308367877519_);" d="
			M410.489,132.704c0,0-11.403-17.349-60.292-7.878c-103.586,24.807-70.065,141.19-72.123,187.637
			c-2.057,46.447-42.488,77.333-47.436,118.802c-4.948,41.469,18.41,63.905,18.41,63.905l176.539-51.116l29.406-164.939
			L410.489,132.704z"/>
		<path style="clip-path:url(#SVGID_00000174587415956724430080000010503577468137616318_);fill:#492E2E;" d="M393.116,154.333
			c0,0-3.159,21.803-16.928,43.585c-13.769,21.782-41.723,31.517-36.64,73.032c5.082,41.514,40.217,37.189,36.64,80.895
			c-3.577,43.706-26.959,59.053-26.959,59.053l-5.598,56.887l81.956-23.73l29.406-164.939l-40.145-132.069L393.116,154.333z"/>
		
			<linearGradient id="SVGID_00000137819683694953323920000006182729780489181572_" gradientUnits="userSpaceOnUse" x1="484.9117" y1="567.0491" x2="244.5842" y2="578.666">
			<stop  offset="0" style="stop-color:#FFFFFF"/>
			<stop  offset="0.2786" style="stop-color:#FCFDFE"/>
			<stop  offset="0.4811" style="stop-color:#F3F8FC"/>
			<stop  offset="0.6595" style="stop-color:#E3F0F8"/>
			<stop  offset="0.8239" style="stop-color:#CCE3F2"/>
			<stop  offset="0.9775" style="stop-color:#B0D4EB"/>
			<stop  offset="1" style="stop-color:#ABD1EA"/>
		</linearGradient>
		
			<path style="clip-path:url(#SVGID_00000174587415956724430080000010503577468137616318_);fill:url(#SVGID_00000137819683694953323920000006182729780489181572_);" d="
			M481.857,453.856c-7.745-16.7-37.574-32.673-37.574-32.673s-8.713-9.62-26.501-17.063c-17.789-7.442-39.791-3.993-39.791-3.993
			s-77.408,17.789-101.247,46.468c-23.839,28.68,8.35,178.976,8.35,178.976l7.503,96.567L442.65,741.5l10.649-112.298
			c0,0,6.534-1.936,15.731-22.266C478.227,586.606,489.602,470.556,481.857,453.856z"/>
		
			<linearGradient id="SVGID_00000153691843152470501190000004840175311279932573_" gradientUnits="userSpaceOnUse" x1="328.4253" y1="1172.7262" x2="351.1297" y2="1015.6867">
			<stop  offset="0.5608" style="stop-color:#322287"/>
			<stop  offset="1" style="stop-color:#453FAF"/>
		</linearGradient>
		
			<path style="clip-path:url(#SVGID_00000174587415956724430080000010503577468137616318_);fill:url(#SVGID_00000153691843152470501190000004840175311279932573_);" d="
			M358.91,513.515c0,0-14.521,67.524-32.915,104.07c-18.394,36.545-37.613,50.311-37.613,50.311s2.157,25.805,2.641,54.485
			c0.484,28.68-49.252,93.663-60.384,177.887c-11.133,84.224,0,195.554,0,195.554l240.086,41.628c0,0-22.75-364.97-22.75-402.726
			s7.019-104.796,7.019-104.796s7.368-2.4,15.233-14.985c14.2-22.226,11.719-87.58,11.719-87.58s-16.787,3.578-55.995-0.536
			C386.742,522.711,358.91,513.515,358.91,513.515z"/>
		<path style="clip-path:url(#SVGID_00000174587415956724430080000010503577468137616318_);fill:#F75F4B;" d="M377.991,400.127
			l-5.379,1.33c0,0,4.606,35.699,48.075,36.788c28.104,0,28.015-14.523,28.015-14.523l-7.05-3.81L377.991,400.127z"/>
		<path style="clip-path:url(#SVGID_00000174587415956724430080000010503577468137616318_);fill:#453FAF;" d="M328.152,415.667
			c5.698,5.122,19.01,18.532,27.703,38.813c11.055,25.797,8.486,61.855,8.371,63.377c-0.119,1.588-1.446,2.798-3.013,2.798
			c-0.076,0-0.153-0.003-0.229-0.009c-1.666-0.125-2.915-1.578-2.79-3.243c0.027-0.359,2.565-36.12-7.9-60.54
			c-10.432-24.34-28.402-38.6-28.582-38.742L328.152,415.667z"/>
		<path style="clip-path:url(#SVGID_00000174587415956724430080000010503577468137616318_);fill:#453FAF;" d="M466.826,436.368
			c3.553,7.382,7.982,17.544,11.191,28.144c6.172,20.388,4.167,65.388,4.079,67.294c-0.076,1.622-1.414,2.885-3.02,2.885
			c-0.047,0-0.095-0.001-0.142-0.003c-1.669-0.078-2.959-1.493-2.882-3.162c0.022-0.457,2.045-45.866-3.825-65.261
			c-5.541-18.305-15.163-35.82-16.451-38.125l6.69,4.781L466.826,436.368z"/>
		<path style="opacity:0.6;clip-path:url(#SVGID_00000174587415956724430080000010503577468137616318_);fill:#322287;" d="
			M454.993,629.927c0,0-0.666,3.146-28.559,4.84c-27.893,1.694-56.149-9.474-56.149,0c0,9.474,34.663,13.398,51.309,14.985
			c21.238,2.026,31.476,0.174,31.476,0.174L454.993,629.927z"/>
		<path style="opacity:0.12;clip-path:url(#SVGID_00000174587415956724430080000010503577468137616318_);fill:#19136D;" d="
			M319.037,483.011c0,0,14.369,65.597,0.181,154.178c-8.732,48.853-27.773,76.431-27.773,76.431l-3.141-46.714l-2.959-38.086
			l18.11-106.712L319.037,483.011z"/>
		<path style="clip-path:url(#SVGID_00000174587415956724430080000010503577468137616318_);fill:#F75F4B;" d="M400.621,141.174
			c5.098-6.077,12.026-10.816,19.809-12.345c7.783-1.529,16.398,0.446,22.094,5.966c3.669,3.556,6.045,8.948,4.558,13.837
			c-0.992,3.262-3.503,5.81-6.003,8.13c-10.765,9.985-23.004,18.377-36.191,24.832c-5.826,2.852-11.409,6.545-13.395-1.522
			c-1.571-6.384-1.496-13.239-0.133-19.649C392.855,153.391,395.993,146.691,400.621,141.174z"/>
		
			<linearGradient id="SVGID_00000039851441889340334940000010261375992487947184_" gradientUnits="userSpaceOnUse" x1="444.0476" y1="144.1803" x2="428.8002" y2="102.0683">
			<stop  offset="0" style="stop-color:#F75F4B"/>
			<stop  offset="1" style="stop-color:#FF826A"/>
		</linearGradient>
		
			<path style="clip-path:url(#SVGID_00000174587415956724430080000010503577468137616318_);fill:url(#SVGID_00000039851441889340334940000010261375992487947184_);" d="
			M426.995,134.238c-7.584-13.171-9.133-29.664-4.134-44.017c0.085-0.244,0.172-0.488,0.262-0.732
			c1.443-3.908,6.481-5.078,9.404-2.11c12.719,12.914,18.58,32.47,14.523,50.199c-0.447,1.955-1.041,3.955-2.358,5.467
			C438.847,149.754,429.685,138.909,426.995,134.238z"/>
		<path style="clip-path:url(#SVGID_00000174587415956724430080000010503577468137616318_);fill:#FF826A;" d="M444.988,119.237
			c3.373-6.557,8.792-11.852,14.654-16.325c3.285-2.507,7-4.881,11.132-4.939c0.633-0.009,1.323,0.06,1.786,0.493
			c0.502,0.469,0.591,1.219,0.65,1.903c0.429,4.997,0.835,10.178-0.86,14.898c-0.96,2.672-2.551,5.063-4.131,7.422
			c-3.007,4.489-6.067,9.017-10.062,12.654c-3.191,2.905-12.53,9.3-15.358,4.871C439.359,134.826,442.388,124.291,444.988,119.237z"
			/>
		<path style="clip-path:url(#SVGID_00000174587415956724430080000010503577468137616318_);fill:#FFFFFF;" d="M839.727,934.669
			c0,0-10.326,13.034-10.326,33.122c0,20.088,14.037,71.638,14.037,71.638s4.961,21.903,3.872,28.317
			c-1.089,6.414-10.044,7.503-5.808,13.553c4.235,6.051,21.993-0.08,26.592-6.615c4.598-6.534,5.789-15.29,7.231-26.603
			c1.442-11.313,2.42-31.039,14.582-30.918c12.162,0.121,14.037,25.654,14.037,25.654s2.057,15.52,0,20.814
			c-2.057,5.294-4.477,5.082-6.953,10.06c-2.788,8.091,5.017,8.333,5.017,8.333s19.12,2.42,31.221-18.636
			c6.505-13.251,12.948-58.569,12.948-58.569s-1.059,20.572,1.331,30.495c2.39,9.923,8.471,17.91,8.471,17.91
			s-7.624,0.847-12.585,4.84c-4.151,3.341-5.627,10.377-0.756,11.859c4.871,1.483,44.683,0.605,50.976-0.847
			c6.293-1.452,20.209-10.246,27.47-40.297c7.261-30.051-7.382-64.862-25.17-90.747c-19.12-30.99-53.057-55.676-53.057-55.676
			L839.727,934.669z"/>
		<path style="clip-path:url(#SVGID_00000174587415956724430080000010503577468137616318_);fill:#F75F4B;" d="M518.403,761.83
			l-10.407,28.922L478.59,869.53c0,0,5.446,6.172,17.426,1.452c17.244-7.261,34.398-34.488,41.386-47.013
			c6.988-12.525,19.422-40.751,25.957-39.752C571.26,785.424,518.403,761.83,518.403,761.83z"/>
		<path style="clip-path:url(#SVGID_00000174587415956724430080000010503577468137616318_);fill:#453FAF;" d="M697.493,784.395
			l21.684,2.45c2.065,0.233,3.199,2.522,2.134,4.306l-20.93,35.061c-0.952,1.594-3.148,1.872-4.467,0.565l-14.053-13.927
			L697.493,784.395z"/>
		<path style="clip-path:url(#SVGID_00000174587415956724430080000010503577468137616318_);fill:#FF826A;" d="M839.727,934.669
			c0,0,18.959,17.996,59.955,11.098c46.496-8.912,46.496-41.023,46.496-41.023s-0.454-7.715-4.431-8.94
			C939.098,894.942,839.727,934.669,839.727,934.669z"/>
		<path style="opacity:0.75;clip-path:url(#SVGID_00000174587415956724430080000010503577468137616318_);fill:#FFCAD4;" d="
			M969.23,966.46c0,0-13.614,7.805-17.789,17.789c-4.175,9.983-5.264,20.572-5.264,20.572s-0.545-7.23-2.904-13.856
			c-2.36-6.625-6.898-12.525-6.898-12.525s2.541,0.635,9.257-0.726C952.349,976.353,969.23,966.46,969.23,966.46z"/>
		<path style="clip-path:url(#SVGID_00000174587415956724430080000010503577468137616318_);fill:#FFBA94;" d="M890.831,962.88
			c0,5.024-4.073,9.097-9.097,9.097c-5.024,0-9.097-4.073-9.097-9.097c0-5.024,4.073-9.097,9.097-9.097
			C886.758,953.783,890.831,957.856,890.831,962.88z"/>
		
			<rect x="880.824" y="936.856" style="clip-path:url(#SVGID_00000174587415956724430080000010503577468137616318_);fill:#FB9B69;" width="1.822" height="17.208"/>
		<path style="clip-path:url(#SVGID_00000174587415956724430080000010503577468137616318_);fill:#FF432C;" d="M557.879,788.295
			c2.192-2.677,4.116-4.286,5.48-4.078c7.901,1.207-44.956-22.387-44.956-22.387l-4.028,11.193c0,0,4.149,6.202,19.487,11.284
			C549.2,789.39,557.879,788.295,557.879,788.295z"/>
		<path style="clip-path:url(#SVGID_00000174587415956724430080000010503577468137616318_);fill:#F75F4B;" d="M518.403,761.83
			c-18.999-22.75,0-53.729,0-53.729s1.359-2.344,4.133-5.462c7.19-8.084,23.885-21.373,51.034-12.513
			c22.28,9.686,123.924,94.27,123.924,94.27l-15.632,28.454C681.861,812.849,551.56,791.115,518.403,761.83z"/>
		<path style="opacity:0.14;clip-path:url(#SVGID_00000174587415956724430080000010503577468137616318_);fill:#FFFFFF;" d="
			M543.705,705.808c-3.337,5.485-4.081,12.867-1.589,18.673c2.169,5.054,6.336,8.961,10.655,12.367
			c3.61,2.847,7.413,5.459,11.433,7.689c5.238,2.905,10.814,5.146,16.372,7.38c15.586,6.261,31.171,12.522,46.757,18.783
			c7.91,3.177,15.766,6.495,23.751,9.485c4.945,1.852,18.086,9.087,22.477,4.172c1.537-1.721,1.512-4.423,0.53-6.511
			c-0.982-2.088-2.743-3.692-4.498-5.19c-16.117-13.76-34.922-23.742-52.532-35.37c-16.185-10.687-29.478-26.199-46.594-35.291
			c-4.172-2.216-8.738-3.966-13.461-3.929C551.368,698.11,546.605,701.042,543.705,705.808z"/>
		<path style="opacity:0.42;clip-path:url(#SVGID_00000174587415956724430080000010503577468137616318_);fill:#FFC2C2;" d="
			M850.853,503.834h-249.57c-4.374,0-7.92-3.546-7.92-7.92V368.622c0-4.374,3.546-7.92,7.92-7.92h249.57
			c4.374,0,7.92,3.546,7.92,7.92v127.292C858.773,500.288,855.227,503.834,850.853,503.834z"/>
		<path style="clip-path:url(#SVGID_00000174587415956724430080000010503577468137616318_);fill:#FFE9EF;" d="M842.497,496.884
			H600.939c-4.184,0-7.576-3.392-7.576-7.576V369.049c0-4.184,3.392-7.576,7.576-7.576h241.558c4.184,0,7.576,3.392,7.576,7.577
			v120.259C850.074,493.492,846.682,496.884,842.497,496.884z"/>
		<path style="clip-path:url(#SVGID_00000174587415956724430080000010503577468137616318_);fill:#AADDF1;" d="M833.248,483.089
			h-223.06c-2.83,0-5.125-2.295-5.125-5.125v-98.418c0-2.83,2.294-5.125,5.125-5.125h223.06c2.83,0,5.125,2.294,5.125,5.125v98.418
			C838.373,480.795,836.079,483.089,833.248,483.089z"/>
		<path style="clip-path:url(#SVGID_00000174587415956724430080000010503577468137616318_);fill:#D1EFFB;" d="M828.821,478.37
			H612.684c-1.466,0-2.654-1.188-2.654-2.654v-93.437c0-1.466,1.188-2.654,2.654-2.654h216.137c1.466,0,2.654,1.188,2.654,2.654
			v93.437C831.475,477.181,830.287,478.37,828.821,478.37z"/>
		<path style="clip-path:url(#SVGID_00000174587415956724430080000010503577468137616318_);fill:#FFFFFF;" d="M649.474,399.712
			c-6.776-2.541-18.721,3.009-22.642,9.872c-3.921,6.863,7.56,15.679,7.296,18.151c-0.265,2.472-8.352,7.449-9.164,12.827
			c-0.812,5.378,4.062,10.514,8.537,13.605c6.406,4.426,12.387,4.057,19.241,0.363c6.854-3.694,13.216-9.841,20.668-12.098
			c5.577-1.689,11.518-1.565,17.343-1.426c22.725,0.543,45.451,1.085,68.176,1.628c6.552,0.156,13.246,0.339,19.388,2.624
			c5.035,1.873,9.754,4.478,14.541,6.914c7.647,3.893,13.71,5.754,19.92,2.237c4.752-2.691,10.769-8.088,10.86-13.548
			c0.104-6.236-13.178-7.996-12.896-10.309c0.282-2.313,6.029-5.595,5.86-9.611c-0.169-4.017-2.334-7.723-5.086-10.652
			c-4.648-4.948-12.044-8.15-18.313-5.546c-6.073,2.523-9.047,9.404-14.294,13.367c-5.245,3.962-12.214,4.635-18.785,4.821
			c-21.576,0.612-43.012-1.137-64.381-4.181c-9.23-1.315-19.039-1.199-27.824-4.427
			C659.659,411.287,657.322,402.655,649.474,399.712z"/>
		<path style="opacity:0.28;clip-path:url(#SVGID_00000174587415956724430080000010503577468137616318_);fill:#19136D;" d="
			M403.813,759.735c-45.824-9.858-111.281-29.945-111.281-29.945l-4.161-61.894c0,0,3.014-1.423,12.574-11.951
			c9.56-10.528,19.721-28.413,19.721-28.413c-0.446,3.186-0.928,6.406-1.448,9.656c-3.147,17.605-5.978,36.972,4.538,52.459
			c9.983,14.703,124.929,67.238,125.214,73.623l0.335,12.356L403.813,759.735z"/>
		<path style="clip-path:url(#SVGID_00000174587415956724430080000010503577468137616318_);fill:#FFAA85;" d="M377.991,400.127
			c0,0,12.927-3.993,21.095-37.393c8.168-33.399,9.071-62.079,9.071-62.079l8.717,3.63l29.769,76.963c0,0-2.483,5.902-3.754,20.242
			c-1.271,14.34,1.394,19.691,1.394,19.691s-9.63,13.19-36.126,5.687C381.66,419.368,377.991,400.127,377.991,400.127z"/>
		<path style="clip-path:url(#SVGID_00000174587415956724430080000010503577468137616318_);fill:#FB9B69;" d="M416.465,319.569
			c0,0-12.997,52.067,7.306,70.756c10.649,9.802,20.196,2.802,20.196,2.802l1.231-6.943L416.465,319.569z"/>
		<path style="clip-path:url(#SVGID_00000174587415956724430080000010503577468137616318_);fill:#FFBA94;" d="M548.656,244.386
			c0,0,2.178,3.086,2.178,10.891c0,7.805-41.204,96.749-54.818,117.986c-8.785,13.705-22.004,24.368-40.115,19.785
			c-15.066-3.812-23.053-18.152-29.406-35.214c-6.353-17.063-11.436-45.561-11.436-45.561s-15.611-43.08,0.121-52.519
			c8.471-3.994,10.407,5.324,10.407,5.324s15.973-30.132,47.557-33.762C504.728,227.686,548.656,244.386,548.656,244.386z"/>
		<path style="clip-path:url(#SVGID_00000174587415956724430080000010503577468137616318_);fill:#FB9B69;" d="M425.587,265.078
			c0,0,25.171-7.745,36.666-8.35c11.496-0.605,13.735,5.204,27.107,6.051c13.372,0.847,22.871-7.503,26.502-6.292
			c3.63,1.21,9.73,7.369,15.368,8.592c11.299,2.45,17.45-2.379,17.45-2.379l2.452-7.545l-2.477-10.769l-42.112-20.814l-63.652,3.63
			L425.587,265.078z"/>
		<path style="clip-path:url(#SVGID_00000174587415956724430080000010503577468137616318_);fill:#FB9B69;" d="M414.318,277.36
			c-0.096,2.57,0.014,5.147,0.33,7.699c0.122,0.986,0.559,2.229,1.552,2.222c0.697-0.005,1.191-0.667,1.519-1.282
			c1.589-2.985,3.942-10.189,2.229-13.404c-0.676-1.269-2.19-2.123-3.547-1.355C414.537,272.295,414.386,275.517,414.318,277.36z"/>
		<path style="clip-path:url(#SVGID_00000174587415956724430080000010503577468137616318_);fill:#FF826A;" d="M460.754,367.203
			c1.191,2.055,1.727,3.927,4.706,6.665c4.629,4.252,14.87,3.575,15.333-4.318c0.05-0.86-0.098-1.756-0.577-2.472
			c-0.329-0.492-0.797-0.876-1.288-1.208c-3.382-2.283-7.749-2.229-11.772-2.909c-1.392-0.235-2.767-0.567-4.113-0.993
			c-0.955-0.303-1.874-1.094-2.869-1.229c-1.669-0.227-2.434,0.583-1.831,1.862C459.01,364.018,459.965,365.843,460.754,367.203z"/>
		
			<linearGradient id="SVGID_00000095340782125505038340000015806751273706109591_" gradientUnits="userSpaceOnUse" x1="501.6472" y1="294.4751" x2="483.7375" y2="350.9874">
			<stop  offset="0" style="stop-color:#FFBA94"/>
			<stop  offset="0.2363" style="stop-color:#FDB48D"/>
			<stop  offset="0.578" style="stop-color:#F9A57A"/>
			<stop  offset="0.9822" style="stop-color:#F18C5B"/>
			<stop  offset="1" style="stop-color:#F18B59"/>
		</linearGradient>
		
			<path style="clip-path:url(#SVGID_00000174587415956724430080000010503577468137616318_);fill:url(#SVGID_00000095340782125505038340000015806751273706109591_);" d="
			M479.97,340.367c-0.298,1.501-0.561,3.046-0.31,4.557c0.477,2.873,2.984,5.287,5.873,5.655c2.889,0.368,5.913-0.606,7.095-3.268
			c0.257-0.579,0.409-1.954,0.302-2.578c-0.242-1.417-1.139-1.934-1.694-2.597c-1.447-1.729-1.606-3.654-1.323-5.891
			c0.282-2.236,0.841-4.474,1.443-6.648c2.581-9.319,3.981-12.021,5.609-17.791c0.848-3.006-1.165-6.155-4.37-3.217
			c-3.639,3.337-6.003,10.88-7.787,15.383C482.707,329.276,481.083,334.771,479.97,340.367z"/>
		<path style="clip-path:url(#SVGID_00000174587415956724430080000010503577468137616318_);fill:#F75F4B;" d="M461.297,365.198
			c1.573,1.144,3.549,2.5,5.355,3.222c4.538,1.815,8.895,1.783,13.125,0.433c1.821-0.581,3.84-1.991,3.534-3.878
			c-0.095-0.59-0.42-1.121-0.802-1.58c-1.264-1.516-3.181-2.371-5.123-2.722c-1.942-0.351-3.935-0.247-5.906-0.141
			c-2.257,0.121-4.514,0.242-6.771,0.363c-1.707,0.092-3.444,0.181-5.105-0.224c-1.245-0.303-2.318-0.931-3.275-1.761
			C456.351,361.162,459.627,363.982,461.297,365.198z"/>
		
			<linearGradient id="SVGID_00000155132525436990970430000002137757426476010662_" gradientUnits="userSpaceOnUse" x1="444.5344" y1="240.7905" x2="558.164" y2="151.1212">
			<stop  offset="0.4239" style="stop-color:#603838"/>
			<stop  offset="1" style="stop-color:#7C4C47"/>
		</linearGradient>
		
			<path style="clip-path:url(#SVGID_00000174587415956724430080000010503577468137616318_);fill:url(#SVGID_00000155132525436990970430000002137757426476010662_);" d="
			M403.781,339.939l9.791-32.188c0,0-14.245-44.004,3.814-48.786c6.628-0.542,8.201,6.113,8.201,6.113s23.597-13.069,37.392-15.852
			c13.795-2.783,14.4,1.694,33.217,0c18.817-1.694,27.228-7.382,27.228-7.382s2.904,9.983,15.973,13.251
			c7.987,1.997,46.045,1.15,47.981-50.159c-3.388-60.506-79.746-81.721-134.927-65.263c-28.559,8.713-78.657,36.704-74.18,104.471
			C378.272,285.046,403.781,339.939,403.781,339.939z"/>
		<path style="opacity:0.72;clip-path:url(#SVGID_00000174587415956724430080000010503577468137616318_);fill:#492E2E;" d="
			M423.52,261.276c1.49,2.057,2.068,3.802,2.068,3.802s23.597-13.069,37.392-15.852c13.795-2.783,14.4,1.694,33.217,0
			c18.817-1.694,27.228-7.382,27.228-7.382s2.904,9.983,15.973,13.251c5.096,1.274,22.435,1.39,34.822-12.021
			c0,0-10.862,2.946-22.116,0.405c-11.743-4.217-7.442-13.977-7.442-13.977s-11.345,8.713-37.755,6.172
			c-12.325-1.186-12.948-4.873-22.141-4.85C451.181,232.405,423.52,261.276,423.52,261.276z"/>
		<path style="opacity:0.54;clip-path:url(#SVGID_00000174587415956724430080000010503577468137616318_);fill:#492E2E;" d="
			M565.807,202.063c-0.809,5.301-3.174,9.892-5.99,14.169c-2.807,4.284-6.267,8.093-10.026,11.504
			c-3.803,3.355-7.695,6.506-12.018,9.214c-4.358,2.625-8.796,5.128-14.227,5.895c-0.546,0.077-1.051-0.303-1.128-0.849
			c-0.069-0.491,0.231-0.949,0.689-1.092l0.195-0.061c2.068-0.649,4.331-1.772,6.372-2.97c2.095-1.179,4.116-2.518,6.068-3.956
			c3.949-2.781,7.714-5.98,11.387-9.134c3.622-3.212,6.925-6.744,9.868-10.546c1.468-1.905,2.787-3.919,3.952-6.011
			c1.189-2.054,2.214-4.32,2.863-6.467l0.042-0.137c0.16-0.53,0.721-0.83,1.251-0.67
			C565.59,201.098,565.882,201.577,565.807,202.063z"/>
		<path style="clip-path:url(#SVGID_00000174587415956724430080000010503577468137616318_);fill:#492E2E;" d="M473.673,190.171
			c-6.781,3.12-13.094,7.384-18.596,12.288c-2.765,2.459-5.26,5.176-7.619,7.982c-2.223,2.914-4.413,5.858-6.141,9.089
			c-1.758,3.14-3.471,6.631-5.031,10.035c-1.609,3.415-3.128,6.871-4.547,10.367c-2.839,6.97-5.434,14.147-7.213,21.425
			c-0.151,0.617-0.698,0.95-1.24,0.817c-0.46-0.113-0.769-0.524-0.77-0.978c-0.017-4.025,0.596-7.863,1.338-11.717
			c0.779-3.836,1.799-7.616,3.018-11.327c2.463-7.46,5.453-14.545,9.342-21.53c3.953-7.001,9.392-13.123,15.709-17.969
			c6.344-4.816,13.417-8.576,21.178-10.415c0.542-0.129,1.085,0.206,1.213,0.748c0.112,0.475-0.132,0.952-0.559,1.148
			L473.673,190.171z"/>
		<path style="clip-path:url(#SVGID_00000174587415956724430080000010503577468137616318_);fill:#FFEEF4;" d="M824.542,820.555
			c-0.315,0.297-0.627,0.599-0.933,0.906c-11.171,11.159-12.922,28.485-16.934,43.08c-5.082,18.485-2.324,43.457,11.715,57.992
			c6.009,6.221,16.535,11.266,24.991,13.087c18.57,3.998,35.495,2.385,53.969-0.199c14.182-1.984,24.515-6.5,34.428-17.97
			c11.649-13.48,11.576-30.15,10.77-45.914c-0.24-4.694-1.626-9.874-1.93-14.564c-1.486-22.989-19.513-43.915-42.028-48.788
			c-7.163-1.55-14.31-1.028-21.523-1.741c-6.263-0.619-12.122-1.428-18.452-0.736C846.395,807.043,833.688,811.927,824.542,820.555z
			"/>
		<path style="clip-path:url(#SVGID_00000174587415956724430080000010503577468137616318_);fill:#FFCAD4;" d="M820.76,875.464
			c3.274-6.356,3.995-14.042,1.681-20.807c0.221,0.648-2.635,4.088-3.073,4.756c-1.115,1.699-2.243,3.39-3.384,5.072
			c-2.241,3.305-4.531,6.576-6.869,9.812c-1.886,2.61-4.291,3.9-4.781,6.53c-0.388,2.082-0.208,5.407,0.28,8.55
			C811.135,887.746,817.781,881.247,820.76,875.464z"/>
		<path style="clip-path:url(#SVGID_00000174587415956724430080000010503577468137616318_);fill:#FFCAD4;" d="M921.111,852.958
			c-1.08,7.499-0.862,15.816,2.921,22.381c3.783,6.564,11.145,11.195,18.672,12.063l0.152-8.493L921.111,852.958z"/>
		<path style="clip-path:url(#SVGID_00000174587415956724430080000010503577468137616318_);fill:#603838;" d="M851.208,890.064
			c0,3.17-2.57,5.74-5.741,5.74c-3.17,0-5.74-2.57-5.74-5.74c0-3.17,2.57-5.741,5.74-5.741
			C848.638,884.323,851.208,886.894,851.208,890.064z"/>
		<path style="clip-path:url(#SVGID_00000174587415956724430080000010503577468137616318_);fill:#603838;" d="M902.045,890.064
			c0,3.17-2.57,5.74-5.74,5.74c-3.17,0-5.74-2.57-5.74-5.74c0-3.17,2.57-5.741,5.74-5.741
			C899.475,884.323,902.045,886.894,902.045,890.064z"/>
		<path style="clip-path:url(#SVGID_00000174587415956724430080000010503577468137616318_);fill:#FFFFFF;" d="M899.682,888.924
			c0,1.518-1.23,2.748-2.748,2.748c-1.518,0-2.748-1.23-2.748-2.748c0-1.518,1.23-2.748,2.748-2.748
			C898.451,886.175,899.682,887.406,899.682,888.924z"/>
		<path style="clip-path:url(#SVGID_00000174587415956724430080000010503577468137616318_);fill:#FFFFFF;" d="M848.216,888.924
			c0,1.518-1.23,2.748-2.749,2.748c-1.518,0-2.748-1.23-2.748-2.748c0-1.518,1.231-2.748,2.748-2.748
			C846.986,886.175,848.216,887.406,848.216,888.924z"/>
		<path style="clip-path:url(#SVGID_00000174587415956724430080000010503577468137616318_);fill:#F7DAE3;" d="M858.993,935.73
			c0.962,0.527,1.937,0.938,2.788,1.222c5.171,1.725,10.717,2.247,16.103,1.49c5.042-0.708,11.349-3.162,11.854-9.223
			c0.442-5.294-4.169-9.783-8.893-10.785c-3.507-0.744-7.147-0.225-10.653,0.523c-2.47,0.527-4.929,1.17-7.246,2.197
			c-2.984,1.323-7.305,3.305-8.516,6.718C853.184,931.382,856.03,934.107,858.993,935.73z"/>
		<path style="clip-path:url(#SVGID_00000174587415956724430080000010503577468137616318_);fill:#FFFFFF;" d="M789.146,848.435
			c-4.506,3.798-8.276,8.719-9.684,14.441c-1.409,5.722-0.137,12.285,4.101,16.381c4.73,4.572,12.3,5.272,18.469,2.988
			c6.169-2.283,11.098-7.086,15.027-12.361c3.458-4.643,6.36-9.961,6.769-15.736c0.449-6.339-3.278-15.538-10.616-15.306
			C804.52,839.117,795.746,842.873,789.146,848.435z"/>
		<path style="clip-path:url(#SVGID_00000174587415956724430080000010503577468137616318_);fill:#FFFFFF;" d="M921.255,849.211
			c-0.661,5.209,0.677,10.626,3.015,15.339c2.615,5.271,6.502,10.007,11.549,13.031c5.047,3.025,11.303,4.215,16.965,2.615
			c10.441-2.951,14.694-14.729,11.32-24.525c-3.793-11.013-17.044-16.369-27.612-18.266c-2.525-0.453-5.19-0.706-7.603,0.165
			c-2.642,0.954-4.684,3.186-5.902,5.718C922.07,845.195,921.512,847.187,921.255,849.211z"/>
		<path style="opacity:0.43;clip-path:url(#SVGID_00000174587415956724430080000010503577468137616318_);fill:#FFC7CF;" d="
			M855.83,935.724c-19.471,1.132-29.111-48.212,16.744-45.659c48.512,2.7,32.056,49.593,15.063,45.659
			c-16.993-3.934-12.615-7.297-12.615-7.297S875.301,934.592,855.83,935.724z"/>
		<path style="clip-path:url(#SVGID_00000174587415956724430080000010503577468137616318_);fill:#FFFFFF;" d="M858.453,898.618
			c-4.455,1.594-8.469,4.677-10.66,8.87c-1.108,2.12-1.733,4.466-2.064,6.834c-0.732,5.242,0.025,10.823,2.888,15.275
			c2.863,4.451,8.019,7.566,13.301,7.235c4.544-0.284,8.738-2.96,13.29-2.911c3.605,0.038,7.017,1.791,10.621,1.897
			c4.18,0.123,8.269-2.101,10.76-5.459c2.491-3.359,3.443-7.73,2.977-11.885c-0.681-6.076-4.13-12.487-9.003-16.179
			C882.077,895.865,868.47,895.033,858.453,898.618z"/>
		<path style="clip-path:url(#SVGID_00000174587415956724430080000010503577468137616318_);fill:#603838;" d="M876.458,912.502
			c0,2.381-2.603,4.311-5.814,4.311c-3.211,0-5.814-1.93-5.814-4.311c0-2.381,2.603-4.311,5.814-4.311
			C873.855,908.191,876.458,910.121,876.458,912.502z"/>
		<path style="opacity:0.4;clip-path:url(#SVGID_00000174587415956724430080000010503577468137616318_);fill:#FF432C;" d="
			M513.654,718.376c0,0,4.87,24.838,65.134,52.419c60.264,27.581,107.143,34.647,107.143,34.647l-4.07,7.408
			c0,0-130.301-21.735-163.458-51.02c-9.499-11.375-9.499-24.807-7.125-35.396C511.938,723.494,512.78,720.773,513.654,718.376
			L513.654,718.376z"/>
		<path style="clip-path:url(#SVGID_00000174587415956724430080000010503577468137616318_);fill:#453FAF;" d="M559.729,687.32
			c-28.102-2.02-41.326,20.781-41.326,20.781s-18.519,30.196-0.706,52.857c0.229,0.292,0.465,0.582,0.706,0.872
			c0,0-8.561-16.178,2.783-41.749C536.11,686.44,563.997,687.627,559.729,687.32z"/>
		<g style="clip-path:url(#SVGID_00000174587415956724430080000010503577468137616318_);">
			<path style="opacity:0.42;fill:#FFC2C2;" d="M865.223,697.698H735.049c-2.907,0-5.264-2.357-5.264-5.264v-138.2
				c0-2.907,2.357-5.264,5.264-5.264h130.174c2.907,0,5.264,2.357,5.264,5.264v138.2
				C870.487,695.341,868.13,697.698,865.223,697.698z"/>
			<path style="fill:#E6F9FF;" d="M859.167,690.971h-130.32c-2.867,0-5.191-2.324-5.191-5.19V551.538c0-2.867,2.324-5.19,5.191-5.19
				h130.32c2.867,0,5.19,2.324,5.19,5.19V685.78C864.358,688.647,862.034,690.971,859.167,690.971z"/>
			<path style="fill:#FDB6B5;" d="M847.538,678.346H740.476c-1.911,0-3.46-1.549-3.46-3.46V562.431c0-1.911,1.549-3.46,3.46-3.46
				h107.062c1.911,0,3.46,1.549,3.46,3.46v112.455C850.998,676.797,849.449,678.346,847.538,678.346z"/>
			<path style="fill:#FFC2C2;" d="M843.782,672.586h-99.55c-0.962,0-1.742-0.78-1.742-1.742V566.474c0-0.962,0.78-1.742,1.742-1.742
				h99.55c0.962,0,1.742,0.78,1.742,1.742v104.371C845.524,671.806,844.744,672.586,843.782,672.586z"/>
			<path style="fill:#FF826A;" d="M773.488,678.455c0,0,2.778-29.28,24.839-27.127c22.061,2.153,22.061,27.127,22.061,27.127
				H773.488z"/>
			<g>
				
					<ellipse transform="matrix(0.7416 -0.6708 0.6708 0.7416 -215.6718 695.9583)" style="fill:#FFC2C2;" cx="795.559" cy="627.934" rx="35.632" ry="35.632"/>
				
					<ellipse transform="matrix(0.7416 -0.6708 0.6708 0.7416 -215.6718 695.9583)" style="opacity:0.71;fill:#FF826A;" cx="795.559" cy="627.934" rx="35.632" ry="35.632"/>
			</g>
			<path style="fill:#FF826A;" d="M764.641,598.755c0.514-7.642,4.361-15.002,10.343-19.786c0.411-0.329,0.85-0.654,1.364-0.766
				c1.57-0.34,2.768,1.349,3.444,2.807c2.224,4.799,3.98,9.815,5.234,14.954c0.245,1.003,0.472,2.042,0.304,3.06
				c-0.215,1.31-1.053,2.424-1.924,3.425c-2.182,2.506-4.748,4.677-7.581,6.414c-2.624,1.609-7.707,3.796-10.11,0.668
				C763.89,607.155,764.458,601.474,764.641,598.755z"/>
			<path style="fill:#FF826A;" d="M805.345,582.144c0.376-1.206,0.843-2.386,1.593-3.396c2.173-2.928,5.436-2.415,7.527,0.37
				c4.439,5.916,6.695,13.228,6.947,20.62c0.087,2.554-0.311,5.509-2.461,6.891c-1.968,1.266-4.573,0.66-6.74-0.224
				c-3.545-1.446-8.17-3.31-9.109-7.461c-0.35-1.55-0.257-3.164-0.104-4.746c0.365-3.79,1.058-7.55,2.098-11.213
				C805.175,582.706,805.258,582.424,805.345,582.144z"/>
			<path style="opacity:0.49;fill:#603838;" d="M789.952,628.266c0,1.591-1.29,2.88-2.88,2.88c-1.591,0-2.88-1.29-2.88-2.88
				c0-1.591,1.29-2.88,2.88-2.88C788.662,625.386,789.952,626.676,789.952,628.266z"/>
			<path style="opacity:0.49;fill:#603838;" d="M806.6,627.878c0.214,1.576-0.89,3.028-2.466,3.242
				c-1.576,0.214-3.028-0.89-3.242-2.466c-0.214-1.576,0.89-3.028,2.466-3.242C804.935,625.198,806.386,626.302,806.6,627.878z"/>
			<path style="opacity:0.49;fill:#603838;" d="M799.5,637.941c0.214,1.576-0.89,3.028-2.466,3.242
				c-1.576,0.214-3.028-0.89-3.242-2.466c-0.214-1.576,0.89-3.028,2.466-3.242C797.834,635.26,799.286,636.365,799.5,637.941z"/>
		</g>
		<path style="opacity:0.26;clip-path:url(#SVGID_00000174587415956724430080000010503577468137616318_);fill:#19136D;" d="
			M266.424,893.347c0,0-3.476,8.372,26.535,6.799C322.97,898.573,341,880.421,341,880.421l-45.984,6.535L266.424,893.347z"/>
		<g style="clip-path:url(#SVGID_00000174587415956724430080000010503577468137616318_);">
			<path style="fill:#00A7EC;" d="M289.974,923.017c-0.17-7.716-0.276-15.432-0.239-23.148c-0.008-7.716,0.012-15.432,0.173-23.148
				l0.179-11.574l0.094-5.814c0.095-2.725,0.878-5.471,2.391-7.71c2.954-4.547,8.249-7.043,13.199-6.861
				c0.676,0.012,1.11,0.054,1.595,0.086l1.447,0.102l2.893,0.197c1.929,0.118,3.858,0.21,5.787,0.271
				c1.42,0.045,2.535,1.233,2.49,2.653c-0.043,1.363-1.147,2.444-2.49,2.49c-1.929,0.061-3.858,0.154-5.787,0.271l-2.893,0.197
				l-1.447,0.102c-0.479,0.034-1.01,0.059-1.297,0.14c-2.802,0.41-4.865,2.563-5.67,4.758c-0.394,1.119-0.577,2.23-0.543,3.357
				l0.088,5.76l0.179,11.574c0.161,7.716,0.181,15.432,0.173,23.148c0.037,7.716-0.069,15.432-0.239,23.148
				c-0.061,2.785-2.368,4.992-5.153,4.931C292.199,927.888,290.037,925.695,289.974,923.017z"/>
			<path style="fill:#00A7EC;" d="M317.493,858.56h-20.542c-1.113,0-2.018-0.904-2.018-2.018c0-1.113,0.904-2.018,2.018-2.018
				h20.542c1.114,0,2.018,0.904,2.018,2.018C319.511,857.655,318.607,858.56,317.493,858.56z"/>
			<path style="fill:#00A7EC;" d="M317.493,865.046h-20.542c-1.113,0-2.018-0.904-2.018-2.018c0-1.113,0.904-2.018,2.018-2.018
				h20.542c1.114,0,2.018,0.904,2.018,2.018C319.511,864.142,318.607,865.046,317.493,865.046z"/>
			<path style="fill:#00A7EC;" d="M317.493,871.548h-20.542c-1.113,0-2.018-0.904-2.018-2.018c0-1.114,0.904-2.018,2.018-2.018
				h20.542c1.114,0,2.018,0.904,2.018,2.018C319.511,870.643,318.607,871.548,317.493,871.548z"/>
			<path style="fill:#00A7EC;" d="M317.493,878.021h-20.542c-1.113,0-2.018-0.904-2.018-2.018c0-1.113,0.904-2.018,2.018-2.018
				h20.542c1.114,0,2.018,0.904,2.018,2.018C319.511,877.117,318.607,878.021,317.493,878.021z"/>
			<path style="fill:#00A7EC;" d="M317.493,884.313h-20.542c-1.113,0-2.018-0.904-2.018-2.018c0-1.113,0.904-2.018,2.018-2.018
				h20.542c1.114,0,2.018,0.904,2.018,2.018C319.511,883.409,318.607,884.313,317.493,884.313z"/>
		</g>
		<path style="clip-path:url(#SVGID_00000174587415956724430080000010503577468137616318_);fill:#3B3B9E;" d="M266.457,892.764
			c0,0,21.238,3.025,39.692,0.363C324.603,890.465,341,880.421,341,880.421s0.726,17.123,0,46.953
			c-0.726,29.829-1.906,30.192-5.718,36.092c-3.071,4.752-11.103,9.095-32.643,8.924c-18.019-0.143-27.348-3.146-33.52-11.617
			C262.948,952.301,266.457,892.764,266.457,892.764z"/>
		<path style="clip-path:url(#SVGID_00000174587415956724430080000010503577468137616318_);fill:#603838;" d="M478.992,268.135
			c-0.814-1.178-2.038-1.645-3.211-1.859c-1.184-0.224-2.366-0.33-3.543-0.291c-1.176,0.029-2.349,0.185-3.498,0.491
			c-1.146,0.308-2.281,0.756-3.325,1.429c-0.865,0.558-1.115,1.711-0.557,2.577c0.418,0.648,1.17,0.951,1.885,0.827l0.147-0.026
			c1.692-0.295,3.497-0.333,5.262-0.212c0.882,0.077,1.758,0.181,2.594,0.362c0.845,0.192,1.608,0.326,2.658,0.029l0.436-0.124
			c1.112-0.314,1.758-1.471,1.443-2.582C479.22,268.53,479.117,268.317,478.992,268.135z"/>
		<path style="clip-path:url(#SVGID_00000174587415956724430080000010503577468137616318_);fill:#603838;" d="M533.985,286.755
			c-1.019-1.956-2.543-3.658-4.356-4.967c-0.909-0.651-1.882-1.224-2.914-1.672c-1.018-0.442-2.093-0.984-3.376-0.346
			c-1.172,0.583-1.649,2.005-1.067,3.176c0.019,0.039,0.039,0.076,0.06,0.113l0.172,0.301c0.616,1.08,1.399,1.153,2.172,1.484
			c0.758,0.324,1.508,0.68,2.229,1.099c1.447,0.83,2.817,1.831,4.121,3.009c0.821,0.741,2.001,0.681,2.691-0.084
			C534.251,288.273,534.332,287.426,533.985,286.755z"/>
		<path style="clip-path:url(#SVGID_00000174587415956724430080000010503577468137616318_);fill:#453FAF;" d="M461.447,286.424
			c-1.404,4.758,0.256,9.441,3.707,10.46c3.451,1.018,7.387-2.014,8.791-6.772c1.404-4.758-0.256-9.441-3.707-10.46
			C466.788,278.633,462.852,281.665,461.447,286.424z"/>
		<path style="opacity:0.2;clip-path:url(#SVGID_00000174587415956724430080000010503577468137616318_);fill:#FFFFFF;" d="
			M464.579,294.105c-0.056-0.951,0.62-1.776,1.541-1.926c1.266-0.867,3.012-6.263,2.404-7.502c-0.563-0.839-0.345-1.975,0.489-2.547
			c0.841-0.573,1.987-0.359,2.562,0.48c1.683,2.46,0.09,7.266-0.987,9.463c-1.18,2.409-2.547,3.675-4.06,3.765
			c-0.083,0.005-0.168,0.003-0.249-0.003C465.372,295.766,464.635,295.037,464.579,294.105z"/>
		<path style="clip-path:url(#SVGID_00000174587415956724430080000010503577468137616318_);fill:#453FAF;" d="M514.005,300.999
			c-1.96,4.557-0.869,9.405,2.436,10.827c3.306,1.422,7.574-1.121,9.534-5.678c1.96-4.557,0.87-9.405-2.436-10.826
			C520.234,293.899,515.965,296.441,514.005,300.999z"/>
		<path style="opacity:0.2;clip-path:url(#SVGID_00000174587415956724430080000010503577468137616318_);fill:#FFFFFF;" d="
			M518.128,310.871c0.12,0.024,0.244,0.036,0.373,0.035c1.499-0.012,2.909-1.189,4.19-3.498c1.164-2.099,2.961-6.73,1.427-9.23
			c-0.533-0.866-1.672-1.139-2.535-0.606c-0.862,0.529-1.136,1.651-0.617,2.516c0.526,1.269-1.403,6.337-2.696,7.146
			c-0.922,0.108-1.633,0.895-1.626,1.845C516.65,309.968,517.288,310.705,518.128,310.871z"/>
		<path style="opacity:0.28;clip-path:url(#SVGID_00000174587415956724430080000010503577468137616318_);fill:#19136D;" d="
			M274.202,771.753l-5.95,12.036c0,0,19.262,13.256,79.525,25.236c60.264,11.98,103.344,5.083,103.344,5.083V802.49L274.202,771.753
			z"/>
		<path style="clip-path:url(#SVGID_00000174587415956724430080000010503577468137616318_);fill:#FFBA94;" d="M299.977,444.054
			c-38.482-9.439-48.283,39.571-48.283,39.571S199.417,706.891,213.697,741.5c11.993,36.545,211.043,53.729,252.55,72.849
			c23.96,11.133,45.621,29.043,56.996,30.858c17.91,2.783,29.769-8.531,32.31-16.7c1.168-3.756,2.832-11.596,2.178-18.787
			c-0.768-8.448-3.993-16.064-3.993-16.064s-1.331,7.745-3.993,9.439c-2.662,1.694-20.451,2.783-27.591,0
			c-7.14-2.783-14.158-12.343-14.158-12.343l3.267-8.713c0,0-38.72-2.093-41.991-3.267c-3.27-1.174-184.905-65.951-190.714-83.256
			c-5.809-17.305,36.787-182.001,36.787-182.001S328.294,454.582,299.977,444.054z"/>
		<path style="clip-path:url(#SVGID_00000174587415956724430080000010503577468137616318_);fill:#FFAA85;" d="M292.262,776.598
			l7.417,1.703c0,0,20.628,3.557,29.885-17.318c9.257-20.874-1.127-37.075-1.127-37.075l-12.124-5.763L292.262,776.598z"/>
		<path style="clip-path:url(#SVGID_00000174587415956724430080000010503577468137616318_);fill:#FFFFFF;" d="M320.579,720.404
			c-23.258-10.529-40.305-19.778-42.02-24.888c-5.809-17.305,36.787-182.001,36.787-182.001s15.005-62.2-15.368-72.849
			c-38.482-9.439-48.283,42.959-48.283,42.959S199.417,706.891,213.697,741.5c4.705,14.337,38.199,25.694,79.676,35.357
			c0,0,13.502-5.105,22.457-23.014C324.785,735.933,320.579,720.404,320.579,720.404z"/>
	</g>
	<path style="fill:#FFFFFF;" d="M738.498,869.719c-0.686,0-1.353-0.351-1.732-0.98c-1.024-1.708-2.656-3.129-4.386-4.63
		c-2.63-2.288-5.351-4.652-6.245-8.347c-0.76-3.151,0.15-6.245,0.952-8.972c0.2-0.68,0.401-1.357,0.573-2.033
		c0.675-2.63,0.706-5.909-1.233-7.223c-0.922-0.625-1.161-1.88-0.536-2.802c0.625-0.922,1.876-1.161,2.802-0.536
		c3.116,2.113,4.19,6.436,2.876,11.563c-0.185,0.721-0.399,1.444-0.612,2.17c-0.723,2.46-1.407,4.785-0.9,6.883
		c0.591,2.445,2.717,4.294,4.97,6.251c1.891,1.645,3.846,3.345,5.198,5.602c0.573,0.956,0.261,2.194-0.693,2.767
		C739.209,869.626,738.851,869.719,738.498,869.719z"/>
	<path style="fill:#FFFFFF;" d="M714.849,899.216c-0.497,0-0.996-0.183-1.386-0.551c-6.349-5.998-7.861-16.601-3.44-24.135
		c0.56-0.961,1.795-1.288,2.759-0.719c0.961,0.562,1.283,1.798,0.719,2.758c-3.508,5.983-2.307,14.4,2.734,19.163
		c0.808,0.765,0.845,2.042,0.081,2.852C715.919,899.003,715.386,899.216,714.849,899.216z"/>
	<path style="fill:#FFFFFF;" d="M751.011,935.359c-0.638,0-1.266-0.303-1.658-0.865c-1.867-2.684-1.658-5.903-1.471-8.741
		c0.226-3.493,0.242-6.977-1.129-9.868c-1.179-2.488-3.499-4.658-6.534-6.107c-1.005-0.479-1.432-1.684-0.95-2.689
		c0.482-1,1.678-1.436,2.689-0.95c3.867,1.845,6.866,4.695,8.441,8.018c1.763,3.724,1.771,7.824,1.519,11.698
		c-0.161,2.445-0.314,4.808,0.747,6.334c0.636,0.915,0.41,2.172-0.503,2.809C751.811,935.241,751.408,935.359,751.011,935.359z"/>
	<path style="fill:#FFFFFF;" d="M788.028,942.641c-0.436,0-0.876-0.142-1.246-0.434c-2.915-2.299-3.628-6.018-3.711-8.731
		c-0.039-1.235,0.028-2.449,0.094-3.621c0.081-1.497,0.159-2.911,0.024-4.281c-0.242-2.438-1.266-4.336-2.741-5.079
		c-0.993-0.503-1.394-1.714-0.893-2.71c0.501-0.996,1.708-1.394,2.71-0.893c2.715,1.37,4.56,4.466,4.937,8.286
		c0.166,1.68,0.076,3.316-0.011,4.898c-0.061,1.091-0.122,2.185-0.089,3.275c0.048,1.521,0.392,4.281,2.177,5.689
		c0.876,0.691,1.024,1.959,0.336,2.833C789.215,942.377,788.625,942.641,788.028,942.641z"/>
	<path style="fill:#FFFFFF;" d="M688.76,895.153c-0.591,0-1.177-0.259-1.575-0.754c-1.355-1.689-2.301-3.704-2.732-5.831
		c-0.617-3.048-0.15-6.107,0.262-8.807l1.286-8.441c0.168-1.1,1.166-1.863,2.299-1.688c1.1,0.167,1.857,1.196,1.689,2.298
		l-1.285,8.441c-0.379,2.482-0.769,5.051-0.296,7.397c0.305,1.495,0.97,2.915,1.926,4.102c0.697,0.87,0.558,2.138-0.309,2.837
		C689.649,895.007,689.202,895.153,688.76,895.153z"/>
	<path style="fill:#FFFFFF;" d="M697.9,949.21c-0.418,0-0.843-0.13-1.205-0.403c-3.242-2.421-3.157-7.034-3.118-9.249l0.131-7.134
		c0.046-2.309-0.015-4.671-1.253-5.972c-0.769-0.806-0.739-2.083,0.068-2.85c0.808-0.767,2.081-0.736,2.852,0.068
		c2.486,2.61,2.412,6.504,2.366,8.831l-0.129,7.131c-0.046,2.473,0.105,4.905,1.497,5.946c0.893,0.667,1.076,1.93,0.408,2.822
		C699.123,948.929,698.515,949.21,697.9,949.21z"/>
	<path style="fill:#FFFFFF;" d="M778.195,759.048c-0.283,0-0.571-0.061-0.845-0.187c-1.011-0.468-1.451-1.669-0.983-2.678
		c1.573-3.392,4.497-6.051,8.023-7.292c2.002-0.704,4.033-0.913,5.998-1.116c0.793-0.081,1.584-0.161,2.368-0.279
		c2.806-0.418,4.743-1.325,5.756-2.7c0.664-0.896,1.922-1.087,2.822-0.425c0.896,0.662,1.085,1.926,0.425,2.822
		c-1.675,2.266-4.504,3.711-8.41,4.294c-0.843,0.124-1.695,0.213-2.547,0.301c-1.81,0.185-3.521,0.362-5.072,0.906
		c-2.469,0.87-4.602,2.809-5.702,5.184C779.685,758.614,778.957,759.048,778.195,759.048z"/>
	<path style="fill:#FFFFFF;" d="M860.149,772.812c-0.505,0-1.009-0.19-1.401-0.567c-0.802-0.773-0.823-2.05-0.05-2.852
		c4.196-4.344,10.672-6.092,16.485-4.475c1.072,0.3,1.7,1.414,1.401,2.486c-0.303,1.074-1.425,1.695-2.486,1.401
		c-4.34-1.216-9.367,0.148-12.498,3.39C861.204,772.605,860.677,772.812,860.149,772.812z"/>
	<path style="fill:#FFFFFF;" d="M780.783,799.389c-0.506,0-1.009-0.19-1.401-0.567c-0.802-0.773-0.824-2.05-0.05-2.852
		c4.199-4.347,10.67-6.098,16.487-4.477c1.072,0.301,1.7,1.414,1.401,2.486c-0.303,1.074-1.425,1.691-2.486,1.401
		c-4.347-1.216-9.367,0.15-12.5,3.392C781.838,799.182,781.31,799.389,780.783,799.389z"/>
	<path style="fill:#FFFFFF;" d="M862.868,726.551c-0.564,0-1.126-0.238-1.525-0.699c-0.73-0.841-0.636-2.116,0.207-2.843
		c5.275-4.565,13.08-5.659,19.411-2.713c1.011,0.468,1.449,1.667,0.978,2.678c-0.466,1.009-1.664,1.455-2.678,0.978
		c-4.839-2.242-11.036-1.381-15.076,2.107C863.805,726.389,863.337,726.551,862.868,726.551z"/>
	<path style="fill:#FFFFFF;" d="M759.997,983.156c-0.253,0-0.508-0.048-0.752-0.146c-3.127-1.255-4.098-4.831-3.978-7.511
		c0.043-0.989,0.189-1.935,0.331-2.85c0.187-1.216,0.364-2.366,0.264-3.43c-0.113-1.229-0.961-2.632-1.887-2.632
		c-1.177,0.002-2.072-0.861-2.105-1.955c-0.035-1.113,0.841-2.044,1.954-2.076c0.052-0.002,0.107-0.002,0.161-0.002
		c3.325,0,5.6,3.166,5.894,6.29c0.146,1.56-0.078,3.013-0.296,4.419c-0.122,0.804-0.251,1.606-0.285,2.412
		c-0.039,0.859,0.109,1.795,0.444,2.51c0.407,0.111,0.785,0.349,1.063,0.708l0.778,1c0.564,0.717,0.575,1.723,0.026,2.456
		C761.221,982.869,760.618,983.156,759.997,983.156z"/>
	<path style="fill:#FFFFFF;" d="M778.075,847.729c-0.174,0-0.349-0.022-0.523-0.07c-4.113-1.1-7.824-3.769-10.177-7.323
		c-0.453-0.684-0.861-1.405-1.266-2.127c-0.638-1.138-1.242-2.212-2.02-3.048c-0.904-0.972-2.401-1.673-3.364-1.153
		c-0.978,0.531-2.203,0.17-2.734-0.813c-0.529-0.978-0.168-2.203,0.813-2.734c2.935-1.591,6.328-0.102,8.24,1.954
		c1.105,1.187,1.856,2.525,2.582,3.817c0.357,0.634,0.712,1.27,1.111,1.874c1.819,2.745,4.682,4.807,7.857,5.656
		c1.077,0.288,1.715,1.392,1.427,2.469C779.779,847.134,778.964,847.729,778.075,847.729z"/>
</g>
</svg>
