<?xml version="1.0" encoding="utf-8"?>
<!-- Generator: Adobe Illustrator 27.5.0, SVG Export Plug-In . SVG Version: 6.00 Build 0)  -->
<svg version="1.1" xmlns="http://www.w3.org/2000/svg" xmlns:xlink="http://www.w3.org/1999/xlink" x="0px" y="0px"
	 viewBox="0 0 500 500" style="enable-background:new 0 0 500 500;" xml:space="preserve">
<g id="Background_Complete">
	<g>
		<rect y="382.398" style="fill:#EBEBEB;" width="500" height="0.25"/>
		<rect x="328.878" y="390.343" style="fill:#EBEBEB;" width="33.122" height="0.25"/>
		<rect x="399.779" y="390.468" style="fill:#EBEBEB;" width="41.14" height="0.25"/>
		<rect x="356.762" y="397" style="fill:#EBEBEB;" width="19.192" height="0.25"/>
		<rect x="174" y="395.111" style="fill:#EBEBEB;" width="51.667" height="0.25"/>
		<rect x="130.708" y="395.111" style="fill:#EBEBEB;" width="34.389" height="0.25"/>
		<rect x="63.287" y="390.888" style="fill:#EBEBEB;" width="46.838" height="0.25"/>
		<path style="fill:#EBEBEB;" d="M237.014,337.8H43.915c-3.147,0-5.708-2.561-5.708-5.708V60.66c0-3.147,2.561-5.708,5.708-5.708
			h193.099c3.146,0,5.707,2.561,5.707,5.708v271.432C242.721,335.239,240.16,337.8,237.014,337.8z M43.915,55.203
			c-3.01,0-5.458,2.448-5.458,5.458v271.432c0,3.01,2.448,5.458,5.458,5.458h193.099c3.009,0,5.457-2.448,5.457-5.458V60.66
			c0-3.009-2.448-5.458-5.457-5.458H43.915z"/>
		<path style="fill:#EBEBEB;" d="M453.31,337.8H260.212c-3.147,0-5.707-2.561-5.707-5.708V60.66c0-3.147,2.561-5.708,5.707-5.708
			H453.31c3.148,0,5.708,2.561,5.708,5.708v271.432C459.019,335.239,456.458,337.8,453.31,337.8z M260.212,55.203
			c-3.009,0-5.457,2.448-5.457,5.458v271.432c0,3.01,2.448,5.458,5.457,5.458H453.31c3.01,0,5.458-2.448,5.458-5.458V60.66
			c0-3.009-2.448-5.458-5.458-5.458H260.212z"/>
	</g>
	<g>
		<g>
			<path style="fill:#E0E0E0;" d="M377.765,221.782c0,6.767-4.702,9.431-10.502,9.431c-5.8,0-10.502-2.664-10.502-9.431
				c0-6.767,4.702-12.253,10.502-12.253C373.063,209.528,377.765,215.014,377.765,221.782z"/>
			<path style="fill:#E0E0E0;" d="M356.787,207.609c0,0-0.475,6.073,2.701,9.15l6.117-4.346
				C364.279,209.513,356.787,207.609,356.787,207.609z"/>
			<path style="fill:#E0E0E0;" d="M380.345,208.429c0,0-6.919,0.13-10.078,3.596l5.539,5.657
				C378.952,216.074,380.345,208.429,380.345,208.429z"/>
			<path style="fill:#E0E0E0;" d="M360.183,226.444c-0.418,9.333,1.36,36.222,3.776,40.056c-2.917-0.833-4.667,1.333-3.375,3.542
				c4.417,0,44.292,0,44.292,0s5.333-28.375-21.953-30.708c-5.167-5.555-7.436-14.944-7.436-14.944L360.183,226.444z"/>
			<path style="fill:#E0E0E0;" d="M402.553,262.835c0.99,0.639,2.49,0.813,3.955,0.549c1.476-0.244,2.952-0.819,4.273-1.647
				c2.656-1.645,4.718-4.236,5.604-7.197c0.909-2.973,0.529-6.229-0.604-9.208c-0.601-1.485-1.305-2.946-2.206-4.313
				c-0.408-0.704-0.932-1.348-1.389-2.025c-0.502-0.712-1.061-1.428-1.549-2.178c-0.997-1.496-1.868-3.104-2.581-4.816
				c-0.681-1.728-1.167-3.6-1.228-5.584c-0.059-1.969,0.347-4.097,1.468-5.902c1.091-1.804,2.734-3.278,4.585-4.147
				c3.729-1.78,7.863-1.702,11.555-0.761c1.861,0.473,3.657,1.169,5.336,2.067c1.673,0.906,3.248,1.973,4.728,3.158
				c1.195,0.956,1.389,2.7,0.433,3.896c-0.956,1.195-2.7,1.389-3.896,0.433c-0.077-0.061-0.149-0.125-0.217-0.193l-0.013-0.014
				c-2.183-2.163-4.802-3.902-7.67-4.866c-2.844-0.961-5.996-1.11-8.579-0.064c-1.289,0.514-2.36,1.37-3.098,2.462
				c-0.752,1.088-1.093,2.459-1.114,3.902c-0.018,1.447,0.289,2.965,0.804,4.446c0.549,1.476,1.252,2.929,2.102,4.323
				c0.42,0.704,0.891,1.363,1.351,2.069c0.49,0.75,1.036,1.456,1.477,2.244c0.957,1.52,1.725,3.175,2.371,4.88
				c1.245,3.423,1.61,7.342,0.496,10.967c-1.077,3.626-3.562,6.742-6.725,8.716c-1.57,1.012-3.319,1.775-5.222,2.138
				c-0.952,0.171-1.939,0.27-2.963,0.155c-1.017-0.098-2.077-0.363-3.06-0.935c-0.716-0.417-0.959-1.335-0.543-2.051
				s1.335-0.959,2.051-0.543c0.019,0.011,0.037,0.022,0.055,0.034L402.553,262.835z"/>
		</g>
		<path style="fill:#E0E0E0;" d="M226.056,140.556c3-11.778,1.444-18.351,1.444-18.351s-2.225-2.76-0.946-5.426
			c0,0,3.835,1.944,5.39,3.222c1.111-1.278,10-0.556,12.778,0.333c-1.222-1.722-0.278-4.111-0.278-4.111s3.778,1.57,5.945,5.98
			c2.167,4.409,1.752,14.3,1.752,14.3s33.192-10.335,35.915,24.165c-41,0-60,0-60,0S223.634,150.061,226.056,140.556z"/>
		<g>
			<path style="fill:#E0E0E0;" d="M78.729,307.899c1.979-0.99,6.528-1.853,10.47-5.816c0.358-4.922,6.89-10.843,17.629-10.201
				c10.977,0.656,15.928,28.725,6.759,20.343c2.148,6.92,2.786,22.677,21.876,37.464c13.71,10.62,13.781,31.2,3.042,31.2
				c-15.391,0-47.487,0-52.259,0c-4.773,0,0-8.948,5.488-8.233c5.011-3.579,4.057-25.533,4.057-25.533s-7.504-22.043-2.476-29.56
				C87.499,320.517,74.255,317.862,78.729,307.899z"/>
			<path style="fill:#E0E0E0;" d="M158.542,346.535c3.805,11.28-1.087,25.142-15.764,22.152l1.087,2.99
				C160.173,381.19,175.666,360.031,158.542,346.535z"/>
		</g>
		<g>
			<g>
				<g>
					<path style="fill:#F0F0F0;" d="M176.165,273.601v106.864H54.934V273.601H176.165 M178.099,271.667H53v110.732h125.099V271.667
						L178.099,271.667z"/>
					<rect x="58.036" y="271.669" style="fill:#F0F0F0;" width="1.934" height="110.732"/>
					<rect x="80.653" y="271.669" style="fill:#F0F0F0;" width="1.934" height="110.732"/>
					<rect x="103.271" y="271.669" style="fill:#F0F0F0;" width="1.934" height="110.732"/>
					<rect x="125.889" y="271.669" style="fill:#F0F0F0;" width="1.934" height="110.732"/>
					<rect x="148.507" y="271.669" style="fill:#F0F0F0;" width="1.934" height="110.732"/>
					<rect x="171.124" y="271.669" style="fill:#F0F0F0;" width="1.934" height="110.732"/>
				</g>
				<rect x="53.624" y="327.035" style="fill-rule:evenodd;clip-rule:evenodd;fill:#F0F0F0;" width="18.711" height="18.167"/>
			</g>
			<g>
				<g>
					<path style="fill:#F0F0F0;" d="M310.615,273.601v106.864h-121.23V273.601H310.615 M312.549,271.667H187.451v110.732h125.099
						V271.667L312.549,271.667z"/>
					<rect x="192.486" y="271.669" style="fill:#F0F0F0;" width="1.934" height="110.732"/>
					<rect x="215.105" y="271.669" style="fill:#F0F0F0;" width="1.934" height="110.732"/>
					<rect x="237.722" y="271.669" style="fill:#F0F0F0;" width="1.934" height="110.732"/>
					<rect x="260.34" y="271.669" style="fill:#F0F0F0;" width="1.934" height="110.732"/>
					<rect x="282.957" y="271.669" style="fill:#F0F0F0;" width="1.934" height="110.732"/>
					<rect x="305.575" y="271.669" style="fill:#F0F0F0;" width="1.934" height="110.732"/>
				</g>
				<rect x="188.074" y="327.035" style="fill-rule:evenodd;clip-rule:evenodd;fill:#F0F0F0;" width="18.711" height="18.167"/>
			</g>
			<g>
				<g>
					<path style="fill:#F0F0F0;" d="M445.066,273.601v106.864h-121.23V273.601H445.066 M447,271.667H321.901v110.732H447V271.667
						L447,271.667z"/>
					<rect x="326.938" y="271.669" style="fill:#F0F0F0;" width="1.934" height="110.732"/>
					<rect x="349.555" y="271.669" style="fill:#F0F0F0;" width="1.934" height="110.732"/>
					<rect x="372.173" y="271.669" style="fill:#F0F0F0;" width="1.934" height="110.732"/>
					<rect x="394.79" y="271.669" style="fill:#F0F0F0;" width="1.934" height="110.732"/>
					<rect x="417.408" y="271.669" style="fill:#F0F0F0;" width="1.934" height="110.732"/>
					<rect x="440.026" y="271.669" style="fill:#F0F0F0;" width="1.934" height="110.732"/>
				</g>
				<rect x="322.525" y="327.035" style="fill-rule:evenodd;clip-rule:evenodd;fill:#F0F0F0;" width="18.711" height="18.167"/>
			</g>
			<g>
				<g>
					<path style="fill:#F0F0F0;" d="M176.165,162.867V269.73H54.934V162.867H176.165 M178.099,160.933H53v110.731h125.099V160.933
						L178.099,160.933z"/>
					<rect x="58.036" y="160.935" style="fill:#F0F0F0;" width="1.934" height="110.732"/>
					<rect x="80.653" y="160.935" style="fill:#F0F0F0;" width="1.934" height="110.732"/>
					<rect x="103.271" y="160.935" style="fill:#F0F0F0;" width="1.934" height="110.732"/>
					<rect x="125.889" y="160.935" style="fill:#F0F0F0;" width="1.934" height="110.732"/>
					<rect x="148.507" y="160.935" style="fill:#F0F0F0;" width="1.934" height="110.732"/>
					<rect x="171.124" y="160.935" style="fill:#F0F0F0;" width="1.934" height="110.732"/>
				</g>
				<rect x="53.624" y="216.301" style="fill-rule:evenodd;clip-rule:evenodd;fill:#F0F0F0;" width="18.711" height="18.167"/>
			</g>
			<g>
				<g>
					<path style="fill:#F0F0F0;" d="M310.615,162.867V269.73h-121.23V162.867H310.615 M312.549,160.933H187.451v110.731h125.099
						V160.933L312.549,160.933z"/>
					<rect x="192.486" y="160.935" style="fill:#F0F0F0;" width="1.934" height="110.732"/>
					<rect x="215.105" y="160.935" style="fill:#F0F0F0;" width="1.934" height="110.732"/>
					<rect x="237.722" y="160.935" style="fill:#F0F0F0;" width="1.934" height="110.732"/>
					<rect x="260.34" y="160.935" style="fill:#F0F0F0;" width="1.934" height="110.732"/>
					<rect x="282.957" y="160.935" style="fill:#F0F0F0;" width="1.934" height="110.732"/>
					<rect x="305.575" y="160.935" style="fill:#F0F0F0;" width="1.934" height="110.732"/>
				</g>
				<rect x="188.074" y="216.301" style="fill-rule:evenodd;clip-rule:evenodd;fill:#F0F0F0;" width="18.711" height="18.167"/>
			</g>
			<g>
				<g>
					<path style="fill:#F0F0F0;" d="M445.066,162.867V269.73h-121.23V162.867H445.066 M447,160.933H321.901v110.731H447V160.933
						L447,160.933z"/>
					<rect x="326.938" y="160.935" style="fill:#F0F0F0;" width="1.934" height="110.732"/>
					<rect x="349.555" y="160.935" style="fill:#F0F0F0;" width="1.934" height="110.732"/>
					<rect x="372.173" y="160.935" style="fill:#F0F0F0;" width="1.934" height="110.732"/>
					<rect x="394.79" y="160.935" style="fill:#F0F0F0;" width="1.934" height="110.732"/>
					<rect x="417.408" y="160.935" style="fill:#F0F0F0;" width="1.934" height="110.732"/>
					<rect x="440.026" y="160.935" style="fill:#F0F0F0;" width="1.934" height="110.732"/>
				</g>
				<rect x="322.525" y="216.301" style="fill-rule:evenodd;clip-rule:evenodd;fill:#F0F0F0;" width="18.711" height="18.167"/>
			</g>
			<g>
				<g>
					<path style="fill:#F0F0F0;" d="M176.165,85.378v73.646H54.934V85.378H176.165 M178.099,83.444H53v77.515h125.099V83.444
						L178.099,83.444z"/>
					<rect x="58.036" y="83.447" style="fill:#F0F0F0;" width="1.934" height="77.515"/>
					<rect x="80.653" y="83.447" style="fill:#F0F0F0;" width="1.934" height="77.515"/>
					<rect x="103.271" y="83.447" style="fill:#F0F0F0;" width="1.934" height="77.515"/>
					<rect x="125.889" y="83.447" style="fill:#F0F0F0;" width="1.934" height="77.515"/>
					<rect x="148.507" y="83.447" style="fill:#F0F0F0;" width="1.934" height="77.515"/>
					<rect x="171.124" y="83.447" style="fill:#F0F0F0;" width="1.934" height="77.515"/>
				</g>
				<rect x="53.624" y="105.596" style="fill-rule:evenodd;clip-rule:evenodd;fill:#F0F0F0;" width="18.711" height="18.167"/>
			</g>
			<g>
				<g>
					<path style="fill:#F0F0F0;" d="M310.615,85.378v73.646h-121.23V85.378H310.615 M312.549,83.444H187.451v77.515h125.099V83.444
						L312.549,83.444z"/>
					<rect x="192.486" y="83.447" style="fill:#F0F0F0;" width="1.934" height="77.515"/>
					<rect x="215.105" y="83.447" style="fill:#F0F0F0;" width="1.934" height="77.515"/>
					<rect x="237.722" y="83.447" style="fill:#F0F0F0;" width="1.934" height="77.515"/>
					<rect x="260.34" y="83.447" style="fill:#F0F0F0;" width="1.934" height="77.515"/>
					<rect x="282.957" y="83.447" style="fill:#F0F0F0;" width="1.934" height="77.515"/>
					<rect x="305.575" y="83.447" style="fill:#F0F0F0;" width="1.934" height="77.515"/>
				</g>
				<rect x="188.074" y="105.596" style="fill-rule:evenodd;clip-rule:evenodd;fill:#F0F0F0;" width="18.711" height="18.167"/>
			</g>
			<g>
				<g>
					<path style="fill:#F0F0F0;" d="M445.066,85.378v73.646h-121.23V85.378H445.066 M447,83.444H321.901v77.515H447V83.444
						L447,83.444z"/>
					<rect x="326.938" y="83.447" style="fill:#F0F0F0;" width="1.934" height="77.515"/>
					<rect x="349.555" y="83.447" style="fill:#F0F0F0;" width="1.934" height="77.515"/>
					<rect x="372.173" y="83.447" style="fill:#F0F0F0;" width="1.934" height="77.515"/>
					<rect x="394.79" y="83.447" style="fill:#F0F0F0;" width="1.934" height="77.515"/>
					<rect x="417.408" y="83.447" style="fill:#F0F0F0;" width="1.934" height="77.515"/>
					<rect x="440.026" y="83.447" style="fill:#F0F0F0;" width="1.934" height="77.515"/>
				</g>
				<rect x="322.525" y="105.596" style="fill-rule:evenodd;clip-rule:evenodd;fill:#F0F0F0;" width="18.711" height="18.167"/>
			</g>
		</g>
	</g>
</g>
<g id="Background_Simple" style="display:none;">
	<g style="display:inline;">
		<path style="fill:#407BFF;" d="M69.778,168.273C63.905,269.047,191.212,332.647,272.51,355.103
			c38.101,10.524,84.043,17.774,118.76-5.997c38.317-26.236,53.768-79.157,31.369-120.317
			c-30.072-55.261-69.438-27.887-117.178-26.795c-54.322,1.243-41.016-43.397-56.885-80.956
			C209.442,28.413,74.877,80.776,69.778,168.273z M169.379,116.528c-0.023-0.013-0.064-0.035-0.132-0.074
			C169.308,116.489,169.354,116.514,169.379,116.528z M167.764,115.631c-0.044-0.025-0.089-0.049-0.125-0.069
			C167.678,115.584,167.72,115.607,167.764,115.631z M167.384,115.421C167.356,115.405,167.357,115.405,167.384,115.421
			L167.384,115.421z M167.58,115.529c-0.095-0.053-0.156-0.086-0.188-0.104C167.428,115.445,167.495,115.482,167.58,115.529z"/>
		<path style="opacity:0.9;fill:#FFFFFF;" d="M69.778,168.273C63.905,269.047,191.212,332.647,272.51,355.103
			c38.101,10.524,84.043,17.774,118.76-5.997c38.317-26.236,53.768-79.157,31.369-120.317
			c-30.072-55.261-69.438-27.887-117.178-26.795c-54.322,1.243-41.016-43.397-56.885-80.956
			C209.442,28.413,74.877,80.776,69.778,168.273z M169.379,116.528c-0.023-0.013-0.064-0.035-0.132-0.074
			C169.308,116.489,169.354,116.514,169.379,116.528z M167.764,115.631c-0.044-0.025-0.089-0.049-0.125-0.069
			C167.678,115.584,167.72,115.607,167.764,115.631z M167.384,115.421C167.356,115.405,167.357,115.405,167.384,115.421
			L167.384,115.421z M167.58,115.529c-0.095-0.053-0.156-0.086-0.188-0.104C167.428,115.445,167.495,115.482,167.58,115.529z"/>
	</g>
</g>
<g id="Shadow_1_">
	<ellipse id="_x3C_Path_x3E__67_" style="fill:#F5F5F5;" cx="250" cy="416.238" rx="193.889" ry="11.323"/>
</g>
<g id="Character_1">
	<g>
		<path style="fill:#263238;" d="M133.452,108.661c-9.626,6.883,6.479,21.288-7.867,24.527c-14.346,3.24-4.042,28.348,9.748,29.829
			c13.791,1.481,39.591,5.437,42.916-15.1c3.034-18.738-6.547-18.503-5.368-26.267c1.439-9.473-1.289-15.454-9.966-20.487
			C150.947,94.223,130.453,93.204,133.452,108.661z"/>
		<path style="fill:#407BFF;" d="M179.371,411.694c-8.506-0.656-12.897-6.474-12.594-12.641c0.167-3.399-10.713-3.704-10.713-3.704
			c2.223,10.542,0.138,12.045-0.44,14.768c-0.581,2.734-0.262,5.733,1.989,5.789c2.696,0.068,3.924-0.447,7.275-0.317
			c3.918,0.152,6.559,0.305,13.511,0.317C181.177,415.912,183.154,411.986,179.371,411.694z"/>
		<path style="fill:#263238;" d="M177.818,213.172c0,0,0.846,49.391-4.567,86.599c-0.201,31.484-5.735,100.715-5.735,100.715
			c-4.039,0.792-7.853,0.92-11.273-0.103c0,0-15.975-50.567-10.908-101.148c-8.039-53.011-7.748-86.063-7.748-86.063H177.818z"/>
		<path style="opacity:0.2;" d="M138.542,237.744c0.966,14.828,2.899,35.819,6.786,61.487c-0.378,3.798-0.644,7.608-0.799,11.384
			C161.489,280.127,163.555,231.946,138.542,237.744z"/>
		<path style="fill:#407BFF;" d="M111.673,410.816c-0.016-2.68-0.535-6.522,0.951-13.223c0,0-9.395-2.038-9.689,1.275
			c-0.534,6.008-3.876,11.587-11.277,12.551c-4.224,0.55-2.645,4.493,0.377,4.493c7.56,0,4.987-0.125,9.281-0.268
			c3.672-0.122,4.419,0.328,7.365,0.266C111.14,415.858,111.688,413.509,111.673,410.816z"/>
		<path style="fill:#263238;" d="M163.169,213.172c0,0-14.381,68.639-23.844,97.952c-9.938,30.786-25.883,86.948-25.991,89.258
			c-4.35,0.814-8.447,1.114-11.848,0c0,0-5.539-63.143,7.181-96.573c3.199-69.783,22.051-90.637,22.051-90.637H163.169z"/>
		<path style="fill:#FFFFFF;" d="M165.845,149.615c-0.086,0-0.171-0.04-0.225-0.115c-0.115-0.159-0.239-0.32-0.365-0.483
			c-0.824-1.069-1.847-2.399-0.836-3.935c1.182-1.793,3.623-1.182,5.407-0.736c0.263,0.066,0.512,0.128,0.74,0.178
			c1.285,0.283,2.771,0.484,4.08-0.161c1.625-0.802,2.524-2.49,3.392-4.122c0.564-1.059,1.146-2.153,1.927-3.015
			c0.214-0.236,0.436-0.467,0.659-0.698c0.855-0.887,1.663-1.726,2.022-2.871c0.046-0.146,0.199-0.228,0.347-0.182
			c0.146,0.046,0.228,0.202,0.182,0.348c-0.397,1.27-1.29,2.195-2.152,3.09c-0.219,0.227-0.437,0.453-0.648,0.685
			c-0.734,0.81-1.274,1.827-1.847,2.903c-0.91,1.71-1.851,3.478-3.637,4.359c-1.46,0.722-3.065,0.509-4.444,0.206
			c-0.234-0.051-0.487-0.115-0.756-0.182c-1.71-0.428-3.843-0.963-4.808,0.502c-0.794,1.205-0.014,2.218,0.812,3.29
			c0.128,0.167,0.256,0.332,0.374,0.495c0.09,0.124,0.062,0.298-0.061,0.388C165.96,149.598,165.903,149.615,165.845,149.615z"/>
		<path style="fill:#FFC3BD;" d="M189.448,142.145l-1.975-3.58c-0.719-1.303-1.766-2.395-3.038-3.168l-2.396-1.457
			c-1.587-0.965-3.638-0.659-4.875,0.727l-1.867,2.092c-1.43,1.602-1.274,4.065,0.347,5.473l1.796,1.561c0,0,4.457,4.938,9.663,5.91
			l0.915-1.171C189.509,146.627,190.035,144.278,189.448,142.145z"/>
		<path style="fill:#FFC3BD;" d="M175.936,155.279l0.935,1.181c0.363,0.453,0.742,0.912,1.131,1.361
			c0.784,0.898,1.578,1.797,2.415,2.636c1.653,1.7,3.406,3.248,5.19,4.556c1.797,1.297,3.618,2.364,5.445,3.089
			c0.916,0.355,1.823,0.629,2.735,0.847c0.456,0.098,0.913,0.185,1.372,0.233l0.172,0.025l0.087,0.013
			c-0.012,0.001,0.087,0.007-0.015,0.005l-0.228,0.004c-0.152,0.007-0.305,0.02-0.455,0.042l-0.511,0.089
			c-0.417,0.083-0.747,0.204-1.194,0.385c-0.44,0.179-0.84,0.437-1.224,0.701c-0.379,0.264-0.743,0.632-0.995,0.903
			c-0.268,0.29-0.516,0.67-0.656,0.89c-0.155,0.242-0.304,0.588-0.371,0.738c-0.079,0.175-0.154,0.432-0.189,0.554
			c-0.037,0.126-0.066,0.256-0.084,0.386c-0.033,0.147-0.034,0.345-0.033,0.376c0.013,0.168,0.03,0.087,0.054,0.012
			c0.038-0.212,0.027-0.668-0.022-1.161c-0.104-1.015-0.329-2.23-0.614-3.466c-0.54-2.5-1.293-5.132-2.059-7.778l-4.921-16.118
			l-0.017-0.055c-0.683-2.236,0.576-4.602,2.812-5.286c1.8-0.55,3.687,0.165,4.71,1.629c3.391,4.866,6.352,9.85,9.066,15.152
			c1.355,2.655,2.619,5.371,3.772,8.325c0.559,1.49,1.091,3.033,1.543,4.819c0.221,0.909,0.429,1.867,0.551,3.081
			c0.054,0.637,0.096,1.272,0.037,2.151c-0.071,0.854-0.149,1.855-0.773,3.394c-0.122,0.321-0.379,0.813-0.618,1.212
			c-0.217,0.383-0.594,0.889-0.974,1.319c-0.356,0.42-0.877,0.88-1.391,1.259c-0.513,0.391-1.095,0.694-1.688,0.963
			c-0.604,0.268-1.118,0.404-1.704,0.54c-0.305,0.069-0.54,0.102-0.775,0.128c-0.24,0.028-0.481,0.049-0.722,0.061l-0.51,0.015
			l-0.181,0.001l-0.362,0.002c-0.97,0.019-1.933-0.026-2.895-0.105c-1.914-0.174-3.808-0.505-5.611-1.027
			c-3.61-1.031-6.92-2.591-9.858-4.481c-2.969-1.863-5.574-4.048-7.962-6.379c-1.179-1.181-2.316-2.389-3.377-3.67
			c-0.531-0.642-1.054-1.288-1.563-1.968l-0.755-1.046l-0.382-0.552l-0.452-0.68c-2.579-3.88-1.524-9.115,2.355-11.693
			c3.673-2.441,8.561-1.627,11.26,1.759L175.936,155.279z"/>
		<path style="fill:#407BFF;" d="M179.742,165.082c-0.175,4.016,6.166,13.303-1.661,18.687c1.463,3.269,2.698,25.439-0.264,29.403
			c-4.32,3.175-27.706,2.558-47.1,0c-0.819-8.016,3.593-24.621-1.813-50.512c-1.253-6.003,2.969-11.768,9.07-12.383
			c1.631-0.164,3.357-0.301,5.126-0.386c6.874-0.331,12.506-0.551,18.549,0.001c2.003,0.183,4.073,0.436,6.05,0.714
			C174.835,151.607,180.056,157.885,179.742,165.082z"/>
		<path style="fill:#FFC3BD;" d="M142.531,129.005c1.479,5.968,2.922,15.704,0.57,20.886c0,0,7.888,0.389,19.148,9.38
			c5.302-7.786,0.086-9.314,0.086-9.314c-4.68-1.099-5.42-6.791-5.415-11.23L142.531,129.005z"/>
		<path style="opacity:0.2;" d="M156.924,138.727l-8.185-5.531c-0.133,1.022,0.177,2.444,0.733,3.632
			c1.633,3.432,5.032,5.898,7.919,7.097C157.024,142.226,156.924,140.393,156.924,138.727z"/>
		<path style="fill:#FFC3BD;" d="M138.644,118.058c2.329,9.706,3.111,13.863,8.862,18.038c8.651,6.28,19.828,1.324,20.389-8.876
			c0.505-9.181-3.388-23.511-13.497-25.747C144.438,99.271,136.315,108.352,138.644,118.058z"/>
		<path style="fill:#263238;" d="M153.189,122.11c0.141,0.799,0.679,1.371,1.202,1.279c0.522-0.092,0.831-0.815,0.689-1.614
			c-0.142-0.799-0.68-1.371-1.202-1.279C153.356,120.589,153.047,121.312,153.189,122.11z"/>
		<path style="fill:#263238;" d="M163.037,120.511c0.142,0.799,0.68,1.371,1.202,1.279c0.522-0.092,0.831-0.815,0.689-1.614
			c-0.142-0.799-0.68-1.371-1.202-1.279C163.204,118.99,162.896,119.712,163.037,120.511z"/>
		<path style="fill:#263238;" d="M163.504,118.982l1.821-0.893C165.324,118.09,164.605,119.762,163.504,118.982z"/>
		<path style="fill:#ED847E;" d="M160.651,121.162c0,0,1.965,3.199,3.751,4.594c-0.88,1.171-2.753,1.039-2.753,1.039
			L160.651,121.162z"/>
		<path style="fill:#263238;" d="M157.579,130.56c0.427,0,0.88-0.037,1.36-0.122c0.129-0.023,0.216-0.147,0.193-0.277
			c-0.023-0.129-0.143-0.215-0.276-0.193c-3.503,0.623-5.577-1.538-5.597-1.559c-0.09-0.097-0.241-0.101-0.337-0.012
			c-0.096,0.09-0.101,0.241-0.011,0.337C152.989,128.819,154.658,130.56,157.579,130.56z"/>
		<path style="fill:#FFC3BD;" d="M137.933,127.099c0.895,1.905,2.459,3.099,3.932,3.507c2.216,0.614,3.31-1.817,2.683-4.281
			c-0.564-2.218-2.398-5.209-4.617-4.722C137.747,122.083,136.91,124.921,137.933,127.099z"/>
		<path style="fill:#263238;" d="M150.395,117.108c0.12-0.037,0.226-0.122,0.287-0.243c0.945-1.903,2.683-2.128,2.703-2.131
			c0.258-0.033,0.448-0.267,0.417-0.529c-0.031-0.261-0.267-0.448-0.529-0.417c-0.091,0.011-2.273,0.291-3.445,2.654
			c-0.117,0.236-0.02,0.521,0.215,0.639C150.157,117.136,150.282,117.143,150.395,117.108z"/>
		<path style="fill:#263238;" d="M166.674,114.521c0.117-0.019,0.227-0.08,0.304-0.182c0.159-0.21,0.118-0.509-0.091-0.668
			c-2.098-1.595-4.178-0.879-4.266-0.847c-0.248,0.089-0.377,0.361-0.288,0.609c0.088,0.247,0.36,0.376,0.608,0.289
			c0.081-0.029,1.702-0.561,3.369,0.708C166.419,114.512,166.551,114.541,166.674,114.521z"/>
		<path style="fill:#263238;" d="M153.655,120.582l1.821-0.893C155.476,119.689,154.757,121.362,153.655,120.582z"/>
		<path style="fill:#E0E0E0;" d="M166.508,225.122c0,0,5.571-17.642-8.211-21.961c-8.414-2.637-11.399,0.719-11.399,0.719
			l2.034,16.799c5.642,6.607,15.591,9.859,22.778,11.012C176.908,232.524,166.508,225.122,166.508,225.122z"/>
		<path style="fill:#FFFFFF;" d="M151.366,178.572c-0.508,6.346,12.577,9.225,16.814,8.412c0,0,4.541,5.184,7.734,3.381
			c1.39-0.785-2.424-3.256-4.15-5.835c-1.726-2.58-8.478-3.733-9.901-6.91C159.341,171.993,151.956,171.204,151.366,178.572z"/>
		<path style="fill:#FFFFFF;" d="M141.725,179.837c-5.582,17.2-9.294,35.126-3.077,41.949c6.216,6.823,13.494,13.223,21.165,14.202
			c5.548,0.708-5.581-9.021-5.581-9.021s20.97-8.87,5.05-21.227c3.942-5.686,0.896-20.733,2.109-26.679
			C162.604,173.115,146.925,163.815,141.725,179.837z"/>
		<path style="fill:#263238;" d="M156.691,158.633c-0.437-1.564,3.956-2.047,6.587-4.861c1.564,2.701-2.274,8.671-2.274,8.671
			S157.479,161.452,156.691,158.633z"/>
		<path style="fill:#FFFFFF;" d="M145.862,173.056c-0.131-3.08-2.86-6.321-0.927-11.211s7.171-7.193,11.298-6.558
			c5.172,0.796,8.033,4.738,8.375,9.059c0.341,4.321-5.676,8.437-4.89,12.566C160.505,181.041,145.862,173.056,145.862,173.056z"/>
		<path style="fill:#E0E0E0;" d="M157.573,155.582c-1.337,1.419,3.153,3.793,5.363,3.834
			C161.75,157.642,159.948,156.25,157.573,155.582z"/>
		<path style="fill:#FFFFFF;" d="M139.145,261.747c-0.04,0-0.08,0-0.12-0.001c-2.633-0.049-4.896-1.741-6.21-4.642
			c-0.311-0.687-0.006-1.495,0.68-1.806c0.693-0.311,1.496-0.006,1.807,0.68c0.874,1.93,2.214,3.01,3.774,3.039
			c1.715,0.032,3.433-1.204,4.404-3.148c1.886-3.782,0.647-9.063-3.316-14.127c-7.216-9.222-7.194-15.975-5.905-20.015
			c1.212-3.799,3.886-6.161,5.858-6.748c0.713-0.214,1.482,0.195,1.697,0.919c0.215,0.722-0.196,1.482-0.919,1.697
			c-1.048,0.312-3.071,1.935-4.037,4.962c-1.088,3.413-1.026,9.221,5.455,17.504c4.628,5.915,5.976,12.28,3.608,17.027
			C144.482,259.971,141.894,261.747,139.145,261.747z"/>
		<path style="fill:#E0E0E0;" d="M139.134,261.75c-2.616,0-4.977-1.684-6.319-4.647c-0.311-0.687-0.006-1.495,0.68-1.806
			c0.693-0.311,1.496-0.006,1.807,0.68c1.092,2.416,2.944,3.486,4.943,2.868c0.73-0.224,1.485,0.181,1.707,0.9
			c0.223,0.72-0.181,1.484-0.9,1.707C140.405,261.653,139.762,261.75,139.134,261.75z"/>
		<path style="opacity:0.2;" d="M129.847,167.681c1.04,6.111,1.534,11.663,1.716,16.644c4.46-6.19,9.531-17.411,9.245-22.651
			L129.847,167.681z"/>
		<path style="fill:#FFC3BD;" d="M157.447,184.587l4.029-5.407l7.404,8.221c0,0-4.928,4.436-10.093,4.882l-0.743-1.247
			C156.835,189.008,156.616,186.636,157.447,184.587z"/>
		<path style="fill:#FFC3BD;" d="M168.893,178.794l2.19,3.177c0.999,1.449,0.643,3.431-0.797,4.442l-1.407,0.988l-7.404-8.221
			l3.512-1.512C166.391,177.065,168.026,177.536,168.893,178.794z"/>
		<path style="fill:#FFC3BD;" d="M144.199,163.372l-0.643,1.889l-0.666,2.028c-0.426,1.364-0.866,2.728-1.254,4.1
			c-0.809,2.737-1.479,5.484-2.052,8.177c-0.535,2.69-0.931,5.345-1.062,7.798c-0.112,2.437,0.068,4.686,0.509,6.147l-1.59-2.38
			c-0.649-0.631-1.407-0.886-1.693-0.93c-0.324-0.054-0.35,0.021-0.214,0.073c0.29,0.113,1.106,0.117,1.978,0.009
			c1.794-0.227,3.978-0.732,6.14-1.392c2.19-0.633,4.429-1.4,6.688-2.195l6.794-2.446l0.141-0.051
			c2.21-0.795,4.646,0.351,5.442,2.561c0.6,1.668,0.092,3.466-1.142,4.589c-2.009,1.824-4.018,3.386-6.159,4.933
			c-2.134,1.529-4.359,2.957-6.733,4.291c-2.403,1.294-4.885,2.561-7.93,3.49c-1.545,0.452-3.198,0.877-5.397,0.967
			c-1.106,0.035-2.377-0.026-3.895-0.43c-1.483-0.379-3.359-1.26-4.894-2.762c-0.627-0.614-1.113-1.319-1.454-2.074l-0.135-0.306
			c-1.928-4.294-2.445-8.332-2.584-12.073c-0.056-1.872-0.015-3.695,0.101-5.474c0.14-1.773,0.345-3.51,0.596-5.221
			c0.506-3.413,1.257-6.709,2.138-9.937c0.455-1.611,0.922-3.212,1.464-4.793c0.267-0.791,0.54-1.583,0.833-2.373
			c0.306-0.814,0.582-1.526,0.97-2.472c1.771-4.318,6.706-6.382,11.023-4.611c4.149,1.702,6.217,6.326,4.801,10.516L144.199,163.372
			z"/>
		<path style="fill:#263238;" d="M144.982,176.429c-3.58,5.264,5.147,14.485,8.553,17.132c0,0-0.899,6.833,2.562,8.043
			c1.507,0.527,0.847-3.969,1.647-6.969c0.8-2.999-2.394-9.682-2.327-13.162C155.534,175.308,149.139,170.317,144.982,176.429z"/>
		<path style="fill:#263238;" d="M149.465,158.32c0.437-1.564-3.956-2.047-6.587-4.861c-1.564,2.701,2.274,8.671,2.274,8.671
			S148.677,161.139,149.465,158.32z"/>
		<path style="opacity:0.6;fill:#FFFFFF;" d="M149.139,159.571c-0.495,0.028-2.583,0.881-5.739-4.005
			c-0.739,2.228,2.599,6.639,2.599,6.639S148.704,162.047,149.139,159.571z"/>
		<path style="fill:#263238;" d="M157.615,157.917c1.177-0.568,2.63-0.226,3.188,0.161c0.558,0.386-0.391,1.259-0.998,1.234
			C159.198,159.286,156.752,158.333,157.615,157.917z"/>
		<path style="fill:#263238;" d="M158.385,161.415c-0.785,0-1.761-0.275-2.84-0.821c-0.085-0.042-0.118-0.145-0.076-0.229
			c0.041-0.084,0.145-0.118,0.229-0.075c2.151,1.087,3.443,0.883,3.938,0.331c0.356-0.398,0.348-1.016-0.018-1.574
			c-0.051-0.079-0.03-0.184,0.049-0.236c0.08-0.051,0.184-0.03,0.237,0.049c0.454,0.692,0.449,1.472-0.013,1.989
			C159.551,161.227,159.033,161.415,158.385,161.415z"/>
		<path style="fill:#263238;" d="M162.211,161.527c-0.777,0-2.023-0.9-2.3-1.107c-0.076-0.056-0.091-0.163-0.035-0.239
			c0.058-0.075,0.165-0.091,0.239-0.034c0.73,0.547,1.916,1.218,2.267,1.003c0.137-0.084,0.123-0.348,0.087-0.555
			c-0.016-0.093,0.045-0.181,0.138-0.197c0.098-0.017,0.181,0.046,0.197,0.139c0.08,0.452-0.002,0.757-0.243,0.905
			C162.463,161.501,162.344,161.527,162.211,161.527z"/>
		<path style="fill:#263238;" d="M154.672,156.23c-0.713-0.569-2.455-0.071-2.514,0.739
			C152.099,157.78,155.937,157.24,154.672,156.23z"/>
		<path style="fill:#263238;" d="M159.695,156.523c0.709-0.289,1.994,0.525,1.85,1.191
			C161.4,158.381,158.437,157.036,159.695,156.523z"/>
		<path style="fill:#263238;" d="M157.886,159.238c0.039,0.098-0.016,0.178-0.121,0.178c-0.106,0-0.223-0.079-0.262-0.176
			c-0.039-0.098,0.016-0.178,0.121-0.178C157.73,159.061,157.847,159.14,157.886,159.238z"/>
		<path style="fill:#263238;" d="M156.566,158.774c0.039,0.098-0.016,0.178-0.121,0.178c-0.106,0-0.223-0.079-0.261-0.176
			c-0.039-0.098,0.015-0.178,0.121-0.178C156.41,158.598,156.527,158.676,156.566,158.774z"/>
		<path style="fill:#263238;" d="M157.101,159.738c0.039,0.098-0.016,0.178-0.121,0.178c-0.106,0-0.223-0.079-0.262-0.176
			c-0.039-0.098,0.016-0.178,0.121-0.178S157.062,159.64,157.101,159.738z"/>
		<path style="fill:#263238;" d="M162.195,159.196c0.039,0.098-0.016,0.178-0.121,0.178c-0.106,0-0.223-0.079-0.261-0.176
			c-0.039-0.098,0.015-0.178,0.121-0.178C162.04,159.019,162.157,159.098,162.195,159.196z"/>
		<path style="fill:#263238;" d="M161.411,159.696c0.039,0.098-0.016,0.178-0.121,0.178c-0.106,0-0.223-0.079-0.262-0.177
			c-0.039-0.098,0.016-0.178,0.121-0.178C161.255,159.519,161.372,159.598,161.411,159.696z"/>
		<g>
			<circle style="fill:#263238;" cx="165.393" cy="150.171" r="2.685"/>
			<path style="fill:#FFFFFF;" d="M165.393,153.411c-1.787,0-3.241-1.454-3.241-3.24c0-1.787,1.454-3.24,3.241-3.24
				c1.787,0,3.241,1.454,3.241,3.24C168.634,151.957,167.18,153.411,165.393,153.411z M165.393,148.041
				c-1.174,0-2.129,0.955-2.129,2.13c0,1.174,0.955,2.13,2.129,2.13c1.174,0,2.129-0.955,2.129-2.13
				C167.522,148.996,166.567,148.041,165.393,148.041z"/>
		</g>
		<path style="fill:#263238;" d="M143.448,125.025c5.26-5.836,1.974-11.443,1.974-11.443s17.837-1.021,19.902-4.415
			c-2.07-7.034-9.474-12.588-21.938-7.713c-12.464,4.875-6.849,23.139-6.849,23.139L143.448,125.025z"/>
	</g>
</g>
<g id="Character_2">
	<g>
		<g>
			<path style="fill:#263238;" d="M332.784,409.421l-3.501-8.305c-0.253-0.331-0.224-0.771,0.07-1.058l6.114-5.797
				c2.289-1.627,5.444-1.027,7.018,1.299c1.721,2.544,2.607,5.21,5.449,7.573c4.536,3.771,2.987,2.258,9.667,4.053
				c4.039,1.085,3.654,5.374,1.826,5.281c-8.319-0.424-15.843-0.642-24.188-2.039C334.334,410.276,333.46,409.983,332.784,409.421z"
				/>
			<g>
				<path style="fill:#407BFF;" d="M315.224,391.847c10.196-3.218,53.863-4.756,48.481-37.016l-39.36-2.702
					c0,0-54.506,19.983-60.536,44.917c-7.726,31.948,69.128,15.166,69.128,15.166c3.87-0.901,6.69-5.929,6.165-11.7
					C339.102,400.513,335.466,391.659,315.224,391.847z"/>
				<path style="opacity:0.2;" d="M315.224,391.847c10.196-3.218,53.863-4.756,48.481-37.016l-39.36-2.702
					c0,0-54.506,19.983-60.536,44.917c-7.726,31.948,69.128,15.166,69.128,15.166c3.87-0.901,6.69-5.929,6.165-11.7
					C339.102,400.513,335.466,391.659,315.224,391.847z"/>
			</g>
		</g>
		<g>
			<path style="fill:#263238;" d="M375.358,410.533l-3.814-8.165c-0.265-0.321-0.253-0.762,0.03-1.06l5.889-6.026
				c2.225-1.713,5.401-1.233,7.062,1.031c1.817,2.476,2.804,5.107,5.734,7.36c4.676,3.595,3.071,2.143,9.815,3.682
				c4.078,0.931,3.856,5.231,2.026,5.207c-8.329-0.107-15.856-0.038-24.248-1.116C376.94,411.328,376.055,411.069,375.358,410.533z"
				/>
			<path style="fill:#407BFF;" d="M360.369,393.569c10.066-3.604,33.266-10.236,20.484-43.227l-41.933,4.318
				c0,0-36.803,20.663-41.879,45.809c-6.504,32.219,78.576,12.848,78.576,12.848c3.833-1.048,6.459-6.18,5.715-11.926
				C381.332,401.391,380.589,392.61,360.369,393.569z"/>
		</g>
		<path style="fill:#FFB573;" d="M327.385,289.091c-1.564,3.508-3.584,6.655-5.742,9.488c-2.176,2.826-4.479,5.372-6.822,7.694
			c-2.324,2.339-4.666,4.482-6.906,6.522c-2.215,2.059-4.362,3.996-6.186,5.899l-0.656,0.685c-0.764,0.798-1.709,1.369-2.689,1.696
			c-4.148,1.368-7.961,1.768-11.614,1.931c-3.656,0.163-7.169-0.064-10.611-0.397c-3.441-0.375-6.807-0.915-10.125-1.617
			c-3.336-0.72-6.538-1.52-9.87-2.635c-2.361-0.789-3.635-3.342-2.846-5.703c0.626-1.874,2.365-3.064,4.237-3.079l0.197,0
			c3.057-0.02,6.292-0.007,9.406-0.089c3.134-0.075,6.241-0.19,9.281-0.431c3.037-0.205,6.018-0.573,8.813-1.062
			c2.788-0.483,5.41-1.24,7.351-2.122l-3.345,2.381c2.159-2.824,4.349-5.295,6.496-7.608c2.128-2.328,4.195-4.513,6.124-6.655
			c1.909-2.158,3.708-4.244,5.255-6.35c1.562-2.095,2.881-4.183,3.97-6.26l0.074-0.141c2.311-4.407,7.758-6.106,12.165-3.795
			C327.568,279.66,329.291,284.789,327.385,289.091z"/>
		<path style="fill:#263238;" d="M329.25,279.589c-2.331-7.295-9.64-17.174-26.78,9.865c3.994,9.921,19.735,19.623,19.735,19.623
			S334.794,296.939,329.25,279.589z"/>
		<path style="fill:#FFB573;" d="M262.197,312.57l-6.495-8.027l-7.058,10.175c0,0,6.763,6.554,10.826,3.523L262.197,312.57z"/>
		<path style="fill:#FFB573;" d="M245.045,303.335l-1.872,3.983c-0.745,1.586-0.233,3.478,1.211,4.471l4.26,2.929l7.058-10.175
			l-5.829-2.891C248.076,300.76,245.898,301.52,245.045,303.335z"/>
		<path style="fill:#263238;" d="M321.444,270.932c14.335-3.487,20.502-3.893,30.963-4.184c12.524-0.348,22.586,9.615,22.467,22.143
			c-0.321,33.923,5.401,53.621,5.979,61.45c-22.352,14.673-54.877,14.497-60.857,8.491c-12.545-25.649-11.332-56.955-11.344-70.092
			C308.646,281.634,314.037,272.734,321.444,270.932z"/>
		<path style="fill:#FFB573;" d="M344.777,247.413c-0.223,11.463,2.668,14.68,4.978,21.562c-1.014,4.482-12.349,9.945-21.598,12.358
			c-5.826-3.026-6.092-8.026-4.403-9.235c5.871-3.612,7.654-4.23,5.01-10.47L344.777,247.413z"/>
		<path style="opacity:0.2;" d="M338.085,254.984l-3.748,1.694l-5.573,4.948c0.492,1.153,0.829,2.126,1.009,2.955
			c3.087-0.66,6.39-2.606,7.339-5.165C337.773,257.674,338.157,255.909,338.085,254.984z"/>
		<path style="fill:#263238;" d="M315.94,222.776c-8.608,3.391-7.28,13.954,0.327,22.041
			C322.874,234.587,315.94,222.776,315.94,222.776z"/>
		<path style="fill:#FFB573;" d="M345.566,232.687c0.32,11.381,1.087,18.031-4.122,24.307c-7.836,9.44-22.31,5.385-26.033-5.701
			c-3.351-9.978-3.311-26.914,7.392-32.318C333.349,213.651,345.246,221.306,345.566,232.687z"/>
		<path style="fill:#263238;" d="M345.168,245.62c-6.106,0.58-8.362-9.463-7.093-13.067c1.269-3.604,2.388-7.074-2.917-5.472
			c-5.305,1.602-15.473,7.255-20.855,3.92c-5.678-3.519-9.292-13.763-2.018-18.033s11.846,0.367,11.846,0.367
			s7.02-8.904,19.837-5.172c7.792,2.269,4.787,7.841,4.787,7.841s9.921,2.725,6.491,13.413
			C352.309,238.565,347.838,238.692,345.168,245.62z"/>
		<path style="fill:#FFB573;" d="M351.094,243.063c-0.63,2.995-2.596,5.413-4.738,6.744c-3.223,2.003-5.924-0.615-5.94-4.203
			c-0.015-3.229,1.644-8.163,5.317-8.716C349.352,236.345,351.814,239.639,351.094,243.063z"/>
		<path style="fill:#263238;" d="M329.591,241.159c0.151,0.913-0.212,1.73-0.811,1.823c-0.599,0.093-1.206-0.572-1.357-1.485
			c-0.151-0.913,0.212-1.73,0.811-1.823C328.833,239.58,329.44,240.245,329.591,241.159z"/>
		<path style="fill:#263238;" d="M317.65,242.575c0.151,0.913-0.212,1.73-0.811,1.823c-0.599,0.093-1.206-0.572-1.357-1.485
			c-0.151-0.913,0.212-1.73,0.811-1.823C316.891,240.997,317.499,241.661,317.65,242.575z"/>
		<path style="fill:#ED893E;" d="M321.434,241.074c0,0-1.213,5.595-3.086,8.495c1.869,1.256,4.511,0.137,4.511,0.137
			L321.434,241.074z"/>
		<path style="fill:#263238;" d="M327.241,252.052c3.407-1.012,4.625-3.676,4.68-3.801c0.061-0.137-0.002-0.297-0.139-0.359
			c-0.138-0.062-0.298-0.001-0.359,0.136c-0.014,0.031-1.44,3.126-5.449,3.751c-0.148,0.024-0.249,0.162-0.225,0.31
			c0.024,0.148,0.165,0.249,0.313,0.226C326.481,252.251,326.873,252.161,327.241,252.052z"/>
		<path style="fill:#263238;" d="M331.944,236.059c0.087-0.026,0.168-0.074,0.235-0.143c0.207-0.216,0.199-0.559-0.02-0.768
			c-2.186-2.087-4.642-1.555-4.745-1.531c-0.294,0.067-0.474,0.358-0.404,0.651c0.069,0.291,0.362,0.474,0.654,0.408l0,0
			c0.081-0.018,2-0.412,3.744,1.253C331.556,236.07,331.762,236.113,331.944,236.059z"/>
		<path style="fill:#263238;" d="M312.887,237.901c0.175-0.017,0.338-0.119,0.426-0.286c1.111-2.118,3.058-2.335,3.14-2.343
			c0.298-0.03,0.516-0.294,0.485-0.592c-0.031-0.298-0.295-0.517-0.594-0.49c-0.108,0.012-2.606,0.261-3.998,2.915
			c-0.139,0.265-0.035,0.594,0.232,0.735C312.677,237.892,312.784,237.911,312.887,237.901z"/>
		<path style="fill:#FFB573;" d="M370.713,280.34c0.561,2.793,0.702,5.375,0.646,7.831c-0.044,2.455-0.317,4.782-0.667,7.041
			c-0.739,4.507-1.87,8.745-3.306,12.84c-1.418,4.1-3.095,8.059-5.101,11.932c-1.006,1.936-2.058,3.868-3.286,5.774
			c-1.232,1.913-2.564,3.817-4.28,5.801l-0.297,0.343c-0.219,0.252-0.479,0.497-0.73,0.698c-2.754,2.174-5.514,3.275-8.048,3.986
			c-2.549,0.702-4.928,1.019-7.233,1.208c-4.593,0.35-8.88,0.034-13.06-0.442c-4.174-0.526-8.226-1.29-12.206-2.25
			c-3.998-0.981-7.84-2.069-11.789-3.514c-2.33-0.853-3.528-3.433-2.675-5.763c0.709-1.936,2.61-3.09,4.569-2.936l0.164,0.014
			c3.718,0.294,7.621,0.594,11.4,0.758c3.798,0.171,7.57,0.261,11.248,0.151c3.666-0.075,7.272-0.393,10.488-0.993
			c1.592-0.309,3.094-0.712,4.291-1.212c1.195-0.494,2.076-1.066,2.345-1.426l-1.027,1.041c0.767-1.082,1.606-2.483,2.378-3.965
			c0.768-1.495,1.539-3.065,2.236-4.685c1.394-3.245,2.614-6.64,3.642-10.037c1.002-3.404,1.844-6.829,2.321-10.116
			c0.502-3.252,0.612-6.472,0.285-8.676l-0.046-0.305c-0.731-4.92,2.666-9.501,7.587-10.231
			C365.321,272.5,369.767,275.679,370.713,280.34z"/>
		<g>
			<path style="fill:#263238;" d="M228.026,414.433c-18.68,1.214-34.709-11.878-32.5-34.583
				C205.717,399.73,221.489,412.263,228.026,414.433z"/>
			<path style="opacity:0.1;fill:#263238;" d="M228.026,414.433c-18.398-3.453-30.683-20.109-22.915-41.559
				C210.057,394.66,222.231,410.71,228.026,414.433z"/>
			<path style="opacity:0.1;fill:#263238;" d="M228.026,414.433c-17.671,6.177-36.623-2.139-40.58-24.606
				C202.593,406.248,221.146,414.094,228.026,414.433z"/>
			<path style="fill:#263238;" d="M281.058,330.714c0,0,9.201,46.798,1.261,81.019c5.249,0,5.994,5.513,2.859,8.636h-64.111
				c-4.858,0-8.729-4.052-8.511-8.905c0.587-13.076,5.935-31.234,21.236-38.313c3.868-11.867,12.829-35.939,8.865-49.825
				c-3.976-13.886,14.246-27.05,28.299-17.309c9.201-3.255,25.597-15.687,30.294-1.621
				C305.946,318.45,281.058,330.714,281.058,330.714z"/>
			<path style="fill:#263238;" d="M288.879,325.955c6.87-2.417,18.153-3.431,11.457-13.827
				C288.735,313.078,288.879,325.955,288.879,325.955z"/>
			<path style="opacity:0.2;fill:#FFFFFF;" d="M257.17,416.449c-0.042,0-0.084-0.006-0.126-0.018
				c-0.239-0.069-0.376-0.319-0.306-0.558c0.453-1.556-0.301-2.929-1.013-3.806c-2.032-2.505-6.134-4.052-10.02-3.76
				c-0.161,0.011-0.3-0.056-0.393-0.178c-0.092-0.122-0.117-0.283-0.063-0.427c6.609-17.896-4.354-28.908-4.465-29.017
				c-0.178-0.174-0.181-0.459-0.007-0.637c0.175-0.178,0.46-0.181,0.637-0.008c0.115,0.112,11.236,11.249,4.912,29.334
				c3.99-0.1,7.979,1.511,10.1,4.125c1.199,1.477,1.616,3.119,1.178,4.625C257.545,416.321,257.365,416.449,257.17,416.449z"/>
			<path style="fill:#FFFFFF;" d="M294.14,298.426c-4.526-0.591-8.17,2.837-4.173,4.671c3.997,1.833,0.622-1.932,2.641-0.601
				c2.02,1.331,4.296,1.852,4.731,0.607c0.435-1.245-0.418-1.583-0.894-2.343c-0.476-0.76,2.243,0.63,1.685-0.262
				C297.686,299.787,296.058,298.676,294.14,298.426z"/>
			<path style="fill:#ED847E;" d="M295.493,310.768c4.682,3.498,2.997,8.274,7.535,6.968c2.189-0.63,2.653-6.898-1.265-10.006
				c-1.368,0.9-3.05-1.318-3.05-1.318S297.902,309.771,295.493,310.768z"/>
			<path style="fill:#FFFFFF;" d="M290.01,312.616c-0.51,0-0.839-0.032-0.894-0.038c-0.247-0.026-0.427-0.248-0.4-0.495
				c0.025-0.247,0.249-0.427,0.495-0.401c0.059,0.006,5.748,0.545,8.38-3.529c0.414-0.64,0.539-1.271,0.385-1.928
				c-0.378-1.607-2.315-2.77-2.335-2.782c-0.215-0.127-0.285-0.403-0.158-0.617c0.126-0.214,0.4-0.285,0.616-0.159
				c0.093,0.055,2.284,1.365,2.753,3.347c0.213,0.897,0.043,1.781-0.505,2.627C296.049,312.199,291.85,312.616,290.01,312.616z"/>
			<path style="fill:#FFFFFF;" d="M301.035,308.436c-1.494,0-2.883-1.996-3.04-2.226c-0.139-0.206-0.084-0.486,0.122-0.625
				c0.205-0.139,0.485-0.085,0.625,0.121c0.325,0.479,1.432,1.829,2.292,1.829c0.01,0,0.02,0,0.032-0.001
				c0.116-0.005,0.472-0.018,0.844-0.673c0.123-0.217,0.397-0.292,0.614-0.169c0.217,0.123,0.292,0.398,0.169,0.614
				c-0.512,0.902-1.15,1.111-1.593,1.128C301.078,308.435,301.057,308.436,301.035,308.436z"/>
			<path style="fill:#FFFFFF;" d="M264.428,306.183c-3.853-3.419-10.809,0.377-10.007,5.614S271.266,312.251,264.428,306.183z"/>
			<path style="fill:#263238;" d="M263.208,306.79c-0.771-1.166-2.656-0.146-2.719,1.516
				C260.426,309.967,264.576,308.859,263.208,306.79z"/>
			<path style="fill:#263238;" d="M266.942,304.939c-0.314,1.362,1.724,2.026,2.972,0.927
				C271.161,304.768,267.5,302.522,266.942,304.939z"/>
			<g>
				<path style="fill:#263238;" d="M248.774,311.595c-1.118-9.427-17.217,9.778-16.116,21.889
					c1.101,12.112,11.711,10.811,14.714,9.91C250.376,342.493,249.775,320.035,248.774,311.595z"/>
				<path style="opacity:0.8;fill:#FFFFFF;" d="M248.774,311.595c-1.118-9.427-17.217,9.778-16.116,21.889
					c1.101,12.112,11.711,10.811,14.714,9.91C250.376,342.493,249.775,320.035,248.774,311.595z"/>
			</g>
			<path style="fill:#FFFFFF;" d="M278.127,420.37h-15.736c-1.477-3.711-9.345-23.94-8.396-32.732c0,0-1.406,1.165-2.114,2.967
				c-0.504-2.138,0.168-4.492,1.97-6.233c-0.757-0.469-2.354,0.348-2.354,0.348s0.324-2.054,2.462-3.423
				c-0.312-0.264-0.649-0.781-1.009-1.465c-4.684-8.865-1.67-19.736,6.486-25.573c4.949-3.544,10.714-3.411,12.012,7.292
				c1.297,10.69-4.384,40.431,1.286,53.776C276.457,414.784,277.766,418.832,278.127,420.37z"/>
			<path style="opacity:0.2;fill:#FFFFFF;" d="M266.323,333.899c-4.358,0-8.679-1.296-10.58-3.708
				c-0.154-0.195-0.121-0.479,0.075-0.633c0.194-0.153,0.478-0.121,0.632,0.075c3.026,3.839,13.234,4.552,18.202,1.273
				c0.207-0.136,0.486-0.081,0.624,0.128c0.137,0.208,0.08,0.487-0.128,0.624C272.847,333.177,269.574,333.899,266.323,333.899z"/>
		</g>
		<path style="fill:#FFB573;" d="M305.907,323.123l-9.902-2.927l-0.042,12.383c0,0,9.288,1.562,10.915-3.239L305.907,323.123z"/>
		<path style="fill:#FFB573;" d="M286.543,325.246l0.717,4.342c0.286,1.729,1.781,2.996,3.533,2.995l5.17-0.004l0.042-12.383
			l-6.44,0.925C287.579,321.406,286.216,323.267,286.543,325.246z"/>
		<path style="fill:#263238;" d="M367.123,272.925c-6.187-4.514-17.368-0.88-19.352,24.91c9.342,5.205,25.492,0,25.492,0
			S378.101,280.933,367.123,272.925z"/>
	</g>
</g>
</svg>
