<?xml version="1.0" encoding="utf-8"?>
<!-- Generator: Adobe Illustrator 27.5.0, SVG Export Plug-In . SVG Version: 6.00 Build 0)  -->
<svg version="1.1" xmlns="http://www.w3.org/2000/svg" xmlns:xlink="http://www.w3.org/1999/xlink" x="0px" y="0px"
	 viewBox="0 0 500 500" style="enable-background:new 0 0 500 500;" xml:space="preserve">
<g id="Background_complete">
	<g>
		<g>
			<g>
				<g>
					<g>
						<path style="fill:#E0E0E0;" d="M443.92,320.198H263.174c-3.232,0-5.862-2.63-5.862-5.862V51.062
							c0-3.232,2.63-5.862,5.862-5.862H443.92c3.232,0,5.862,2.629,5.862,5.862v263.273
							C449.783,317.568,447.153,320.198,443.92,320.198z M263.174,45.45c-3.095,0-5.612,2.518-5.612,5.612v263.273
							c0,3.095,2.518,5.612,5.612,5.612H443.92c3.095,0,5.612-2.518,5.612-5.612V51.062c0-3.094-2.518-5.612-5.612-5.612H263.174z"
							/>
					</g>
				</g>
				<g>
					<g>
						<path style="fill:#E0E0E0;" d="M235.493,320.198H54.746c-3.232,0-5.862-2.63-5.862-5.862V51.062
							c0-3.232,2.629-5.862,5.862-5.862h180.747c3.232,0,5.862,2.629,5.862,5.862v263.273
							C241.355,317.568,238.725,320.198,235.493,320.198z M54.746,45.45c-3.094,0-5.612,2.518-5.612,5.612v263.273
							c0,3.095,2.518,5.612,5.612,5.612h180.747c3.095,0,5.612-2.518,5.612-5.612V51.062c0-3.094-2.518-5.612-5.612-5.612H54.746z"
							/>
					</g>
				</g>
			</g>
			<g>
				<g>
					<rect x="0" y="381.267" style="fill:#E0E0E0;" width="500" height="0.25"/>
				</g>
			</g>
		</g>
		<rect x="51.672" y="395.531" style="fill:#E0E0E0;" width="16.06" height="0.25"/>
		<rect x="170.352" y="392.821" style="fill:#E0E0E0;" width="53.53" height="0.25"/>
		<rect x="68.732" y="404.821" style="fill:#E0E0E0;" width="36.25" height="0.25"/>
		<rect x="378.352" y="392.691" style="fill:#E0E0E0;" width="43.19" height="0.25"/>
		<rect x="430.452" y="392.691" style="fill:#E0E0E0;" width="6.33" height="0.25"/>
		<rect x="316.212" y="398.921" style="fill:#E0E0E0;" width="53.89" height="0.25"/>
	</g>
	<g>
		<rect x="279.874" y="59.718" style="fill:#E6E6E6;" width="147.209" height="162.895"/>
		<rect x="286.352" y="66.17" style="fill:#F5F5F5;" width="134.64" height="150.326"/>
		<polygon style="fill:#FFFFFF;" points="324.403,66.17 286.352,208.679 286.352,131.529 303.763,66.17 		"/>
		<polygon style="fill:#FFFFFF;" points="341.41,66.17 301.279,216.497 293.711,216.497 333.841,66.17 		"/>
		<polygon style="fill:#FFFFFF;" points="420.991,107.163 420.991,184.327 412.468,216.497 391.828,216.497 		"/>
		<rect x="350.864" y="59.718" style="fill:#E6E6E6;" width="5.229" height="162.895"/>
		<rect x="282.43" y="92.771" style="fill:#E6E6E6;" width="141.83" height="5.229"/>
	</g>
	<g>
		<rect x="59.262" y="302.9" style="fill:#F0F0F0;" width="183.357" height="60.238"/>
		<rect x="245.085" y="295.553" style="fill:#E0E0E0;" width="11.528" height="87.741"/>
		<path style="fill:#E6E6E6;" d="M56.292,295.553v87.741h6.146v-13.977h176.643v13.977h6.146v-87.741H56.292z M62.438,306.306
			h85.248v52.225H62.438V306.306z M153.822,306.306h85.259v52.225h-85.248L153.822,306.306z"/>
		<path style="fill:#E0E0E0;" d="M166.278,333.02c0,2.044-1.657,3.701-3.701,3.701c-2.044,0-3.701-1.657-3.701-3.701
			c0-2.044,1.657-3.701,3.701-3.701C164.621,329.319,166.278,330.976,166.278,333.02z"/>
		<path style="fill:#FAFAFA;" d="M164.313,333.02c0,2.044-1.657,3.701-3.701,3.701s-3.701-1.657-3.701-3.701
			c0-2.044,1.657-3.701,3.701-3.701S164.313,330.976,164.313,333.02z"/>
		<path style="fill:#E0E0E0;" d="M145.001,333.02c0,2.044-1.657,3.701-3.701,3.701s-3.701-1.657-3.701-3.701
			c0-2.044,1.657-3.701,3.701-3.701S145.001,330.976,145.001,333.02z"/>
		<path style="fill:#FAFAFA;" d="M143.047,333.02c0,2.044-1.657,3.701-3.701,3.701c-2.044,0-3.701-1.657-3.701-3.701
			c0-2.044,1.657-3.701,3.701-3.701C141.39,329.319,143.047,330.976,143.047,333.02z"/>
	</g>
	<g>
		<rect x="94.151" y="57.949" style="fill:#F0F0F0;" width="105.784" height="137.438"/>
		<rect x="102.286" y="68.526" style="fill:#E0E0E0;" width="89.513" height="116.284"/>
		<rect x="107.889" y="75.8" style="fill:#F5F5F5;" width="78.306" height="101.736"/>
		<path style="fill:#FFFFFF;" d="M135.495,133.299c-9.767,0-27.644,27.657-27.644,27.657v16.579h71.893
			C179.744,177.536,151.174,133.299,135.495,133.299z"/>
		<path style="fill:#FFFFFF;" d="M175.426,112.569c0,5.941-4.816,10.757-10.757,10.757c-5.941,0-10.757-4.816-10.757-10.757
			c0-5.941,4.816-10.757,10.757-10.757l0,0c5.934-0.007,10.75,4.798,10.757,10.731C175.426,112.552,175.426,112.561,175.426,112.569
			z"/>
	</g>
	<g>
		<g>
			<g>
				<path style="fill:#E0E0E0;" d="M407.34,352.614c-0.018-0.563-1.913-56.493-11.011-65.339c-8.848-8.602-19.004-0.32-19.43,0.036
					l-0.912-1.093c0.115-0.097,11.576-9.453,21.336,0.036c9.506,9.244,11.366,63.989,11.44,66.315L407.34,352.614z"/>
			</g>
			<g>
				<path style="fill:#E0E0E0;" d="M408.121,363.606c-0.065-0.669-6.217-67.144,18.059-95.005l1.073,0.934
					c-23.874,27.4-17.78,93.27-17.716,93.932L408.121,363.606z"/>
			</g>
			<g>
				<path style="fill:#E0E0E0;" d="M407.223,356.574l-1.421-0.095c0.05-0.754,4.751-75.573-13.056-91.952l0.964-1.049
					C412.016,280.318,407.428,353.468,407.223,356.574z"/>
			</g>
			<g>
				<path style="fill:#E0E0E0;" d="M409.541,356.532l-1.424-0.011c0.017-2.061,0.587-50.537,14.357-58.428
					c3.061-1.756,6.058-2.048,8.91-0.869c8.326,3.444,12.452,18.263,12.624,18.891l-1.374,0.376
					c-0.04-0.148-4.114-14.776-11.796-17.952c-2.421-1-4.996-0.736-7.656,0.788C410.116,306.815,409.546,356.036,409.541,356.532z"
					/>
			</g>
			<g>
				<path style="fill:#E0E0E0;" d="M404.179,356.567l-1.421-0.081c0.021-0.382,2.077-38.308-8.158-51.671
					c-2.48-3.237-5.172-4.78-8.016-4.582c-6.706,0.469-12.33,10.283-12.386,10.381l-1.24-0.701
					c0.244-0.431,6.054-10.577,13.524-11.1c3.342-0.238,6.457,1.493,9.248,5.137C406.287,317.732,404.27,354.989,404.179,356.567z"
					/>
			</g>
			<g>
				<path style="fill:#E0E0E0;" d="M406.423,361.726c-0.279-3.679-6.691-90.276,4.591-105.536l1.144,0.845
					c-10.97,14.838-4.384,103.686-4.316,104.582L406.423,361.726z"/>
			</g>
		</g>
		<g>
			<path style="fill:#EBEBEB;" d="M434.453,306c0,0-6.768,2.495-4.756,8.386c2.012,5.891,23.415,15.586,23.415,15.586
				s8.964-8.216,0.732-21.578C445.612,295.033,434.636,301.784,434.453,306z"/>
		</g>
		<g>
			<path style="fill:#EBEBEB;" d="M405.029,294.786c0,0,7.207-0.302,7.617,5.91c0.409,6.211-15.614,23.396-15.614,23.396
				s-11.435-4.134-8.979-19.635C390.509,288.957,403.238,290.965,405.029,294.786z"/>
		</g>
		<g>
			<path style="fill:#EBEBEB;" d="M398.927,265.052c0,0,4.805-0.516,4.418-3.443c-0.387-2.927-18.68-10.46-29.473,1.721
				c0,0,6.911,11.871,16.901,12.026C400.763,275.512,398.927,265.052,398.927,265.052z"/>
		</g>
		<g>
			<path style="fill:#EBEBEB;" d="M407.881,257.944c0,0-4.351,2.104-5.571-0.585c-1.22-2.689,10.321-18.757,25.924-14.127
				c0,0,0.413,13.73-7.983,19.145C411.855,267.793,407.881,257.944,407.881,257.944z"/>
		</g>
		<g>
			<path style="fill:#EBEBEB;" d="M385.13,303.632c0,0,3.316-2.678-0.263-3.985c-3.579-1.307-21.14-0.936-21.323,16.46
				c0,0,20.453,3.399,22.985-3.227C389.061,306.254,385.13,303.632,385.13,303.632z"/>
		</g>
		<g>
			<path style="fill:#EBEBEB;" d="M426.838,264.616c0,0-3.316-2.678,0.263-3.985c3.579-1.307,21.14-0.936,21.323,16.46
				c0,0-20.453,3.399-22.985-3.227C422.907,267.238,426.838,264.616,426.838,264.616z"/>
		</g>
		<g>
			<path style="fill:#EBEBEB;" d="M416.025,278.629c0,0-0.292-3.255,2.336-1.979c2.628,1.276,11.783,11.152,2.293,20.525
				c0,0-12.774-9.461-10.472-14.388C412.485,277.86,416.025,278.629,416.025,278.629z"/>
		</g>
		<g>
			<path style="fill:#EBEBEB;" d="M382.165,283.268c0,0,1.983-2.598-0.921-2.92c-2.904-0.322-15.915,3.151-12.885,16.14
				c0,0,15.852-1.191,16.531-6.587C385.57,284.505,382.165,283.268,382.165,283.268z"/>
		</g>
		<polygon style="fill:#F0F0F0;" points="422.867,381.623 390.893,381.623 382.389,342.396 430.564,342.396 		"/>
		<rect x="379.488" y="341.828" style="fill:#E6E6E6;" width="53.851" height="11.28"/>
	</g>
</g>
<g id="Background_simple" style="display:none;">
	<g style="display:inline;">
		<path style="fill:#407BFF;" d="M78.585,232.562c4.433,13.961,13.871,27.424,28.676,39.365
			c17.449,14.073,44.632,28.452,80.187,24.205c65.64-7.841,66.836-45.454,110.971-37.944c49.993,8.507,108.634,2.802,124.941-35.369
			C454.333,150.317,273.102,62.674,173.517,87.29C111.52,102.615,55.046,158.43,78.585,232.562z"/>
		<path style="opacity:0.9;fill:#FFFFFF;" d="M78.585,232.562c4.433,13.961,13.871,27.424,28.676,39.365
			c17.449,14.073,44.632,28.452,80.187,24.205c65.64-7.841,66.836-45.454,110.971-37.944c49.993,8.507,108.634,2.802,124.941-35.369
			C454.333,150.317,273.102,62.674,173.517,87.29C111.52,102.615,55.046,158.43,78.585,232.562z"/>
	</g>
</g>
<g id="Shadow">
	<g>
		<g>
			<ellipse style="fill:#F5F5F5;" cx="257.312" cy="416.816" rx="196.258" ry="30.221"/>
		</g>
	</g>
</g>
<g id="Dog">
	<g>
		<g>
			<path style="fill:#407BFF;" d="M274.91,290.813c0,0,10.6,8.299,12.025,11.414c1.425,3.115,5.284,19.115,5.284,19.115l2.231,0.486
				l13.538-11.192l1.9,21.331c0,0-8.003,10.995-19.393,9.099c-11.39-1.896-9.807-34.388-9.657-34.004
				c0.15,0.383-7.063-0.837-7.396-6.285C273.109,295.328,274.91,290.813,274.91,290.813z"/>
			<path style="opacity:0.6;fill:#FFFFFF;enable-background:new    ;" d="M274.91,290.813c0,0,10.6,8.299,12.025,11.414
				c1.425,3.115,5.284,19.115,5.284,19.115l2.231,0.486l13.538-11.192l1.9,21.331c0,0-8.003,10.995-19.393,9.099
				c-11.39-1.896-9.807-34.388-9.657-34.004c0.15,0.383-7.063-0.837-7.396-6.285C273.109,295.328,274.91,290.813,274.91,290.813z"/>
		</g>
		<path style="opacity:0.1;enable-background:new    ;" d="M294.45,321.827c-0.057,0.252,3.481,14.946,3.753,14.876
			c0.272-0.069,2.075-1.281,2.075-1.281l0.817,3.876l2.674-1.64l-5.436-16.583l-3.313-0.401L294.45,321.827z"/>
		<g id="freepik--Dog--inject-2_00000040539120039660790000000014980704190162213008_">
			<path style="fill:#407BFF;" d="M358.19,363.77l-35.331-6.852l4.029,12.225c-2.636-1.027-5.42-1.628-8.245-1.778
				c-6.218-0.51-14.202,0-17.858,5.733l1.244-0.846c-1.947,2.08-2.334,5.178-0.958,7.673l0.187-0.908
				c2.549,8.183,14.985,10.26,24.872,10.608c0,0-13.68,0.174-15.682,3.967s3.146,3.395,9.315,3.395h24.872
				c3.979,0,3.582-2.413,3.582-2.413s12.747,2.375,14.786-11.603C363.537,379.265,361.411,371.94,358.19,363.77z"/>
			<path style="opacity:0.4;fill:#FFFFFF;enable-background:new    ;" d="M358.19,363.77l-35.331-6.852l4.029,12.225
				c-2.636-1.027-5.42-1.628-8.245-1.778c-6.218-0.51-14.202,0-17.858,5.733l1.244-0.846c-1.947,2.08-2.334,5.178-0.958,7.673
				l0.187-0.908c2.549,8.183,14.985,10.26,24.872,10.608c0,0-13.68,0.174-15.682,3.967s3.146,3.395,9.315,3.395h24.872
				c3.979,0,3.582-2.413,3.582-2.413s12.747,2.375,14.786-11.603C363.537,379.265,361.411,371.94,358.19,363.77z"/>
			<path style="fill:#407BFF;" d="M381.085,381.093c12.834,7.735,31.923-19.114,13.431-39.796c0,0,12.722,1.99,15.309,14.724
				l1.393-5.372c0,0,9.153,16.391,0,27.086l5.372-1.43c0,0-12.436,26.974-40.43,14.513L381.085,381.093z"/>
			<path style="opacity:0.6;fill:#FFFFFF;enable-background:new    ;" d="M416.589,376.305L416.589,376.305
				c-0.311,0.659-12.834,26.8-40.43,14.5l4.974-9.725c1.803,1.085,3.921,1.524,6.007,1.244c11.677-1.418,23.156-23.492,7.462-41.039
				c0,0,12.722,1.99,15.309,14.724l1.405-5.372c0,0,9.141,16.378,0,27.086L416.589,376.305z"/>
			<path style="opacity:0.1;enable-background:new    ;" d="M416.589,376.318c-0.311,0.659-12.834,26.8-40.43,14.5l4.974-9.725
				c1.803,1.085,3.921,1.524,6.007,1.244c1.283,2.596,1.809,5.501,1.517,8.382C388.658,390.719,406.653,392.111,416.589,376.318z"/>
			<path style="fill:#407BFF;" d="M309.888,341.297c0,0,9.7,48.327,9.29,49.322c-0.41,0.995-9.141,1.057-7.661,6.38h14.786
				c0,0,1.791-1.803,0-5.982c-1.244-2.835,0-28.889,0-28.889c1.879-3.3,2.692-7.101,2.326-10.882
				C328.194,347.516,309.888,341.297,309.888,341.297z"/>
			<path style="opacity:0.6;fill:#FFFFFF;enable-background:new    ;" d="M309.888,341.297c0,0,9.7,48.327,9.29,49.322
				c-0.41,0.995-9.141,1.057-7.661,6.38h14.786c0,0,1.791-1.803,0-5.982c-1.244-2.835,0-28.889,0-28.889
				c1.879-3.3,2.692-7.101,2.326-10.882C328.194,347.516,309.888,341.297,309.888,341.297z"/>
			<path style="fill:#407BFF;" d="M297.589,318.042c0,0-1.318,8.158,0.871,14.923l2.263-3.383c0.635,4.735,2.235,9.289,4.701,13.381
				l0.883-3.01c0.187,0.323,0.373,0.634,0.572,0.945c11.192,17.784,18.182,56.099,18.182,56.099h26.116l30.73-30.332
				c-5.696-15.321-16.167-35.045-20.308-39.273c-17.933-18.53-31.55-13.68-32.918-39.795l-21.141-5.634
				c0,0-8.705,13.829-9.663,27.981c-1.118,3.459-1.681,7.073-1.667,10.707L297.589,318.042z"/>
			<path style="opacity:0.6;fill:#FFFFFF;enable-background:new    ;" d="M381.905,366.667l-30.742,30.394h-26.116
				c0,0-6.964-38.316-18.194-56.099c-0.199-0.311-0.386-0.622-0.572-0.945l-0.883,3.01c-2.466-4.092-4.066-8.646-4.701-13.381
				l-2.263,3.37c-2.176-6.753-0.858-14.923-0.858-14.923l-1.368,2.562c-0.008-3.658,0.567-7.293,1.704-10.77
				c0.933-14.152,9.663-27.981,9.663-27.981l9.041,2.4l12.1,3.221c0.094,4.41,0.909,8.775,2.413,12.921
				c4.887,12.225,16.341,12.287,30.493,26.912C365.689,331.56,376.21,351.284,381.905,366.667z"/>
			<g>
				<path style="fill:#263238;" d="M293.944,296.493c-4.855-1.822-9.46-11.004-9.446-14.704c0.014-3.7,12.019-28.977,23.524-23.872
					C308.022,257.918,298.799,298.316,293.944,296.493z"/>
				<path style="opacity:0.1;enable-background:new    ;" d="M299.704,300.082c0.882-4.159,1.972-5.992,2.665-10.945l10.296-6.43
					l10.6,3.478c0,0-4.076,10.906-21.646,14.245l1.989-1.989C301.175,299.083,302.052,299.177,299.704,300.082z"/>
				<path style="fill:#407BFF;" d="M279.879,281.831c-0.102,1.563,0.262,3.122,1.043,4.479v-0.876
					c0.942,2.26,2.44,4.246,4.354,5.773l-0.668-2.17c1.699,1.368,3.72,2.278,5.871,2.643l-0.139-0.626l0.264,0.097
					c11.073,3.617,22.967,4.201,34.389-3.951c9.028-6.441,3.812-17.765,1.21-22.258l2.295-0.89
					c-0.473-4.313-6.747-8.138-14.203-7.206c-6.093,0.779-9.181-1.822-9.181-1.822c-0.061,0.699,0.231,1.383,0.779,1.822
					c-2.727-0.278-4.605-3.325-4.605-3.325c-0.599,2.068,0.157,4.29,1.892,5.564c-1.146,0.216-2.24,0.646-3.227,1.266
					c-4.452,3.172-5.537,7.122-6.622,8.347c-1.085,1.224-8.875,2.101-13.424,3.77c-1.586,0.598-2.017,5.078,0.125,9.64
					L279.879,281.831z"/>
				<path style="opacity:0.6;fill:#FFFFFF;enable-background:new    ;" d="M279.879,281.831c-0.102,1.563,0.262,3.122,1.043,4.479
					v-0.876c0.942,2.26,2.44,4.246,4.354,5.773l-0.668-2.17c1.699,1.368,3.72,2.278,5.871,2.643l-0.139-0.626l0.264,0.097
					c11.073,3.617,22.967,4.201,34.389-3.951c9.028-6.441,3.812-17.765,1.21-22.258l2.295-0.89
					c-0.473-4.313-6.747-8.138-14.203-7.206c-6.093,0.779-9.181-1.822-9.181-1.822c-0.061,0.699,0.231,1.383,0.779,1.822
					c-2.727-0.278-4.605-3.325-4.605-3.325c-0.599,2.068,0.157,4.29,1.892,5.564c-1.146,0.216-2.24,0.646-3.227,1.266
					c-4.452,3.172-5.537,7.122-6.622,8.347c-1.085,1.224-8.875,2.101-13.424,3.77c-1.586,0.598-2.017,5.078,0.125,9.64
					L279.879,281.831z"/>
				<path style="fill:#263238;" d="M329.125,298.9c5.119-0.918,11.338-9.112,11.964-12.757c0.626-3.645-6.608-30.674-18.85-27.725
					C322.239,258.418,324.006,299.818,329.125,298.9z"/>
				<path style="fill:#263238;" d="M307.347,267.557c0.946,0,1.751,1.314,1.751,2.942s-0.823,2.942-1.751,2.942
					c-0.928,0-1.751-1.314-1.751-2.942S306.401,267.557,307.347,267.557z"/>
				<path style="fill:#263238;" d="M296.897,265.252c0.892,0.207,1.354,1.545,1.035,2.978c-0.319,1.433-1.274,2.437-2.182,2.246
					c-0.908-0.191-1.37-1.529-1.051-2.962C295.018,266.065,296.005,265.045,296.897,265.252z"/>
				<path style="fill:#263238;" d="M281.117,277.324c0,0-2.226-4.118-0.556-4.716c1.943-0.32,3.884,0.579,4.897,2.268
					C286.014,276.879,281.117,277.324,281.117,277.324z"/>
			</g>
			<path style="opacity:0.1;enable-background:new    ;" d="M332.671,347.516c0.249,3.153,0.001,6.325-0.734,9.402l-1.356-1.691
				c-0.309,3.125-1.87,5.992-4.328,7.947l-0.199,5.982c-3.073,1.896-4.822,5.356-4.527,8.954c0.473,4.514,4.8,7.325,4.8,7.325
				l0.41,6.691c0,0,1.244,3.208-0.41,4.887h18.356l4.887-27.857c-5.128-3.56-11.39-5.101-17.585-4.328
				C331.987,364.827,336.551,356.171,332.671,347.516z"/>
			<path style="fill:#407BFF;" d="M380.774,363.77l-35.331-6.852l4.029,12.225c-2.636-1.027-5.42-1.628-8.245-1.778
				c-6.28-0.51-14.202,0-17.858,5.733l1.244-0.846c-1.947,2.08-2.334,5.178-0.958,7.673l0.187-0.908
				c2.487,8.183,14.998,10.26,24.872,10.608c0,0-13.68,0.174-15.682,3.967s3.159,3.395,9.315,3.395h24.872
				c3.979,0,3.582-2.413,3.582-2.413s12.747,2.375,14.786-11.603C386.171,379.265,384.057,371.94,380.774,363.77z"/>
			<path style="opacity:0.6;fill:#FFFFFF;enable-background:new    ;" d="M380.774,363.77l-35.331-6.852l4.029,12.225
				c-2.636-1.027-5.42-1.628-8.245-1.778c-6.28-0.51-14.202,0-17.858,5.733l1.244-0.846c-1.947,2.08-2.334,5.178-0.958,7.673
				l0.187-0.908c2.487,8.183,14.998,10.26,24.872,10.608c0,0-13.68,0.174-15.682,3.967s3.159,3.395,9.315,3.395h24.872
				c3.979,0,3.582-2.413,3.582-2.413s12.747,2.375,14.786-11.603C386.171,379.265,384.057,371.94,380.774,363.77z"/>
			<path style="fill:#407BFF;" d="M299.603,300.756c9.841,5.152,21.724,4.439,30.879-1.853c0.067-0.069,0.178-0.07,0.246-0.003
				c0.001,0.001,0.002,0.002,0.003,0.003l1.244,2.736c0.062,0.125,0.037,0.275-0.062,0.373c-1.617,1.642-15.197,14.476-33.304,3.072
				c-0.294-0.183-0.439-0.533-0.361-0.871l0.783-3.283c0.081-0.197,0.306-0.292,0.503-0.211
				C299.558,300.729,299.582,300.741,299.603,300.756z"/>
			<path style="fill:#FFFFFF;" d="M311.167,307.399l2.146,2.146c0.729,0.729,0.729,1.91,0,2.638l-2.146,2.146
				c-0.728,0.728-1.91,0.728-2.638,0l-2.146-2.146c-0.729-0.729-0.729-1.91,0-2.638l2.146-2.146
				C309.257,306.671,310.439,306.671,311.167,307.399z"/>
		</g>
		<path style="fill:none;stroke:#263238;stroke-width:0.5;stroke-linecap:round;stroke-linejoin:round;stroke-miterlimit:10;" d="
			M281.301,276.763c0.443,1.94-0.14,4.169,0.971,5.819c0.575,0.853,1.514,1.386,2.46,1.789c2.084,0.888,4.409,1.293,6.642,0.908
			s4.356-1.606,5.617-3.488"/>
		<path style="fill:none;stroke:#263238;stroke-width:0.5;stroke-linecap:round;stroke-linejoin:round;stroke-miterlimit:10;" d="
			M280.337,281.256c0-0.049,0.082,0.731,0.606,0.792c0.2,0.023,0.789-0.343,0.789-0.718"/>
		<path style="fill:none;stroke:#263238;stroke-width:0.75;stroke-linecap:round;stroke-linejoin:round;stroke-miterlimit:10;" d="
			M307.755,262.218c1.782-0.37,3.725,0.144,5.09,1.347"/>
		<path style="fill:none;stroke:#263238;stroke-width:0.75;stroke-linecap:round;stroke-linejoin:round;stroke-miterlimit:10;" d="
			M294.722,260.2c1.782-0.37,3.725,0.144,5.091,1.347"/>
		<path style="fill:none;stroke:#263238;stroke-linecap:round;stroke-linejoin:round;stroke-miterlimit:10;" d="M412.559,339.108
			c7.06,3.518,12.155,10.716,13.124,18.544"/>
		<path style="fill:none;stroke:#263238;stroke-linecap:round;stroke-linejoin:round;stroke-miterlimit:10;" d="M422.313,339.48
			c2.812,2.421,5.07,5.494,6.548,8.899"/>
	</g>
</g>
<g id="Speech_Bubble">
	<g>
		<g>
			<g>
				<g>
					<path style="fill:#407BFF;" d="M247.448,191.977c7.734-13.31,3.214-30.369-10.096-38.103
						c-13.31-7.734-30.37-3.214-38.104,10.096c-5.971,10.275-4.613,22.769,2.43,31.497l-1.359,8.26l8.637-1.906
						c0.133,0.08,0.253,0.174,0.388,0.252C222.654,209.808,239.714,205.287,247.448,191.977z"/>
				</g>
			</g>
			<g>
				<path style="fill:#FFFFFF;" d="M220.728,190.078c-0.703-0.677-1.054-1.501-1.054-2.473c0-0.971,0.345-1.782,1.035-2.434
					c0.69-0.652,1.572-0.977,2.645-0.977c1.073,0,1.955,0.326,2.645,0.977c0.69,0.652,1.035,1.463,1.035,2.434
					c0,0.972-0.351,1.796-1.054,2.473c-0.703,0.677-1.579,1.016-2.626,1.016C222.306,191.093,221.43,190.755,220.728,190.078z
					 M219.789,163.954h7.13l-1.188,17.518h-4.753L219.789,163.954z"/>
			</g>
		</g>
		<path style="fill:none;stroke:#407BFF;stroke-linecap:round;stroke-linejoin:round;stroke-miterlimit:10;" d="M211.055,149.86
			c8.711-4.336,19.753-3.545,27.757,1.988"/>
	</g>
</g>
<g id="Character">
	<g>
		<g>
			<g>
				<path style="fill:#FDBBB5;" d="M249.041,298.451l7.055-20.37c0,0,2.759-1.732,2.739,6.653
					c-0.013,5.342,1.667,21.522-2.748,24.781c-4.556,3.364-14.878,8.494-14.878,8.494s-7.94-11.299-6.81-11.808
					c1.13-0.509,13.423-4.535,13.423-4.535"/>
				
					<path style="fill:#FDBBB5;stroke:#DE7E73;stroke-width:0.5;stroke-linecap:round;stroke-linejoin:round;stroke-miterlimit:10;" d="
					M254.127,297.934c0.036-0.196,2.268-9.525,2.201-9.501c-0.067,0.024,1.624-2.26,2.829,1.56c1.205,3.82-0.545,5.951,0.312,7.791
					c0.857,1.84,2.579,6.029-2.11,10.355"/>
			</g>
			<path style="fill:#407BFF;" d="M183.928,262.638c2.053,1.358,29.429,44.045,29.429,44.045l33.924-5.526l7.683,14.291
				c0,0-19.987,15.395-38.069,20.492s-30.811-26.41-31.102-24.832C185.502,312.685,183.928,262.638,183.928,262.638z"/>
		</g>
		<g>
			<polygon style="fill:#FDBBB5;" points="276.279,439.731 280.959,425.722 247.1,406.833 239.741,428.091 			"/>
			<g>
				<path style="fill:#263238;" d="M276.783,420.831l-2.485,4.623c-0.562,1.046-0.553,2.298-0.041,3.37
					c2.208,4.623-0.245,5.887-5.226,6.947c-1.206,1.728,0.643,3.361,1.131,3.817l10.714,10.213c0.888,0.864,2.309,0.845,3.174-0.044
					c0.154-0.158,0.283-0.338,0.385-0.534c3.017-5.614,4.445-8.27,8.2-15.258l11.485-21.37c3.131-5.825-2.091-10.188-3.924-8.08
					c-8.184,9.509-15.466,15.443-20.398,17.092C278.917,421.93,278.847,421.074,276.783,420.831z"/>
				<path style="fill:#407BFF;" d="M285.75,412.72c-0.089-0.674-0.492-1.267-1.087-1.596c-0.3-0.214-0.695-0.237-1.018-0.061
					c-1.805,0.897-2.21,8.129-2.242,8.949c-0.013,0.086,0.013,0.173,0.071,0.238c0.108,0.119,0.292,0.129,0.411,0.022
					c1.099-1.24,2.067-2.591,2.886-4.031C285.464,415.201,285.807,413.968,285.75,412.72z M283.887,411.661
					c0.136-0.078,0.307-0.064,0.428,0.036c0.419,0.257,0.708,0.681,0.793,1.166c0.275,1.84-1.851,4.783-3.084,6.317
					C282.258,416.212,282.899,412.161,283.887,411.661z"/>
				<path style="fill:#407BFF;" d="M282.051,420.108c0.208-2.125-0.689-7.295-2.304-7.91c-0.333-0.14-0.832-0.116-1.359,0.611
					c-2.066,2.975,2.894,7.391,3.136,7.521c0.081,0.084,0.203,0.111,0.312,0.07c0.049-0.05,0.083-0.113,0.097-0.181L282.051,420.108
					z M278.799,413.167c0.377-0.556,0.588-0.443,0.663-0.402c1.01,0.329,1.96,4.243,1.942,6.665
					c-1.117-1.106-3.813-4.053-2.734-6.06L278.799,413.167z"/>
				<path style="fill:none;stroke:#407BFF;stroke-width:0.5;stroke-linecap:round;stroke-linejoin:round;stroke-miterlimit:10;" d="
					M282.076,419.539c-0.638,1.709-0.481,3.698,0.419,5.285"/>
				<path style="fill:none;stroke:#407BFF;stroke-width:0.5;stroke-linecap:round;stroke-linejoin:round;stroke-miterlimit:10;" d="
					M285.783,417.828c-0.639,1.709-0.481,3.698,0.419,5.285"/>
				<path style="fill:none;stroke:#407BFF;stroke-width:0.5;stroke-linecap:round;stroke-linejoin:round;stroke-miterlimit:10;" d="
					M289.522,415.231c-0.639,1.709-0.481,3.698,0.419,5.285"/>
			</g>
			<polygon style="opacity:0.3;" points="264.995,416.816 269.148,419.132 262.7,435.405 257.841,433.857 			"/>
			<path style="fill:#263238;" d="M170.893,345.738l16.893,10.326c21.69,1.073,94.988,1.679,95.204,27.754
				c7.194,30.735-59.18,27.808-103.304,28.238c-0.299,0.003-0.557,0.185-0.733,0.461c-0.39,0.612-4.671,2.806-10.139,3.675
				c-6.736,1.07-22.145,2.006-32.044,0.44c-17.075-2.7-21.999-18.919-18.732-41.732c1.343-9.375,6.522-16.987,8.096-28.668
				L170.893,345.738z"/>
			<path style="opacity:0.2;enable-background:new    ;" d="M124.603,380.43l0.106,1.064c0,0,55.82-9.242,89.827,13.109
				c0,0,36.851-9.042,44.343-15.92c-40.818,21.475-77.372-3.39-77.372-3.39l-18.007-8.046
				C148.788,360.673,133.973,365.694,124.603,380.43z"/>
			<polygon style="fill:#FDBBB5;" points="187.803,416.583 194.249,429.873 231.666,419.713 222.069,399.367 			"/>
			<g>
				<path style="fill:#263238;" d="M202.506,429.59l-3.088-4.244c-0.699-0.96-1.831-1.495-3.019-1.499
					c-5.123-0.015-5.198-2.773-3.993-7.722c-1.034-1.835-3.308-0.878-3.93-0.636l-13.848,5.226
					c-1.164,0.426-1.763,1.715-1.337,2.879c0.076,0.207,0.182,0.402,0.314,0.578c3.751,5.153,5.525,7.592,10.193,14.006
					l14.276,19.616c3.892,5.347,10.087,2.534,8.983-0.032c-5.02-11.498-7.209-20.633-6.556-25.792
					C200.59,431.036,201.392,431.344,202.506,429.59z"/>
				<path style="fill:#407BFF;" d="M205.926,441.187c0.646,0.213,1.355,0.106,1.91-0.288c0.322-0.177,0.515-0.523,0.496-0.891
					c-0.026-2.016-6.367-5.517-7.091-5.901c-0.072-0.049-0.162-0.063-0.246-0.039c-0.154,0.045-0.243,0.207-0.198,0.362
					c0.64,1.529,1.438,2.986,2.381,4.349C203.814,439.854,204.777,440.698,205.926,441.187z M207.688,439.968
					c0.012,0.157-0.075,0.304-0.218,0.37c-0.413,0.267-0.921,0.343-1.395,0.21c-1.777-0.55-3.507-3.741-4.355-5.518
					C204.293,436.527,207.666,438.861,207.688,439.968z"/>
				<path style="fill:#407BFF;" d="M200.873,434.651c1.824,1.109,6.872,2.542,8.127,1.354c0.271-0.239,0.466-0.699,0.039-1.49
					c-1.785-3.151-7.915-0.597-8.136-0.436c-0.11,0.036-0.189,0.135-0.199,0.251c0.023,0.066,0.065,0.124,0.121,0.166
					L200.873,434.651z M208.538,434.73c0.338,0.581,0.144,0.722,0.075,0.772c-0.734,0.767-4.673-0.074-6.848-1.14
					c1.481-0.527,5.305-1.678,6.646,0.164L208.538,434.73z"/>
				<path style="fill:none;stroke:#407BFF;stroke-width:0.5;stroke-linecap:round;stroke-linejoin:round;stroke-miterlimit:10;" d="
					M201.375,434.92c-1.263-1.316-3.123-2.037-4.944-1.914"/>
				<path style="fill:none;stroke:#407BFF;stroke-width:0.5;stroke-linecap:round;stroke-linejoin:round;stroke-miterlimit:10;" d="
					M201.309,439.002c-1.263-1.317-3.124-2.037-4.944-1.914"/>
				<path style="fill:none;stroke:#407BFF;stroke-width:0.5;stroke-linecap:round;stroke-linejoin:round;stroke-miterlimit:10;" d="
					M202.028,443.498c-1.263-1.317-3.123-2.037-4.944-1.914"/>
			</g>
			<path style="fill:#263238;" d="M266.174,415.617c0,0-85.93-48.104-115.443-49.018c-29.513-0.914-32.858,21.359-22.001,38.502
				c10.857,17.143,38.096,8.833,38.096,8.833s-21.548-5.453-18.88-11.296c2.668-5.843,10.627,3.224,10.627,3.224
				s52.207,21.437,98.793,29.035L266.174,415.617z"/>
			<polygon style="opacity:0.2;enable-background:new    ;" points="221.897,391.804 249.556,407.768 252.476,407.458 
				226.297,390.966 			"/>
			<path style="opacity:0.2;enable-background:new    ;" d="M178.004,413.209c0,0-27.872-11.058-27.563-11.058
				c0.309,0,17.565,12.934,23.215,12.873L178.004,413.209z"/>
		</g>
		<g>
			<path style="fill:#407BFF;" d="M116.844,279.701c5.315,15.963,5.565,52.038,3.682,71.966l60.269-0.383
				c10.364-39.757,6.865-67.651,5.982-76.965c-1.1-11.331-2.849-11.764-2.849-11.764s-12.297-1.2-22.994-1.116
				c-8.284,0.31-16.536,1.207-24.694,2.683c-6.069,1.014-12.077,2.365-17.996,4.049c-2.54,0.723-4.014,3.368-3.291,5.908
				c0.023,0.081,0.048,0.161,0.075,0.24C115.661,276.102,116.278,277.935,116.844,279.701z"/>
			<path style="opacity:0.6;fill:#FFFFFF;enable-background:new    ;" d="M180.796,351.284l-36.341,0.233l-23.928,0.15
				c1.57-18.565,1.408-37.235-0.483-55.77c-0.543-5.489-1.614-10.913-3.199-16.196c-0.567-1.766-1.183-3.599-1.816-5.466
				c-0.855-2.499,0.477-5.218,2.975-6.073c0.08-0.027,0.16-0.052,0.24-0.075c5.92-1.655,11.928-2.979,17.996-3.966
				c8.16-1.448,16.412-2.317,24.694-2.599c10.697-0.083,22.994,1.117,22.994,1.117s1.75,0.433,2.849,11.764
				C187.661,283.633,191.16,311.526,180.796,351.284z"/>
			<path style="opacity:0.2;enable-background:new    ;" d="M120.527,351.667c1.57-18.565,1.408-37.235-0.483-55.77
				c7.415,10.531,20.462,31.776,24.411,55.62L120.527,351.667z"/>
			<path style="fill:#DE7E73;" d="M130.924,266.237c-3.066,4.382,34.625,11.431,34.625,11.431s22.061-14.313-3.699-16.546
				C156.601,260.655,135.773,259.356,130.924,266.237z"/>
			<path style="fill:#407BFF;" d="M166.782,285.783c0,0,20.312-16.763,9.798-26.794c-10.514-10.031-59.986-14.513-55.803,8.331
				c0,0,6.365-1.883,12.797,4.249C147.12,284.533,166.782,285.783,166.782,285.783z"/>
			<path style="opacity:0.2;enable-background:new    ;" d="M165.083,280.967c0,0,11.497-8.931,7.448-16.979
				c-4.049-8.048-27.977-16.863-45.123-5.765c4.111,2.107,7.931,4.74,11.364,7.832C145.571,271.869,165.083,280.967,165.083,280.967
				z"/>
			<path style="opacity:0.2;enable-background:new    ;" d="M160.717,282.1c0.009,0.635-0.498,1.157-1.133,1.166
				c-0.635,0.009-1.157-0.498-1.166-1.133c-0.009-0.635,0.498-1.157,1.133-1.166c0.011,0,0.022,0,0.033,0
				C160.206,280.976,160.708,281.478,160.717,282.1z"/>
			<path style="opacity:0.2;enable-background:new    ;" d="M172.181,278.801c0.009,0.626-0.491,1.14-1.116,1.15
				c-0.006,0-0.011,0-0.017,0c-0.63,0.076-1.203-0.373-1.28-1.003c-0.076-0.63,0.373-1.203,1.003-1.28
				c0.092-0.011,0.185-0.011,0.276,0C171.674,277.668,172.181,278.175,172.181,278.801z"/>
			<path style="fill:#263238;" d="M182.862,290.298c0.009,0.635-0.498,1.157-1.133,1.166c-0.635,0.009-1.157-0.498-1.166-1.133
				c-0.009-0.635,0.498-1.157,1.133-1.166c0.006,0,0.011,0,0.017,0C182.341,289.165,182.853,289.67,182.862,290.298z"/>
			<path style="fill:#263238;" d="M158.118,296.164c0,0.626-0.507,1.133-1.133,1.133c-0.626,0-1.133-0.507-1.133-1.133
				c0-0.626,0.507-1.133,1.133-1.133l0,0C157.61,295.03,158.118,295.538,158.118,296.164z"/>
			<path style="fill:#263238;" d="M181.446,290.781L181.446,290.781c0,0-4.449-0.6-5.215-6.282c-0.09-2.748-2.349-4.926-5.099-4.915
				c-0.233,0-0.433-0.167-0.433-0.4c-0.018-0.22,0.145-0.413,0.365-0.432c0.011-0.001,0.023-0.001,0.035-0.001
				c3.165,0.003,5.78,2.472,5.965,5.632c0.667,4.999,4.449,5.565,4.482,5.582c0.224,0.026,0.386,0.225,0.367,0.45
				C181.878,290.641,181.673,290.802,181.446,290.781z"/>
			<path style="fill:#263238;" d="M156.985,296.164c-0.224,0-0.408-0.176-0.417-0.4c-0.091-2.924,0.982-5.764,2.983-7.898
				c0.784-0.689,1.249-1.672,1.283-2.716c-0.086-1.047-0.533-2.031-1.266-2.783c-0.188-0.133-0.232-0.393-0.098-0.581
				c0.133-0.187,0.393-0.232,0.581-0.098c0.032,0.022,0.06,0.049,0.084,0.079c0.903,0.885,1.448,2.071,1.533,3.333
				c-0.026,1.272-0.575,2.477-1.516,3.332c-1.824,1.967-2.81,4.567-2.749,7.248c0.01,0.227-0.157,0.424-0.383,0.45L156.985,296.164z
				"/>
			<g style="opacity:0.2;enable-background:new    ;">
				<path d="M172.585,311.476c0,0-10.312,8.591-16.733,10.292C155.852,321.768,167.546,323.804,172.585,311.476z"/>
			</g>
		</g>
		<g>
			<path style="fill:#407BFF;" d="M116.301,269.19c-1.038,0.372-7.785,6.011-7.461,19.223c0.476,19.367,5.246,59.492,7.461,63.255
				c2.214,3.763,60.832,20.196,61.703,21.148c0.87,0.952,3.91-10.228,3.91-10.228l-45.131-28.627c0,0-2.669-40.336-3.733-46.386
				C131.986,281.525,128.91,264.668,116.301,269.19z"/>
			<path style="fill:#FDBBB5;" d="M181.399,364.407l2.529,1.137c0,0,11.946-0.943,14.975,2.076
				c3.029,3.02,4.728,16.797,4.728,16.797l-25.627-11.602L181.399,364.407z"/>
		</g>
		<g>
			<path style="fill:#263238;" d="M167.632,208.168c-0.097-0.004-0.191-0.039-0.267-0.1c-0.159-0.162-0.159-0.421,0-0.583
				c3.22-4.094,2.869-9.95-0.816-13.63c-6.332-6.748-15.78-1.016-15.88-0.966c-0.174,0.15-0.438,0.13-0.587-0.045
				c-0.15-0.174-0.13-0.437,0.045-0.587c0.033-0.028,0.07-0.051,0.109-0.068c0.1,0,10.131-6.149,16.929,1.1
				c3.905,4.01,4.267,10.28,0.85,14.713C167.921,208.114,167.779,208.176,167.632,208.168z"/>
			<path style="fill:#263238;" d="M166.949,208.668c-0.139-0.001-0.27-0.069-0.35-0.183c-0.12-0.189-0.068-0.44,0.117-0.567
				c0,0,4.349-2.966,4.832-6.915c0.183-2.045-0.563-4.064-2.033-5.499c-0.166-0.16-0.171-0.423-0.011-0.589
				c0.004-0.004,0.007-0.007,0.011-0.011c0.168-0.161,0.432-0.161,0.6,0c1.636,1.614,2.462,3.877,2.249,6.165
				c-0.533,4.332-4.999,7.365-5.199,7.498C167.106,208.623,167.03,208.658,166.949,208.668z"/>
			<path style="fill:#263238;" d="M129.213,249.141c-3.148,0.268-6.237-0.968-8.331-3.333c-0.159-0.162-0.159-0.421,0-0.583
				c0.151-0.161,0.404-0.169,0.565-0.018c0.006,0.006,0.012,0.012,0.018,0.018c4.682,6.099,17.946,0.916,18.079,0.866
				c0.212-0.089,0.456,0.01,0.545,0.223c0.001,0.003,0.003,0.007,0.005,0.011c0.087,0.203-0.008,0.438-0.211,0.525
				c-0.007,0.003-0.015,0.006-0.022,0.009C136.464,248.208,132.865,248.98,129.213,249.141z"/>
			<path style="fill:#263238;" d="M169.039,211.067c0.95-8.287-4.408-15.988-12.508-17.979c-14.5-4.38-29.459,10.025-29.459,10.025
				s-11.258,46.426,19.908,43.927C178.147,244.543,169.039,211.067,169.039,211.067z"/>
			<path style="fill:#FDBBB5;" d="M138.611,264.682c0,0,5.87,3.135,13.531,7.795c1.596,0.97,3.306,1.755,5.077,2.349
				c4.779,1.602,9.003,2.27,9.735-0.027c0.163-0.505,0.265-1.04,0.314-1.592c0.331-3.698-0.876-8.618-4.121-10.422
				c-3.658-2.034-5.582-3.975-5.579-7.553c-0.023-2.024,0.352-4.18,0.858-6.298l-4.103-1.619l-15.529-11.207
				C141.684,244.083,144.805,258.653,138.611,264.682z"/>
			<path style="opacity:0.2;" d="M157.587,256.013c-4.018-1.562-8.657-4.66-8.892-9.042c-0.087-1.847,0.018-3.628,0.269-4.801
				l9.064,8.598C157.682,252.455,157.634,253.54,157.587,256.013z"/>
			<path style="fill:#FDBBB5;" d="M133.7,221.408c3.525,13.453,4.73,19.207,12.972,25.197c12.397,9.011,28.108,2.671,28.663-11.338
				c0.5-12.609-5.348-32.491-19.715-36.001C141.466,195.809,130.176,207.955,133.7,221.408z"/>
			<path style="fill:#263238;" d="M152.858,222.97c0.308,1.434,1.288,2.491,2.19,2.36c0.902-0.131,1.383-1.4,1.075-2.834
				c-0.307-1.434-1.288-2.491-2.189-2.36C153.032,220.267,152.55,221.535,152.858,222.97z"/>
			<path style="fill:#263238;" d="M166.723,220.442c0.301,1.389,1.274,2.41,2.172,2.28c0.899-0.131,1.384-1.363,1.083-2.752
				c-0.301-1.389-1.274-2.41-2.173-2.279C166.907,217.82,166.423,219.052,166.723,220.442z"/>
			<path style="fill:#263238;" d="M147.3,214.919c0.177-0.01,0.345-0.09,0.46-0.237c1.78-2.299,4.264-2.009,4.293-2.006
				c0.368,0.044,0.69-0.214,0.711-0.586c0.02-0.371-0.266-0.71-0.639-0.759c-0.13-0.016-3.248-0.383-5.457,2.471
				c-0.22,0.284-0.154,0.712,0.147,0.955C146.961,214.875,147.134,214.928,147.3,214.919z"/>
			<path style="fill:#263238;" d="M168.992,209.207c0.13-0.069,0.227-0.19,0.263-0.35c0.073-0.33-0.145-0.698-0.485-0.821
				c-3.415-1.236-5.507,0.484-5.595,0.559c-0.247,0.209-0.249,0.608-0.003,0.891c0.245,0.283,0.644,0.343,0.892,0.136
				c0.081-0.069,1.726-1.375,4.441-0.392C168.68,209.294,168.854,209.28,168.992,209.207z"/>
			<path style="fill:#DE7E73;" d="M161.826,220.572c0,0,2.988,4.758,5.93,7.545c0.514,0.487,0.389,1.344-0.227,1.694
				c-1.584,0.901-3.651,0.668-3.651,0.668L161.826,220.572z"/>
			<path style="fill:#263238;" d="M153.428,220.134l3.012-1.262C156.441,218.872,155.115,221.495,153.428,220.134z"/>
			<path style="fill:#263238;" d="M167.342,217.819l3.012-1.263C170.355,216.557,169.029,219.18,167.342,217.819z"/>
			<path style="fill:#263238;" d="M143.219,221.815c0,0,3.679-10.414-2.214-16.739c0,0,23.945-11.311,31.578,12.603
				c0,0-1.26-23.487-24.8-21.829c-23.54,1.658-19.663,39.793-6.573,48.874C141.228,244.757,139.999,229.222,143.219,221.815z"/>
			<path style="fill:#FDBBB5;" d="M131.42,233.23c2.08,2.533,4.995,3.856,7.499,4.059c3.767,0.305,4.667-5.82,2.83-9.237
				c-1.654-3.077-5.567-4.644-8.967-3.347C129.431,225.982,129.042,230.333,131.42,233.23z"/>
			
				<path style="opacity:0.2;fill:none;stroke:#000000;stroke-width:0.5;stroke-linecap:round;stroke-linejoin:round;stroke-miterlimit:10;" d="
				M138.941,231.23c-0.301-1.279-1.127-2.427-2.244-3.12c-1.117-0.693-2.512-0.923-3.792-0.626"/>
			<path style="fill:#263238;" d="M165.549,234.712c-0.625,1.572-1.137,3.187-1.533,4.832h-0.9c-4.049-0.35-5.799-1.85-6.532-3.333
				c-0.34-0.764-0.489-1.599-0.433-2.433c0.014-0.475,0.093-0.946,0.233-1.4c2.401,1.328,5.061,2.118,7.798,2.316
				C165.016,234.678,165.549,234.712,165.549,234.712z"/>
			<path style="fill:#FFFFFF;" d="M164.183,234.562l-0.5,1.416c-3.799-0.333-6.449-1.083-7.532-2.333
				c0.014-0.475,0.093-0.946,0.233-1.4C158.786,233.574,161.446,234.364,164.183,234.562z"/>
			<path style="fill:#D7504D;" d="M163.117,239.477c-4.049-0.35-5.799-1.85-6.532-3.333c1.537,0.159,3.033,0.594,4.416,1.283
				C161.901,237.876,162.64,238.592,163.117,239.477z"/>
			<path style="fill:#263238;" d="M129.241,203.604c0,0,6.798-10.814-4.749-15.113c-11.547-4.299-22.728,10.581-15.813,20.862
				c3.865,5.934,11.192,8.592,17.962,6.515L129.241,203.604z"/>
			<path style="fill:#263238;" d="M129.991,202.555c-0.096,0.009-0.192-0.021-0.267-0.083c-0.161-0.151-0.169-0.404-0.018-0.565
				c0.006-0.006,0.012-0.012,0.018-0.018c0.3-0.35,6.998-8.648,0.816-13.83c-0.159-0.162-0.159-0.421,0-0.583
				c0.151-0.161,0.404-0.169,0.565-0.018c0.006,0.006,0.012,0.012,0.018,0.018c6.832,5.699-0.633,14.897-0.7,14.997
				C130.308,202.58,130.14,202.612,129.991,202.555z"/>
			<path style="fill:#263238;" d="M117.611,218.617c-6.851-0.273-12.183-6.047-11.91-12.897c0.027-0.678,0.109-1.352,0.246-2.016
				c0.716-3.649,2.966-6.032,6.032-6.365c0.218-0.037,0.424,0.109,0.462,0.327c0.002,0.013,0.004,0.027,0.005,0.04
				c0.02,0.224-0.143,0.424-0.367,0.45c-2.699,0.3-4.682,2.433-5.315,5.715c-0.972,4.848,1.218,9.783,5.465,12.314
				c7.582,4.066,10.364-0.816,10.464-1.016c0.11-0.202,0.362-0.277,0.565-0.168c0.001,0,0.001,0.001,0.002,0.001
				c0.196,0.101,0.274,0.342,0.173,0.539c-0.002,0.004-0.004,0.007-0.006,0.011C122.161,217.525,119.953,218.689,117.611,218.617z"
				/>
			<ellipse style="opacity:0.4;fill:#DE7E73;" cx="152.966" cy="228.345" rx="4.949" ry="1.95"/>
			<path style="opacity:0.4;fill:#DE7E73;" d="M173.909,229.443c-2.733,0-4.949-0.873-4.949-1.95c0-1.077,2.216-1.95,4.949-1.95
				h0.71l0.531,3.9H173.909z"/>
		</g>
	</g>
</g>
</svg>
